<svg xmlns="http://www.w3.org/2000/svg" viewBox="0 0 16 16">
  <path fill="#C0392B" d="M-1.3 3.8h18.5v8.4H-1.3z"/>
  <g fill="#F8F6BD">
    <path d="M1 2.9h9.3V5H1zM6.8 13.5c-.5 0-.9 0-1.4-.1C2.2 12.8.1 9.8.6 6.6l2.1.4c-.4 2 1 4 3 4.3 2 .4 4-1 4.3-3l2.1.4c-.4 2.6-2.7 4.6-5.3 4.8z"/>
  </g>
  <path fill="#C0392B" d="M10.3 6.1H1C.4 6.1-.1 5.6-.1 5V2.9c0-.6.5-1.1 1.1-1.1h9.3c.6 0 1.1.5 1.1 1.1V5c0 .6-.5 1.1-1.1 1.1z"/>
  <path fill="#C0392B" d="M6.4 14.6c-.4 0-.8 0-1.2-.1-3.8-.7-6.3-4.3-5.7-8 .1-.6.7-1 1.3-.9l2.1.4c.6.1 1 .7.9 1.3-.3 1.3.7 2.7 2.1 2.9.7.1 1.4 0 2-.4s1-1 1.1-1.7c.1-.6.7-1 1.3-.9l2.1.4c.6.1 1 .7.9 1.3-.3 1.5-1.1 3-2.2 4-1.2 1-2.6 1.6-4.2 1.7h-.5zm.4-1.1z"/>
  <path fill="#F8F6BD" d="M1 2.9h9.3V5H1zM6.8 13.5c-.5 0-.9 0-1.4-.1C2.2 12.8.1 9.8.6 6.6l2.1.4c-.4 2 1 4 3 4.3 2 .4 4-1 4.3-3l2.1.4c-.4 2.6-2.7 4.6-5.3 4.8z"/>
  <g>
    <path fill="#F8F6BD" d="M12.8 11.8l.2-1.4 1.5.2-.2 1.4-1.5-.2zm.9-7.5l1.7.2-.9 5.1-1.3-.2.5-5.1z"/>
    <path fill="#C0392B" d="M14.3 12.8h-.1l-1.5-.2c-.4-.1-.8-.5-.7-.9l.2-1.4c0-.2.1-.3.2-.5v-.3l.5-5.2c0-.2.1-.4.3-.6.2-.1.4-.2.6-.2l1.7.2c.2 0 .4.1.5.3.1.2.2.4.1.6l-.9 5.1c0 .1-.1.2-.1.3.1.2.1.3.1.5l-.2 1.4c0 .2-.1.4-.3.5 0 .3-.2.4-.4.4zm.2-7.5v.1-.1z"/>
    <path fill="#F8F6BD" d="M12.8 11.8l.2-1.4 1.5.2-.2 1.4-1.5-.2zm.9-7.5l1.7.2-.9 5.1-1.3-.2.5-5.1z"/>
  </g>
</svg>
