<?xml version="1.0" encoding="utf-8"?>
<!-- Generator: Adobe Illustrator 19.2.1, SVG Export Plug-In . SVG Version: 6.00 Build 0)  -->
<!DOCTYPE svg PUBLIC "-//W3C//DTD SVG 1.1//EN" "http://www.w3.org/Graphics/SVG/1.1/DTD/svg11.dtd">
<svg version="1.1" id="レイヤー_1" xmlns="http://www.w3.org/2000/svg" xmlns:xlink="http://www.w3.org/1999/xlink" x="0px"
	 y="0px" viewBox="0 0 16 16" enable-background="new 0 0 16 16" xml:space="preserve">
<rect x="-1.271" y="3.788" fill="#C0392B" width="18.542" height="8.424"/>
<g>
	<g>
		<path fill="#FAED00" d="M3.469,6.481C3.399,6.81,3.323,7.196,3.323,7.618c0,1.946,1.547,3.417,3.358,3.417
			c2.245,0,3.235-1.981,3.663-2.836l2.127,0.75c-0.316,0.639-0.75,1.436-1.278,2.028c-1.125,1.219-2.684,2.08-4.518,2.08
			c-2.901,0-5.602-2.186-5.602-5.374c0-0.715,0.111-1.266,0.182-1.629L3.469,6.481z M10.343,4.864H1.33V2.836h9.013L10.343,4.864
			L10.343,4.864z"/>
	</g>
	<g>
		<path fill="#C0392B" d="M6.669,14.117c-1.694,0-3.37-0.645-4.606-1.77C0.733,11.134,0,9.482,0,7.677
			c0-0.832,0.129-1.489,0.199-1.84c0.035-0.17,0.105-0.322,0.205-0.445C0.316,5.233,0.264,5.057,0.264,4.864V2.836
			c0-0.586,0.475-1.061,1.061-1.061h9.013c0.586,0,1.061,0.475,1.061,1.061v2.028c0,0.586-0.475,1.061-1.061,1.061H4.372
			C4.518,6.159,4.565,6.44,4.507,6.71C4.448,6.974,4.389,7.29,4.389,7.612c0,1.301,1.031,2.356,2.297,2.356
			c1.406,0,2.133-1.078,2.707-2.245c0.24-0.481,0.797-0.709,1.307-0.533l2.127,0.75c0.287,0.1,0.516,0.316,0.633,0.598
			s0.105,0.598-0.029,0.867c-0.492,0.996-0.949,1.717-1.442,2.274c-0.006,0.006-0.006,0.006-0.012,0.012
			C10.531,13.256,8.65,14.117,6.669,14.117z M2.139,7.308c-0.006,0.117-0.012,0.24-0.012,0.375c0,1.559,0.768,2.754,1.852,3.487
			c-0.141-0.111-0.275-0.229-0.404-0.357C2.731,9.968,2.262,8.837,2.262,7.624c0-0.1,0.006-0.193,0.006-0.287L2.139,7.308z
			 M10.847,9.505c-0.223,0.369-0.516,0.785-0.885,1.172c-0.035,0.041-0.076,0.076-0.117,0.117c0.193-0.164,0.381-0.34,0.557-0.527
			c0.176-0.193,0.352-0.44,0.533-0.727L10.847,9.505z"/>
	</g>
	<g>
		<path fill="#F8F6BD" d="M3.469,6.481C3.399,6.81,3.323,7.196,3.323,7.618c0,1.946,1.547,3.417,3.358,3.417
			c2.245,0,3.235-1.981,3.663-2.836l2.127,0.75c-0.316,0.639-0.75,1.436-1.278,2.028c-1.125,1.219-2.684,2.08-4.518,2.08
			c-2.901,0-5.602-2.186-5.602-5.374c0-0.715,0.111-1.266,0.182-1.629L3.469,6.481z M10.343,4.864H1.33V2.836h9.013L10.343,4.864
			L10.343,4.864z"/>
	</g>
</g>
<g>
	<g>
		<path fill="#FAED00" d="M14.646,10.355l-0.188,1.581l-1.59-0.193l0.188-1.581L14.646,10.355z M15.418,4.533l-0.859,5.151
			l-1.287-0.156l0.427-5.207L15.418,4.533z"/>
	</g>
	<g>
		<path fill="#C0392B" d="M14.457,12.768c-0.032,0-0.064,0-0.101-0.005l-1.59-0.193c-0.455-0.055-0.781-0.469-0.726-0.928
			l0.188-1.581c0.018-0.17,0.092-0.331,0.207-0.455c-0.005-0.046-0.005-0.097,0-0.142l0.427-5.207
			c0.018-0.225,0.129-0.432,0.303-0.579c0.175-0.142,0.4-0.207,0.625-0.184l1.719,0.207c0.225,0.028,0.432,0.147,0.565,0.326
			c0.138,0.184,0.193,0.414,0.156,0.634l-0.859,5.151c-0.005,0.032-0.014,0.064-0.023,0.097c0.097,0.156,0.142,0.34,0.119,0.538
			l-0.188,1.581c-0.028,0.221-0.138,0.418-0.312,0.556C14.825,12.708,14.641,12.768,14.457,12.768z"/>
	</g>
	<g>
		<path fill="#F8F6BD" d="M14.646,10.355l-0.188,1.581l-1.59-0.193l0.188-1.581L14.646,10.355z M15.418,4.533l-0.859,5.151
			l-1.287-0.156l0.427-5.207L15.418,4.533z"/>
	</g>
</g>
<g>
</g>
<g>
</g>
<g>
</g>
<g>
</g>
<g>
</g>
<g>
</g>
<g>
</g>
<g>
</g>
<g>
</g>
<g>
</g>
<g>
</g>
<g>
</g>
<g>
</g>
<g>
</g>
<g>
</g>
</svg>
