<?xml version="1.0" encoding="utf-8"?>
<!-- Generator: Adobe Illustrator 19.2.1, SVG Export Plug-In . SVG Version: 6.00 Build 0)  -->
<!DOCTYPE svg PUBLIC "-//W3C//DTD SVG 1.1//EN" "http://www.w3.org/Graphics/SVG/1.1/DTD/svg11.dtd">
<svg version="1.1" id="レイヤー_1" xmlns="http://www.w3.org/2000/svg" xmlns:xlink="http://www.w3.org/1999/xlink" x="0px"
	 y="0px" viewBox="0 0 800 800" enable-background="new 0 0 800 800" xml:space="preserve">
<g>
	<g>
		<path fill="none" stroke="#3BBDEA" stroke-width="36" stroke-miterlimit="10" d="M727,288L555.653,459.347
			c-3.889,3.889-11.571,7.071-17.071,7.071H432.014"/>
	</g>
	
		<line fill="none" stroke="#8DBF2C" stroke-width="36" stroke-miterlimit="10" x1="159.411" y1="739.021" x2="732.699" y2="165.733"/>
	<g>
		<path fill="none" stroke="#FFDE76" stroke-width="36" stroke-miterlimit="10" d="M516.216-2.925V261
			c0,5.5-3.182,13.182-7.071,17.071l-90.037,90.037"/>
	</g>
	<g>
		<path fill="none" stroke="#E88BE8" stroke-width="36" stroke-miterlimit="10" d="M656.817,656.817L219.438,219.438
			c-3.889-3.889-11.571-7.071-17.071-7.071H-12"/>
	</g>
	<line fill="none" stroke="#FFD41F" stroke-width="36" stroke-miterlimit="10" x1="596.817" y1="721.817" x2="15" y2="140"/>
	<g>
		<path fill="none" stroke="#FF7B7B" stroke-width="36" stroke-miterlimit="10" d="M808,400H461c-5.5,0-13.182-3.182-17.071-7.071
			l-18.358-18.358C421.682,370.682,414,367.5,408.5,367.5H-25"/>
	</g>
	<circle fill="none" stroke="#C0392B" stroke-width="36" stroke-miterlimit="10" cx="400" cy="400" r="250"/>
	<circle fill="#FFFFFF" stroke="#C0392B" stroke-width="15" stroke-miterlimit="10" cx="150" cy="370" r="35"/>
	<circle fill="#FFFFFF" stroke="#C0392B" stroke-width="15" stroke-miterlimit="10" cx="400" cy="150" r="35"/>
	<circle fill="#FFFFFF" stroke="#C0392B" stroke-width="15" stroke-miterlimit="10" cx="516.216" cy="178.183" r="35"/>
	<circle fill="#FFFFFF" stroke="#C0392B" stroke-width="15" stroke-miterlimit="10" cx="400" cy="650" r="35"/>
	<circle fill="#FFFFFF" stroke="#C0392B" stroke-width="18" stroke-miterlimit="10" cx="650" cy="400" r="45"/>
	<circle fill="#FFFFFF" stroke="#C0392B" stroke-width="15" stroke-miterlimit="10" cx="277.164" cy="615" r="35"/>
	<circle fill="#FFFFFF" stroke="#C0392B" stroke-width="15" stroke-miterlimit="10" cx="578.164" cy="576" r="35"/>
	<circle fill="#FFFFFF" stroke="#8DBF2C" stroke-width="10" stroke-miterlimit="10" cx="689" cy="207.092" r="22.5"/>
	<circle fill="#FFFFFF" stroke="#8DBF2C" stroke-width="10" stroke-miterlimit="10" cx="562" cy="335" r="22.5"/>
	<circle fill="#FFFFFF" stroke="#8DBF2C" stroke-width="10" stroke-miterlimit="10" cx="201.164" cy="696.317" r="22.5"/>
	<circle fill="#FFFFFF" stroke="#FFD41F" stroke-width="10" stroke-miterlimit="10" cx="291.664" cy="416.5" r="22.5"/>
	<circle fill="#FFFFFF" stroke="#FFD41F" stroke-width="10" stroke-miterlimit="10" cx="555.5" cy="679.317" r="22.5"/>
	<circle fill="#FFFFFF" stroke="#FFD41F" stroke-width="10" stroke-miterlimit="10" cx="49.5" cy="172.5" r="22.5"/>
</g>
<g>
</g>
<g>
</g>
<g>
</g>
<g>
</g>
<g>
</g>
<g>
</g>
<g>
</g>
<g>
</g>
<g>
</g>
<g>
</g>
<g>
</g>
<g>
</g>
<g>
</g>
<g>
</g>
<g>
</g>
</svg>
