<svg xmlns="http://www.w3.org/2000/svg" viewBox="0 0 381.1 295.9"><defs><style>.a{fill:#9bd5de;}</style></defs><path class="a" d="M352.9 31.9l-2.3-11.5-2.5 1 1.9 7.1-4.3-6.1-2.3.9 1.2 7.3-3.7-6.4-2.5 1 6.5 9.9 2.4-.9-1.4-7.9 4.6 6.6 2.4-1zm-21.5-7.6A33.53 33.53 0 0 1 299.2 0h2.6a30.93 30.93 0 0 0 5.8 10.7l5-10.7h27.7c3.4 5.6 5.2 6.1 6.8 6.4a44.68 44.68 0 0 0 7.3.4s-5.5 8.2-9.5 10.1-14 .3-17.1-2.3c-2.7-2.3-7-9.6-7-9.6l-12.9 6a31 31 0 0 0 23.5 10.8A31 31 0 0 0 361 0h2.6a33.53 33.53 0 0 1-32.2 24.3zM294 18.6l2.7-6.4c1.6 1.8 3 2.3 4.3 1.6a2.7 2.7 0 0 0 1.2-3 9.63 9.63 0 0 0-1.3-3.7l-2.4-4.4-10.1 5.6 1.3 2.3 4.5-2.5 1 1.9-2.7 5.8zM298.3 6l1 1.8c1.1 2 1.3 3.3.4 3.8a.9.9 0 0 1-.5.1 2.85 2.85 0 0 1-1.4-.8c-.4-.5-.8-1.1-1.2-1.7l-1-1.8zM330 35.1l8.1-.2v1.8l-10.8.3-.3-11.6 2.8-.1.2 9.8zM37.5 226.7l-1.3 1.1-1.8-2.1-6.2 5.4 1.8 2.1-1.3 1.1-5.5-6.4 1.3-1.1 1.8 2.1 6.2-5.4-1.8-2.1 1.3-1.1zm11.7 7l2.4 1.1-4.8 10.5-2.4-1.1 2-4.5-6.8 2.3-3.1-1.4 6.4-2.1-2.1-8.7 3 1.4 1.3 6.8 2.5-.7zm12.3 1.5h-.1a5.38 5.38 0 0 0-4.3 1.7 6.31 6.31 0 0 0-1.5 4.5 5.8 5.8 0 0 0 1.7 4.5 5.65 5.65 0 0 0 4.1 1.5h.1a6.1 6.1 0 0 0 4.1-1.5 7 7 0 0 0 0-9.2 5.26 5.26 0 0 0-4.1-1.5zm0 10.6c-2 0-3-1.5-3.1-4.4s1-4.5 3-4.5h.1c2 0 3.1 1.4 3.1 4.4s-1 4.5-3.1 4.5zM306.6 30.2l3.3-12.1-2.3-2-11.4 5.4 2.3 1.9 3.5-1.8 3.5 3-1.2 3.7 2.3 1.9zm-3-9.4l4-2.2-1.5 4.3zM79.2 235.7l7.7 4.2-2.8 1.3-5.3-3.1-.9 6.1-2.8 1.3 1.7-8.6-1.9-4.1 2.4-1.2zm12.1-16.9l8.9 7.4-1.7 2.1-3.8-3.2.4 7.2-2.2 2.6-.3-6.7-8.9-.3 2.1-2.6 6.9.5v-2.6l-3-2.5zM320.6 25.4l-2.7 7.7 2.6.9-.6 1.6-7.9-2.8.6-1.6 2.6.9 2.7-7.7-2.6-.9.6-1.6 7.9 2.8-.6 1.6zM365.3.6l.3-.6 4.1 7.8 4 2-1.4 2.4-4-2-8.6 1.6 1.4-2.8 6.1-.9-3-5.3zm.3 21.2l2.2-2-11.7-4.9-2.2 2.1 4.1 12 2.2-2.1-1.4-3.6 3.3-3.1zm-7.5-.1l-1.7-4.2 4.1 1.9zm-172.5.1l2.2-2-11.7-4.9-2.2 2.1 4.1 12 2.2-2.1-1.4-3.6 3.3-3.1 3.5 1.6zm-7.5-.1l-1.7-4.2 4.1 1.9-2.4 2.3zM239.6 0h7.2v5h-7.2V0zm-36.2 5l1.9-5h6.9l-1.9 5h-6.9zm14.3-5h7.2v5h-7.2V0zM0 248.6l1.3 1.5-1.3 1.1v-2.6zM184.2 2.8l1.4-2.8 4.1 7.8 4 2-1.4 2.4-4-2-8.6 1.6 1.4-2.8 6.1-.9zm41 2.2l1.9-5h6.9l-1.9 5h-6.9zm39.9-5h6.8l2 5H267zm-154 200.7a50 50 0 1 0-50 50 50 50 0 0 0 50-50zm-50 47.5a47.5 47.5 0 1 1 47.5-47.5 47.54 47.54 0 0 1-47.5 47.5zm-34-56.7l-4.1-7.8-4-2 1.2-2.4 4 2 8.6-1.6-1.4 2.8-6.1.9 3 5.3zM247.2 5l1.9-5h6.9l-1.9 5h-6.9zM0 281.2a30.33 30.33 0 0 0 1.8-10.4A30.33 30.33 0 0 0 0 260.4v-6a33.68 33.68 0 0 1 4.3 16.4A33.39 33.39 0 0 1 0 287.2v-6zm0-37.5l3.8-3.3-1.8-2.1 1.3-1.1 5.5 6.4-1.3 1.1-1.8-2.1-5.7 5v-3.9zm242.8 12.7L231.9 285H225l10.9-28.6h6.9zm13.7-86.9l-7.9-2.8.6-1.6 2.6.9 2.7-7.7-2.6-.9.6-1.6 7.9 2.8-.6 1.6-2.6-.9-2.7 7.7 2.6.9zm-38 5l-4.1-12-2.2 2.1 1.4 3.6-3.3 3.1-3.5-1.6-2.2 2 11.7 4.9 2.2-2.1zm-6.6-2.4l2.4-2.3 1.7 4.2-4.1-1.9zm5.6 54.6l-1.3 1.1-1.8-2.1-6.2 5.4 1.8 2.1-1.3 1.1-5.5-6.4 1.3-1.1 1.8 2.1 6.2-5.4-1.8-2.1 1.3-1.1zm-10.4-35.2l-4.1-7.8-4-2 1.2-2.4 4 2 8.6-1.6-1.4 2.8-6.1.9 3 5.3zm17.3-21.4l-1.9-7.1 4.3 6.1 2.3-.9-1.2-7.3 3.7 6.4 2.5-1-6.5-9.9-2.4.9 1.4 7.9-4.6-6.6-2.4 1 2.3 11.5 2.5-1zm3.1-10.4l-.1-.2zm-5.4 2.1l-.1-.1zm20.4-5.4l-8.1.2v-1.8l10.8-.3.3 11.6-2.8.1zm48.6 44.3a50 50 0 1 0-50 50 50 50 0 0 0 50-50zm-50 47.5a47.5 47.5 0 1 1 47.5-47.5 47.54 47.54 0 0 1-47.5 47.5zm30.2-29.4l8.9 7.4-1.7 2.1-3.8-3.2.4 7.2-2.2 2.6-.3-6.7-8.9-.3 2.1-2.6 6.9.5v-2.6l-3-2.5zm-29.8 16.4h-.1a5.38 5.38 0 0 0-4.3 1.7 6.31 6.31 0 0 0-1.5 4.5 5.8 5.8 0 0 0 1.7 4.5 5.65 5.65 0 0 0 4.1 1.5h.1a6.1 6.1 0 0 0 4.1-1.5 2.19 2.19 0 0 0 .3-.5 2.18 2.18 0 0 1 .4-.5v-.1a3.13 3.13 0 0 0 .5-1 .35.35 0 0 1 .1-.2c0-.1.1-.2.1-.3a6.94 6.94 0 0 0-1.4-6.6 5.26 5.26 0 0 0-4.1-1.5zm0 10.6c-2 0-3-1.5-3.1-4.4s1-4.5 3-4.5h.1c2 0 3.1 1.4 3.1 4.4s-1 4.5-3.1 4.5zm-12.3-12.1l2.4 1.1-4.8 10.5-2.4-1.1 2-4.5-6.8 2.3-3.1-1.4 6.4-2.1-2.1-8.7 3 1.4 1.3 6.8 2.5-.7 1.6-3.6zm30 2l7.7 4.2-2.8 1.3-5.3-3.1-.9 6.1-2.8 1.3 1.7-8.6-1.9-4.1 2.4-1.2 1.9 4.1zm99-160.7h-6.9l10.9-28.6h6.9zm-14.7 0h-6.8l10.9-10.7-.1-17.9h7.2v18.3zM123.1 197.8l-4.5-11.4h6.9l6.5 16.9h-7.4a4.32 4.32 0 0 0-4 2.1c-1 1.5.4 3.1 2.8 3.1h6.7l2-5.2h-.1l6.4-16.9h6.9L134.4 215h-13c-6-.2-9.1-6-7.6-10 1.4-3.7 4.6-7.2 9.3-7.2zM336.3 75h-6.9l10.9-28.6h6.9zm44.2-75a50 50 0 0 1-49.1 40.7A49.93 49.93 0 0 1 282.3 0h2.5a47.54 47.54 0 0 0 46.6 38.3A47.54 47.54 0 0 0 378 0h2.5zm-77.4 57.8l-4.5-11.4h6.9l6.5 16.9h-7.4a4.32 4.32 0 0 0-4 2.1c-1 1.5.4 3.1 2.8 3.1h6.7l2-5.2h-.1l6.4-16.9h6.9L314.4 75h-13c-6-.2-9.1-6-7.6-10 1.4-3.7 4.6-7.2 9.3-7.2zM321.7 75h-6.8l10.9-10.7-.1-17.9h7.2v18.3zm-80.6 92.2a33.5 33.5 0 1 0 33.5 33.5 33.5 33.5 0 0 0-33.5-33.5zm-31 33.5a31 31 0 0 1 54.4-20.3l-12.9 6s-4.3-7.3-7-9.6c-3.1-2.6-13.1-4.2-17.1-2.3s-9.5 10.1-9.5 10.1a44.68 44.68 0 0 1 7.3.4c1.8.3 3.9.9 8.4 9.3a63.47 63.47 0 0 1 4 10.2s-5.1 4.3-7.2 5.7c-3.4 2.3-12.6 6.1-12.6 6.1l5.4 9.8a31.07 31.07 0 0 1-13.2-25.4zm41.9-5.8l-5.5 6.7a7.3 7.3 0 0 1-2-3.5 5.8 5.8 0 0 1 0-3.2h7.5zm20.1 5.8a31.05 31.05 0 0 1-48.1 25.9c1.4-1 7.1-5 9.2-6.9 3.8-3.5 7.9-8 7.9-8l-3.1 15.4 4.1 1.7 22.7-48.1a31.26 31.26 0 0 1 7.3 20zm-7.2-25.4l11.4-5.4-2.3-1.9-3.5 1.8-3.5-3 1.2-3.7-2.3-1.9-3.3 12.1 2.3 2zm1.5-6.8l2.5 2.1-4 2.2 1.5-4.3zm5 9.1a2.7 2.7 0 0 0-1.2 3 9.63 9.63 0 0 0 1.3 3.7l2.4 4.4 10.1-5.6-1.3-2.3-4.5 2.5-1-1.9 2.7-5.8-1.5-2.8-2.7 6.4c-1.6-1.8-3-2.3-4.3-1.6zm5.4 6.5l-2.7 1.4-1-1.8c-1.1-2-1.3-3.3-.4-3.8a.9.9 0 0 1 .5-.1 2.85 2.85 0 0 1 1.4.8c.4.5.8 1.1 1.2 1.7l1 1.8zM172.9 31.9l-2.3-11.5-2.5 1 1.9 7.1-4.3-6.1-2.3.9 1.2 7.3-3.7-6.4-2.5 1 6.5 9.9 2.4-.9-1.4-7.9 4.6 6.6 2.4-1zm84.4 224.5l-10.9 10.7.1 17.9h-7.2v-18.3l11.2-10.3h6.8zM133 95.7l-7.7-4.2 2.8-1.3 5.3 3.1.9-6.1 2.8-1.3-1.7 8.6 1.9 4.1-2.4 1.2-1.9-4.1zM77.3 256.4l-10.9 10.7.1 17.9h-7.2v-18.3l11.2-10.3h6.8zm73.8-175.7a50 50 0 1 0 50 50 50 50 0 0 0-50-50zm0 97.6a47.5 47.5 0 1 1 47.5-47.5 47.54 47.54 0 0 1-47.5 47.5zm-1.4-3.2l8.1-.2v1.8l-10.8.3-.3-11.6 2.8-.1zm18.1-13.7l1.9 7.1-4.3-6.1-2.3.9 1.2 7.3-3.7-6.4-2.5 1 6.5 9.9 2.4-.9-1.4-7.9 4.6 6.6 2.4-1-2.3-11.5-2.5 1zm-76.4 16.2a2.7 2.7 0 0 0-1.2 3 9.63 9.63 0 0 0 1.3 3.7l2.4 4.4 10.1-5.6-1.3-2.3-4.5 2.5-1-1.9 2.7-5.8-1.5-2.8-2.7 6.4c-1.6-1.8-3-2.3-4.3-1.6zm5.4 6.5l-2.7 1.4-1-1.8c-1.1-2-1.3-3.3-.4-3.8a.9.9 0 0 1 .5-.1 2.85 2.85 0 0 1 1.4.8c.4.5.8 1.1 1.2 1.7zm96.6-34.3l-1.4 2.4-4-2-8.6 1.6 1.4-2.8 6.1-.9-3-5.3 1.4-2.8 4.1 7.8zM62.8 256.4L51.9 285H45l10.9-28.6h6.9zm78.9-41.4h-6.8l10.9-10.7-.1-17.9h7.2v18.3L141.7 215zm-97.3-44.9l-1.9-7.1 4.3 6.1 2.3-.9-1.2-7.3 3.7 6.4 2.5-1-6.5-9.9-2.4.9 1.4 7.9-4.6-6.6-2.4 1 2.3 11.5 2.5-1zm3.1-10.4l-.1-.2zm-5.4 2.1l-.1-.1zm34.4 7.7l-7.9-2.8.6-1.6 2.6.9 2.7-7.7-2.6-.9.6-1.6 7.9 2.8-.6 1.6-2.6-.9-2.7 7.7 2.6.9zm-15.4-2.3a33.5 33.5 0 1 0 33.5 33.5 33.5 33.5 0 0 0-33.5-33.5zm-31 33.5a31 31 0 0 1 54.4-20.3l-12.9 6s-4.3-7.3-7-9.6c-3.1-2.6-13.1-4.2-17.1-2.3S38 184.6 38 184.6a44.68 44.68 0 0 1 7.3.4c1.8.3 3.9.9 8.4 9.3a63.47 63.47 0 0 1 4 10.2s-5.1 4.3-7.2 5.7c-3.4 2.3-12.6 6.1-12.6 6.1l5.4 9.8a31.07 31.07 0 0 1-13.2-25.4zm41.9-5.8l-5.5 6.7a7.3 7.3 0 0 1-2-3.5 4 4 0 0 1 0-3.2H72zm20.1 5.8A31.05 31.05 0 0 1 44 226.6c1.4-1 7.1-5 9.2-6.9 3.8-3.5 7.9-8 7.9-8L58 227.1l4.1 1.7 22.7-48.1a31.26 31.26 0 0 1 7.3 20zm4.2-30.8L94 168l-3.5 1.8-3.5-3 1.2-3.7-2.3-1.9-3.3 12.1 2.3 2 11.4-5.4zm-9.9-1.4l2.5 2.1-4 2.2zm-23.9-12.1l-8.1.2v-1.8l10.8-.3.3 11.6-2.8.1zM163 97.8l-2.4-1.1 4.8-10.5 2.4 1.1-2 4.5 6.8-2.3 3.1 1.4-6.4 2.1 2.1 8.7-3-1.4-1.3-6.8-2.5.7zm11.7 7l1.3-1.1 1.8 2.1 6.2-5.4-1.8-2.1 1.3-1.1 5.5 6.4-1.3 1.1-1.8-2.1-6.2 5.4 1.8 2.1-1.3 1.1zm-23.6-7.5a33.5 33.5 0 1 0 33.5 33.5 33.5 33.5 0 0 0-33.5-33.5zm-23.7 53.4a31 31 0 0 1 40.7-45.8c-1.5 1.1-7 5-9.1 6.8-3.8 3.5-7.9 8-7.9 8l3.1-15.4-4.1-1.7zm20.3-14.1h-7.5l5.5-6.7a7.3 7.3 0 0 1 2 3.5 6.92 6.92 0 0 1 0 3.2zm3.4 25.2a31 31 0 0 1-23.5-10.8l13-6s4.3 7.3 7 9.6c3.1 2.6 13.1 4.2 17.1 2.3s9.5-10.1 9.5-10.1a44.68 44.68 0 0 1-7.3-.4c-1.8-.3-3.9-.9-8.4-9.3a55.35 55.35 0 0 1-4-10.2s5.1-4.3 7.2-5.7c3.4-2.3 12.6-6.1 12.6-6.1l-5.3-9.6a31 31 0 0 1-17.9 56.3zm27.1 53.2h-6.9l10.9-28.6h6.9zm-21.9 0h-6.9l10.9-28.6h6.9zm7.2 0h-6.8l10.9-10.7-.1-17.9h7.2v18.3L163.5 215zm-42.7-61.2a2.7 2.7 0 0 0 1.2-3 9.63 9.63 0 0 0-1.3-3.7l-2.4-4.4-10.1 5.6 1.3 2.3 4.5-2.5 1 1.9-2.7 5.8 1.5 2.8 2.7-6.4c1.6 1.8 3 2.3 4.3 1.6zm-5.4-6.4l2.7-1.4 1 1.8c1.1 2 1.3 3.3.4 3.8a.9.9 0 0 1-.5.1 2.85 2.85 0 0 1-1.4-.8c-.4-.5-.8-1.1-1.2-1.7l-1-1.8zm35.3-51.2a5.46 5.46 0 0 0 4.4-1.7 6.31 6.31 0 0 0 1.5-4.5 5.8 5.8 0 0 0-1.7-4.5 5.65 5.65 0 0 0-4.1-1.5h-.1a6.1 6.1 0 0 0-4.1 1.5 13 13 0 0 0-1 1.5c0 .1-.1.1-.1.2a7.12 7.12 0 0 0 1.1 7.5 5.26 5.26 0 0 0 4.1 1.5zm0-10.5c2 0 3 1.4 3.1 4.4s-1 4.5-3 4.5h-.1c-2 0-3.1-1.4-3.1-4.4s1-4.5 3.1-4.5zm-34.6 75.8l2.1 1.9 3.5-1.8 3.5 3-1.2 3.7 2.3 1.9 3.5-12.1-2.3-2zm9.7 1.4l-2.5-2.1 4-2.2zm9.9-1l7.9 2.8-.6 1.6-2.6-.9-2.7 7.7 2.6.9-.6 1.6-7.9-2.8.6-1.6 2.6.9 2.7-7.7-2.6-.9.6-1.6zm-14.8-49.3l-8.9-7.4 1.7-2.1 3.8 3.2-.4-7.2 2.2-2.6.3 6.7 8.9.3-2.1 2.6-6.9-.5v2.6l3 2.5zm-82.4 61.9l-4.1-12-2.2 2.1 1.4 3.6-3.3 3.1-3.5-1.6-2.2 2 11.7 4.9zm-6.6-2.4l2.4-2.3L36 174zM173.7 157l4.1 12 2.2-2.1-1.4-3.6 3.3-3.1 3.5 1.6 2.2-2-11.7-4.9-2.2 2.1zm6.6 2.4l-2.4 2.3-1.7-4.2 4.1 1.9zm-59.6 127.7l-2.4-4.4-10.1 5.6 1.3 2.3 4.5-2.5 1 1.9-2.7 5.8.1.1h2.6l1.6-3.7c1.6 1.8 3 2.3 4.3 1.6a2.7 2.7 0 0 0 1.2-3 11.81 11.81 0 0 0-1.4-3.7zm-1.2 4.5a.9.9 0 0 1-.5.1 2.85 2.85 0 0 1-1.4-.8c-.4-.5-.8-1.1-1.2-1.7l-1-1.8 2.7-1.4 1 1.8c1.1 2 1.3 3.3.4 3.8zm35.6-57.1a6.31 6.31 0 0 0 1.5-4.5 5.8 5.8 0 0 0-1.7-4.5 5.65 5.65 0 0 0-4.1-1.5h-.1a6.1 6.1 0 0 0-4.1 1.5 13 13 0 0 0-1 1.5c0 .1-.1.1-.1.2a7.12 7.12 0 0 0 1.1 7.5 5.26 5.26 0 0 0 4.1 1.5 5.46 5.46 0 0 0 4.4-1.7zm-7.5-4.3c0-3 1-4.5 3.1-4.5s3 1.4 3.1 4.4-1 4.5-3 4.5h-.1c-2 0-3.1-1.4-3.1-4.4zm28.3 64.7l2.4 1h-3.4zm1.9-49.1l6.2-5.4-1.8-2.1 1.3-1.1 5.5 6.4-1.3 1.1-1.8-2.1-6.2 5.4 1.8 2.1-1.3 1.1-5.5-6.4 1.3-1.1zm-64.1-2.7l3.8 3.2-.4-7.2 2.2-2.6.3 6.7 8.9.3-2.1 2.6-6.9-.5v2.6l3 2.5-1.6 1.9-8.9-7.4zm37.4-5.8a33.51 33.51 0 0 0-22.2 58.6h4a30.53 30.53 0 0 1-5.3-4.9l13-6s4.3 7.3 7 9.6a9.92 9.92 0 0 0 2.3 1.3h16.4c3.7-2.9 7.9-9.1 7.9-9.1a44.68 44.68 0 0 1-7.3-.4c-1.8-.3-3.9-.9-8.4-9.3a55.35 55.35 0 0 1-4-10.2s5.1-4.3 7.2-5.7c3.4-2.3 12.6-6.1 12.6-6.1l-5.3-9.6a31 31 0 0 1 .3 50.4h4a33.51 33.51 0 0 0-22.2-58.6zm-3.4 39.3h-7.5l5.5-6.7a7.3 7.3 0 0 1 2 3.5 6.92 6.92 0 0 1 0 3.2zm11.3-24.9c-3.8 3.5-7.9 8-7.9 8l3.1-15.4-4.1-1.7-22.7 48.1a31 31 0 0 1 40.7-45.8c-1.5 1.1-7 5-9.1 6.8zm48.1-200.2l-4.1-7.8-4-2 1.2-2.4 4 2 8.6-1.6-1.4 2.8-6.1.9 3 5.3zm-39.3 175.8l-2 4.5 6.8-2.3 3.1 1.4-6.4 2.1 2.1 8.7-3-1.4-1.3-6.8-2.5.7-1.6 3.6-2.4-1.1 4.8-10.5 2.4 1.1zm92.4 40.8v.1h-.1zm-7.7 27.7l.3.1zm-11.4-5.1a50 50 0 0 1 22.2 5.2h-6.4a47.58 47.58 0 0 0-31.6 0h-6.4a50 50 0 0 1 22.2-5.2zm-40-20a50 50 0 0 1-6.8 25.2h-2.9a46.87 46.87 0 0 0 7.2-25.1 47.5 47.5 0 0 0-95 0 46.87 46.87 0 0 0 7.2 25.1h-2.9a50 50 0 1 1 93.2-25.2zm-9.1 21.5l-4-2-8.6 1.6 1.4-2.8 6.1-.9-3-5.3 1.4-2.8 4.1 7.8 4 2-1.4 2.4zm28.9-35.8L210 285h-6.9l10.9-28.6h6.9zm3.8 28.6h-7.2v-18.3l11.2-10.3h6.8l-10.9 10.7.1 17.9zm20.5 9.5v1.4h-10.8v-1.1zm26.1-215.7l8.9 7.4-1.7 2.1-3.8-3.2.4 7.2-2.2 2.6-.3-6.7-8.9-.3 2.1-2.6 6.9.5v-2.6l-3-2.5zm-30.2-68.1a50 50 0 1 0 50 50 50 50 0 0 0-50-50zm0 97.5a47.5 47.5 0 1 1 47.5-47.5 47.54 47.54 0 0 1-47.5 47.5zm18.1-12.5l7.7 4.2-2.8 1.3-5.3-3.1-.9 6.1-2.8 1.3 1.7-8.6-1.9-4.1 2.4-1.2 1.9 4.1zM11.7 292.2l-4-2-7.7 1.4V290l.5-1 6.1-.9-3-5.3L5 280l4.1 7.8 4 2zm229.8-197h-.1a5.38 5.38 0 0 0-4.3 1.7 6.31 6.31 0 0 0-1.5 4.5 5.8 5.8 0 0 0 1.7 4.5 5.65 5.65 0 0 0 4.1 1.5h.1a6.1 6.1 0 0 0 4.1-1.5 2.19 2.19 0 0 0 .3-.5 2.18 2.18 0 0 1 .4-.5v-.1a3.13 3.13 0 0 0 .5-1 .35.35 0 0 1 .1-.2c0-.1.1-.2.1-.3a6.94 6.94 0 0 0-1.4-6.6 5.26 5.26 0 0 0-4.1-1.5zm0 10.6c-2 0-3-1.5-3.1-4.4s1-4.5 3-4.5h.1c2 0 3.1 1.4 3.1 4.4s-1 4.5-3.1 4.5zm-24-19.1l-1.3 1.1-1.8-2.1-6.2 5.4 1.8 2.1-1.3 1.1-5.5-6.4 1.3-1.1 1.8 2.1 6.2-5.4-1.8-2.1 1.3-1.1zm11.7 7l2.4 1.1-4.8 10.5-2.4-1.1 2-4.5-6.8 2.3-3.1-1.4 6.4-2.1-2.1-8.7 3 1.4 1.3 6.8 2.5-.7 1.6-3.6zM98.4 266.4c-1.4 3.7-4.6 7.2-9.3 7.2l4.5 11.4h-6.9l-6.6-16.8h7.5a4.32 4.32 0 0 0 4-2.1c1-1.5-.4-3.1-2.8-3.1h-6.7l-2 5.2-6.4 16.9h-6.9l10.9-28.6h13c6.1.1 9.2 6 7.7 9.9zm-25.9 29.4l.3.1zm-11.4-5.1a50 50 0 0 1 22.2 5.2h-6.4a47.58 47.58 0 0 0-31.6 0h-6.4a50 50 0 0 1 22.2-5.2zm-40.3-20a50 50 0 0 1-6.8 25.2h-2.9a46.87 46.87 0 0 0 7.2-25.1A47.44 47.44 0 0 0 0 233.4v-3.2a49.67 49.67 0 0 1 20.8 40.5zm44.4 23.8v1.4H54.4v-1.1zm-24.3-38.1L30 285h-6.9L34 256.4h6.9zm3.8 28.6h-7.2v-18.3l11.2-10.3h6.8l-10.9 10.7zm92.4-59.1l-1.7 8.6 1.9 4.1-2.4 1.2-1.9-4.1-7.7-4.2 2.8-1.3 5.3 3.1.9-6.1 2.8-1.3zm159-64.4l2.1 1.9 3.5-1.8 3.5 3-1.2 3.7 2.3 1.9 3.5-12.1-2.3-2zm9.7 1.4l-2.5-2.1 4-2.2zm7.2-67.2l-7.7-4.2 2.8-1.3 5.3 3.1.9-6.1 2.8-1.3-1.7 8.6 1.9 4.1-2.4 1.2-1.9-4.1zm-12.2 58.1a2.7 2.7 0 0 0 1.2-3 9.63 9.63 0 0 0-1.3-3.7l-2.4-4.4-10.1 5.6 1.3 2.3 4.5-2.5 1 1.9-2.7 5.8 1.5 2.8 2.7-6.4c1.6 1.8 3 2.3 4.3 1.6zm-5.4-6.4l2.7-1.4 1 1.8c1.1 2 1.3 3.3.4 3.8a.9.9 0 0 1-.5.1 2.85 2.85 0 0 1-1.4-.8c-.4-.5-.8-1.1-1.2-1.7l-1-1.8zm5.5-34.8l-8.9-7.4 1.7-2.1 3.8 3.2-.4-7.2 2.2-2.6.3 6.7 8.9.3-2.1 2.6-6.9-.5v2.6l3 2.5zM343 97.8l-2.4-1.1 4.8-10.5 2.4 1.1-2 4.5 6.8-2.3 3.1 1.4-6.4 2.1 2.1 8.7-3-1.4-1.3-6.8-2.5.7-1.6 3.6zm-12.3-1.6h.1a5.38 5.38 0 0 0 4.3-1.7 6.31 6.31 0 0 0 1.5-4.5 5.8 5.8 0 0 0-1.7-4.5 5.65 5.65 0 0 0-4.1-1.5h-.1a6.1 6.1 0 0 0-4.1 1.5 13 13 0 0 0-1 1.5c0 .1-.1.1-.1.2a7.12 7.12 0 0 0 1.1 7.5 5.26 5.26 0 0 0 4.1 1.5zm0-10.5c2 0 3 1.4 3.1 4.4s-1 4.5-3 4.5h-.1c-2 0-3.1-1.4-3.1-4.4s1-4.5 3.1-4.5zm9.6 100.7h6.9L336.3 215h-6.9zm-42.7-55.6a33.5 33.5 0 1 0 33.5-33.5 33.5 33.5 0 0 0-33.5 33.5zm64.5 0a31 31 0 0 1-54.5 20.2l13-6s4.3 7.3 7 9.6c3.1 2.6 13.1 4.2 17.1 2.3s9.5-10.1 9.5-10.1a44.68 44.68 0 0 1-7.3-.4c-1.8-.3-3.9-.9-8.4-9.3a55.35 55.35 0 0 1-4-10.2s5.1-4.3 7.2-5.7c3.4-2.3 12.6-6.1 12.6-6.1l-5.3-9.6a31.06 31.06 0 0 1 13.1 25.3zm-41.9 5.8l5.5-6.7a7.3 7.3 0 0 1 2 3.5 5.8 5.8 0 0 1 0 3.2h-7.5zm18.8-24.9c-3.8 3.5-7.9 8-7.9 8l3.1-15.4-4.1-1.7-22.7 48.1a31 31 0 0 1 40.7-45.8c-1.5 1.1-7 5-9.1 6.8zm24.5-14.5l5.5 6.4-1.3 1.1-1.8-2.1-6.2 5.4 1.8 2.1-1.3 1.1-5.5-6.4 1.3-1.1 1.8 2.1 6.2-5.4-1.8-2.1zm1.8 42.8l4.1 7.8 4 2-1.4 2.4-4-2-8.6 1.6 1.4-2.8 6.1-.9-3-5.3zM151.4 24.3A33.53 33.53 0 0 1 119.2 0h2.6a30.93 30.93 0 0 0 5.8 10.7l5-10.7h27.7c3.4 5.6 5.2 6.1 6.8 6.4a44.68 44.68 0 0 0 7.3.4s-5.5 8.2-9.5 10.1-14 .3-17.1-2.3c-2.7-2.3-7-9.6-7-9.6l-12.9 6a31 31 0 0 0 23.5 10.8A31 31 0 0 0 181 0h2.6a33.53 33.53 0 0 1-32.2 24.3zm178.3 150.8l8.1-.2v1.8l-10.8.3-.3-11.6 2.8-.1.2 9.8zm-14-13.2l7.9 2.8-.6 1.6-2.6-.9-2.7 7.7 2.6.9-.6 1.6-7.9-2.8.6-1.6 2.6.9 2.7-7.7-2.6-.9zm32.1-.5l1.9 7.1-4.3-6.1-2.3.9 1.2 7.3-3.7-6.4-2.5 1 6.5 9.9 2.4-.9-1.4-7.9 4.6 6.6 2.4-1-2.3-11.5-2.5 1zm5.9-4.4l4.1 12 2.2-2.1-1.4-3.6 3.3-3.1 3.5 1.6 2.2-2-11.7-4.9zm6.6 2.4l-2.4 2.3-1.7-4.2zm-43.2 66.5l-1.7 8.6 1.9 4.1-2.4 1.2-1.9-4.1-7.7-4.2 2.8-1.3 5.3 3.1.9-6.1 2.8-1.3zm14 11.4a33.51 33.51 0 0 0-22.2 58.6h4a30.53 30.53 0 0 1-5.3-4.9l13-6s4.3 7.3 7 9.6a9.92 9.92 0 0 0 2.3 1.3h16.4c3.7-2.9 7.9-9.1 7.9-9.1a44.68 44.68 0 0 1-7.3-.4c-1.8-.3-3.9-.9-8.4-9.3a55.35 55.35 0 0 1-4-10.2s5.1-4.3 7.2-5.7c3.4-2.3 12.6-6.1 12.6-6.1l-5.3-9.6a31 31 0 0 1 .3 50.4h4a33.51 33.51 0 0 0-22.2-58.6zm-3.4 39.3h-7.5l5.5-6.7a7.3 7.3 0 0 1 2 3.5 5.8 5.8 0 0 1 0 3.2zm11.3-24.9c-3.8 3.5-7.9 8-7.9 8l3.1-15.4-4.1-1.7-22.7 48.1a31 31 0 0 1 40.7-45.8c-1.5 1.1-7 5-9.1 6.8zm-8.2-15.5a5.38 5.38 0 0 0 4.3-1.7 6.31 6.31 0 0 0 1.5-4.5 5.8 5.8 0 0 0-1.7-4.5 5.65 5.65 0 0 0-4.1-1.5h-.1a6.1 6.1 0 0 0-4.1 1.5 13 13 0 0 0-1 1.5c0 .1-.1.1-.1.2a7.12 7.12 0 0 0 1.1 7.5 5.26 5.26 0 0 0 4.1 1.5h.1zm-3.2-6c0-3 1-4.5 3.1-4.5s3 1.4 3.1 4.4-1 4.5-3 4.5h-.1c-2 0-3.1-1.4-3.1-4.4zm20.2-2.9l-2 4.5 6.8-2.3 3.1 1.4-6.4 2.1 2.1 8.7-3-1.4-1.3-6.8-2.5.7-1.6 3.6-2.4-1.1 4.8-10.5zm10 18.5l6.2-5.4-1.8-2.1 1.3-1.1 5.5 6.4-1.3 1.1-1.8-2.1-6.2 5.4 1.8 2.1-1.3 1.1-5.5-6.4 1.3-1.1zm-57.1 41.3l-2.4-4.4-10.1 5.6 1.3 2.3 4.5-2.5 1 1.9-2.7 5.8.1.1h2.6l1.6-3.7c1.6 1.8 3 2.3 4.3 1.6a2.7 2.7 0 0 0 1.2-3 11.81 11.81 0 0 0-1.4-3.7zm-1.2 4.5a.9.9 0 0 1-.5.1 2.85 2.85 0 0 1-1.4-.8c-.4-.5-.8-1.1-1.2-1.7l-1-1.8 2.7-1.4 1 1.8c1.1 2 1.3 3.3.4 3.8zm51.8-76.6l10.9-28.6h6.9L358.2 215h-6.9zm-72.9 51.4c-1.4 3.7-4.6 7.2-9.3 7.2l4.5 11.4h-6.9l-6.5-16.8h7.4a4.32 4.32 0 0 0 4-2.1c1-1.5-.4-3.1-2.8-3.1h-6.7l-2 5.2h.1l-6.4 16.8h-6.9l10.9-28.6h13c6 .2 9.1 6.1 7.6 10zm15.3-23.3l3.8 3.2-.4-7.2 2.2-2.6.3 6.7 8.9.3-2.1 2.6-6.9-.5v2.6l3 2.5-1.6 1.9-8.9-7.4zm21.2-28.1l10.9-10.7-.1-17.9h7.2v18.3L321.7 215h-6.8zm-11.8-17.2l-4.5-11.4h6.9l6.5 16.9h-7.4a4.32 4.32 0 0 0-4 2.1c-1 1.5.4 3.1 2.8 3.1h6.7l2-5.2h-.1l6.4-16.9h6.9L314.4 215h-13c-6-.2-9.1-6-7.6-10 1.4-3.7 4.6-7.2 9.3-7.2zm33.6 17.2l10.9-10.7-.1-17.9h7.2v18.3L343.5 215h-6.8zm35.3 77.2l-4-2-8.6 1.6 1.4-2.8 6.1-.9-3-5.3 1.4-2.8 4.1 7.8 4 2-1.4 2.4zm-16.1 2.7l2.4 1h-3.4zm25.2-24.2a50 50 0 0 1-6.8 25.2h-2.9a46.87 46.87 0 0 0 7.2-25.1 47.5 47.5 0 0 0-95 0 46.87 46.87 0 0 0 7.2 25.1h-2.9a50 50 0 1 1 93.2-25.2zm-50-190a50 50 0 1 0 50 50 50 50 0 0 0-50-50zm0 97.6a47.5 47.5 0 1 1 47.5-47.5 47.54 47.54 0 0 1-47.5 47.5zM51.9 145H45l10.9-28.6h6.9zM44.4 30.1L42.5 23l4.3 6.1 2.3-.9-1.2-7.3 3.7 6.4 2.5-1-6.5-9.9-2.4 1 1.4 7.9-4.6-6.6-2.4 1 2.3 11.4zm32.2-.6l-7.9-2.8.6-1.6 2.6.9 2.7-7.7-2.6-.9.5-1.6 7.9 2.8-.6 1.6-2.6-.9-2.7 7.7 2.6.9zm-15.5-2.3a33.55 33.55 0 1 0 33.6 33.5 33.52 33.52 0 0 0-33.6-33.5zm-31 33.5a31 31 0 0 1 54.4-20.3l-12.9 6s-4.3-7.3-7-9.6c-3.1-2.6-13.1-4.2-17.1-2.3S38 44.6 38 44.6a44.68 44.68 0 0 1 7.3.4c1.8.3 3.9.9 8.4 9.3a63.47 63.47 0 0 1 4 10.2s-5.1 4.3-7.2 5.7c-3.4 2.3-12.6 6.1-12.6 6.1l5.4 9.8a31.07 31.07 0 0 1-13.2-25.4zM72 54.9l-5.5 6.7a7.3 7.3 0 0 1-2-3.5 6.92 6.92 0 0 1 0-3.2H72zM61.1 91.7A31.26 31.26 0 0 1 44 86.6c1.4-1 7.1-5 9.2-6.9 3.8-3.5 7.9-8 7.9-8L58 87.1l4.1 1.7 22.7-48.1a30.71 30.71 0 0 1 7.3 20 31 31 0 0 1-31 31zm30.3-54.1a2.7 2.7 0 0 0-1.2 3 9.63 9.63 0 0 0 1.3 3.7l2.4 4.4 10.1-5.6-1.3-2.3-4.5 2.5-1-1.9 2.7-5.8-1.5-2.8-2.7 6.4c-1.6-1.8-3-2.3-4.3-1.6zm5.4 6.5l-2.7 1.4-1-1.8c-1.1-2-1.3-3.3-.4-3.8a.9.9 0 0 1 .5-.1 2.85 2.85 0 0 1 1.4.8c.4.5.8 1.1 1.2 1.7zm-58.3-9.6l-4.1-12-2.1 2 1.3 3.7-3.3 3.1-3.5-1.6-2.2 2 11.7 4.9zm-6.6-2.4l2.4-2.3L36 34zm64.4-2.2L94 28l-3.5 1.8-3.5-3 1.2-3.7-2.3-1.9-3.3 12.1 2.3 2zm-9.9-1.4l2.5 2.1-4 2.2zM62.5 16.4l-8.2.1v-1.8l10.9-.2.3 11.6-2.8.1zm28.8 62.4l8.9 7.4-1.7 2.1-3.8-3.2.4 7.2-2.2 2.6-.3-6.7-8.9-.3 2.1-2.6 6.9.5v-2.6l-3-2.5zM61.1 10.7a50 50 0 1 0 50 50 50 50 0 0 0-50-50zm0 97.5a47.45 47.45 0 1 1 47.4-47.5 47.54 47.54 0 0 1-47.4 47.5zm18.1-12.5l7.7 4.2-2.8 1.3-5.3-3.1-.9 6.1-2.9 1.3 1.7-8.6-1.9-4.1 2.5-1.2 1.9 4.1zm-30-2l2.4 1.1-4.8 10.5-2.4-1.1 2-4.5-6.8 2.3-3.1-1.5 6.4-2.1-2.1-8.6 3 1.4 1.3 6.8 2.5-.7 1.6-3.6zm-11.7-7l-1.3 1.1-1.8-2.1-6.2 5.4 1.8 2.1-1.3 1.1-5.5-6.4 1.3-1.1 1.8 2.1 6.2-5.4-1.8-2.1 1.3-1.1zM27.1 51.5L23 43.7l-4-2 1.2-2.4 4 2 8.6-1.6-1.3 2.8-6.1.9 3 5.3zm34.4 43.7h-.1a5.38 5.38 0 0 0-4.3 1.7 6.31 6.31 0 0 0-1.5 4.5 5.8 5.8 0 0 0 1.7 4.5 5.65 5.65 0 0 0 4.1 1.5h.1a6.1 6.1 0 0 0 4.1-1.5 7 7 0 0 0 0-9.2 5.26 5.26 0 0 0-4.1-1.5zm0 10.6c-2 0-3-1.5-3.1-4.4s1-4.5 3-4.5h.1c2 0 3.1 1.4 3.1 4.4s-1 4.5-3.1 4.5zM150 35.1l8.1-.2v1.8l-10.8.3-.3-11.6 2.8-.1zM102.3 0h2.5a47.54 47.54 0 0 0 46.6 38.3A47.54 47.54 0 0 0 198 0h2.5a50 50 0 0 1-49.1 40.7A49.93 49.93 0 0 1 102.3 0zm20.8 57.8l-4.5-11.4h6.9l6.5 16.9h-7.4a4.32 4.32 0 0 0-4 2.1c-1 1.5.4 3.1 2.8 3.1h6.7l2-5.2h-.1l6.4-16.9h6.9L134.4 75h-13c-6-.2-9.1-6-7.6-10 1.4-3.7 4.6-7.2 9.3-7.2zM114 18.6l2.7-6.4c1.6 1.8 3 2.3 4.3 1.6a2.7 2.7 0 0 0 1.2-3 9.63 9.63 0 0 0-1.3-3.7l-2.4-4.4-10.1 5.6 1.3 2.3 4.5-2.5 1 1.9-2.7 5.8zM118.3 6l1 1.8c1.1 2 1.3 3.3.4 3.8a.9.9 0 0 1-.5.1 2.85 2.85 0 0 1-1.4-.8c-.4-.5-.8-1.1-1.2-1.7l-1-1.8zM44.9 5h-7.2V0h7.2v5zm96.8 70h-6.8l10.9-10.7-.1-17.9h7.2v18.3L141.7 75zm-1.1-49.6l-2.7 7.7 2.6.9-.6 1.6-7.9-2.8.6-1.6 2.6.9 2.7-7.7-2.6-.9.6-1.6 7.9 2.8-.6 1.6-2.6-.9zm-14 4.8l3.3-12.1-2.3-2-11.4 5.4 2.3 1.9 3.5-1.8 3.5 3-1.2 3.7zm-3-9.4l4-2.2-1.5 4.3zM178.2 75h-6.9l10.9-28.6h6.9zM77.3 116.4l-10.9 10.7.1 17.9h-7.2v-18.3l11.2-10.3h6.8zm79-41.4h-6.9l10.9-28.6h6.9zm-67.2 58.6l4.5 11.4h-6.9l-6.6-16.8h7.5a4.32 4.32 0 0 0 4-2.1c1-1.5-.4-3.1-2.8-3.1h-6.7l-2 5.2-6.4 16.9h-6.9l10.9-28.6h13c6.1.1 9.2 6 7.7 9.9-1.4 3.7-4.6 7.2-9.3 7.2zm-33.6-17.2l-10.9 10.7.1 17.9h-7.2v-18.3l11.2-10.3h6.8zm-14.6 0L30 145h-6.9L34 116.4h6.9zM163.5 75h-6.8l10.9-10.7-.1-17.9h7.2v18.3L163.5 75zM0 141.2a30.33 30.33 0 0 0 1.8-10.4A30.33 30.33 0 0 0 0 120.4v-6a33.68 33.68 0 0 1 4.3 16.4A33.39 33.39 0 0 1 0 147.2v-6zm278.4-14.8c-1.4 3.7-4.6 7.2-9.3 7.2l4.5 11.4h-6.9l-6.5-16.8h7.4a4.32 4.32 0 0 0 4-2.1c1-1.5-.4-3.1-2.8-3.1h-6.7l-2 5.2h.1l-6.4 16.8h-6.9l10.9-28.6h13c6 .2 9.1 6.1 7.6 10zm-18.2 1.7v.1h-.1zm11.2-90.5a2.7 2.7 0 0 0-1.2 3 9.63 9.63 0 0 0 1.3 3.7l2.4 4.4 10.1-5.6-1.3-2.3-4.5 2.5-1-1.9 2.7-5.8-1.5-2.8-2.7 6.4c-1.6-1.8-3-2.3-4.3-1.6zm5.4 6.5l-2.7 1.4-1-1.8c-1.1-2-1.3-3.3-.4-3.8a.9.9 0 0 1 .5-.1 2.85 2.85 0 0 1 1.4.8c.4.5.8 1.1 1.2 1.7l1 1.8zm-48.1 72.3h6.8l-10.9 10.7.1 17.9h-7.2v-18.3l11.2-10.3zm7.2 0h6.9L231.9 145H225zm-21.9 0h6.9L210 145h-6.9l10.9-28.6zm27.1-89.2a33.5 33.5 0 1 0 33.5 33.5 33.5 33.5 0 0 0-33.5-33.5zm-31 33.5a31 31 0 0 1 54.4-20.3l-12.9 6s-4.3-7.3-7-9.6c-3.1-2.6-13.1-4.2-17.1-2.3S218 44.6 218 44.6a44.68 44.68 0 0 1 7.3.4c1.8.3 3.9.9 8.4 9.3a63.47 63.47 0 0 1 4 10.2s-5.1 4.3-7.2 5.7c-3.4 2.3-12.6 6.1-12.6 6.1l5.4 9.8a31.07 31.07 0 0 1-13.2-25.4zm41.9-5.8l-5.5 6.7a7.3 7.3 0 0 1-2-3.5 5.8 5.8 0 0 1 0-3.2h7.5zm20.1 5.8A31.05 31.05 0 0 1 224 86.6c1.4-1 7.1-5 9.2-6.9 3.8-3.5 7.9-8 7.9-8L238 87.1l4.1 1.7 22.7-48.1a31.26 31.26 0 0 1 7.3 20zm-47.7-30.6l-1.9-7.1 4.3 6.1 2.3-.9-1.2-7.3 3.7 6.4 2.5-1-6.5-9.9-2.4.9 1.4 7.9-4.6-6.6-2.4 1 2.3 11.5 2.5-1zm-2.3-8.3l-.1-.1zm35.2 94.6l-10.9 10.7.1 17.9h-7.2v-18.3l11.2-10.3h6.8zm-14.8-100l-8.2.1v-1.8l10.9-.2.3 11.6-2.8.1zM66.8 5h-7.2V0h7.2v5zm189.7 24.5l-7.9-2.8.6-1.6 2.6.9 2.7-7.7-2.6-.9.6-1.6 7.9 2.8-.6 1.6-2.6-.9-2.7 7.7 2.6.9zm8.4 5.8l11.4-5.4L274 28l-3.5 1.8-3.5-3 1.2-3.7-2.3-1.9-3.3 12.1 2.3 2zm1.5-6.8l2.5 2.1-4 2.2zM.8 9l6.1-.9-3-5.3L5.3 0l4.1 7.8 4 2-1.4 2.4-4-2-8 1.5v-1.1zm16.9-9h2.5A49.92 49.92 0 0 1 0 31.5v-3A47.73 47.73 0 0 0 17.7 0zM0 19.7l.3-.3-.3-.1v-2.7l7.6 3.2-2.2 2-3.5-1.6L0 22v-2.3zM23.4 5l1.9-5h6.9l-1.9 5h-6.9zm21.8 0l1.9-5H54l-1.9 5h-6.9zm39.9-5h6.8l2 5H87zm-18 5L69 0h6.9L74 5h-6.9zM0 108.6l1.3 1.5-1.3 1.1v-2.6zm218.5-74.1l-4.1-12-2.2 2.1 1.4 3.6-3.3 3.1-3.5-1.6-2.2 2 11.7 4.9 2.2-2.1zm-6.6-2.4l2.4-2.3L216 34l-4.1-1.9zM0 156.7l7.3 3.1-2.2 2-3.5-1.6-1.6 1.5v-5zm0 14.6v-3a47.79 47.79 0 0 0 18.3-37.5A47.44 47.44 0 0 0 0 93.4v-3.2a50 50 0 0 1 20.8 40.6A49.81 49.81 0 0 1 0 171.3zm7.7-21.1L0 151.6V150l.5-1 6.1-.9-3-5.3L5 140l4.1 7.8 4 2-1.4 2.4-4-2zM0 2a15.87 15.87 0 0 0 .7-2h2.6A35.06 35.06 0 0 1 0 7.7V2zm0 101.7l3.8-3.3L2 98.3l1.3-1.1 5.5 6.4-1.3 1.1-1.8-2.1-5.7 5v-3.9z"/></svg>