<svg id="レイヤー_1" xmlns="http://www.w3.org/2000/svg" viewBox="0 0 360 280"><style>.st0{fill:#cee7eb;}</style><path class="st0" d="M341.8 21.4l-2.3-11.5-2.5 1 1.9 7.1-4.3-6.1-2.3.9 1.2 7.3-3.7-6.4-2.5 1 6.5 9.9 2.4-.9-1.4-7.9 4.6 6.6 2.4-1zm-7.9-.1zm.4-6.8zm5.1 4.6zm-19.1-5.3c-15.3 0-28.2-10.3-32.2-24.3h2.6c1.2 3.9 3.2 7.6 5.8 10.7l5-10.7h27.7c3.4 5.6 5.2 6.1 6.8 6.4 2.4.3 4.9.5 7.3.4 0 0-5.5 8.2-9.5 10.1-4 1.9-14 .3-17.1-2.3-2.7-2.3-7-9.6-7-9.6l-12.9 6c5.7 6.6 14.1 10.8 23.5 10.8 13.9 0 25.7-9.2 29.6-21.8h2.6c-4 14-16.9 24.3-32.2 24.3zm-37.4-5.7l2.7-6.4c1.6 1.8 3 2.3 4.3 1.6 1-.6 1.5-1.8 1.2-3-.2-1.3-.6-2.6-1.3-3.7l-2.4-4.4-10.1 5.6 1.3 2.3 4.5-2.5 1 1.9-2.7 5.8 1.5 2.8zm4.3-12.6l1 1.8c1.1 2 1.3 3.3.4 3.8-.2.1-.3.1-.5.1-.5-.1-1-.4-1.4-.8-.4-.5-.8-1.1-1.2-1.7l-1-1.8 2.7-1.4zm31.7 29.1l8.1-.2v1.8l-10.8.3-.3-11.6 2.8-.1.2 9.8zM26.4 216.2l-1.3 1.1-1.8-2.1-6.2 5.4 1.8 2.1-1.3 1.1-5.5-6.4 1.3-1.1 1.8 2.1 6.2-5.4-1.8-2.1 1.3-1.1 5.5 6.4zm11.7 7l2.4 1.1-4.8 10.5-2.4-1.1 2-4.5-6.8 2.3-3.1-1.4 6.4-2.1-2.1-8.7 3 1.4 1.3 6.8 2.5-.7 1.6-3.6zm12.3 1.5h-.1c-1.6-.1-3.2.5-4.3 1.7-1.1 1.3-1.6 2.9-1.5 4.5-.1 1.7.5 3.3 1.7 4.5 1.1 1 2.6 1.6 4.1 1.5h.1c1.5 0 3-.5 4.1-1.5 2.3-2.6 2.3-6.6 0-9.2-1.1-1.1-2.6-1.6-4.1-1.5zm0 10.6c-2 0-3-1.5-3.1-4.4 0-3 1-4.5 3-4.5h.1c2 0 3.1 1.4 3.1 4.4s-1 4.5-3.1 4.5zM295.5 19.7l3.3-12.1-2.3-2-11.4 5.4 2.3 1.9 3.5-1.8 3.5 3-1.2 3.7 2.3 1.9zm-3-9.4l4-2.2-1.5 4.3-2.5-2.1zM68.1 225.2l7.7 4.2-2.8 1.3-5.3-3.1-.9 6.1L64 235l1.7-8.6-1.9-4.1 2.4-1.2 1.9 4.1zm12.1-16.9l8.9 7.4-1.7 2.1-3.8-3.2.4 7.2-2.2 2.6-.3-6.7-8.9-.3 2.1-2.6 6.9.5v-2.6l-3-2.5 1.6-1.9zM309.5 14.9l-2.7 7.7 2.6.9-.6 1.6-7.9-2.8.6-1.6 2.6.9 2.7-7.7-2.6-.9.6-1.6 7.9 2.8-.6 1.6-2.6-.9zm44.7-24.8l.3-.6 4.1 7.8 4 2-1.4 2.4-4-2-8.6 1.6 1.4-2.8 6.1-.9-3-5.3 1.1-2.2zm.3 21.2l2.2-2L345 4.4l-2.2 2.1 4.1 12 2.2-2.1-1.4-3.6 3.3-3.1 3.5 1.6zm-7.5-.1L345.3 7l4.1 1.9-2.4 2.3zm-172.5.1l2.2-2L165 4.4l-2.2 2.1 4.1 12 2.2-2.1-1.4-3.6 3.3-3.1 3.5 1.6zm-7.5-.1L165.3 7l4.1 1.9-2.4 2.3zm61.5-21.7h7.2v5h-7.2v-5zm-36.2 5l1.9-5h6.9l-1.9 5h-6.9zm14.3-5h7.2v5h-7.2v-5zM-11.1 238.1l1.3 1.5-1.3 1.1v-2.6zM173.1-7.7l1.4-2.8 4.1 7.8 4 2-1.4 2.4-4-2-8.6 1.6 1.4-2.8 6.1-.9-3-5.3zm41 2.2l1.9-5h6.9l-1.9 5h-6.9zm39.9-5h6.8l2 5h-6.9l-1.9-5zM100 190.2c0-27.6-22.4-50-50-50s-50 22.4-50 50 22.4 50 50 50 50-22.4 50-50zm-50 47.5c-26.2 0-47.5-21.3-47.5-47.5s21.3-47.5 47.5-47.5 47.5 21.3 47.5 47.5-21.3 47.5-47.5 47.5zM16 181l-4.1-7.8-4-2 1.2-2.4 4 2 8.6-1.6-1.4 2.8-6.1.9 3 5.3L16 181zM236.1-5.5l1.9-5h6.9l-1.9 5h-6.9zM-11.1 270.7c1.2-3.3 1.8-6.8 1.8-10.4 0-3.6-.6-7.1-1.8-10.4v-6c2.7 4.9 4.3 10.4 4.3 16.4s-1.6 11.6-4.3 16.4v-6zm0-37.5l3.8-3.3-1.8-2.1 1.3-1.1 5.5 6.4-1.3 1.1-1.8-2.1-5.7 5v-3.9zm178-214.7zm64.8 227.4l-10.9 28.6h-6.9l10.9-28.6h6.9zm13.7-86.9l-7.9-2.8.6-1.6 2.6.9 2.7-7.7-2.6-.9.6-1.6 7.9 2.8-.6 1.6-2.6-.9-2.7 7.7 2.6.9-.6 1.6zm-38 5l-4.1-12-2.2 2.1 1.4 3.6-3.3 3.1-3.5-1.6-2.2 2 11.7 4.9 2.2-2.1zm-6.6-2.4l2.4-2.3 1.7 4.2-4.1-1.9zm5.6 54.6l-1.3 1.1-1.8-2.1-6.2 5.4 1.8 2.1-1.3 1.1-5.5-6.4 1.3-1.1 1.8 2.1 6.2-5.4-1.8-2.1 1.3-1.1 5.5 6.4zM196 181l-4.1-7.8-4-2 1.2-2.4 4 2 8.6-1.6-1.4 2.8-6.1.9 3 5.3-1.2 2.8zm17.3-21.4l-1.9-7.1 4.3 6.1 2.3-.9-1.2-7.3 3.7 6.4 2.5-1-6.5-9.9-2.4.9 1.4 7.9-4.6-6.6-2.4 1 2.3 11.5 2.5-1zm3.1-10.4l-.1-.2.1.2zm-5.4 2.1l-.1-.1.1.1zm20.4-5.4l-8.1.2v-1.8l10.8-.3.3 11.6-2.8.1-.2-9.8zm-28.1 6.1zm76.7 38.2c0-27.6-22.4-50-50-50s-50 22.4-50 50 22.4 50 50 50 50-22.4 50-50zm-50 47.5c-26.2 0-47.5-21.3-47.5-47.5s21.3-47.5 47.5-47.5 47.5 21.3 47.5 47.5-21.3 47.5-47.5 47.5zm30.2-29.4l8.9 7.4-1.7 2.1-3.8-3.2.4 7.2-2.2 2.6-.3-6.7-8.9-.3 2.1-2.6 6.9.5v-2.6l-3-2.5 1.6-1.9zm-29.8 16.4h-.1c-1.6-.1-3.2.5-4.3 1.7-1.1 1.3-1.6 2.9-1.5 4.5-.1 1.7.5 3.3 1.7 4.5 1.1 1 2.6 1.6 4.1 1.5h.1c1.5 0 3-.5 4.1-1.5.1-.1.2-.3.3-.5.1-.2.3-.4.4-.5v-.1c.2-.3.4-.6.5-1 0-.1.1-.2.1-.2 0-.1.1-.2.1-.3.7-2.2.2-4.8-1.4-6.6-1.1-1.1-2.6-1.6-4.1-1.5zm0 10.6c-2 0-3-1.5-3.1-4.4 0-3 1-4.5 3-4.5h.1c2 0 3.1 1.4 3.1 4.4s-1 4.5-3.1 4.5zm-12.3-12.1l2.4 1.1-4.8 10.5-2.4-1.1 2-4.5-6.8 2.3-3.1-1.4 6.4-2.1-2.1-8.7 3 1.4 1.3 6.8 2.5-.7 1.6-3.6zm30 2l7.7 4.2-2.8 1.3-5.3-3.1-.9 6.1-2.8 1.3 1.7-8.6-1.9-4.1 2.4-1.2 1.9 4.1zm99-160.7h-6.9l10.9-28.6h6.9l-10.9 28.6zm-14.7 0h-6.8l10.9-10.7-.1-17.9h7.2v18.3l-11.2 10.3zM112 187.3l-4.5-11.4h6.9l6.5 16.9h-7.4c-1.6-.1-3.2.7-4 2.1-1 1.5.4 3.1 2.8 3.1h6.7l2-5.2h-.1l6.4-16.9h6.9l-10.9 28.6h-13c-6-.2-9.1-6-7.6-10 1.4-3.7 4.6-7.2 9.3-7.2zM325.2 64.5h-6.9l10.9-28.6h6.9l-10.9 28.6zm44.2-75c-4.4 23.2-24.7 40.7-49.1 40.7-24.4 0-44.8-17.5-49.1-40.7h2.5c4.3 21.8 23.5 38.3 46.6 38.3s42.3-16.5 46.6-38.3h2.5zM292 47.3l-4.5-11.4h6.9l6.5 16.9h-7.4c-1.6-.1-3.2.7-4 2.1-1 1.5.4 3.1 2.8 3.1h6.7l2-5.2h-.1l6.4-16.9h6.9l-10.9 28.6h-13c-6-.2-9.1-6-7.6-10 1.4-3.7 4.6-7.2 9.3-7.2zm18.6 17.2h-6.8l10.9-10.7-.1-17.9h7.2v18.3l-11.2 10.3zm-55.8 86.2zm-24.8 6c-18.5 0-33.5 15-33.5 33.5s15 33.5 33.5 33.5 33.5-15 33.5-33.5-15-33.5-33.5-33.5zm-31 33.5c0-17.1 13.9-31 31-31 9.3 0 17.7 4.1 23.4 10.7l-12.9 6s-4.3-7.3-7-9.6c-3.1-2.6-13.1-4.2-17.1-2.3-4 1.9-9.5 10.1-9.5 10.1 2.4-.1 4.9.1 7.3.4 1.8.3 3.9.9 8.4 9.3 1.6 3.3 3 6.7 4 10.2 0 0-5.1 4.3-7.2 5.7-3.4 2.3-12.6 6.1-12.6 6.1l5.4 9.8c-8-5.7-13.2-14.9-13.2-25.4zm41.9-5.8l-5.5 6.7c-1-1-1.7-2.2-2-3.5-.3-1.1-.3-2.1 0-3.2h7.5zm20.1 5.8c0 17.1-13.9 31-31 31-6.3 0-12.2-1.9-17.1-5.1 1.4-1 7.1-5 9.2-6.9 3.8-3.5 7.9-8 7.9-8l-3.1 15.4 4.1 1.7 22.7-48.1c4.5 5.4 7.3 12.4 7.3 20zm-7.2-25.4l11.4-5.4-2.3-1.9-3.5 1.8-3.5-3 1.2-3.7-2.3-1.9-3.3 12.1 2.3 2zm1.5-6.8l2.5 2.1-4 2.2 1.5-4.3zm5 9.1c-1 .6-1.5 1.8-1.2 3 .2 1.3.6 2.6 1.3 3.7l2.4 4.4 10.1-5.6-1.3-2.3-4.5 2.5-1-1.9 2.7-5.8-1.5-2.8-2.7 6.4c-1.6-1.8-3-2.3-4.3-1.6zm5.4 6.5L263 175l-1-1.8c-1.1-2-1.3-3.3-.4-3.8.2-.1.3-.1.5-.1.5.1 1 .4 1.4.8.4.5.8 1.1 1.2 1.7l1 1.8zM161.8 21.4l-2.3-11.5-2.5 1 1.9 7.1-4.3-6.1-2.3.9 1.2 7.3-3.7-6.4-2.5 1 6.5 9.9 2.4-.9-1.4-7.9 4.6 6.6 2.4-1zm-7.9-.1zm.4-6.8zm5.1 4.6zm86.8 226.8l-10.9 10.7.1 17.9h-7.2v-18.3l11.2-10.3h6.8zM121.9 85.2l-7.7-4.2 2.8-1.3 5.3 3.1.9-6.1 2.8-1.3-1.7 8.6 1.9 4.1-2.4 1.2-1.9-4.1zM66.2 245.9l-10.9 10.7.1 17.9h-7.2v-18.3l11.2-10.3h6.8zM140 70.2c-27.6 0-50 22.4-50 50s22.4 50 50 50 50-22.4 50-50-22.4-50-50-50zm0 97.6c-26.2 0-47.5-21.3-47.5-47.5s21.3-47.5 47.5-47.5 47.5 21.3 47.5 47.5-21.3 47.5-47.5 47.5zm-1.4-3.2l8.1-.2v1.8l-10.8.3-.3-11.6 2.8-.1.2 9.8zm18.1-13.7l1.9 7.1-4.3-6.1-2.3.9 1.2 7.3-3.7-6.4-2.5 1 6.5 9.9 2.4-.9-1.4-7.9 4.6 6.6 2.4-1-2.3-11.5-2.5 1zm-3.1 10.4zm.4-6.8zm5.1 4.6zm-78.8 8c-1 .6-1.5 1.8-1.2 3 .2 1.3.6 2.6 1.3 3.7l2.4 4.4 10.1-5.6-1.3-2.3-4.5 2.5-1-1.9 2.7-5.8-1.5-2.8-2.7 6.4c-1.6-1.8-3-2.3-4.3-1.6zm5.4 6.5L83 175l-1-1.8c-1.1-2-1.3-3.3-.4-3.8.2-.1.3-.1.5-.1.5.1 1 .4 1.4.8.4.5.8 1.1 1.2 1.7l1 1.8zm96.6-34.3l-1.4 2.4-4-2-8.6 1.6 1.4-2.8 6.1-.9-3-5.3 1.4-2.8 4.1 7.8 4 2zM51.7 245.9l-10.9 28.6h-6.9l10.9-28.6h6.9zm78.9-41.4h-6.8l10.9-10.7-.1-17.9h7.2v18.3l-11.2 10.3zm-97.3-44.9l-1.9-7.1 4.3 6.1 2.3-.9-1.2-7.3 3.7 6.4 2.5-1-6.5-9.9-2.4.9 1.4 7.9-4.6-6.6-2.4 1 2.3 11.5 2.5-1zm3.1-10.4l-.1-.2.1.2zm-5.4 2.1l-.1-.1.1.1zm34.4 7.7l-7.9-2.8.6-1.6 2.6.9 2.7-7.7-2.6-.9.6-1.6 7.9 2.8-.6 1.6-2.6-.9-2.7 7.7 2.6.9-.6 1.6zM50 156.7c-18.5 0-33.5 15-33.5 33.5s15 33.5 33.5 33.5 33.5-15 33.5-33.5-15-33.5-33.5-33.5zm-31 33.5c0-17.1 13.9-31 31-31 9.3 0 17.7 4.1 23.4 10.7l-12.9 6s-4.3-7.3-7-9.6c-3.1-2.6-13.1-4.2-17.1-2.3-4 1.9-9.5 10.1-9.5 10.1 2.4-.1 4.9.1 7.3.4 1.8.3 3.9.9 8.4 9.3 1.6 3.3 3 6.7 4 10.2 0 0-5.1 4.3-7.2 5.7-3.4 2.3-12.6 6.1-12.6 6.1l5.4 9.8c-8-5.7-13.2-14.9-13.2-25.4zm41.9-5.8l-5.5 6.7c-1-1-1.7-2.2-2-3.5-.3-1.1-.6-2.2 0-3.2h7.5zm20.1 5.8c0 17.1-13.9 31-31 31-6.3 0-12.2-1.9-17.1-5.1 1.4-1 7.1-5 9.2-6.9 3.8-3.5 7.9-8 7.9-8l-3.1 15.4 4.1 1.7 22.7-48.1c4.5 5.4 7.3 12.4 7.3 20zm4.2-30.8l-2.3-1.9-3.5 1.8-3.5-3 1.2-3.7-2.3-1.9-3.3 12.1 2.3 2 11.4-5.4zm-9.9-1.4l2.5 2.1-4 2.2 1.5-4.3zm-23.9-12.1l-8.1.2v-1.8l10.8-.3.3 11.6-2.8.1-.2-9.8zm100.5-58.6l-2.4-1.1 4.8-10.5 2.4 1.1-2 4.5 6.8-2.3 3.1 1.4-6.4 2.1 2.1 8.7-3-1.4L156 83l-2.5.7-1.6 3.6zm11.7 7l1.3-1.1 1.8 2.1 6.2-5.4-1.8-2.1 1.3-1.1 5.5 6.4-1.3 1.1-1.8-2.1-6.2 5.4 1.8 2.1-1.3 1.1-5.5-6.4zM140 86.8c-18.5 0-33.5 15-33.5 33.5s15 33.5 33.5 33.5 33.5-15 33.5-33.5-15-33.5-33.5-33.5zm-23.7 53.4c-4.5-5.4-7.3-12.3-7.3-19.9 0-17.1 13.9-31 31-31 6.3 0 12.1 1.9 17 5.1-1.5 1.1-7 5-9.1 6.8-3.8 3.5-7.9 8-7.9 8l3.1-15.4-4.1-1.7-22.7 48.1zm20.3-14.1h-7.5l5.5-6.7c1 1 1.7 2.2 2 3.5.3 1.1.2 2.1 0 3.2zm3.4 25.2c-9.4 0-17.8-4.2-23.5-10.8l13-6s4.3 7.3 7 9.6c3.1 2.6 13.1 4.2 17.1 2.3 4-1.9 9.5-10.1 9.5-10.1-2.4.1-4.9-.1-7.3-.4-1.8-.3-3.9-.9-8.4-9.3-1.7-3.3-3-6.7-4-10.2 0 0 5.1-4.3 7.2-5.7 3.4-2.3 12.6-6.1 12.6-6.1l-5.3-9.6c7.9 5.6 13.1 14.9 13.1 25.3 0 17.1-13.9 31-31 31zm27.1 53.2h-6.9l10.9-28.6h6.9l-10.9 28.6zm-21.9 0h-6.9l10.9-28.6h6.9l-10.9 28.6zm7.2 0h-6.8l10.9-10.7-.1-17.9h7.2v18.3l-11.2 10.3zm-42.7-61.2c1-.6 1.5-1.8 1.2-3-.2-1.3-.6-2.6-1.3-3.7l-2.4-4.4-10.1 5.6 1.3 2.3 4.5-2.5 1 1.9-2.7 5.8 1.5 2.8 2.7-6.4c1.6 1.8 3 2.3 4.3 1.6zm-5.4-6.4l2.7-1.4 1 1.8c1.1 2 1.3 3.3.4 3.8-.2.1-.3.1-.5.1-.5-.1-1-.4-1.4-.8-.4-.5-.8-1.1-1.2-1.7l-1-1.8zm35.3-51.2c1.7.1 3.3-.5 4.4-1.7 1.1-1.3 1.6-2.9 1.5-4.5.1-1.7-.5-3.3-1.7-4.5-1.1-1-2.6-1.6-4.1-1.5h-.1c-1.5 0-3 .5-4.1 1.5-.4.5-.7 1-1 1.5 0 .1-.1.1-.1.2-1.1 2.4-.7 5.4 1.1 7.5 1.1 1.1 2.6 1.6 4.1 1.5zm0-10.5c2 0 3 1.4 3.1 4.4 0 3-1 4.5-3 4.5h-.1c-2 0-3.1-1.4-3.1-4.4s1-4.5 3.1-4.5zM105 151l2.1 1.9 3.5-1.8 3.5 3-1.2 3.7 2.3 1.9 3.5-12.1-2.3-2L105 151zm9.7 1.4l-2.5-2.1 4-2.2-1.5 4.3zm9.9-1l7.9 2.8-.6 1.6-2.6-.9-2.7 7.7 2.6.9-.6 1.6-7.9-2.8.6-1.6 2.6.9 2.7-7.7-2.6-.9.6-1.6zm-14.8-49.3l-8.9-7.4 1.7-2.1 3.8 3.2-.4-7.2 2.2-2.6.3 6.7 8.9.3-2.1 2.6-6.9-.5v2.6l3 2.5-1.6 1.9zM27.4 164l-4.1-12-2.2 2.1 1.4 3.6-3.3 3.1-3.5-1.6-2.2 2 11.7 4.9 2.2-2.1zm-6.6-2.4l2.4-2.3 1.7 4.2-4.1-1.9zm141.8-15.1l4.1 12 2.2-2.1-1.4-3.6 3.3-3.1 3.5 1.6 2.2-2-11.7-4.9-2.2 2.1zm6.6 2.4l-2.4 2.3-1.7-4.2 4.1 1.9zm-59.6 127.7l-2.4-4.4-10.1 5.6 1.3 2.3 4.5-2.5 1 1.9-2.7 5.8.1.1h2.6l1.6-3.7c1.6 1.8 3 2.3 4.3 1.6 1-.6 1.5-1.8 1.2-3-.3-1.3-.7-2.6-1.4-3.7zm-1.2 4.5c-.2.1-.3.1-.5.1-.5-.1-1-.4-1.4-.8-.4-.5-.8-1.1-1.2-1.7l-1-1.8 2.7-1.4 1 1.8c1.1 2 1.3 3.3.4 3.8zM144 224c1.1-1.3 1.6-2.9 1.5-4.5.1-1.7-.5-3.3-1.7-4.5-1.1-1-2.6-1.6-4.1-1.5h-.1c-1.5 0-3 .5-4.1 1.5-.4.5-.7 1-1 1.5 0 .1-.1.1-.1.2-1.1 2.4-.7 5.4 1.1 7.5 1.1 1.1 2.6 1.6 4.1 1.5 1.7.1 3.3-.5 4.4-1.7zm-7.5-4.3c0-3 1-4.5 3.1-4.5 2 0 3 1.4 3.1 4.4 0 3-1 4.5-3 4.5h-.1c-2 0-3.1-1.4-3.1-4.4zm28.3 64.7l2.4 1h-3.4l1-1zm1.9-49.1l6.2-5.4-1.8-2.1 1.3-1.1 5.5 6.4-1.3 1.1-1.8-2.1-6.2 5.4 1.8 2.1-1.3 1.1-5.5-6.4 1.3-1.1 1.8 2.1zm-64.1-2.7l3.8 3.2-.4-7.2 2.2-2.6.3 6.7 8.9.3-2.1 2.6-6.9-.5v2.6l3 2.5-1.6 1.9-8.9-7.4 1.7-2.1zm37.4-5.8c-18.5 0-33.5 15-33.5 33.5 0 10 4.4 19 11.3 25.1h4c-1.9-1.4-3.7-3-5.3-4.9l13-6s4.3 7.3 7 9.6c.6.5 1.4.9 2.3 1.3h16.4c3.7-2.9 7.9-9.1 7.9-9.1-2.4.1-4.9-.1-7.3-.4-1.8-.3-3.9-.9-8.4-9.3-1.7-3.3-3-6.7-4-10.2 0 0 5.1-4.3 7.2-5.7 3.4-2.3 12.6-6.1 12.6-6.1l-5.3-9.6c7.9 5.6 13.1 14.9 13.1 25.3 0 10.3-5.1 19.5-12.8 25.1h4c6.9-6.1 11.3-15.1 11.3-25.1 0-18.5-15-33.5-33.5-33.5zm-3.4 39.3h-7.5l5.5-6.7c1 1 1.7 2.2 2 3.5.3 1 .2 2.1 0 3.2zm11.3-24.9c-3.8 3.5-7.9 8-7.9 8l3.1-15.4-4.1-1.7-22.7 48.1c-4.5-5.4-7.3-12.3-7.3-19.9 0-17.1 13.9-31 31-31 6.3 0 12.1 1.9 17 5.1-1.5 1.1-7 5-9.1 6.8zM196 41l-4.1-7.8-4-2 1.2-2.4 4 2 8.6-1.6-1.4 2.8-6.1.9 3 5.3L196 41zm-39.3 175.8l-2 4.5 6.8-2.3 3.1 1.4-6.4 2.1 2.1 8.7-3-1.4-1.3-6.8-2.5.7-1.6 3.6-2.4-1.1 4.8-10.5 2.4 1.1zm92.4 40.8v.1h-.1l.1-.1zm-7.7 27.7l.3.1-.3-.1zm-11.4-5.1c8 0 15.5 1.9 22.2 5.2h-6.4c-4.9-1.7-10.2-2.7-15.8-2.7s-10.8 1-15.8 2.7h-6.4c6.7-3.3 14.2-5.2 22.2-5.2zm-40-20c0 9.2-2.5 17.8-6.8 25.2h-2.9c4.6-7.3 7.2-15.9 7.2-25.1 0-26.2-21.3-47.5-47.5-47.5s-47.5 21.3-47.5 47.5c0 9.2 2.6 17.8 7.2 25.1h-2.9c-4.3-7.4-6.8-16-6.8-25.2 0-27.6 22.4-50 50-50s50 22.4 50 50zm-9.1 21.5l-4-2-8.6 1.6 1.4-2.8 6.1-.9-3-5.3 1.4-2.8 4.1 7.8 4 2-1.4 2.4zm28.9-35.8l-10.9 28.6H192l10.9-28.6h6.9zm3.8 28.6h-7.2v-18.3l11.2-10.3h6.8l-10.9 10.7.1 17.9zm20.5 9.5v1.4h-10.8v-1.1l10.8-.3zm26.1-215.7l8.9 7.4-1.7 2.1-3.8-3.2.4 7.2-2.2 2.6-.3-6.7-8.9-.3 2.1-2.6 6.9.5v-2.6l-3-2.5 1.6-1.9zM230 .2c-27.6 0-50 22.4-50 50s22.4 50 50 50 50-22.4 50-50-22.4-50-50-50zm0 97.5c-26.2 0-47.5-21.3-47.5-47.5S203.8 2.7 230 2.7s47.5 21.3 47.5 47.5-21.3 47.5-47.5 47.5zm18.1-12.5l7.7 4.2-2.8 1.3-5.3-3.1-.9 6.1L244 95l1.7-8.6-1.9-4.1 2.4-1.2 1.9 4.1zM.6 281.7l-4-2-7.7 1.4v-1.6l.5-1 6.1-.9-3-5.3 1.4-2.8 4.1 7.8 4 2-1.4 2.4zm229.8-197h-.1c-1.6-.1-3.2.5-4.3 1.7-1.1 1.3-1.6 2.9-1.5 4.5-.1 1.7.5 3.3 1.7 4.5 1.1 1 2.6 1.6 4.1 1.5h.1c1.5 0 3-.5 4.1-1.5.1-.1.2-.3.3-.5.1-.2.3-.4.4-.5v-.1c.2-.3.4-.6.5-1 0-.1.1-.2.1-.2 0-.1.1-.2.1-.3.7-2.2.2-4.8-1.4-6.6-1.1-1.1-2.6-1.6-4.1-1.5zm0 10.6c-2 0-3-1.5-3.1-4.4 0-3 1-4.5 3-4.5h.1c2 0 3.1 1.4 3.1 4.4s-1 4.5-3.1 4.5zm-24-19.1l-1.3 1.1-1.8-2.1-6.2 5.4 1.8 2.1-1.3 1.1-5.5-6.4 1.3-1.1 1.8 2.1 6.2-5.4-1.8-2.1 1.3-1.1 5.5 6.4zm11.7 7l2.4 1.1-4.8 10.5-2.4-1.1 2-4.5-6.8 2.3-3.1-1.4 6.4-2.1-2.1-8.7 3 1.4 1.3 6.8 2.5-.7 1.6-3.6zM87.3 255.9c-1.4 3.7-4.6 7.2-9.3 7.2l4.5 11.4h-6.9L69 257.7h7.5c1.6.1 3.2-.7 4-2.1 1-1.5-.4-3.1-2.8-3.1H71l-2 5.2-6.4 16.9h-6.9L66.6 246h13c6.1.1 9.2 6 7.7 9.9zm-25.9 29.4l.3.1-.3-.1zM50 280.2c8 0 15.5 1.9 22.2 5.2h-6.4c-4.9-1.7-10.2-2.7-15.8-2.7s-10.8 1-15.8 2.7h-6.4c6.7-3.3 14.2-5.2 22.2-5.2zm-40.3-20c0 9.2-2.5 17.8-6.8 25.2H0c4.6-7.3 7.2-15.9 7.2-25.1 0-15.2-7.2-28.7-18.3-37.4v-3.2c12.6 9 20.8 23.8 20.8 40.5zM54.1 284v1.4H43.3v-1.1l10.8-.3zm-24.3-38.1l-10.9 28.6H12l10.9-28.6h6.9zm3.8 28.6h-7.2v-18.3l11.2-10.3h6.8l-10.9 10.7.1 17.9zm92.4-59.1l-1.7 8.6 1.9 4.1-2.4 1.2-1.9-4.1-7.7-4.2 2.8-1.3 5.3 3.1.9-6.1 2.8-1.3zM285 151l2.1 1.9 3.5-1.8 3.5 3-1.2 3.7 2.3 1.9 3.5-12.1-2.3-2L285 151zm9.7 1.4l-2.5-2.1 4-2.2-1.5 4.3zm7.2-67.2l-7.7-4.2 2.8-1.3 5.3 3.1.9-6.1 2.8-1.3-1.7 8.6 1.9 4.1-2.4 1.2-1.9-4.1zm-12.2 58.1c1-.6 1.5-1.8 1.2-3-.2-1.3-.6-2.6-1.3-3.7l-2.4-4.4-10.1 5.6 1.3 2.3 4.5-2.5 1 1.9-2.7 5.8 1.5 2.8 2.7-6.4c1.6 1.8 3 2.3 4.3 1.6zm-5.4-6.4l2.7-1.4 1 1.8c1.1 2 1.3 3.3.4 3.8-.2.1-.3.1-.5.1-.5-.1-1-.4-1.4-.8-.4-.5-.8-1.1-1.2-1.7l-1-1.8zm5.5-34.8l-8.9-7.4 1.7-2.1 3.8 3.2-.4-7.2 2.2-2.6.3 6.7 8.9.3-2.1 2.6-6.9-.5v2.6l3 2.5-1.6 1.9zm42.1-14.8l-2.4-1.1 4.8-10.5 2.4 1.1-2 4.5 6.8-2.3 3.1 1.4-6.4 2.1 2.1 8.7-3-1.4L336 83l-2.5.7-1.6 3.6zm-12.3-1.6h.1c1.6.1 3.2-.5 4.3-1.7 1.1-1.3 1.6-2.9 1.5-4.5.1-1.7-.5-3.3-1.7-4.5-1.1-1-2.6-1.6-4.1-1.5h-.1c-1.5 0-3 .5-4.1 1.5-.4.5-.7 1-1 1.5 0 .1-.1.1-.1.2-1.1 2.4-.7 5.4 1.1 7.5 1.1 1.1 2.6 1.6 4.1 1.5zm0-10.5c2 0 3 1.4 3.1 4.4 0 3-1 4.5-3 4.5h-.1c-2 0-3.1-1.4-3.1-4.4s1-4.5 3.1-4.5zm9.6 100.7h6.9l-10.9 28.6h-6.9l10.9-28.6zm-42.7-55.6c0 18.5 15 33.5 33.5 33.5s33.5-15 33.5-33.5-15-33.5-33.5-33.5-33.5 15-33.5 33.5zm64.5 0c0 17.1-13.9 31-31 31-9.4 0-17.8-4.2-23.5-10.8l13-6s4.3 7.3 7 9.6c3.1 2.6 13.1 4.2 17.1 2.3 4-1.9 9.5-10.1 9.5-10.1-2.4.1-4.9-.1-7.3-.4-1.8-.3-3.9-.9-8.4-9.3-1.7-3.3-3-6.7-4-10.2 0 0 5.1-4.3 7.2-5.7 3.4-2.3 12.6-6.1 12.6-6.1l-5.3-9.6c7.9 5.6 13.1 14.9 13.1 25.3zm-41.9 5.8l5.5-6.7c1 1 1.7 2.2 2 3.5.3 1.1.3 2.1 0 3.2h-7.5zm18.8-24.9c-3.8 3.5-7.9 8-7.9 8l3.1-15.4-4.1-1.7-22.7 48.1c-4.5-5.4-7.3-12.3-7.3-19.9 0-17.1 13.9-31 31-31 6.3 0 12.1 1.9 17 5.1-1.5 1.1-7 5-9.1 6.8zm24.5-14.5l5.5 6.4-1.3 1.1-1.8-2.1-6.2 5.4 1.8 2.1-1.3 1.1-5.5-6.4 1.3-1.1 1.8 2.1 6.2-5.4-1.8-2.1 1.3-1.1zm1.8 42.8l4.1 7.8 4 2-1.4 2.4-4-2-8.6 1.6 1.4-2.8 6.1-.9-3-5.3 1.4-2.8zM140.3 13.8c-15.3 0-28.2-10.3-32.2-24.3h2.6c1.2 3.9 3.2 7.6 5.8 10.7l5-10.7h27.7c3.4 5.6 5.2 6.1 6.8 6.4 2.4.3 4.9.5 7.3.4 0 0-5.5 8.2-9.5 10.1-4 1.9-14 .3-17.1-2.3-2.7-2.3-7-9.6-7-9.6l-12.9 6c5.7 6.6 14.1 10.8 23.5 10.8 13.9 0 25.7-9.2 29.6-21.8h2.6c-4 14-16.9 24.3-32.2 24.3zm178.3 150.8l8.1-.2v1.8l-10.8.3-.3-11.6 2.8-.1.2 9.8zm-14-13.2l7.9 2.8-.6 1.6-2.6-.9-2.7 7.7 2.6.9-.6 1.6-7.9-2.8.6-1.6 2.6.9 2.7-7.7-2.6-.9.6-1.6zm32.1-.5l1.9 7.1-4.3-6.1-2.3.9 1.2 7.3-3.7-6.4-2.5 1 6.5 9.9 2.4-.9-1.4-7.9 4.6 6.6 2.4-1-2.3-11.5-2.5 1zm-3.1 10.4zm.4-6.8zm5.1 4.6zm3.5-12.6l4.1 12 2.2-2.1-1.4-3.6 3.3-3.1 3.5 1.6 2.2-2-11.7-4.9-2.2 2.1zm6.6 2.4l-2.4 2.3-1.7-4.2 4.1 1.9zM306 215.4l-1.7 8.6 1.9 4.1-2.4 1.2-1.9-4.1-7.7-4.2 2.8-1.3 5.3 3.1.9-6.1 2.8-1.3zm14 11.4c-18.5 0-33.5 15-33.5 33.5 0 10 4.4 19 11.3 25.1h4c-1.9-1.4-3.7-3-5.3-4.9l13-6s4.3 7.3 7 9.6c.6.5 1.4.9 2.3 1.3h16.4c3.7-2.9 7.9-9.1 7.9-9.1-2.4.1-4.9-.1-7.3-.4-1.8-.3-3.9-.9-8.4-9.3-1.7-3.3-3-6.7-4-10.2 0 0 5.1-4.3 7.2-5.7 3.4-2.3 12.6-6.1 12.6-6.1l-5.3-9.6c7.9 5.6 13.1 14.9 13.1 25.3 0 10.3-5.1 19.5-12.8 25.1h4c6.9-6.1 11.3-15.1 11.3-25.1 0-18.5-15-33.5-33.5-33.5zm-3.4 39.3h-7.5l5.5-6.7c1 1 1.7 2.2 2 3.5.3 1.1.3 2.1 0 3.2zm11.3-24.9c-3.8 3.5-7.9 8-7.9 8l3.1-15.4-4.1-1.7-22.7 48.1c-4.5-5.4-7.3-12.3-7.3-19.9 0-17.1 13.9-31 31-31 6.3 0 12.1 1.9 17 5.1-1.5 1.1-7 5-9.1 6.8zm-8.2-15.5c1.6.1 3.2-.5 4.3-1.7 1.1-1.3 1.6-2.9 1.5-4.5.1-1.7-.5-3.3-1.7-4.5-1.1-1-2.6-1.6-4.1-1.5h-.1c-1.5 0-3 .5-4.1 1.5-.4.5-.7 1-1 1.5 0 .1-.1.1-.1.2-1.1 2.4-.7 5.4 1.1 7.5 1.1 1.1 2.6 1.6 4.1 1.5h.1zm-3.2-6c0-3 1-4.5 3.1-4.5 2 0 3 1.4 3.1 4.4 0 3-1 4.5-3 4.5h-.1c-2 0-3.1-1.4-3.1-4.4zm20.2-2.9l-2 4.5 6.8-2.3 3.1 1.4-6.4 2.1 2.1 8.7-3-1.4-1.3-6.8-2.5.7-1.6 3.6-2.4-1.1 4.8-10.5 2.4 1.1zm10 18.5l6.2-5.4-1.8-2.1 1.3-1.1 5.5 6.4-1.3 1.1-1.8-2.1-6.2 5.4 1.8 2.1-1.3 1.1-5.5-6.4 1.3-1.1 1.8 2.1zm-57.1 41.3l-2.4-4.4-10.1 5.6 1.3 2.3 4.5-2.5 1 1.9-2.7 5.8.1.1h2.6l1.6-3.7c1.6 1.8 3 2.3 4.3 1.6 1-.6 1.5-1.8 1.2-3-.3-1.3-.7-2.6-1.4-3.7zm-1.2 4.5c-.2.1-.3.1-.5.1-.5-.1-1-.4-1.4-.8-.4-.5-.8-1.1-1.2-1.7l-1-1.8 2.7-1.4 1 1.8c1.1 2 1.3 3.3.4 3.8zm51.8-76.6l10.9-28.6h6.9l-10.9 28.6h-6.9zm-72.9 51.4c-1.4 3.7-4.6 7.2-9.3 7.2l4.5 11.4h-6.9l-6.5-16.8h7.4c1.6.1 3.2-.7 4-2.1 1-1.5-.4-3.1-2.8-3.1H251l-2 5.2h.1l-6.4 16.8h-6.9l10.9-28.6h13c6 .2 9.1 6.1 7.6 10zm15.3-23.3l3.8 3.2-.4-7.2 2.2-2.6.3 6.7 8.9.3-2.1 2.6-6.9-.5v2.6l3 2.5-1.6 1.9-8.9-7.4 1.7-2.1zm21.2-28.1l10.9-10.7-.1-17.9h7.2v18.3l-11.2 10.3h-6.8zM292 187.3l-4.5-11.4h6.9l6.5 16.9h-7.4c-1.6-.1-3.2.7-4 2.1-1 1.5.4 3.1 2.8 3.1h6.7l2-5.2h-.1l6.4-16.9h6.9l-10.9 28.6h-13c-6-.2-9.1-6-7.6-10 1.4-3.7 4.6-7.2 9.3-7.2zm33.6 17.2l10.9-10.7-.1-17.9h7.2v18.3l-11.2 10.3h-6.8zm35.3 77.2l-4-2-8.6 1.6 1.4-2.8 6.1-.9-3-5.3 1.4-2.8 4.1 7.8 4 2-1.4 2.4zm-16.1 2.7l2.4 1h-3.4l1-1zm25.2-24.2c0 9.2-2.5 17.8-6.8 25.2h-2.9c4.6-7.3 7.2-15.9 7.2-25.1 0-26.2-21.3-47.5-47.5-47.5s-47.5 21.3-47.5 47.5c0 9.2 2.6 17.8 7.2 25.1h-2.9c-4.3-7.4-6.8-16-6.8-25.2 0-27.6 22.4-50 50-50s50 22.4 50 50zm-50-190c-27.6 0-50 22.4-50 50s22.4 50 50 50 50-22.4 50-50-22.4-50-50-50zm0 97.6c-26.2 0-47.5-21.3-47.5-47.5s21.3-47.5 47.5-47.5 47.5 21.3 47.5 47.5-21.3 47.5-47.5 47.5zM40.8 134.5h-6.9l10.9-28.6h6.9l-10.9 28.6zM33.3 19.6l-1.9-7.1 4.3 6.1 2.3-.9-1.2-7.3 3.7 6.4 2.5-1-6.5-9.9-2.4 1 1.4 7.9-4.6-6.6-2.4 1 2.3 11.4 2.5-1zm-2.4-8.3zM65.5 19l-7.9-2.8.6-1.6 2.6.9 2.7-7.7-2.6-.9.5-1.6 7.9 2.8-.6 1.6-2.6-.9-2.7 7.7 2.6.9-.5 1.6zM50 16.7c-18.6.1-33.6 15.1-33.5 33.6 0 18.5 15.1 33.5 33.6 33.5s33.5-15.1 33.5-33.6S68.5 16.7 50 16.7zM19 50.2c0-17.1 13.9-31 31-31 9.3 0 17.7 4.1 23.4 10.7l-12.9 6s-4.3-7.3-7-9.6c-3.1-2.6-13.1-4.2-17.1-2.3s-9.5 10.1-9.5 10.1c2.4-.1 4.9.1 7.3.4 1.8.3 3.9.9 8.4 9.3 1.6 3.3 3 6.7 4 10.2 0 0-5.1 4.3-7.2 5.7-3.4 2.3-12.6 6.1-12.6 6.1l5.4 9.8C24.2 69.9 19 60.7 19 50.2zm41.9-5.8l-5.5 6.7c-1-1-1.7-2.2-2-3.5-.3-1-.2-2.1 0-3.2h7.5zM50 81.2c-6.3 0-12.2-1.9-17.1-5.1 1.4-1 7.1-5 9.2-6.9 3.8-3.5 7.9-8 7.9-8l-3.1 15.4 4.1 1.7 22.7-48.1c4.6 5.4 7.3 12.4 7.3 20 0 17.1-13.9 31-31 31zm30.3-54.1c-1 .6-1.5 1.8-1.2 3 .2 1.3.6 2.6 1.3 3.7l2.4 4.4 10.1-5.6-1.3-2.3-4.5 2.5-1-1.9 2.7-5.8-1.5-2.8-2.7 6.4c-1.6-1.8-3-2.3-4.3-1.6zm5.4 6.5L83 35l-1-1.8c-1.1-2-1.3-3.3-.4-3.8.2-.1.3-.1.5-.1.5.1 1 .4 1.4.8.4.5.8 1.1 1.2 1.7l1 1.8zM27.4 24l-4.1-12-2.1 2 1.3 3.7-3.3 3.1-3.5-1.6-2.2 2 11.7 4.9 2.2-2.1zm-6.6-2.4l2.4-2.3 1.7 4.2-4.1-1.9zm64.4-2.2l-2.3-1.9-3.5 1.8-3.5-3 1.2-3.7-2.3-1.9-3.3 12.1 2.3 2 11.4-5.4zM75.3 18l2.5 2.1-4 2.2 1.5-4.3zM51.4 5.9l-8.2.1V4.2L54.1 4l.3 11.6-2.8.1-.2-9.8zm28.8 62.4l8.9 7.4-1.7 2.1-3.8-3.2.4 7.2-2.2 2.6-.3-6.7-8.9-.3 2.1-2.6 6.9.5v-2.6l-3-2.5 1.6-1.9zM50 .2C22.4.2 0 22.6 0 50.2s22.4 50 50 50 50-22.4 50-50S77.6.2 50 .2zm0 97.5c-26.2 0-47.5-21.3-47.5-47.5S23.7 2.8 49.9 2.8 97.4 24 97.4 50.2 76.2 97.7 50 97.7zm18.1-12.5l7.7 4.2-2.8 1.3-5.3-3.1-.9 6.1-2.9 1.3 1.7-8.6-1.9-4.1 2.5-1.2 1.9 4.1zm-30-2l2.4 1.1-4.8 10.5-2.4-1.1 2-4.5-6.8 2.3-3.1-1.5 6.4-2.1-2.1-8.6 3 1.4 1.3 6.8 2.5-.7 1.6-3.6zm-11.7-7l-1.3 1.1-1.8-2.1-6.2 5.4 1.8 2.1-1.3 1.1-5.5-6.4 1.3-1.1 1.8 2.1 6.2-5.4-1.8-2.1 1.3-1.1 5.5 6.4zM16 41l-4.1-7.8-4-2 1.2-2.4 4 2 8.6-1.6-1.3 2.8-6.1.9 3 5.3L16 41zm34.4 43.7h-.1c-1.6-.1-3.2.5-4.3 1.7-1.1 1.3-1.6 2.9-1.5 4.5-.1 1.7.5 3.3 1.7 4.5 1.1 1 2.6 1.6 4.1 1.5h.1c1.5 0 3-.5 4.1-1.5 2.3-2.6 2.3-6.6 0-9.2-1.1-1.1-2.6-1.6-4.1-1.5zm0 10.6c-2 0-3-1.5-3.1-4.4 0-3 1-4.5 3-4.5h.1c2 0 3.1 1.4 3.1 4.4s-1 4.5-3.1 4.5zm88.5-70.7l8.1-.2v1.8l-10.8.3-.3-11.6 2.8-.1.2 9.8zM91.2-10.5h2.5c4.3 21.8 23.5 38.3 46.6 38.3s42.3-16.5 46.6-38.3h2.5c-4.4 23.2-24.7 40.7-49.1 40.7-24.4 0-44.8-17.5-49.1-40.7zM112 47.3l-4.5-11.4h6.9l6.5 16.9h-7.4c-1.6-.1-3.2.7-4 2.1-1 1.5.4 3.1 2.8 3.1h6.7l2-5.2h-.1l6.4-16.9h6.9l-10.9 28.6h-13c-6-.2-9.1-6-7.6-10 1.4-3.7 4.6-7.2 9.3-7.2zm-9.1-39.2l2.7-6.4c1.6 1.8 3 2.3 4.3 1.6 1-.6 1.5-1.8 1.2-3-.2-1.3-.6-2.6-1.3-3.7l-2.4-4.4-10.1 5.6L98.6.1l4.5-2.5 1 1.9-2.7 5.8 1.5 2.8zm4.3-12.6l1 1.8c1.1 2 1.3 3.3.4 3.8-.2.1-.3.1-.5.1-.5-.1-1-.4-1.4-.8-.4-.5-.8-1.1-1.2-1.7l-1-1.8 2.7-1.4zm-73.4-1h-7.2v-5h7.2v5zm96.8 70h-6.8l10.9-10.7-.1-17.9h7.2v18.3l-11.2 10.3zm-1.1-49.6l-2.7 7.7 2.6.9-.6 1.6-7.9-2.8.6-1.6 2.6.9 2.7-7.7-2.6-.9.6-1.6 7.9 2.8-.6 1.6-2.6-.9zm-14 4.8l3.3-12.1-2.3-2-11.4 5.4 2.3 1.9 3.5-1.8 3.5 3-1.2 3.7 2.3 1.9zm-3-9.4l4-2.2-1.5 4.3-2.5-2.1zm54.6 54.2h-6.9l10.9-28.6h6.9l-10.9 28.6zM66.2 105.9l-10.9 10.7.1 17.9h-7.2v-18.3l11.2-10.3h6.8zm79-41.4h-6.9l10.9-28.6h6.9l-10.9 28.6zM78 123.1l4.5 11.4h-6.9L69 117.7h7.5c1.6.1 3.2-.7 4-2.1 1-1.5-.4-3.1-2.8-3.1H71l-2 5.2-6.4 16.9h-6.9L66.6 106h13c6.1.1 9.2 6 7.7 9.9-1.4 3.7-4.6 7.2-9.3 7.2zm-33.6-17.2l-10.9 10.7.1 17.9h-7.2v-18.3l11.2-10.3h6.8zm-14.6 0l-10.9 28.6H12l10.9-28.6h6.9zm122.6-41.4h-6.8l10.9-10.7-.1-17.9h7.2v18.3l-11.2 10.3zm-163.5 66.2c1.2-3.3 1.8-6.8 1.8-10.4 0-3.6-.6-7.1-1.8-10.4v-6c2.7 4.9 4.3 10.4 4.3 16.4s-1.6 11.6-4.3 16.4v-6zm278.4-14.8c-1.4 3.7-4.6 7.2-9.3 7.2l4.5 11.4h-6.9l-6.5-16.8h7.4c1.6.1 3.2-.7 4-2.1 1-1.5-.4-3.1-2.8-3.1H251l-2 5.2h.1l-6.4 16.8h-6.9l10.9-28.6h13c6 .2 9.1 6.1 7.6 10zm-18.2 1.7v.1h-.1l.1-.1zm11.2-90.5c-1 .6-1.5 1.8-1.2 3 .2 1.3.6 2.6 1.3 3.7l2.4 4.4 10.1-5.6-1.3-2.3-4.5 2.5-1-1.9 2.7-5.8-1.5-2.8-2.7 6.4c-1.6-1.8-3-2.3-4.3-1.6zm5.4 6.5L263 35l-1-1.8c-1.1-2-1.3-3.3-.4-3.8.2-.1.3-.1.5-.1.5.1 1 .4 1.4.8.4.5.8 1.1 1.2 1.7l1 1.8zm-48.1 72.3h6.8l-10.9 10.7.1 17.9h-7.2v-18.3l11.2-10.3zm7.2 0h6.9l-10.9 28.6h-6.9l10.9-28.6zm-21.9 0h6.9l-10.9 28.6H192l10.9-28.6zM230 16.7c-18.5 0-33.5 15-33.5 33.5s15 33.5 33.5 33.5 33.5-15 33.5-33.5-15-33.5-33.5-33.5zm-31 33.5c0-17.1 13.9-31 31-31 9.3 0 17.7 4.1 23.4 10.7l-12.9 6s-4.3-7.3-7-9.6c-3.1-2.6-13.1-4.2-17.1-2.3-4 1.9-9.5 10.1-9.5 10.1 2.4-.1 4.9.1 7.3.4 1.8.3 3.9.9 8.4 9.3 1.6 3.3 3 6.7 4 10.2 0 0-5.1 4.3-7.2 5.7-3.4 2.3-12.6 6.1-12.6 6.1l5.4 9.8c-8-5.7-13.2-14.9-13.2-25.4zm41.9-5.8l-5.5 6.7c-1-1-1.7-2.2-2-3.5-.3-1.1-.3-2.1 0-3.2h7.5zm20.1 5.8c0 17.1-13.9 31-31 31-6.3 0-12.2-1.9-17.1-5.1 1.4-1 7.1-5 9.2-6.9 3.8-3.5 7.9-8 7.9-8l-3.1 15.4 4.1 1.7 22.7-48.1c4.5 5.4 7.3 12.4 7.3 20zm-6.2-39.5zm-41.5 8.9l-1.9-7.1 4.3 6.1 2.3-.9-1.2-7.3 3.7 6.4 2.5-1-6.5-9.9-2.4.9 1.4 7.9-4.6-6.6-2.4 1 2.3 11.5 2.5-1zm-2.3-8.3l-.1-.1.1.1zm35.2 94.6l-10.9 10.7.1 17.9h-7.2v-18.3l11.2-10.3h6.8zm-14.8-100l-8.2.1V4.2l10.9-.2.3 11.6-2.8.1-.2-9.8zM55.7-5.5h-7.2v-5h7.2v5zM245.4 19l-7.9-2.8.6-1.6 2.6.9 2.7-7.7-2.6-.9.6-1.6 7.9 2.8-.6 1.6-2.6-.9-2.7 7.7 2.6.9-.6 1.6zm8.4 5.8l11.4-5.4-2.3-1.9-3.5 1.8-3.5-3 1.2-3.7-2.3-1.9-3.3 12.1 2.3 2zm1.5-6.8l2.5 2.1-4 2.2 1.5-4.3zm-52-6zM-10.3-1.5l6.1-.9-3-5.3 1.4-2.8 4.1 7.8 4 2L.9 1.7l-4-2-8 1.5V.1l.8-1.6zm16.9-9h2.5C6.7 2.4-.7 13.6-11.1 21v-3c9-6.9 15.4-17 17.7-28.5zM-11.1 9.2l.3-.3-.3-.1V6.1l7.6 3.2-2.2 2-3.5-1.6-1.9 1.8V9.2zM12.3-5.5l1.9-5h6.9l-1.9 5h-6.9zm21.8 0l1.9-5h6.9l-1.9 5h-6.9zm39.9-5h6.8l2 5h-6.9l-1.9-5zm-18 5l1.9-5h6.9l-1.9 5H56zM-11.1 98.1l1.3 1.5-1.3 1.1v-2.6zM207.4 24l-4.1-12-2.2 2.1 1.4 3.6-3.3 3.1-3.5-1.6-2.2 2 11.7 4.9 2.2-2.1zm-6.6-2.4l2.4-2.3 1.7 4.2-4.1-1.9zM-11.1 146.2l7.3 3.1-2.2 2-3.5-1.6-1.6 1.5v-5zm0 14.6v-3C0 149 7.2 135.5 7.2 120.3S0 91.6-11.1 82.9v-3.2c12.6 9.1 20.8 23.9 20.8 40.6s-8.2 31.4-20.8 40.5zm7.7-21.1l-7.7 1.4v-1.6l.5-1 6.1-.9-3-5.3 1.4-2.8 4.1 7.8 4 2-1.4 2.4-4-2zM-11.1-8.5c.3-.7.5-1.3.7-2h2.6c-.8 2.7-1.9 5.3-3.3 7.7v-5.7zm0 101.7l3.8-3.3-1.8-2.1 1.3-1.1 5.5 6.4-1.3 1.1-1.8-2.1-5.7 5v-3.9z"/></svg>