<?xml version="1.0" encoding="utf-8"?>
<!-- Generator: Adobe Illustrator 19.2.1, SVG Export Plug-In . SVG Version: 6.00 Build 0)  -->
<!DOCTYPE svg PUBLIC "-//W3C//DTD SVG 1.1//EN" "http://www.w3.org/Graphics/SVG/1.1/DTD/svg11.dtd">
<svg version="1.1" id="レイヤー_1" xmlns="http://www.w3.org/2000/svg" xmlns:xlink="http://www.w3.org/1999/xlink" x="0px"
	 y="0px" viewBox="0 0 1190.6 841.9" enable-background="new 0 0 1190.6 841.9" xml:space="preserve">
<path display="none" fill="#C30D23" d="M609.8,299.7c0,0,10.7-0.4,40.9,6.2c39.3,8.6,57.7-4.5,57.7-4.5s129.4-9.2,148.9-7.7
	c19.5,1.5,66.8,10.5,81.4,24c14.6,13.5-43.9,121-48.4,129.5s-44.9,14-71.2,0S710,419.9,675.2,414.6c-34.8-5.2-54.9-17.4-65.4-39.9
	C599.3,352.2,609.8,299.7,609.8,299.7z"/>
<path display="none" fill="#C30D23" d="M281.9,420.9c0,0,15,51.4,33,55.9c18,4.5,94.5,7,105-7c10.5-14,24-21.5,36-26
	c12-4.5,10.5,22,16.5,26c6,4,33,19,40.5,19s34.5-38.6,31.5-53s-27-29.4-49.5-38.4c-22.5-9-53.2-30-69.3-42
	c-16.2-12-69.3-19.5-87.7-12s-64.5,33-62.5,46.5"/>
<g>
	<rect x="29.8" y="268.4" fill="#C30D23" width="1130.9" height="188.2"/>
	<g>
		<g>
			<path fill="#FAED00" d="M275.9,345.3c-1.4,6.3-2.8,13.8-2.8,21.9c0,37.5,29.8,66,64.8,66c43.4,0,62.5-38.2,70.6-54.8l41,14.5
				c-6.1,12.4-14.5,27.7-24.7,39.2c-21.7,23.5-51.8,40.1-87.2,40.1c-55.9,0-108.2-42.2-108.2-103.7c0-13.8,2.1-24.5,3.5-31.5
				L275.9,345.3z M408.5,314H234.6v-39.2h173.9V314z"/>
		</g>
		<g>
			<path fill="none" stroke="#C30D23" stroke-width="41" stroke-linecap="round" stroke-linejoin="round" d="M275.9,345.3
				c-1.4,6.3-2.8,13.8-2.8,21.9c0,37.5,29.8,66,64.8,66c43.4,0,62.5-38.2,70.6-54.8l41,14.5c-6.1,12.4-14.5,27.7-24.7,39.2
				c-21.7,23.5-51.8,40.1-87.2,40.1c-55.9,0-108.2-42.2-108.2-103.7c0-13.8,2.1-24.5,3.5-31.5L275.9,345.3z M408.5,314H234.6v-39.2
				h173.9V314z"/>
		</g>
		<g>
			<path fill="#F8F6BD" d="M275.9,345.3c-1.4,6.3-2.8,13.8-2.8,21.9c0,37.5,29.8,66,64.8,66c43.4,0,62.5-38.2,70.6-54.8l41,14.5
				c-6.1,12.4-14.5,27.7-24.7,39.2c-21.7,23.5-51.8,40.1-87.2,40.1c-55.9,0-108.2-42.2-108.2-103.7c0-13.8,2.1-24.5,3.5-31.5
				L275.9,345.3z M408.5,314H234.6v-39.2h173.9V314z"/>
		</g>
	</g>
	<g>
		<g>
			<path fill="#FAED00" d="M493.2,428.4c3.5-12.8,7.8-29.3,7.8-45.7c0-11.4-2.8-33.8-25.1-33.8c-16.6,0-37.8,9.9-45.5,13.5l-15.9-26
				c26.1-11.6,41.2-17.1,59.4-17.1c41.2,0,60.3,28.2,60.3,63.4c0,19.6-3.8,34.1-8.8,53.3L493.2,428.4z M535.5,290.6l-9.4,27.7
				l-82.4-22l9.4-27.7L535.5,290.6z"/>
		</g>
		<g>
			<path fill="none" stroke="#C30D23" stroke-width="41" stroke-linecap="round" stroke-linejoin="round" d="M493.2,428.4
				c3.5-12.8,7.8-29.3,7.8-45.7c0-11.4-2.8-33.8-25.1-33.8c-16.6,0-37.8,9.9-45.5,13.5l-15.9-26c26.1-11.6,41.2-17.1,59.4-17.1
				c41.2,0,60.3,28.2,60.3,63.4c0,19.6-3.8,34.1-8.8,53.3L493.2,428.4z M535.5,290.6l-9.4,27.7l-82.4-22l9.4-27.7L535.5,290.6z"/>
		</g>
		<g>
			<path fill="#F8F6BD" d="M493.2,428.4c3.5-12.8,7.8-29.3,7.8-45.7c0-11.4-2.8-33.8-25.1-33.8c-16.6,0-37.8,9.9-45.5,13.5l-15.9-26
				c26.1-11.6,41.2-17.1,59.4-17.1c41.2,0,60.3,28.2,60.3,63.4c0,19.6-3.8,34.1-8.8,53.3L493.2,428.4z M535.5,290.6l-9.4,27.7
				l-82.4-22l9.4-27.7L535.5,290.6z"/>
		</g>
	</g>
	<g>
		<g>
			<path fill="#FAED00" d="M583.9,286.8h-29.7l0.2-26.4l29.7,0.2L583.9,286.8z M584.4,294.3c0.8,23.7,2.7,82.4,44.1,82.4
				c22.9,0,39.6-14.4,44.7-18.8l22.3,17.4c-8.2,7.2-31.4,27.8-68.3,27.8c-13.8,0-54.5-5.2-67.5-63c-3.6-16.3-4.4-31.4-4.9-45.8
				H584.4z"/>
		</g>
		<g>
			<path fill="none" stroke="#C30D23" stroke-width="41" stroke-linecap="round" stroke-linejoin="round" d="M583.9,286.8h-29.7
				l0.2-26.4l29.7,0.2L583.9,286.8z M584.4,294.3c0.8,23.7,2.7,82.4,44.1,82.4c22.9,0,39.6-14.4,44.7-18.8l22.3,17.4
				c-8.2,7.2-31.4,27.8-68.3,27.8c-13.8,0-54.5-5.2-67.5-63c-3.6-16.3-4.4-31.4-4.9-45.8H584.4z"/>
		</g>
		<g>
			<path fill="#F8F6BD" d="M583.9,286.8h-29.7l0.2-26.4l29.7,0.2L583.9,286.8z M584.4,294.3c0.8,23.7,2.7,82.4,44.1,82.4
				c22.9,0,39.6-14.4,44.7-18.8l22.3,17.4c-8.2,7.2-31.4,27.8-68.3,27.8c-13.8,0-54.5-5.2-67.5-63c-3.6-16.3-4.4-31.4-4.9-45.8
				H584.4z"/>
		</g>
	</g>
	<g>
		<g>
			<path fill="#FAED00" d="M760.8,446.1c6.2-12.4,15.2-31,17.6-50.5c0.2-1.6,0.2-4,0.2-5.1c-11,9.5-23.1,17.9-43.4,15.4
				c-25.9-3.1-41.3-25.4-38.8-46.5c3.7-30.3,36.6-54.3,67.8-50.5c3.5,0.4,6.7,1,9.2,1.8c1.6-7.3,2.2-10.3,3.1-16.3l-89.8-10.8
				l4.5-37.7l90.7,10.9l2.8-23.4l42.6,5.1c-0.7,3.7-2.6,19.9-3,23.3l69.4,8.4l-4.5,37.7l-70.1-8.4c-3.1,20.1-4.5,27.4-7.9,38.5
				c13.7,22.8,12.6,45.7,11.3,56.3c-3.9,32.2-18.2,59.8-22.6,68.4L760.8,446.1z M760.2,345.5c-12.5-1.5-24.9,7.8-25.9,16.1
				c-0.4,3.2,1.7,7.3,6.1,7.8c2.3,0.3,13.6,0.5,23.2-22.8C762.3,346,761.1,345.7,760.2,345.5z"/>
		</g>
		<g>
			<path fill="none" stroke="#C30D23" stroke-width="41" stroke-linecap="round" stroke-linejoin="round" d="M760.8,446.1
				c6.2-12.4,15.2-31,17.6-50.5c0.2-1.6,0.2-4,0.2-5.1c-11,9.5-23.1,17.9-43.4,15.4c-25.9-3.1-41.3-25.4-38.8-46.5
				c3.7-30.3,36.6-54.3,67.8-50.5c3.5,0.4,6.7,1,9.2,1.8c1.6-7.3,2.2-10.3,3.1-16.3l-89.8-10.8l4.5-37.7l90.7,10.9l2.8-23.4
				l42.6,5.1c-0.7,3.7-2.6,19.9-3,23.3l69.4,8.4l-4.5,37.7l-70.1-8.4c-3.1,20.1-4.5,27.4-7.9,38.5c13.7,22.8,12.6,45.7,11.3,56.3
				c-3.9,32.2-18.2,59.8-22.6,68.4L760.8,446.1z M760.2,345.5c-12.5-1.5-24.9,7.8-25.9,16.1c-0.4,3.2,1.7,7.3,6.1,7.8
				c2.3,0.3,13.6,0.5,23.2-22.8C762.3,346,761.1,345.7,760.2,345.5z"/>
		</g>
		<g>
			<path fill="#F8F6BD" d="M760.8,446.1c6.2-12.4,15.2-31,17.6-50.5c0.2-1.6,0.2-4,0.2-5.1c-11,9.5-23.1,17.9-43.4,15.4
				c-25.9-3.1-41.3-25.4-38.8-46.5c3.7-30.3,36.6-54.3,67.8-50.5c3.5,0.4,6.7,1,9.2,1.8c1.6-7.3,2.2-10.3,3.1-16.3l-89.8-10.8
				l4.5-37.7l90.7,10.9l2.8-23.4l42.6,5.1c-0.7,3.7-2.6,19.9-3,23.3l69.4,8.4l-4.5,37.7l-70.1-8.4c-3.1,20.1-4.5,27.4-7.9,38.5
				c13.7,22.8,12.6,45.7,11.3,56.3c-3.9,32.2-18.2,59.8-22.6,68.4L760.8,446.1z M760.2,345.5c-12.5-1.5-24.9,7.8-25.9,16.1
				c-0.4,3.2,1.7,7.3,6.1,7.8c2.3,0.3,13.6,0.5,23.2-22.8C762.3,346,761.1,345.7,760.2,345.5z"/>
		</g>
	</g>
	<g>
		<g>
			<path fill="#FAED00" d="M942.8,425.2l-4.7,38.9l-39.1-4.7l4.7-38.9L942.8,425.2z M961.7,281.9l-21.2,126.8l-31.7-3.8l10.5-128.1
				L961.7,281.9z"/>
		</g>
		<g>
			<path fill="none" stroke="#C30D23" stroke-width="41" stroke-linecap="round" stroke-linejoin="round" d="M942.8,425.2l-4.7,38.9
				l-39.1-4.7l4.7-38.9L942.8,425.2z M961.7,281.9l-21.2,126.8l-31.7-3.8l10.5-128.1L961.7,281.9z"/>
		</g>
		<g>
			<path fill="#F8F6BD" d="M942.8,425.2l-4.7,38.9l-39.1-4.7l4.7-38.9L942.8,425.2z M961.7,281.9l-21.2,126.8l-31.7-3.8l10.5-128.1
				L961.7,281.9z"/>
		</g>
	</g>
	<g>
		<path fill="#EF8018" d="M79,553.2c-2.2,2.8-2.5,5.3-2.5,6.7c0,7.2,10.7,7.2,15.6,7.2c10.9,0,17.2-0.7,21-1l0.1,8.2
			c-2.9,0.2-9.1,0.7-18.1,0.7c-9.7,0-26.9,0-26.9-14.2c0-4.2,1.5-7.4,4.1-11.1L79,553.2z M109.9,535.5c-5.6,0.5-13.9,3.5-20.2,7.4
			l-6-4.1c3-1.8,4.4-2.4,7.4-3.6c-3.2,0.1-17.1,0.4-20,0.5V528c9.9,0.1,36.1,0,38.8-0.1V535.5z"/>
		<path fill="#EF8018" d="M184,531.2v7.5h-29.8c-0.7,4.1-1,5.7-2,8.8c4-2,8.3-3.5,13.7-3.5c12.6,0,16.7,7.9,16.7,14.9
			c0,6.4-3.3,11.4-7.8,13.7c-4.8,2.4-10.3,3.4-22.4,3.4c-3.6,0-5.3-0.1-7.5-0.2l-1.7-7.7c1.4,0.1,4.7,0.5,10.7,0.5
			c10.4,0,20.2-0.7,20.2-9.5c0-6.5-5.2-7.9-9.4-7.9c-3.7,0-10.1,0.9-14.8,5.8c-0.7,1.3-0.8,1.7-1,2.3l-8.3-2.3
			c2.3-4.9,4.3-11.5,5.4-18.3h-11.9v-7.5h12.8c0.2-2.2,0.2-3.5,0.3-6.3l8.7,0.1c-0.2,2.6-0.3,3-0.7,6.2H184z"/>
		<path fill="#EF8018" d="M217.8,534.9c-1.1,4-1.4,6.9-1.6,14.2c5.8-3.9,11.8-5.9,18.7-5.9c13.8,0,16.6,9.4,16.6,14.7
			c0,13.4-11.5,17.9-28,17.9c-5.5,0-9.1-0.4-11.2-0.6l-1-7.7c2.8,0.4,6.9,0.9,11.9,0.9c15.5,0,19.8-4.7,19.8-10.7
			c0-4.3-3.4-7.3-9.2-7.3c-6.9,0-14,2.9-17.8,7.4c-0.1,0.7-0.1,1-0.2,1.5l-7.9-0.3c0.2-14,0.3-17.2,1.6-24.7L217.8,534.9z
			 M242.1,536.3c-1.7-0.7-9.5-3.8-25.3-4.7l1.4-7.4c12.2,0.4,19.3,1.8,25.9,3.8L242.1,536.3z"/>
		<path fill="#EF8018" d="M268.2,572.1c6.7-4.4,10.6-9.8,12.4-12.5l6.4,3.8c-3,4.6-8.3,10.8-13.6,14.5L268.2,572.1z M325.2,534
			h-56.3v-7.1h23.9v-4.6h7.8v4.6h24.6V534z M319.5,558.6h-18.9V573c0,1.4,0,6.1-5.5,6.1h-9.9l-1.5-7.7h7.7c1.1,0,1.8-0.1,1.8-1.6
			v-11.3h-18.7v-20.8h45V558.6z M311.9,544.3H282v7.7h29.9V544.3z M312.2,559.5c3.7,4.9,8,8.8,13.4,11.8l-5.2,6.4
			c-6.8-4.3-9.9-7.7-14.7-14.3L312.2,559.5z"/>
		<path fill="#EF8018" d="M354,522.6c-0.2,4.6-0.5,6.7-0.8,9.5h9.4c-0.4,14.7-2.7,23.9-4.7,28.9c1.9,1.6,3.2,2.7,5.6,5l-4.7,6.5
			c-1.8-2-2.5-2.9-4.2-4.6c-3.7,6.1-8.4,9.8-10,11.1l-4.8-6.3c1.9-1.4,5.8-4.1,9.5-9.8c-2.3-1.9-3.9-3.1-8.5-6.1
			c1.6-4.3,2.8-8.2,4.4-17.6h-4.7v-7.1h5.6c0.4-3.6,0.5-5.6,0.7-10L354,522.6z M352.2,539.3c-1.3,6.9-2.2,10.4-3.5,14.9
			c1.8,1.1,2.5,1.6,3.8,2.6c1.5-3.7,3.1-9.2,3.7-17.5H352.2z M396.1,524.1v6.8h-9.8v8h8.1v22.9h-8.1v8.9h10.4v6.9h-32v-53.5H396.1z
			 M371.8,531v8h7.7v-8H371.8z M371.8,545.6v9.7h15.4v-9.7H371.8z M371.8,561.8v8.9h7.7v-8.9H371.8z"/>
		<path fill="#EF8018" d="M435.5,574.5c-4.4,0.8-14.2,2.5-22.6,3.5l-1-7.2c2-0.2,3.8-0.2,9.8-1v-15.4h-9.6v-6.3h9.6v-4.9h-5.3v-3
			c-1.1,1-1.7,1.5-3.1,2.6l-2.5-7.6c1.8-1.3,7.6-5.3,10.7-12.9h7.8c1.9,3.5,4.4,6.5,8.4,9.3l-4,6.5l-0.2-0.2v5.3h-5.3v4.9h7.9v6.3
			h-7.9v14.5c5.4-0.8,6.3-1.1,8.1-1.4v3.9c9.1-6.1,11.2-14.2,11.9-17.5h-10.7v-7.2h11.8v-10.1h-2.7c-2,3.9-3.7,6.3-5.1,8.2l-6-4.4
			c3-3.7,6.4-8.6,8.9-18.3l7.3,1.1c-0.4,1.7-1,3.7-1.9,6.2h17.5v7.2h-10.8v10.1h11.8v7.2h-10.7c1.4,6.4,5.2,13.7,11.9,18.7l-4.9,6.8
			c-5.2-4.8-8.9-10.1-11.6-19.4c-1.8,5.9-5.3,13.5-14.2,19.4L435.5,574.5z M414.4,568.3c-0.1-3.7-0.7-7.3-1.6-10.9l5.1-1.2
			c0.5,2,1.6,6,2.1,10.9L414.4,568.3z M432.2,536.9c-1.3-1.1-4.9-4.7-6.7-8c-1.6,3-3.4,5.6-5.6,8H432.2z M436.6,557.1
			c-0.3,2-1,5.9-2.3,9.6l-4.6-1.2c0.5-1.6,1.1-3.7,1.7-9.2L436.6,557.1z"/>
		<path fill="#EF8018" d="M483.7,545h12.6v18.5c1.9,6.9,11.5,6.9,14.6,6.9h29.9l-1.4,7h-28.8c-4.9,0-11.7,0-15.9-6.6
			c-2.8,3.7-6.8,6.8-8.6,8.1l-3.1-8.2c1.6-0.8,4.6-2.8,6.1-4.3v-14.3h-5.4V545z M498.5,533.1l-5.6,5c-2-3.2-5.3-7.3-8.8-10.4
			l5.2-4.9c1.6,1.3,5.9,4.7,9.2,9.7v-4.5h8.2c-0.8-1.4-2-3.6-2.5-4.3l6.9-1.9c0.7,1.1,1.6,2.4,3.2,6.2h9.1c1-1.6,2-4.3,2.6-6.1
			l7.7,1.4c-0.8,1.6-2.1,3.7-2.8,4.7h8.9v6.3h-18.2c-0.4,1-0.8,1.9-1.4,2.8h16.3v30.1h-34.8v-30.1h11.2c0.4-1,0.7-2,0.9-2.8h-15.5
			V533.1z M509.2,542.6v3.4h20.2v-3.4H509.2z M509.2,550.3v3.5h20.2v-3.5H509.2z M509.2,558.2v3.7h20.2v-3.7H509.2z"/>
		<path fill="#EF8018" d="M591.1,527.9H612v-5.6h7.6v5.6h23.6v7.1h-44.6v17.3c0,11.9-2.5,20.5-6.8,26.7l-5.9-5.6
			c3.3-5.1,5.3-11.3,5.3-20.1V527.9z M635,579.4c-1-3.1-1.3-4.1-1.9-5.7c-6,0.8-14.1,2.2-35,3.5l-1.2-7.6c0.8,0,4.4-0.1,5.7-0.2
			c6.3-14.2,8.8-27.8,9.7-32.4l7.9,1.7c-2.5,10.4-5.6,20.7-10.1,30.4c9.9-0.6,14.6-0.9,20.8-1.6c-2.9-7.3-5.6-11.8-6.8-13.7l6.4-3.2
			c5.1,7.8,9.3,17.1,12.1,25.6L635,579.4z"/>
		<path fill="#EF8018" d="M669,522.5h7.3v3.9h9.1v6.6h-9.1v4.5h10.9v6.5h-3.2c-0.7,3.2-0.8,4-1.5,6.8h4.4v6.7h-10.6v5h9.2v6.8h-9.2
			v9.5H669v-9.5h-9.1v-6.8h9.1v-5h-10.1v-6.7h4.4c-0.2-1.8-0.7-4.6-1.4-6.8h-3.3v-6.5H669V533h-9.1v-6.6h9.1V522.5z M668.5,544.1
			c0.8,3.4,1.1,5.3,1.3,6.8h5.9c0.5-2.2,0.8-4.4,1.1-6.8H668.5z M695.1,573.2v5.6h-7v-54.6h25c0,2.2-0.2,13.2-1.4,16.2
			c-0.3,0.9-1.3,3.4-4.9,3.4H699l-1.2-6.3h5.6c1.8,0,2.4,0,2.6-6.4h-10.9v15.1h18.6c-0.4,5.4-1.6,14.2-4.7,20.3c2,2.1,4,3.7,6.7,5.6
			l-3.7,6.7c-1.7-1.1-3.6-2.3-7-6.1c-1.8,2.5-3.6,4.2-5.8,6.2L695.1,573.2z M701.3,553.7c0.7,1.8,1.6,3.7,3.2,6.7
			c1.6-4,1.9-5.9,2.1-7.9h-11.5v20.5c1.7-1.4,3.4-2.8,5.7-6.1c-3.5-5.8-4.6-9.7-5.1-11.8L701.3,553.7z"/>
		<path fill="#EF8018" d="M742.2,527.6v-5h7.3v5h11.2v6.6h-3.3c-0.4,2.9-1.1,6.6-2.1,10.3h6.3v6.6h-31.8v-6.6h6.5
			c-0.2-3.1-0.7-7.4-1.5-10.3H731v-6.6H742.2z M759.8,577.9h-27.6v-23.5h27.6V577.9z M752.9,560.8h-13.7v10.7h13.7V560.8z
			 M748.5,544.5c0.9-3.1,1.6-7,2-10.3h-9.1c0.7,3.5,1.3,6.2,1.6,10.3H748.5z M763.6,578.9v-55h22.1v6.5c-1.8,5.2-3.1,8.4-6.1,14.7
			c5.6,6.2,7.1,12.6,7.1,17.5c0,2.4-0.5,6.4-3.2,8.8c-1.6,1.4-3.7,2-6.5,2h-4.1l-1.1-7.3h3.5c1.7,0,3.7-0.2,3.7-4.9
			c0-7.9-4.6-12.4-7.1-14.8c1.9-4,4.7-11.4,5.8-15.7h-6.9v48.3H763.6z"/>
		<path fill="#EF8018" d="M822.5,554c-6.5-4-12.1-5.8-17.3-7.3l2.9-6.7c3.5,0.8,9.9,2.4,17.6,6.8L822.5,554z M808.6,566.7
			c22.1-2.1,32.6-9.1,39.8-33.1l6.8,5c-8.2,24.2-19.9,33.5-45,36.7L808.6,566.7z M827.7,539.7c-6.3-3.5-11.3-5.1-17.8-7l3-6.5
			c6.5,1.4,11.3,3.1,18.1,6.4L827.7,539.7z"/>
		<path fill="#EF8018" d="M914.6,527.8c-2.5,12.2-6.9,19.6-10.7,25c9.1,7.2,12.4,9.8,19.5,16.9l-6.7,6.5c-3.7-4.1-8.8-9.7-17.7-17.5
			c-5.6,6.3-14.2,13.3-23.3,17.3l-4.6-6.7c8.7-3.7,14.8-7.9,21.2-14.9c6.5-7,9.7-13.4,11.8-19.1h-29.7v-7.6H914.6z"/>
		<path fill="#EF8018" d="M942.6,569.4c16.1-2.6,19-8.5,19.6-20h-22.1V542h49.2v7.4h-18.9c-0.8,14.2-5.1,23.4-24.6,27.2L942.6,569.4
			z M984.6,527v7.4h-39.7V527H984.6z"/>
		<path fill="#EF8018" d="M1006.9,565.7h5.8c0.4-0.9,6.3-16.8,12.1-40.5l8.6,1.6c-5.2,20.5-11,34.5-12.8,38.8
			c12.1-0.4,13.4-0.5,24.7-1.4c-3.5-7-6.7-11.6-8.8-14.7l6.9-3.3c6.8,9,10.7,16.1,14.9,26.6l-7.9,3.5c-1-2.8-1.4-3.8-2-5.4
			c-13.6,1.5-19.6,2.2-40.5,3.1L1006.9,565.7z"/>
		<path fill="#EF8018" d="M1092.3,532.8v6h-20.8v-6H1092.3z M1092.9,559.1v-6.5h14.2V549h-12.4v-24.7h32V549h-12.8v3.7h14.5v6.5
			h-11.8c1.1,1.4,5.8,7.2,12.7,10.7l-3.7,6.9c-2-1.3-7.2-4.8-11.8-11.8v14h-6.8v-14.3c-5.1,7.1-10,10.3-12.8,12.1l-3.2-4.6v5.9
			h-17.8v-18.6h17.8v10.8c6.7-3.7,10.4-8,12.8-11.1H1092.9z M1091,524.3v5.9h-17.8v-5.9H1091z M1091,541.5v5.9h-17.8v-5.9H1091z
			 M1091,550.3v5.9h-17.8v-5.9H1091z M1085.1,565.1h-5.3v7h5.3V565.1z M1107.3,530h-6.2v4.3h6.2V530z M1107.3,539h-6.2v4.3h6.2V539z
			 M1120.1,530h-6.5v4.3h6.5V530z M1120.1,539h-6.5v4.3h6.5V539z"/>
	</g>
	<g>
		<path fill="#FFFFFF" d="M166,423.1H69.9c-5.3,0-9.6-4.3-9.6-9.6v-96.1c0-5.3,4.3-9.6,9.6-9.6H166c5.3,0,9.6,4.3,9.6,9.6v96.1
			C175.7,418.8,171.3,423.1,166,423.1z"/>
		<path fill="#B71C25" d="M99.8,395.2l-16.2,20.1h7.8l13.6-16.9l25.3,0l13.6,16.9h7.8l-16.1-20.1c3.1-0.5,10.1-1.1,13.1-1.7
			c3.7-6.9,5.8-14.7,5.8-23.1l0-37c0-7.1-5.2-12.9-12-13.9c0,0-6-1.6-24.8-1.6c-19.9,0-24.9,1.6-24.9,1.6c-6.8,1-12,6.8-12,13.9
			l0,37c0,8.3,2.1,16.1,5.7,23C89.6,394.1,96.6,394.7,99.8,395.2z M132.2,338.9c0-1.7,1.4-3.2,3.2-3.2h11c1.7,0,3.2,1.4,3.2,3.2V352
			c0,1.7-1.4,3.2-3.2,3.2h-11c-1.7,0-3.2-1.4-3.2-3.2V338.9z M123.3,323.1c2.4,0,4.3,1.9,4.3,4.3c0,2.4-1.9,4.3-4.3,4.3
			c-2.4,0-4.3-1.9-4.3-4.3C119,325,120.9,323.1,123.3,323.1z M123.4,335.8c1.7,0,3.2,1.4,3.2,3.2V352c0,1.7-1.4,3.2-3.2,3.2h-11
			c-1.7,0-3.2-1.4-3.2-3.2v-13.1c0-1.7,1.4-3.2,3.2-3.2H123.4z M112,323.1c2.4,0,4.3,1.9,4.3,4.3c0,2.4-1.9,4.3-4.3,4.3
			c-2.4,0-4.3-1.9-4.3-4.3C107.7,325,109.6,323.1,112,323.1z M85.8,338.9c0-1.7,1.4-3.2,3.2-3.2h11c1.7,0,3.2,1.4,3.2,3.2V352
			c0,1.7-1.4,3.2-3.2,3.2H89c-1.7,0-3.2-1.4-3.2-3.2V338.9z M86.9,360.9c1.2-0.3,2.4-0.3,3.6-0.3c2,0,4.1,0,6.1,0c1.2,0,2.4,0,3.5,0
			c13.3,0,26.7,0.1,40,0.1c1.6,0,3.3,0,4.9,0c1.1,0,2.3-0.1,3.3,0.2c1.9,0.6,2.8,2.5,2.8,4.4c0,0.1,0,0.1,0,0.2H84.1
			C84.2,363.5,84.7,361.5,86.9,360.9z M84.1,378.4c0-2,0-4,0-6c0-0.8,0-1.5,0-2.3h67.1c0,1.9,0,3.9,0,5.8c0,1.4,0,2.8,0,4.2
			c0,2.5-2.5,2.3-4.4,2.3c-3.1,0.1-6.3,0-9.5,0c-0.2,0-0.5,0-0.7,0c-0.7,0.2-0.4,2.3-0.4,2.8c0,1.4,0.1,3.2-1.9,3.2
			c-6.4,0-12.8-0.1-19.2-0.1c-3.2,0-6.5,0-9.7,0c-1.6,0-3.3,0-4.9,0c-2.5,0-2.1-2.7-2.1-4.5c0-1.7-0.4-1.9-2-1.8c-1.4,0-2.7,0-4.1,0
			c-1.4,0-2.8,0-4.2,0c-0.8,0-1.9,0.2-2.7-0.1C83.8,381.5,84.1,379.7,84.1,378.4z"/>
	</g>
	<g>
		<path fill="#FFFFFF" d="M1117.1,423.3H1021c-5.3,0-9.6-4.3-9.6-9.6v-96.1c0-5.3,4.3-9.6,9.6-9.6h96.1c5.3,0,9.6,4.3,9.6,9.6v96.1
			C1126.8,419,1122.4,423.3,1117.1,423.3z"/>
		<g>
			<path fill="#C30D23" d="M1094.8,369.7h-51.4v-34.4h51.4V369.7z M1100.7,329.4h-63.3v46.3h63.3V329.4"/>
			<polygon fill="#C30D23" points="1100.7,378.6 1037.4,378.6 1022.9,396.4 1022.9,401.8 1115.2,401.8 1115.2,396.4 			"/>
		</g>
	</g>
</g>
<g>
</g>
<g>
</g>
<g>
</g>
<g>
</g>
<g>
</g>
<g>
</g>
</svg>
