<svg xmlns="http://www.w3.org/2000/svg" viewBox="0 0 1190.6 841.9"><path fill="#C30D23" d="M29.8 268.4h1130.9v188.2H29.8z"/><path fill="#FAED00" d="M275.9 345.3c-1.4 6.3-2.8 13.8-2.8 21.9 0 37.5 29.8 66 64.8 66 43.4 0 62.5-38.2 70.6-54.8l41 14.5c-6.1 12.4-14.5 27.7-24.7 39.2-21.7 23.5-51.8 40.1-87.2 40.1-55.9 0-108.2-42.2-108.2-103.7 0-13.8 2.1-24.5 3.5-31.5l43 8.3zM408.5 314H234.6v-39.2h173.9V314z"/><path fill="none" stroke="#C30D23" stroke-width="41" stroke-linecap="round" stroke-linejoin="round" d="M275.9 345.3c-1.4 6.3-2.8 13.8-2.8 21.9 0 37.5 29.8 66 64.8 66 43.4 0 62.5-38.2 70.6-54.8l41 14.5c-6.1 12.4-14.5 27.7-24.7 39.2-21.7 23.5-51.8 40.1-87.2 40.1-55.9 0-108.2-42.2-108.2-103.7 0-13.8 2.1-24.5 3.5-31.5l43 8.3zM408.5 314H234.6v-39.2h173.9V314z"/><path fill="#F8F6BD" d="M275.9 345.3c-1.4 6.3-2.8 13.8-2.8 21.9 0 37.5 29.8 66 64.8 66 43.4 0 62.5-38.2 70.6-54.8l41 14.5c-6.1 12.4-14.5 27.7-24.7 39.2-21.7 23.5-51.8 40.1-87.2 40.1-55.9 0-108.2-42.2-108.2-103.7 0-13.8 2.1-24.5 3.5-31.5l43 8.3zM408.5 314H234.6v-39.2h173.9V314z"/><path fill="#FAED00" d="M493.2 428.4c3.5-12.8 7.8-29.3 7.8-45.7 0-11.4-2.8-33.8-25.1-33.8-16.6 0-37.8 9.9-45.5 13.5l-15.9-26c26.1-11.6 41.2-17.1 59.4-17.1 41.2 0 60.3 28.2 60.3 63.4 0 19.6-3.8 34.1-8.8 53.3l-32.2-7.6zm42.3-137.8l-9.4 27.7-82.4-22 9.4-27.7 82.4 22z"/><path fill="none" stroke="#C30D23" stroke-width="41" stroke-linecap="round" stroke-linejoin="round" d="M493.2 428.4c3.5-12.8 7.8-29.3 7.8-45.7 0-11.4-2.8-33.8-25.1-33.8-16.6 0-37.8 9.9-45.5 13.5l-15.9-26c26.1-11.6 41.2-17.1 59.4-17.1 41.2 0 60.3 28.2 60.3 63.4 0 19.6-3.8 34.1-8.8 53.3l-32.2-7.6zm42.3-137.8l-9.4 27.7-82.4-22 9.4-27.7 82.4 22z"/><path fill="#F8F6BD" d="M493.2 428.4c3.5-12.8 7.8-29.3 7.8-45.7 0-11.4-2.8-33.8-25.1-33.8-16.6 0-37.8 9.9-45.5 13.5l-15.9-26c26.1-11.6 41.2-17.1 59.4-17.1 41.2 0 60.3 28.2 60.3 63.4 0 19.6-3.8 34.1-8.8 53.3l-32.2-7.6zm42.3-137.8l-9.4 27.7-82.4-22 9.4-27.7 82.4 22z"/><path fill="#FAED00" d="M583.9 286.8h-29.7l.2-26.4 29.7.2-.2 26.2zm.5 7.5c.8 23.7 2.7 82.4 44.1 82.4 22.9 0 39.6-14.4 44.7-18.8l22.3 17.4c-8.2 7.2-31.4 27.8-68.3 27.8-13.8 0-54.5-5.2-67.5-63-3.6-16.3-4.4-31.4-4.9-45.8h29.6z"/><path fill="none" stroke="#C30D23" stroke-width="41" stroke-linecap="round" stroke-linejoin="round" d="M583.9 286.8h-29.7l.2-26.4 29.7.2-.2 26.2zm.5 7.5c.8 23.7 2.7 82.4 44.1 82.4 22.9 0 39.6-14.4 44.7-18.8l22.3 17.4c-8.2 7.2-31.4 27.8-68.3 27.8-13.8 0-54.5-5.2-67.5-63-3.6-16.3-4.4-31.4-4.9-45.8h29.6z"/><path fill="#F8F6BD" d="M583.9 286.8h-29.7l.2-26.4 29.7.2-.2 26.2zm.5 7.5c.8 23.7 2.7 82.4 44.1 82.4 22.9 0 39.6-14.4 44.7-18.8l22.3 17.4c-8.2 7.2-31.4 27.8-68.3 27.8-13.8 0-54.5-5.2-67.5-63-3.6-16.3-4.4-31.4-4.9-45.8h29.6z"/><path fill="#FAED00" d="M760.8 446.1c6.2-12.4 15.2-31 17.6-50.5.2-1.6.2-4 .2-5.1-11 9.5-23.1 17.9-43.4 15.4-25.9-3.1-41.3-25.4-38.8-46.5 3.7-30.3 36.6-54.3 67.8-50.5 3.5.4 6.7 1 9.2 1.8 1.6-7.3 2.2-10.3 3.1-16.3l-89.8-10.8 4.5-37.7 90.7 10.9 2.8-23.4 42.6 5.1c-.7 3.7-2.6 19.9-3 23.3l69.4 8.4-4.5 37.7-70.1-8.4c-3.1 20.1-4.5 27.4-7.9 38.5 13.7 22.8 12.6 45.7 11.3 56.3-3.9 32.2-18.2 59.8-22.6 68.4l-39.1-16.6zm-.6-100.6c-12.5-1.5-24.9 7.8-25.9 16.1-.4 3.2 1.7 7.3 6.1 7.8 2.3.3 13.6.5 23.2-22.8-1.3-.6-2.5-.9-3.4-1.1z"/><path fill="none" stroke="#C30D23" stroke-width="41" stroke-linecap="round" stroke-linejoin="round" d="M760.8 446.1c6.2-12.4 15.2-31 17.6-50.5.2-1.6.2-4 .2-5.1-11 9.5-23.1 17.9-43.4 15.4-25.9-3.1-41.3-25.4-38.8-46.5 3.7-30.3 36.6-54.3 67.8-50.5 3.5.4 6.7 1 9.2 1.8 1.6-7.3 2.2-10.3 3.1-16.3l-89.8-10.8 4.5-37.7 90.7 10.9 2.8-23.4 42.6 5.1c-.7 3.7-2.6 19.9-3 23.3l69.4 8.4-4.5 37.7-70.1-8.4c-3.1 20.1-4.5 27.4-7.9 38.5 13.7 22.8 12.6 45.7 11.3 56.3-3.9 32.2-18.2 59.8-22.6 68.4l-39.1-16.6zm-.6-100.6c-12.5-1.5-24.9 7.8-25.9 16.1-.4 3.2 1.7 7.3 6.1 7.8 2.3.3 13.6.5 23.2-22.8-1.3-.6-2.5-.9-3.4-1.1z"/><path fill="#F8F6BD" d="M760.8 446.1c6.2-12.4 15.2-31 17.6-50.5.2-1.6.2-4 .2-5.1-11 9.5-23.1 17.9-43.4 15.4-25.9-3.1-41.3-25.4-38.8-46.5 3.7-30.3 36.6-54.3 67.8-50.5 3.5.4 6.7 1 9.2 1.8 1.6-7.3 2.2-10.3 3.1-16.3l-89.8-10.8 4.5-37.7 90.7 10.9 2.8-23.4 42.6 5.1c-.7 3.7-2.6 19.9-3 23.3l69.4 8.4-4.5 37.7-70.1-8.4c-3.1 20.1-4.5 27.4-7.9 38.5 13.7 22.8 12.6 45.7 11.3 56.3-3.9 32.2-18.2 59.8-22.6 68.4l-39.1-16.6zm-.6-100.6c-12.5-1.5-24.9 7.8-25.9 16.1-.4 3.2 1.7 7.3 6.1 7.8 2.3.3 13.6.5 23.2-22.8-1.3-.6-2.5-.9-3.4-1.1z"/><path fill="#FAED00" d="M942.8 425.2l-4.7 38.9-39.1-4.7 4.7-38.9 39.1 4.7zm18.9-143.3l-21.2 126.8-31.7-3.8 10.5-128.1 42.4 5.1z"/><path fill="none" stroke="#C30D23" stroke-width="41" stroke-linecap="round" stroke-linejoin="round" d="M942.8 425.2l-4.7 38.9-39.1-4.7 4.7-38.9 39.1 4.7zm18.9-143.3l-21.2 126.8-31.7-3.8 10.5-128.1 42.4 5.1z"/><path fill="#F8F6BD" d="M942.8 425.2l-4.7 38.9-39.1-4.7 4.7-38.9 39.1 4.7zm18.9-143.3l-21.2 126.8-31.7-3.8 10.5-128.1 42.4 5.1z"/><path d="M79 553.2c-2.2 2.8-2.5 5.3-2.5 6.7 0 7.2 10.7 7.2 15.6 7.2 10.9 0 17.2-.7 21-1l.1 8.2c-2.9.2-9.1.7-18.1.7-9.7 0-26.9 0-26.9-14.2 0-4.2 1.5-7.4 4.1-11.1l6.7 3.5zm30.9-17.7c-5.6.5-13.9 3.5-20.2 7.4l-6-4.1c3-1.8 4.4-2.4 7.4-3.6-3.2.1-17.1.4-20 .5V528c9.9.1 36.1 0 38.8-.1v7.6zm74.1-4.3v7.5h-29.8c-.7 4.1-1 5.7-2 8.8 4-2 8.3-3.5 13.7-3.5 12.6 0 16.7 7.9 16.7 14.9 0 6.4-3.3 11.4-7.8 13.7-4.8 2.4-10.3 3.4-22.4 3.4-3.6 0-5.3-.1-7.5-.2l-1.7-7.7c1.4.1 4.7.5 10.7.5 10.4 0 20.2-.7 20.2-9.5 0-6.5-5.2-7.9-9.4-7.9-3.7 0-10.1.9-14.8 5.8-.7 1.3-.8 1.7-1 2.3l-8.3-2.3c2.3-4.9 4.3-11.5 5.4-18.3h-11.9v-7.5h12.8c.2-2.2.2-3.5.3-6.3l8.7.1c-.2 2.6-.3 3-.7 6.2H184zm33.8 3.7c-1.1 4-1.4 6.9-1.6 14.2 5.8-3.9 11.8-5.9 18.7-5.9 13.8 0 16.6 9.4 16.6 14.7 0 13.4-11.5 17.9-28 17.9-5.5 0-9.1-.4-11.2-.6l-1-7.7c2.8.4 6.9.9 11.9.9 15.5 0 19.8-4.7 19.8-10.7 0-4.3-3.4-7.3-9.2-7.3-6.9 0-14 2.9-17.8 7.4-.1.7-.1 1-.2 1.5l-7.9-.3c.2-14 .3-17.2 1.6-24.7l8.3.6zm24.3 1.4c-1.7-.7-9.5-3.8-25.3-4.7l1.4-7.4c12.2.4 19.3 1.8 25.9 3.8l-2 8.3zm26.1 35.8c6.7-4.4 10.6-9.8 12.4-12.5l6.4 3.8c-3 4.6-8.3 10.8-13.6 14.5l-5.2-5.8zm57-38.1h-56.3v-7.1h23.9v-4.6h7.8v4.6h24.6v7.1zm-5.7 24.6h-18.9V573c0 1.4 0 6.1-5.5 6.1h-9.9l-1.5-7.7h7.7c1.1 0 1.8-.1 1.8-1.6v-11.3h-18.7v-20.8h45v20.9zm-7.6-14.3H282v7.7h29.9v-7.7zm.3 15.2c3.7 4.9 8 8.8 13.4 11.8l-5.2 6.4c-6.8-4.3-9.9-7.7-14.7-14.3l6.5-3.9zm41.8-36.9c-.2 4.6-.5 6.7-.8 9.5h9.4c-.4 14.7-2.7 23.9-4.7 28.9 1.9 1.6 3.2 2.7 5.6 5l-4.7 6.5c-1.8-2-2.5-2.9-4.2-4.6-3.7 6.1-8.4 9.8-10 11.1l-4.8-6.3c1.9-1.4 5.8-4.1 9.5-9.8-2.3-1.9-3.9-3.1-8.5-6.1 1.6-4.3 2.8-8.2 4.4-17.6h-4.7v-7.1h5.6c.4-3.6.5-5.6.7-10l7.2.5zm-1.8 16.7c-1.3 6.9-2.2 10.4-3.5 14.9 1.8 1.1 2.5 1.6 3.8 2.6 1.5-3.7 3.1-9.2 3.7-17.5h-4zm43.9-15.2v6.8h-9.8v8h8.1v22.9h-8.1v8.9h10.4v6.9h-32v-53.5h31.4zm-24.3 6.9v8h7.7v-8h-7.7zm0 14.6v9.7h15.4v-9.7h-15.4zm0 16.2v8.9h7.7v-8.9h-7.7zm63.7 12.7c-4.4.8-14.2 2.5-22.6 3.5l-1-7.2c2-.2 3.8-.2 9.8-1v-15.4h-9.6v-6.3h9.6v-4.9h-5.3v-3c-1.1 1-1.7 1.5-3.1 2.6l-2.5-7.6c1.8-1.3 7.6-5.3 10.7-12.9h7.8c1.9 3.5 4.4 6.5 8.4 9.3l-4 6.5-.2-.2v5.3h-5.3v4.9h7.9v6.3h-7.9v14.5c5.4-.8 6.3-1.1 8.1-1.4v3.9c9.1-6.1 11.2-14.2 11.9-17.5h-10.7v-7.2h11.8v-10.1h-2.7c-2 3.9-3.7 6.3-5.1 8.2l-6-4.4c3-3.7 6.4-8.6 8.9-18.3l7.3 1.1c-.4 1.7-1 3.7-1.9 6.2h17.5v7.2h-10.8v10.1h11.8v7.2h-10.7c1.4 6.4 5.2 13.7 11.9 18.7l-4.9 6.8c-5.2-4.8-8.9-10.1-11.6-19.4-1.8 5.9-5.3 13.5-14.2 19.4l-3.3-4.9zm-21.1-6.2c-.1-3.7-.7-7.3-1.6-10.9l5.1-1.2c.5 2 1.6 6 2.1 10.9l-5.6 1.2zm17.8-31.4c-1.3-1.1-4.9-4.7-6.7-8-1.6 3-3.4 5.6-5.6 8h12.3zm4.4 20.2c-.3 2-1 5.9-2.3 9.6l-4.6-1.2c.5-1.6 1.1-3.7 1.7-9.2l5.2.8zm47.1-12.1h12.6v18.5c1.9 6.9 11.5 6.9 14.6 6.9h29.9l-1.4 7h-28.8c-4.9 0-11.7 0-15.9-6.6-2.8 3.7-6.8 6.8-8.6 8.1l-3.1-8.2c1.6-.8 4.6-2.8 6.1-4.3v-14.3h-5.4V545zm14.8-11.9l-5.6 5c-2-3.2-5.3-7.3-8.8-10.4l5.2-4.9c1.6 1.3 5.9 4.7 9.2 9.7V528h8.2c-.8-1.4-2-3.6-2.5-4.3l6.9-1.9c.7 1.1 1.6 2.4 3.2 6.2h9.1c1-1.6 2-4.3 2.6-6.1l7.7 1.4c-.8 1.6-2.1 3.7-2.8 4.7h8.9v6.3h-18.2c-.4 1-.8 1.9-1.4 2.8h16.3v30.1h-34.8v-30.1h11.2c.4-1 .7-2 .9-2.8h-15.5v-1.2zm10.7 9.5v3.4h20.2v-3.4h-20.2zm0 7.7v3.5h20.2v-3.5h-20.2zm0 7.9v3.7h20.2v-3.7h-20.2zm81.9-30.3H612v-5.6h7.6v5.6h23.6v7.1h-44.6v17.3c0 11.9-2.5 20.5-6.8 26.7l-5.9-5.6c3.3-5.1 5.3-11.3 5.3-20.1v-25.4zm43.9 51.5c-1-3.1-1.3-4.1-1.9-5.7-6 .8-14.1 2.2-35 3.5l-1.2-7.6c.8 0 4.4-.1 5.7-.2 6.3-14.2 8.8-27.8 9.7-32.4l7.9 1.7c-2.5 10.4-5.6 20.7-10.1 30.4 9.9-.6 14.6-.9 20.8-1.6-2.9-7.3-5.6-11.8-6.8-13.7l6.4-3.2c5.1 7.8 9.3 17.1 12.1 25.6l-7.6 3.2zm34-56.9h7.3v3.9h9.1v6.6h-9.1v4.5h10.9v6.5H684c-.7 3.2-.8 4-1.5 6.8h4.4v6.7h-10.6v5h9.2v6.8h-9.2v9.5H669v-9.5h-9.1v-6.8h9.1v-5h-10.1v-6.7h4.4c-.2-1.8-.7-4.6-1.4-6.8h-3.3v-6.5H669V533h-9.1v-6.6h9.1v-3.9zm-.5 21.6c.8 3.4 1.1 5.3 1.3 6.8h5.9c.5-2.2.8-4.4 1.1-6.8h-8.3zm26.6 29.1v5.6h-7v-54.6h25c0 2.2-.2 13.2-1.4 16.2-.3.9-1.3 3.4-4.9 3.4H699l-1.2-6.3h5.6c1.8 0 2.4 0 2.6-6.4h-10.9v15.1h18.6c-.4 5.4-1.6 14.2-4.7 20.3 2 2.1 4 3.7 6.7 5.6l-3.7 6.7c-1.7-1.1-3.6-2.3-7-6.1-1.8 2.5-3.6 4.2-5.8 6.2l-4.1-5.7zm6.2-19.5c.7 1.8 1.6 3.7 3.2 6.7 1.6-4 1.9-5.9 2.1-7.9h-11.5V573c1.7-1.4 3.4-2.8 5.7-6.1-3.5-5.8-4.6-9.7-5.1-11.8l5.6-1.4zm40.9-26.1v-5h7.3v5h11.2v6.6h-3.3c-.4 2.9-1.1 6.6-2.1 10.3h6.3v6.6h-31.8v-6.6h6.5c-.2-3.1-.7-7.4-1.5-10.3H731v-6.6h11.2zm17.6 50.3h-27.6v-23.5h27.6v23.5zm-6.9-17.1h-13.7v10.7h13.7v-10.7zm-4.4-16.3c.9-3.1 1.6-7 2-10.3h-9.1c.7 3.5 1.3 6.2 1.6 10.3h5.5zm15.1 34.4v-55h22.1v6.5c-1.8 5.2-3.1 8.4-6.1 14.7 5.6 6.2 7.1 12.6 7.1 17.5 0 2.4-.5 6.4-3.2 8.8-1.6 1.4-3.7 2-6.5 2h-4.1l-1.1-7.3h3.5c1.7 0 3.7-.2 3.7-4.9 0-7.9-4.6-12.4-7.1-14.8 1.9-4 4.7-11.4 5.8-15.7h-6.9V579h-7.2zm58.9-24.9c-6.5-4-12.1-5.8-17.3-7.3l2.9-6.7c3.5.8 9.9 2.4 17.6 6.8l-3.2 7.2zm-13.9 12.7c22.1-2.1 32.6-9.1 39.8-33.1l6.8 5c-8.2 24.2-19.9 33.5-45 36.7l-1.6-8.6zm19.1-27c-6.3-3.5-11.3-5.1-17.8-7l3-6.5c6.5 1.4 11.3 3.1 18.1 6.4l-3.3 7.1zm86.9-11.9c-2.5 12.2-6.9 19.6-10.7 25 9.1 7.2 12.4 9.8 19.5 16.9l-6.7 6.5c-3.7-4.1-8.8-9.7-17.7-17.5-5.6 6.3-14.2 13.3-23.3 17.3l-4.6-6.7c8.7-3.7 14.8-7.9 21.2-14.9 6.5-7 9.7-13.4 11.8-19.1h-29.7v-7.6h40.2zm28 41.6c16.1-2.6 19-8.5 19.6-20h-22.1V542h49.2v7.4h-18.9c-.8 14.2-5.1 23.4-24.6 27.2l-3.2-7.2zm42-42.4v7.4h-39.7V527h39.7zm22.3 38.7h5.8c.4-.9 6.3-16.8 12.1-40.5l8.6 1.6c-5.2 20.5-11 34.5-12.8 38.8 12.1-.4 13.4-.5 24.7-1.4-3.5-7-6.7-11.6-8.8-14.7l6.9-3.3c6.8 9 10.7 16.1 14.9 26.6l-7.9 3.5c-1-2.8-1.4-3.8-2-5.4-13.6 1.5-19.6 2.2-40.5 3.1l-1-8.3zm85.4-32.9v6h-20.8v-6h20.8zm.6 26.3v-6.5h14.2V549h-12.4v-24.7h32V549h-12.8v3.7h14.5v6.5h-11.8c1.1 1.4 5.8 7.2 12.7 10.7l-3.7 6.9c-2-1.3-7.2-4.8-11.8-11.8v14h-6.8v-14.3c-5.1 7.1-10 10.3-12.8 12.1l-3.2-4.6v5.9h-17.8v-18.6h17.8v10.8c6.7-3.7 10.4-8 12.8-11.1h-10.9zm-1.9-34.8v5.9h-17.8v-5.9h17.8zm0 17.2v5.9h-17.8v-5.9h17.8zm0 8.8v5.9h-17.8v-5.9h17.8zm-5.9 14.8h-5.3v7h5.3v-7zm22.2-35.1h-6.2v4.3h6.2V530zm0 9h-6.2v4.3h6.2V539zm12.8-9h-6.5v4.3h6.5V530zm0 9h-6.5v4.3h6.5V539z" fill="#EF8018"/><path fill="#FFF" d="M166 423.1H69.9c-5.3 0-9.6-4.3-9.6-9.6v-96.1c0-5.3 4.3-9.6 9.6-9.6H166c5.3 0 9.6 4.3 9.6 9.6v96.1c.1 5.3-4.3 9.6-9.6 9.6z"/><path fill="#B71C25" d="M99.8 395.2l-16.2 20.1h7.8l13.6-16.9h25.3l13.6 16.9h7.8l-16.1-20.1c3.1-.5 10.1-1.1 13.1-1.7 3.7-6.9 5.8-14.7 5.8-23.1v-37c0-7.1-5.2-12.9-12-13.9 0 0-6-1.6-24.8-1.6-19.9 0-24.9 1.6-24.9 1.6-6.8 1-12 6.8-12 13.9v37c0 8.3 2.1 16.1 5.7 23 3.1.7 10.1 1.3 13.3 1.8zm32.4-56.3c0-1.7 1.4-3.2 3.2-3.2h11c1.7 0 3.2 1.4 3.2 3.2V352c0 1.7-1.4 3.2-3.2 3.2h-11c-1.7 0-3.2-1.4-3.2-3.2v-13.1zm-8.9-15.8c2.4 0 4.3 1.9 4.3 4.3s-1.9 4.3-4.3 4.3-4.3-1.9-4.3-4.3 1.9-4.3 4.3-4.3zm.1 12.7c1.7 0 3.2 1.4 3.2 3.2v13c0 1.7-1.4 3.2-3.2 3.2h-11c-1.7 0-3.2-1.4-3.2-3.2v-13.1c0-1.7 1.4-3.2 3.2-3.2h11zM112 323.1c2.4 0 4.3 1.9 4.3 4.3s-1.9 4.3-4.3 4.3-4.3-1.9-4.3-4.3 1.9-4.3 4.3-4.3zm-26.2 15.8c0-1.7 1.4-3.2 3.2-3.2h11c1.7 0 3.2 1.4 3.2 3.2V352c0 1.7-1.4 3.2-3.2 3.2H89c-1.7 0-3.2-1.4-3.2-3.2v-13.1zm1.1 22c1.2-.3 2.4-.3 3.6-.3h9.6c13.3 0 26.7.1 40 .1h4.9c1.1 0 2.3-.1 3.3.2 1.9.6 2.8 2.5 2.8 4.4v.2h-67c.1-2 .6-4 2.8-4.6zm-2.8 17.5v-8.3h67.1v10c0 2.5-2.5 2.3-4.4 2.3-3.1.1-6.3 0-9.5 0h-.7c-.7.2-.4 2.3-.4 2.8 0 1.4.1 3.2-1.9 3.2-6.4 0-12.8-.1-19.2-.1h-14.6c-2.5 0-2.1-2.7-2.1-4.5 0-1.7-.4-1.9-2-1.8h-8.3c-.8 0-1.9.2-2.7-.1-1.6-.4-1.3-2.2-1.3-3.5z"/><path fill="#FFF" d="M1117.1 423.3H1021c-5.3 0-9.6-4.3-9.6-9.6v-96.1c0-5.3 4.3-9.6 9.6-9.6h96.1c5.3 0 9.6 4.3 9.6 9.6v96.1c.1 5.3-4.3 9.6-9.6 9.6z"/><path d="M1094.8 369.7h-51.4v-34.4h51.4v34.4zm5.9-40.3h-63.3v46.3h63.3v-46.3m0 49.2h-63.3l-14.5 17.8v5.4h92.3v-5.4" fill="#C30D23"/></svg>