<?xml version="1.0" encoding="utf-8"?>
<!-- Generator: Adobe Illustrator 21.1.0, SVG Export Plug-In . SVG Version: 6.00 Build 0)  -->
<!DOCTYPE svg PUBLIC "-//W3C//DTD SVG 1.1//EN" "http://www.w3.org/Graphics/SVG/1.1/DTD/svg11.dtd">
<svg version="1.1" id="レイヤー_1" xmlns="http://www.w3.org/2000/svg" xmlns:xlink="http://www.w3.org/1999/xlink" x="0px"
	 y="0px" viewBox="0 0 1000 570" enable-background="new 0 0 1000 570" xml:space="preserve">
<g>
	<rect y="100" fill="#C0392B" width="1000" height="170"/>
	<g>
		<g>
			<path fill="#FFFFFF" d="M56.3,380.7c-23.8,0-25.6-14.3-25.6-18.7c0-3.3,0.6-6.1,1-8.1c0.1-0.3,0.1-0.6,0.2-0.9
				c0.7-3.6,3.9-6.2,7.6-6.1c-3.1-1-5.2-3.8-5.2-7.2v-7c0-2.1,0.9-4.2,2.5-5.6c1.6-1.4,3.7-2.1,5.8-1.9c3.5,0.4,8.2,0.6,13.5,0.6
				c4.7,0,10.5-0.3,14.4-0.7c2.1-0.2,4.2,0.5,5.8,1.9c1.6,1.4,2.5,3.4,2.5,5.6v7.1c0,3.9-3,7.2-7,7.5c-4,0.3-10.7,0.6-15.7,0.6
				c-2.9,0-5.7-0.1-8.6-0.2c1.9,0.3,3.6,1.4,4.8,3c1.3,1.8,1.7,4,1.2,6.2l0,0.2c-0.1,0.5-0.3,1-0.4,1.4c0.7,0.1,1.7,0.2,3,0.2
				c6.2,0,12.4-0.7,16.5-1.8c2.2-0.6,4.7-0.2,6.5,1.2c1.9,1.4,3,3.6,3,5.9l0.1,7.5c0,3.5-2.4,6.6-5.8,7.4
				C70.7,380,63.8,380.7,56.3,380.7z"/>
			<path fill="#FFFFFF" d="M113.4,381.4c-2.5,0-5.2-0.2-8.1-0.5c-3.1-0.3-5.6-2.5-6.4-5.5l-1.9-6.8c-0.1-0.3-0.2-0.6-0.2-1l-2-0.7
				c-2-0.7-3.7-2.3-4.4-4.3s-0.7-4.3,0.3-6.2c0.9-1.8,1.8-4.1,2.7-6.7c-3.8-0.4-6.7-3.6-6.7-7.5v-6.6c0-2.2,1-4.3,2.7-5.7
				c1.7-1.4,3.9-2,6.1-1.7c0.7,0.1,1.4,0.2,2.1,0.3c0-1.9,0.8-3.8,2.1-5.2c1.5-1.5,3.5-2.3,5.7-2.2l7.5,0.3c2.3,0.1,4.4,1.2,5.8,3.1
				c0.8,1.1,1.2,2.3,1.4,3.6c3.2-0.4,6.2-0.9,8.8-1.5c2.2-0.5,4.5,0,6.2,1.4c1.8,1.4,2.8,3.5,2.9,5.7l0.2,6.3
				c0.1,2.1-0.8,4.1-2.2,5.5c3.9,3.3,6.1,8,6.1,13.5c0,6.2-2.3,11.6-6.6,15.4C130.5,379.1,123.1,381.4,113.4,381.4z"/>
			<path fill="#FFFFFF" d="M170.3,381.4c-2.2,0-4.5-0.1-6.9-0.3c-3.1-0.3-5.7-2.4-6.5-5.3l-2.1-6.9c-0.1-0.4-0.2-0.8-0.3-1.3
				l-0.6-0.2c-3.9-1-6.3-4.8-5.6-8.7c1-4.9,2.1-14.9,2.5-21c0.1-2.1,1.1-4,2.7-5.4c0.9-0.8,2-1.3,3.2-1.5l1.1-4.2
				c0.5-2,1.8-3.6,3.6-4.6c1.8-1,3.9-1.2,5.8-0.6c4.5,1.4,15.4,3.3,19.7,3.8c2.2,0.2,4.1,1.4,5.4,3.1c1.2,1.8,1.7,4,1.2,6.1
				l-1.6,6.6c-0.1,0.4-0.2,0.8-0.4,1.2c5.9,3.4,9.6,9.3,9.6,16.3c0,6.3-2.3,11.7-6.6,15.7C189,379,180.9,381.4,170.3,381.4z"/>
			<path fill="#FFFFFF" d="M227,383.7c-2.6,0-4.9-1.3-6.3-3.4c-2.8,2-6.6,1.8-9.2-0.5c-1.1-0.9-3.1-2.5-4.2-3.2
				c-2.1-1.4-3.3-3.6-3.4-6.1c-0.1-2.5,1.1-4.8,3.1-6.3c1.6-1.2,3.3-2.9,4.7-4.5c-0.1-0.5-0.2-1-0.2-1.6v-13.5c-3.4-0.7-6-3.7-6-7.4
				v-6c0-4.1,3.4-7.5,7.5-7.5h12.8c1-3,3.8-5.1,7.1-5.1h6.7c3.3,0,6.1,2.1,7.1,5.1h13.1c4.1,0,7.5,3.4,7.5,7.5v6
				c0,3.5-2.5,6.5-5.8,7.3v13.5c0,0.6-0.1,1.2-0.2,1.8c2.3,2.5,4.4,5.2,5.8,7.3c1.1,1.8,1.5,3.9,1,6c-0.5,2-1.9,3.8-3.8,4.7
				l-6.2,3.2c-3.5,1.9-7.9,0.6-10-2.8c-0.4-0.8-1.1-1.8-2-2.9c-0.9,2.6-2.9,5.3-6.9,6.8C235.9,383.6,232,383.7,227,383.7z"/>
			<path fill="#FFFFFF" d="M302.1,383.4h-6.1c-3.1,0-5.8-1.9-6.9-4.6c-0.6-0.2-1.2-0.4-1.7-0.7c-1.6,1.5-3.4,2.8-5.3,4
				c-1.7,1.1-3.8,1.4-5.8,0.8c-2-0.5-3.7-1.8-4.6-3.6c-0.6-1-1.8-2.7-2.4-3.3c-1.7-1.7-2.5-4.1-2.1-6.5c0.3-1.9,1.4-3.7,2.9-4.8
				c-2.4-1.8-3.6-4.9-2.9-7.9c0.6-2.5,1.3-5.5,2-8.8c-1.5-1.4-2.4-3.3-2.4-5.5v-5.8c0-3.5,2.4-6.5,5.7-7.3c0.2-1.4,0.4-2.8,0.6-4.2
				c0.5-4,4.1-6.9,8.2-6.5l6,0.6c2.1,0.2,4,1.3,5.2,2.9c0,0.1,0.1,0.1,0.1,0.2c1-0.6,2.2-0.9,3.5-0.9h27c4.1,0,7.5,3.4,7.5,7.5v5.9
				c0,1.7-0.6,3.3-1.5,4.6c0.2,0.7,0.4,1.5,0.4,2.3v18.9c0,0.6-0.1,1.3-0.2,1.8c1.5,1.4,2.4,3.3,2.4,5.5v5.8c0,4.1-3.4,7.5-7.5,7.5
				h-16.7C306.1,382.6,304.2,383.4,302.1,383.4z"/>
			<path fill="#FFFFFF" d="M384.5,383.6c-1.3,0-2.6-0.4-3.8-1c-3.1-1.8-5.8-4.2-8.1-7c-2.3,2.4-4.9,4.6-7.8,6.5
				c-3.4,2.2-7.9,1.3-10.2-2c-0.1-0.2-0.4-0.5-0.7-0.8c-3.3,0.7-6.5,1.4-9.3,2l-3.1,0.7c-1.9,0.4-4,0-5.6-1s-2.8-2.8-3.3-4.7
				l-1.2-5.8c-0.4-2,0-4.1,1.2-5.8c0.3-0.4,0.6-0.8,1-1.2c-0.3-1.5-0.6-3.2-1-4.7c-0.2-0.7-0.3-1.5-0.3-2.2
				c-0.3-0.9-0.5-1.8-0.5-2.8v-5.3c0-1.2,0.3-2.2,0.7-3.2c-1.9-1.3-3-3.5-3.1-5.8c-0.1-2.3,0.9-4.6,2.7-6.1
				c4.3-3.5,6.5-8.2,7.3-10.1c1.1-2.8,3.9-4.7,7-4.7h5.4c1.8,0,3.5,0.6,4.8,1.7c0.3,0.3,0.8,0.7,1.4,1.2c0.4-0.5,0.9-1,1.5-1.5
				c1.6-1.2,3.7-1.6,5.7-1.3l5.9,1.1c2,0.4,3.7,1.5,4.9,3.1c0.5,0.7,0.9,1.6,1.1,2.4h8.9c4.1,0,7.5,3.4,7.5,7.5v5.8
				c0,1.4-0.4,2.8-1.1,3.9c1.5,1.4,2.4,3.3,2.4,5.5v5.9c0,3.6-2.6,6.7-6,7.4c1,1.2,2.2,2.1,3.5,2.7c2.3,1.1,3.8,3.3,4.1,5.8
				c0.3,2.5-0.7,5-2.6,6.6c-0.6,0.5-2,2.2-2.6,3.3c-1,1.8-2.6,3-4.6,3.6C385.8,383.5,385.2,383.6,384.5,383.6z"/>
			<path fill="#FFFFFF" d="M404.3,382.9c-0.6,0-1.1-0.1-1.7-0.2c-2.2-0.5-4.1-2-5.1-4l-3.2-6.6c-1.7-3.5-0.4-7.7,2.9-9.7
				c1.1-0.7,2.4-1.5,3.6-2.3v0c-3.5-0.6-6.2-3.7-6.2-7.4v-5.8c0-3.6,2.5-6.6,5.9-7.3c-0.9-0.8-1.8-1.6-2.8-2.3
				c-1.8-1.4-2.9-3.6-2.9-5.9c0-2.3,1-4.5,2.8-5.9l4.7-3.8c2.6-2.1,6.3-2.2,9.1-0.3c0.8,0.6,2.1,1.6,3.6,2.8c0.8-1.3,2-2.4,3.5-3
				l4.9-2c2.9-1.2,6.3-0.4,8.4,1.9c0.2,0.3,0.5,0.5,0.7,0.8c1.7-2.4,4.8-3.6,7.8-2.9l6.3,1.5c2.3,0.5,4.1,2.1,5.1,4.2
				c3.5,0.6,6.2,3.7,6.2,7.4v5.1c0,2.8-1.6,5.3-3.9,6.6v17.7c1.5,0.5,2.8,1.5,3.7,2.9c1.5,2.2,1.7,5.1,0.5,7.5
				c-0.4,0.7-1.1,3-1.3,4.1c-0.5,3.5-3.5,6.2-7,6.4c-6.2,0.3-17.1,0.5-24.1,0.2c-4.2-0.2-9.2-0.8-13.9-3.6c-0.9,0.8-1.9,1.6-3,2.4
				C407.6,382.3,405.9,382.9,404.3,382.9z"/>
			<path fill="#FFFFFF" d="M535.9,383.5c-1,0-2.1-0.2-3-0.6c-1.6-0.7-2.9-2-3.7-3.5c-7.7,0.6-16.4,1.2-26,1.8c-0.3,0-0.6,0-0.9,0
				c-1.2,1.2-2.7,1.9-4.4,2.1c-2.3,0.2-4.5-0.5-6.1-2.2c-0.5-0.5-2.4-1.7-3-2c-2-0.9-3.5-2.6-4.2-4.7c-0.7-2.1-0.4-4.4,0.8-6.2
				c3.9-6.2,3.9-17.2,3.9-21.8V333c0-4.1,3.4-7.5,7.5-7.5h11.2c0.4-3.8,3.6-6.8,7.5-6.8h6.6c3.9,0,7.1,3,7.5,6.8H541
				c4.1,0,7.5,3.4,7.5,7.5v6.1c0,4.1-3.4,7.5-7.5,7.5h-6.8c1,0.5,2,1.3,2.7,2.2c2.2,3,9.7,13.4,12.6,21.8c1.2,3.6-0.4,7.6-3.9,9.2
				l-6.4,3C538.1,383.3,537,383.5,535.9,383.5z"/>
			<path fill="#FFFFFF" d="M589.3,383.6c-0.4,0-0.9,0-1.3-0.1c-0.3-0.1-0.6-0.1-0.9-0.2c-0.2,0-0.4,0-0.6,0h-5.7
				c-1.9,0-3.6-0.7-4.9-1.8c-1.3,1.2-3.1,1.9-5,1.9H565c-4.1,0-7.5-3.4-7.5-7.5v-2.2h-0.4c-4.1,0-7.5-3.4-7.5-7.5v-5.3
				c0-0.4,0-0.9,0.1-1.3c-0.3-0.9-0.5-1.8-0.5-2.8v-5.3c0-0.7,0.1-1.3,0.3-1.9c-0.8-1.2-1.3-2.7-1.3-4.2v-5.3c0-1.9,0.7-3.6,1.8-4.9
				v-4c0-4.1,3.4-7.5,7.5-7.5h0.7c1.1-2.7,3.8-4.6,6.9-4.6h5.9c2.5,0,4.7,1.2,6.1,3.1c1.1-0.7,2.4-1.1,3.8-1.1h22.1
				c4.1,0,7.5,3.4,7.5,7.5v10.2c0,1.6-0.2,3-0.5,4.3c1.4,1.6,2.1,3.9,1.7,6.1c-0.9,5.2-2.2,9.9-3.9,14.3c0.6,0.4,1.2,0.8,1.8,1.1
				c2.2,1.1,3.8,3.3,4,5.8c0.3,2.5-0.7,5-2.6,6.6c-0.6,0.5-1.9,2.1-2.6,3.1c-1,1.7-2.7,3-4.7,3.4c-1.9,0.5-4,0.1-5.7-0.9
				c-0.9-0.5-1.7-1.1-2.5-1.7c-0.6,0.5-1.2,0.9-1.7,1.4C592.4,383.1,590.8,383.6,589.3,383.6z"/>
			<path fill="#FFFFFF" d="M628.2,383.4h-5.9c-4.1,0-7.5-3.4-7.5-7.5v-18.2c-1.8-1.4-3-3.6-3-6V346c0-2.1,0.8-4,2.2-5.3
				c-0.7-1.2-1.2-2.5-1.2-4v-5.4c0-4.1,3.4-7.5,7.5-7.5h2.8c1.1-2.8,3.8-4.8,7-4.8h6.1c3.1,0,5.8,1.9,6.9,4.7c1.3-1.2,3.1-1.9,5-1.9
				h13c0.3,0,0.6-0.1,0.9-0.1h0.2c2-0.6,4.2-0.2,6,0.9l4.6,2.9c3,1.9,4.2,5.5,3.1,8.8c-1.3,3.8-3,8.1-4.6,12
				c3.6,5.4,4.1,10.3,4.1,13.7c0,6.6-2.1,11.4-6.3,14.2c-1.8,1.2-4,2.1-6.5,2.5c-0.2,0-0.3,0-0.5,0.1c-0.1,0-0.3,0-0.4,0
				c-0.4,3.7-3.6,6.6-7.4,6.6h-6.2c-0.8,0-1.5-0.1-2.2-0.3c-0.6,0.1-1.2,0.2-1.8,0.2h-6.1c-1.9,0-3.6-0.7-4.9-1.8
				C632,382.7,630.2,383.4,628.2,383.4z"/>
			<path fill="#FFFFFF" d="M690.9,381.4c-2.7,0-5.2-1.4-6.5-3.8l-4-7c-1.2-2.1-1.3-4.7-0.3-6.9c1-2.2,3.1-3.8,5.5-4.2
				c1.3-0.2,2.6-0.5,3.8-0.7c-2.9-1.9-6.1-3.9-8.2-5c-1.9-1-3.3-2.7-3.8-4.8s-0.2-4.2,1-6l3.9-5.9c0.8-1.2,1.9-2.1,3.1-2.7
				c0.1-1.3,0.5-2.5,1.2-3.6l3.9-5.9c2.2-3.2,6.4-4.3,9.8-2.4c3.7,2,9.7,5.9,12.8,8c3.4,2.3,4.3,7,2,10.4l-4,5.9
				c-0.7,1.1-1.8,2-2.9,2.6c0,0.2,0,0.3-0.1,0.5c4.7-3.7,8.5-8,11.1-12.6c1.3-2.4,3.8-3.8,6.5-3.8c0,0,0,0,0,0
				c2.7,0,5.2,1.5,6.5,3.8l4.1,7.2c1.4,2.5,1.3,5.5-0.3,7.9c-5.6,8.3-14,15.9-23.7,21.4c-5.7,3.3-14.2,6.4-20.2,7.5
				C691.8,381.4,691.4,381.4,690.9,381.4z"/>
			<path fill="#FFFFFF" d="M780.3,381.1c-0.3,0-0.6,0-0.9,0c-2.1-0.2-4-1.4-5.2-3.1c-1.9-2.7-4.5-5.7-7.5-8.9
				c-5.3,4.7-11,8.5-16.7,11.2c-2.9,1.4-6.4,0.7-8.6-1.6l-5.5-5.8c-1.7-1.8-2.4-4.4-1.9-6.9c0.6-2.5,2.3-4.5,4.7-5.3
				c7.8-2.9,15-9,18.9-13.3c0.2-0.2,0.3-0.4,0.5-0.5h-5c-1.2,0-2.9,0.1-4.2,0.2c-0.7,0.1-1.3,0.1-1.7,0.1c-2.1,0.1-4-0.6-5.5-2.1
				c-1.5-1.4-2.3-3.4-2.3-5.4v-7.6c0-2.2,0.9-4.3,2.6-5.7c1.7-1.4,3.8-2.1,6-1.7c0.9,0.1,3.7,0.3,5.2,0.3h18.8
				c1.5,0,2.8-0.2,3.1-0.3c2.3-0.8,4.9-0.4,6.9,1.1l4.4,3.3c3.3,2.4,4,7.1,1.6,10.4c-0.2,0.4-0.9,1.5-1.1,2
				c-0.8,1.9-2.7,5.9-5.4,10.4c4.3,4.1,8.4,8.6,10.9,11.6c2.6,3.1,2.2,7.8-0.9,10.4l-6.1,5.3C783.9,380.4,782.1,381.1,780.3,381.1z"
				/>
			<path fill="#FFFFFF" d="M817.2,382.2c-1.6,0-3.1-0.5-4.4-1.4l-6.2-4.5c-2.2-1.6-3.4-4.3-3-7.1c0.4-2.7,2.2-5,4.8-6
				c2.2-0.8,4.7-2.8,6.1-4.8c0.1-0.2,0.2-0.3,0.3-0.5h-4.6c-1.6,0-3.4,0.1-4.6,0.1c-2.1,0.2-4.1-0.6-5.6-2s-2.4-3.4-2.4-5.5v-7
				c0-2.2,0.9-4.2,2.6-5.7c0.9-0.8,2-1.4,3.2-1.6v-5.9c0-2.2,1-4.3,2.6-5.7s3.9-2.1,6-1.7c1.1,0.2,2.9,0.3,4.5,0.3h21.4
				c1.7,0,3.4-0.1,4.7-0.3c2.2-0.3,4.3,0.3,6,1.7c1.6,1.4,2.6,3.5,2.6,5.7v6.2c0.7,0.3,1.4,0.7,2,1.2c1.7,1.4,2.7,3.5,2.7,5.8v6.9
				c0,2-0.8,4-2.3,5.4s-3.4,2.2-5.5,2.1c-1.2,0-3.1-0.1-4.5-0.1h-5.7c-0.7,3.8-1.7,7.2-3.2,10c-2.7,5.3-8.1,10.5-14,13.5
				C819.5,381.9,818.4,382.2,817.2,382.2z"/>
			<path fill="#FFFFFF" d="M900.8,381.1c-1,0-2-0.2-2.9-0.6c-1.9-0.8-3.4-2.3-4.1-4.2c-0.1-0.3-0.2-0.6-0.3-0.9
				c-8.8,1-20.5,2.2-25.9,2.8c-0.7,0.1-1.6,0.2-2.6,0.3c-0.8,0.1-1.6,0.2-2.3,0.3c-4,0.5-7.7-2.3-8.3-6.3l-1.2-7.8
				c-0.3-2.2,0.3-4.4,1.7-6s3.5-2.6,5.7-2.6c0.6,0,1.3,0,2,0c2.8-7.8,6-18.2,7.2-22.6c0.7-2.5,0.9-3.7,1.1-5c0.2-2.1,1.4-4,3.1-5.2
				c1.7-1.2,3.8-1.7,5.9-1.3l8.5,1.8c2.2,0.5,4.2,1.9,5.2,4s1.1,4.5,0.1,6.5c-0.6,1.2-1.2,2.9-2,5.2l-1,3c0,0,0,0,0,0.1l2.9-1.2
				c3.3-1.4,7.1-0.2,9.1,2.8c3.9,6,9.6,16.7,12.3,23.4c1.5,3.8-0.2,8.1-3.9,9.7l-7.2,3.2C902.8,380.9,901.8,381.1,900.8,381.1z"/>
			<path fill="#FFFFFF" d="M958.8,383.4h-6.1c-2.3,0-4.4-1.1-5.8-2.7c-2.3,1.2-5,1.2-7.2-0.1c-0.1,0-0.1,0-0.2,0h-5.3
				c-1.4,1.3-3.2,2.1-5.2,2.1h-5.2c-4.1,0-7.5-3.4-7.5-7.5V357c0-0.5,0.1-1.1,0.2-1.6c0-0.3-0.1-0.6-0.1-1v-4.8c0-0.4,0-0.8,0.1-1.2
				c-0.1-0.4-0.1-0.8-0.1-1.2v-1.8c-1.4-1.4-2.3-3.3-2.3-5.4v-5c0-2.2,1-4.2,2.5-5.6v-1.5c0-4.1,3.4-7.5,7.5-7.5h15.2
				c0.9,0,1.8,0.2,2.6,0.5c0.4-0.1,0.8-0.1,1.1-0.1h26.2c4.1,0,7.5,3.4,7.5,7.5v21.1c0.6,1.1,1,2.3,1,3.7v5.5c0,1.6-0.5,3.1-1.4,4.3
				c1.8,1.3,3,3.4,3.1,5.7c0.1,2.5-1,4.8-2.9,6.3c-0.5,0.4-1.8,1.8-2.6,3c-1.1,1.8-3,2.9-5,3.3c-1.4,0.2-2.9,0.1-4.2-0.5
				C963.2,382.3,961.1,383.4,958.8,383.4z"/>
		</g>
		<g>
			<path fill="#EF8018" d="M46.1,355c-0.5,1.9-0.9,3.6-0.9,5.4c0,3.3,3.2,5.8,10.8,5.8c7.1,0,13.8-0.8,18.5-2.1l0.1,7.5
				c-4.6,1.1-10.9,1.8-18.3,1.8c-12,0-18.1-4-18.1-11.2c0-3.1,0.6-5.6,1-7.6L46.1,355z M41.7,332.7c3.9,0.4,8.8,0.6,14.3,0.6
				c5.2,0,11.2-0.3,15.2-0.7v7.1c-3.7,0.3-10.2,0.6-15.2,0.6c-5.5,0-10.1-0.2-14.4-0.5V332.7z"/>
			<path fill="#EF8018" d="M130.7,340.4c-5.5,0.9-14,1.9-21,2.2c-0.7,3-1.5,6.2-2.3,8.6c4.3-2.3,8.3-3.3,13.1-3.3
				c8.5,0,14.2,4.5,14.2,11.3c0,11.8-11.4,16.1-28.4,14.3l-1.9-6.8c11.6,1.9,23.2,0.5,23.2-7.3c0-3.1-2.7-5.8-7.8-5.8
				c-6.1,0-11.5,2.2-14.5,6.2c-0.6,0.7-1,1.4-1.5,2.3l-6.2-2.2c2.5-4.7,4.5-11.5,5.9-17.2c-3.2-0.1-6.3-0.2-8.9-0.5v-6.6
				c3.1,0.5,7,1,10.2,1c0.2-1,0.3-2,0.4-2.7c0.3-2.2,0.4-3.6,0.3-5.3l7.5,0.3c-0.5,1.9-0.9,3.6-1.2,5.3l-0.4,2.2
				c6-0.3,13.2-1.1,19.5-2.5L130.7,340.4z"/>
			<path fill="#EF8018" d="M163.4,351.4c4.7-3.5,10-5,15.4-5c9.2,0,14.6,5.7,14.6,12c0,9.6-7.6,17-29.5,15.2l-2.1-6.9
				c15.8,2.2,24.2-1.7,24.2-8.4c0-3.5-3.2-5.9-7.9-5.9c-5.9,0-11.2,2.2-14.5,6.2c-1,1.1-1.5,2-2,3l-6.1-1.5c1-5.2,2.2-15.4,2.6-22
				l7.1,1C164.6,342.1,163.7,348.4,163.4,351.4z M165,328.6c5,1.5,16.5,3.6,21.1,4l-1.6,6.6c-5.3-0.7-17.1-3.2-21.2-4.3L165,328.6z"
				/>
			<path fill="#EF8018" d="M226.9,362.1c-2.7,4.4-6.7,9.1-10.5,12c-1.3-1.1-3.6-2.9-5-3.8c3.6-2.6,7.2-6.8,9.1-10.2L226.9,362.1z
				 M259.8,337.3H213v-6h19.9v-5.1h6.7v5.1h20.2V337.3z M239.7,358.1v11.4c0,3.2-0.6,4.8-3,5.7c-2.3,0.9-5.5,1-9.7,1
				c-0.3-1.9-1.2-4.4-2.1-6.1c2.7,0.2,6.1,0.2,7,0.1c0.9,0,1.2-0.2,1.2-0.9v-11.2h-14V341h35v17.1H239.7z M225.3,352.7h22.1v-6.2
				h-22.1V352.7z M251.2,360c3.3,3.3,7.7,8.1,9.7,11.3l-6.2,3.2c-1.8-3.1-6-8.1-9.3-11.7L251.2,360z"/>
			<path fill="#EF8018" d="M293.9,337.2c-0.4,9.9-1.7,17.6-3.9,23.7c2.1,2,4,4,5.2,5.6l-4,5.1c-1-1.4-2.4-3.1-4-4.8
				c-2.3,3.8-5.3,6.7-8.9,8.9c-0.9-1.5-2.5-3.8-3.7-5c3.4-1.7,6.1-4.5,8.2-8.3c-0.9-0.9-1.8-1.7-2.7-2.5l-0.4,1.5l-5.2-2.9
				c1.1-4.3,2.3-10,3.4-16h-3.6v-5.8h4.6c0.6-3.7,1.2-7.2,1.7-10.5l6,0.6c-0.5,3.1-1.1,6.5-1.7,10h4.4l1.1-0.1L293.9,337.2z
				 M283.7,342.5c-0.7,3.8-1.5,7.5-2.2,11c1.2,1,2.5,2,3.8,3.1c1.3-4,2.2-8.7,2.6-14.1H283.7z M324.1,373.8h-21.9v2.2h-6.1V329h27
				v5.9h-9.2v6.9h8v18.9h-8v7.4h10.2V373.8z M302.2,334.9v6.9h5.7v-6.9H302.2z M315.9,347.5h-13.7v7.3h13.7V347.5z M302.2,367.9h5.7
				v-7.4h-5.7V367.9z"/>
			<path fill="#EF8018" d="M376.9,354c2,7.5,5.8,13.7,11.9,16.8c-1.4,1.2-3.3,3.6-4.3,5.3c-5.4-3.2-8.9-8.4-11.3-15
				c-2.2,5.2-6,10.4-12.5,14.6c-0.9-1.3-3-3.4-4.6-4.4l0.6-0.3c-6,1.3-12.1,2.6-16.8,3.6l-1.2-5.8c2.2-0.3,4.9-0.8,7.8-1.3v-13.8
				h-7.3v-5.3h7.3v-3.8h-4.7v-2.4c-0.3,0.4-0.7,0.7-1.1,1c-0.9-1.2-2.6-3.2-3.8-4c4.6-3.8,7.7-8.8,9.4-13h5.4c3.2,2.7,7.1,6.6,9,9.4
				l-3.5,3.9v5.1h-5.3v3.8h6.8v5.3h-6.8v12.7l7.5-1.4l0.4,3.9c6-4.5,8.4-9.9,9.3-14.9h-9.2v-5.9h9.7c0.1-0.7,0.1-1.5,0.1-2.2v-7.2
				h-3c-1.1,3.1-2.3,5.8-3.7,8c-1.1-1-3.7-2.6-5.1-3.4c2.8-4.1,4.8-10.7,5.9-17.2l5.9,1.1c-0.4,1.9-0.7,3.8-1.2,5.7h17.4v5.8H376
				v7.3c0,0.7,0,1.4-0.1,2.1h11.3v5.9H376.9z M343.8,355.8c0.9,2.9,1.7,6.7,1.9,9.2l-4.3,1.1c-0.2-2.6-0.9-6.4-1.7-9.3L343.8,355.8z
				 M355.9,339.3c-1.4-2.2-3.9-5.3-6.2-7.5c-1.3,2.3-3.1,5-5.3,7.5H355.9z M352.4,364c0.7-2.3,1.7-6.1,2-8.7l4.6,1.2
				c-1,3-2,6.4-2.8,8.6L352.4,364z"/>
			<path fill="#EF8018" d="M414.5,363.5c2.2,3.5,6.2,5,11.6,5.3c6.2,0.3,18.2,0.1,25.3-0.5c-0.7,1.5-1.7,4.6-2,6.4
				c-6.4,0.3-17.1,0.4-23.4,0.2c-6.4-0.3-10.9-1.8-14.3-5.9c-2.3,2.1-4.6,4.2-7.5,6.4l-3.2-6.6c2.2-1.3,4.9-3.1,7.2-5v-11.2h-6.2
				v-5.8h12.4V363.5z M410.9,339.8c-1.6-2.6-5.4-6.1-8.6-8.6l4.7-3.8c3.2,2.3,7.1,5.6,8.9,8.2L410.9,339.8z M428.7,339.8
				c0.2-0.9,0.4-1.9,0.5-2.8h-12.8v-5.1h7.4c-0.6-1.3-1.5-2.7-2.5-3.9l4.9-2c1.4,1.6,2.9,3.9,3.5,5.5l-1,0.4h7.1
				c1-1.7,2.1-4,2.8-5.8l6.3,1.5c-1,1.5-1.9,3-2.8,4.3h8.3v5.1h-14.4c-0.4,1-0.9,1.9-1.2,2.8h11.8v26h-26v-26H428.7z M440.2,344.4
				h-13.7v2.9h13.7V344.4z M440.2,351.3h-13.7v2.9h13.7V351.3z M440.2,358.2h-13.7v3h13.7V358.2z"/>
			<path fill="#EF8018" d="M503,346.4c0,8.5-0.9,21.3-6,29.4c-1.1-1.1-3.9-3-5.4-3.6c4.7-7.5,5.1-18.3,5.1-25.8V333h18.7v-6.8h6.6
				v6.8H541v6.1h-38V346.4z M535.9,376c-0.4-1.4-1-2.9-1.8-4.6c-11.2,0.9-23.1,1.7-31.4,2.2l-0.6-6.6c1.8-0.1,3.9-0.2,6.1-0.2
				c2.8-7.1,5.6-17.4,7.1-25.4l7.1,1.7c-2.1,7.8-4.9,16.7-7.6,23.4c5.2-0.2,10.9-0.5,16.5-0.8c-1.9-3.4-4.1-6.9-6.2-9.9l5.8-2.7
				c4.5,6.1,9.6,14.1,11.5,19.7L535.9,376z"/>
			<path fill="#EF8018" d="M570.8,339.9h9v5.3H575l2.3,0.6c-1,2-1.7,4-2.5,5.5h4v5.3h-8.1v4.1h7.7v5.3h-7.7v9.7H565v-9.7h-7.9v-5.3
				h7.9v-4.1h-8.3v-5.3h4c-0.3-1.8-1-3.9-1.8-5.7l1.8-0.5h-5.1v-5.3h9.4v-3.7h-7.6V331h7.6v-4.6h5.9v4.6h7v5.2h-7V339.9z
				 M570.1,350.9c0.6-1.6,1.4-3.9,1.9-5.7h-8c0.9,1.9,1.7,4.2,1.9,5.8l-1.2,0.4h7.1L570.1,350.9z M604.2,347.8
				c-1.1,6.4-2.9,12.3-5.6,17.4c2.2,2.4,4.7,4.5,7.5,5.9c-1.4,1.2-3.2,3.4-4.2,5c-2.5-1.5-4.7-3.5-6.8-5.8c-1.7,2.2-3.7,4.2-5.9,5.8
				c-0.6-1-1.8-2.2-2.8-3.1v2.8h-5.7v-47.4h22.1v10.2c0,2.8-0.5,4.3-2.7,5.2c-2,0.9-4.8,0.9-8.7,0.9c-0.3-1.7-1.1-3.9-1.8-5.4
				c2.6,0.1,5.5,0.1,6.3,0.1c0.8,0,1.1-0.2,1.1-0.7V334h-10.6v12.7h13.2l0.8-0.2L604.2,347.8z M586.4,370.9c2-1.5,3.7-3.4,5.2-5.5
				c-2.1-3.5-3.8-7.4-5.2-11.6V370.9z M591,351.7c1,2.9,2.2,5.7,3.8,8.3c1.2-2.6,2.1-5.4,2.8-8.3H591z"/>
			<path fill="#EF8018" d="M643.5,338.3c-1.2,2.8-2.2,5.6-3.1,7.7h6.2v5.8h-27.3V346h6.1c-0.2-2.2-1-5.4-1.9-7.9l5.2-1.2
				c1.1,2.4,2,5.7,2.2,7.8L626,346h13.1l-3.7-1.1c0.8-2.2,1.8-5.6,2.3-8.1L643.5,338.3z M646.1,336.7h-25.7v-5.4h9.8v-4.8h6.1v4.8
				h9.9V336.7z M622.3,355.2h21.9v20.5h-6.1v-2.6h-10v2.8h-5.9V355.2z M628.2,360.7v7.1h10v-7.1H628.2z M668.9,331.8
				c-1.8,5-4.1,11-6.1,15.7c4.5,4.8,5.2,9,5.2,12.5c0,3.9-0.9,6.6-2.9,7.9c-1,0.7-2.2,1.1-3.6,1.3c-1.1,0.1-2.6,0.2-4.1,0.1
				c-0.1-1.7-0.6-4.4-1.7-6.1c1.2,0.1,2.1,0.1,2.9,0.1c0.7-0.1,1.4-0.2,2-0.4c0.9-0.6,1.3-1.9,1.3-3.7c0-2.9-1.2-6.7-5.5-11
				c1.5-3.8,3.2-9.1,4.5-13.1h-6.6v40.7h-6.2v-46.7h13.9v-0.1h1.2l1-0.3L668.9,331.8z"/>
			<path fill="#EF8018" d="M700.8,348.7l-3.9,6c-3-2.1-8.6-5.7-12.1-7.6l3.9-5.9C692.2,343.1,698.1,346.8,700.8,348.7z M705.1,360.9
				c9.1-5.1,16.5-12.4,20.7-20l4.1,7.2c-5,7.4-12.5,14.1-21.2,19.1c-5.4,3.1-13.1,5.8-17.8,6.6l-4-7
				C692.9,365.9,699.3,364.1,705.1,360.9z M709,336.7l-4,5.9c-3-2.1-8.5-5.7-12-7.7l3.9-5.9C700.4,331,706.2,334.8,709,336.7z"/>
			<path fill="#EF8018" d="M781.8,335.1c-0.4,0.6-1.4,2.2-1.9,3.3c-1.8,4.2-4.8,9.9-8.4,14.6c5.3,4.6,11.7,11.4,14.9,15.2l-6.1,5.3
				c-3.5-4.8-8.4-10.2-13.4-15.1c-5.6,6-12.7,11.5-20,15l-5.5-5.8c8.6-3.2,16.8-9.7,21.8-15.3c3.5-4,6.8-9.3,7.9-13h-18.1
				c-2.2,0-5.2,0.3-6.3,0.4v-7.6c1.4,0.2,4.7,0.4,6.3,0.4h18.8c2.3,0,4.4-0.3,5.5-0.7L781.8,335.1z"/>
			<path fill="#EF8018" d="M843.5,343.9c1.1,0,3.5-0.1,4.8-0.3v6.9c-1.3-0.1-3.4-0.1-4.8-0.1h-12.5c-0.3,5.6-1.2,10.4-3.1,14.1
				c-1.9,3.7-6,7.8-10.7,10.2l-6.2-4.5c3.8-1.4,7.5-4.5,9.6-7.6c2.2-3.3,2.8-7.6,3-12.2h-13.5c-1.6,0-3.6,0.1-5.1,0.2v-7
				c1.5,0.2,3.5,0.3,5.1,0.3H843.5z M816.5,337.1c-1.8,0-4,0.1-5.7,0.2v-6.9c1.7,0.3,3.9,0.4,5.7,0.4h21.4c1.8,0,3.9-0.1,5.8-0.4
				v6.9c-1.9-0.1-3.9-0.2-5.8-0.2H816.5z"/>
			<path fill="#EF8018" d="M900.8,373.6c-0.7-1.8-1.5-4-2.6-6.3c-8.6,1-24.8,2.7-31.5,3.4c-1.3,0.2-3.3,0.4-5,0.6l-1.2-7.8
				c1.8,0,4.1,0,5.9-0.1l1.4-0.1c3.1-7.9,7.7-22.5,9.2-28c0.7-2.7,1.1-4.4,1.3-6.2l8.5,1.8c-0.7,1.6-1.5,3.6-2.3,5.9
				c-1.7,5.2-6,18.7-8.7,25.9c6.5-0.6,14.1-1.5,19.4-2.1c-1.9-3.8-3.8-7.4-5.6-9.7l6.7-2.7c3.8,5.8,9.2,16.2,11.7,22.2L900.8,373.6z
				"/>
			<path fill="#EF8018" d="M940.9,340h-19.5v-5h19.5V340z M961.4,358.5c2.7,4,6.7,8,10.4,10.4c-1.4,1.1-3.2,3.2-4.3,4.8
				c-3.1-2.4-6.2-6-8.8-9.9v12.1h-6.1v-11.5c-2.6,4-5.9,7.4-9.3,9.7c-0.9-1.3-2.6-3.3-3.9-4.5v3.5h-10.5v2.1h-5.2V357h15.8v12
				c4.1-2.3,8-6.3,10.7-10.5h-8.8V353h11.3v-3h-9.7v-21.7h26.2v21.7h-10.3v3h11.3v5.5H961.4z M939.5,347.2h-15.7v-4.8h15.7V347.2z
				 M923.8,349.6h15.7v4.8h-15.7V349.6z M939.2,332.6h-15.2v-4.8h15.2V332.6z M934.2,362h-5.3v6.1h5.3V362z M948.5,336.7h4.5v-3.5
				h-4.5V336.7z M948.5,344.9h4.5v-3.5h-4.5V344.9z M963.2,333.2h-4.8v3.5h4.8V333.2z M963.2,341.5h-4.8v3.5h4.8V341.5z"/>
		</g>
	</g>
	<g>
		<path fill="#FFFFFF" d="M120.5,238.5h-85c-4.7,0-8.5-3.8-8.5-8.5v-85c0-4.7,3.8-8.5,8.5-8.5h85c4.7,0,8.5,3.8,8.5,8.5v85
			C129,234.7,125.2,238.5,120.5,238.5z"/>
		<path fill="#C0392B" d="M61.9,213.8l-14.3,17.8h6.9l12-14.9l22.4,0l12,14.9h6.9l-14.3-17.8c2.8-0.4,8.9-0.9,11.6-1.5
			c3.2-6.1,5.1-13,5.1-20.4l0-32.7c0-6.2-4.6-11.4-10.6-12.3c0,0-5.3-1.4-21.9-1.4c-17.6,0-22,1.4-22,1.4c-6,0.9-10.6,6-10.6,12.3
			l0,32.7c0,7.3,1.9,14.3,5.1,20.4C52.9,212.9,59.1,213.4,61.9,213.8z"/>
		<path fill="#FFFFFF" d="M90.5,164.1c0-1.5,1.3-2.8,2.8-2.8h9.7c1.5,0,2.8,1.3,2.8,2.8v11.6c0,1.5-1.3,2.8-2.8,2.8h-9.7
			c-1.5,0-2.8-1.3-2.8-2.8V164.1z"/>
		<path fill="#FFFFFF" d="M82.7,161.3c1.5,0,2.8,1.3,2.8,2.8v11.6c0,1.5-1.3,2.8-2.8,2.8h-9.7c-1.5,0-2.8-1.3-2.8-2.8v-11.6
			c0-1.5,1.3-2.8,2.8-2.8H82.7z"/>
		<circle fill="#FFFFFF" cx="57.2" cy="190.8" r="4.4"/>
		<circle fill="#FFFFFF" cx="98.2" cy="190.8" r="4.4"/>
		<path fill="#FFFFFF" d="M49.5,164.1c0-1.5,1.3-2.8,2.8-2.8H62c1.5,0,2.8,1.3,2.8,2.8v11.6c0,1.5-1.3,2.8-2.8,2.8h-9.7
			c-1.5,0-2.8-1.3-2.8-2.8V164.1z"/>
		<path fill="#FFFFFF" d="M83.6,156.5H72.2c-1.1,0-1.9-0.9-1.9-1.9v-1.8c0-1.1,0.9-1.9,1.9-1.9h11.5c1.1,0,1.9,0.9,1.9,1.9v1.8
			C85.5,155.6,84.7,156.5,83.6,156.5z"/>
	</g>
	<g>
		<path fill="#FFFFFF" d="M961.4,238.7h-85c-4.7,0-8.5-3.8-8.5-8.5v-85c0-4.7,3.8-8.5,8.5-8.5h85c4.7,0,8.5,3.8,8.5,8.5v85
			C970,234.9,966.1,238.7,961.4,238.7z"/>
		<path fill="#C0392B" d="M955.5,187.9v-32.5l-34.4-11.5l-34.4,11.5v32.5c0,11.5,4.8,22.3,12.9,29.3l21.5,14.2l21.5-14.2
			C950.7,210.2,955.5,199.3,955.5,187.9z"/>
		<path fill="#FFFFFF" d="M921.1,222.2L904,210.9c-6.5-5.6-10.2-14-10.2-23v-25.3l27.3-9.1l27.3,9.1v25.3c0,9.1-3.7,17.5-10.2,23
			L938,211L921.1,222.2z M906.2,208.1l14.9,9.8l14.9-9.8c5.6-4.8,8.9-12.4,8.9-20.3V165l-23.7-7.9l-23.7,7.9v22.8
			C897.3,195.7,900.6,203.3,906.2,208.1z"/>
		
			<rect x="892.5" y="180" transform="matrix(0.7649 -0.6441 0.6441 0.7649 98.6401 637.2925)" fill="#FFFFFF" width="59.9" height="7.1"/>
	</g>
	<g>
		<g>
			<g>
				<rect x="181.1" y="107.1" fill="#F8F6BD" width="153.8" height="35.4"/>
				<path fill="#F8F6BD" d="M276.8,283.1c-7.5,0.5-15.2,0.1-23-1.2c-53-9.1-88.6-59.7-79.5-112.6l34.9,6
					c-5.8,33.7,16.9,65.9,50.6,71.8c33.7,5.8,65.9-16.9,71.8-50.6l34.9,6C358.7,247.6,320.7,280.2,276.8,283.1z"/>
			</g>
			<g>
				<path fill="#C0392B" d="M531.3,226.6c-15.4,0-29.3-6.2-40.2-17.8c-19.7-21.2-28.6-60.1-25-109.5l26.5,1.9
					c-3,41.3,3.5,74,18,89.5c5.9,6.3,12.6,9.4,20.7,9.4c12.8,0,27.3-5.8,44.4-17.7l15.2,21.8C568.8,219.5,549.9,226.6,531.3,226.6z"
					/>
			</g>
			<g>
				<path fill="#F8F6BD" d="M774.3,271.8l4.3-31.5l33.1,4.5l-4.3,31.5L774.3,271.8z M794.2,107.1l37.6,5.1l-20,114.2l-28.6-3.9
					L794.2,107.1z"/>
			</g>
			<g>
				
					<rect x="394.4" y="74" transform="matrix(0.2671 -0.9637 0.9637 0.2671 193.6016 472.8997)" fill="#F8F6BD" width="26.5" height="70.3"/>
				<path fill="#F8F6BD" d="M422.6,260.2l-14.2-22.4c8.3-5.3,15-16.4,17.9-29.8c2.9-13.5,1.3-26.7-4.2-35.4
					c-4.7-7.4-12.4-11.3-22.8-11.4c-10.5-0.1-22.5,3.6-32.9,10.2L352.2,149c14.6-9.3,31.9-14.5,47.5-14.3
					c19.4,0.2,35.3,8.7,44.9,23.7c9.2,14.6,12,34.7,7.7,55.1C447.9,234.1,437.1,251.1,422.6,260.2z"/>
			</g>
			<g>
				<path fill="#F8F6BD" d="M757,141.3l3.7-31.6l-44.3-5.2l3.1-26.5L688,74.3l-3.1,26.5L580.7,88.5l-3.7,31.6l104.2,12.3l-1.4,12.3
					c-5.6-3.1-11.8-5.1-18.4-5.9c-27.8-3.3-53.1,16.7-56.4,44.5s16.7,53.1,44.5,56.4c2.4,0.3,4.8,0.4,7.2,0.3
					c-9.4,11.6-19.7,14.7-24.6,16.2l9.1,30.4c15.6-4.7,28.7-13.2,39-25.3c13.3-15.7,21.9-37.5,25.4-64.7c0.1-0.5,0.1-0.9,0.2-1.4
					c0-0.2,0-0.3,0-0.5c0-0.3,0.1-0.6,0.1-0.9l0,0l6.8-57.7L757,141.3z M653.1,208c-10.4-1.2-17.9-10.7-16.7-21.1
					c1.2-10.4,10.7-17.9,21.1-16.7c10.3,1.2,17.7,10.5,16.7,20.8c0,0.3-0.1,0.6-0.1,0.8C672.6,202,663.3,209.2,653.1,208z"/>
			</g>
		</g>
		<g>
			<g>
				<path fill="#C0392B" d="M334.9,160.6H181.1c-10,0-18.1-8.1-18.1-18.1v-35.4c0-10,8.1-18.1,18.1-18.1h153.8
					c10,0,18.1,8.1,18.1,18.1v35.4C353,152.4,344.9,160.6,334.9,160.6z"/>
				<path fill="#C0392B" d="M270.5,301.4c-6.6,0-13.2-0.6-19.7-1.7c-62.8-10.8-105.1-70.8-94.2-133.6c1.7-9.9,11.1-16.5,20.9-14.8
					l34.9,6c9.9,1.7,16.5,11.1,14.8,20.9c-4.1,23.9,12,46.7,35.9,50.8c11.5,2,23.2-0.6,32.8-7.4c9.6-6.8,16-16.9,18-28.4
					c1.7-9.9,11.1-16.5,20.9-14.8l34.9,6c9.9,1.7,16.5,11.1,14.8,20.9c-4.4,25.7-17.6,49.4-37.1,66.7c-19.2,17-43.8,27.3-69.2,29
					c0,0,0,0,0,0C275.5,301.3,273,301.4,270.5,301.4z M276.8,283.1L276.8,283.1L276.8,283.1z"/>
			</g>
			<g>
				<g>
					<path fill="#C0392B" d="M531.3,244.8c-20.6,0-39.1-8.2-53.4-23.6C454.6,196.2,444,152.4,448,98c0.3-4.8,2.6-9.3,6.2-12.4
						c3.6-3.1,8.4-4.7,13.2-4.4l26.5,1.9c10,0.7,17.5,9.4,16.8,19.4c-3.1,42.2,4.8,66.8,13.2,75.8c2.8,3,4.9,3.6,7.5,3.6
						c8.8,0,20.3-4.9,34-14.4c8.2-5.7,19.5-3.7,25.2,4.5l15.2,21.8c5.7,8.2,3.7,19.5-4.5,25.2C576,236.6,553.8,244.8,531.3,244.8z"
						/>
				</g>
				<g>
					<path fill="#C0392B" d="M531.3,244.8c-20.6,0-39.1-8.2-53.4-23.6C454.6,196.2,444,152.4,448,98c0.3-4.8,2.6-9.3,6.2-12.4
						c3.6-3.1,8.4-4.7,13.2-4.4l26.5,1.9c10,0.7,17.5,9.4,16.8,19.4c-3.1,42.2,4.8,66.8,13.2,75.8c2.8,3,4.9,3.6,7.5,3.6
						c8.8,0,20.3-4.9,34-14.4c8.2-5.7,19.5-3.7,25.2,4.5l15.2,21.8c5.7,8.2,3.7,19.5-4.5,25.2C576,236.6,553.8,244.8,531.3,244.8z"
						/>
				</g>
				<g>
					<path fill="#C0392B" d="M531.3,244.8c-20.6,0-39.1-8.2-53.4-23.6C454.6,196.2,444,152.4,448,98c0.3-4.8,2.6-9.3,6.2-12.4
						c3.6-3.1,8.4-4.7,13.2-4.4l26.5,1.9c10,0.7,17.5,9.4,16.8,19.4c-3.1,42.2,4.8,66.8,13.2,75.8c2.8,3,4.9,3.6,7.5,3.6
						c8.8,0,20.3-4.9,34-14.4c8.2-5.7,19.5-3.7,25.2,4.5l15.2,21.8c5.7,8.2,3.7,19.5-4.5,25.2C576,236.6,553.8,244.8,531.3,244.8z"
						/>
				</g>
			</g>
			<g>
				<path fill="#C0392B" d="M807.4,294.4c-0.8,0-1.6-0.1-2.4-0.2l-33.1-4.5c-9.9-1.3-16.9-10.5-15.5-20.4l4.3-31.5
					c0.5-4,2.4-7.6,5.2-10.4c-0.6-2.1-0.8-4.3-0.6-6.6l11-115.4c0.5-4.9,2.9-9.4,6.8-12.5c3.9-3.1,8.8-4.4,13.7-3.8l37.6,5.1
					c4.9,0.7,9.3,3.3,12.2,7.3c2.9,4,4.1,9,3.2,13.8l-20,114.2c-0.4,2.3-1.2,4.3-2.3,6.2c1.9,3.3,2.8,7.3,2.2,11.4l-4.3,31.5
					c-0.6,4.8-3.2,9.1-7,12C815.2,293.1,811.3,294.4,807.4,294.4z M810.5,127.6l-0.3,3l0.5-2.9L810.5,127.6z"/>
			</g>
			<g>
				<path fill="#C0392B" d="M438,149.5c-1.6,0-3.3-0.2-4.8-0.7L365.4,130c-9.6-2.7-15.3-12.7-12.6-22.3l7.1-25.6
					c1.3-4.6,4.4-8.6,8.5-10.9c4.2-2.4,9.1-3,13.8-1.7L450,88.3c9.6,2.7,15.3,12.7,12.6,22.3l-7.1,25.6c-1.3,4.6-4.4,8.6-8.5,10.9
					C444.2,148.7,441.1,149.5,438,149.5z"/>
				<path fill="#C0392B" d="M422.7,278.4c-6,0-11.9-3-15.3-8.4l-14.2-22.4c-5.4-8.5-2.8-19.7,5.6-25c3.4-2.2,7.8-8.6,9.8-18.3
					c2.1-9.9,0.6-18.2-1.7-21.9c-0.6-1-1.8-2.9-7.7-3c-7-0.1-15.6,2.7-23,7.4c-4.1,2.6-9,3.4-13.7,2.4c-4.7-1.1-8.8-3.9-11.3-8
					l-14.2-22.4c-2.6-4.1-3.4-9-2.4-13.7c1.1-4.7,3.9-8.8,8-11.3c17.5-11.1,38.4-17.3,57.4-17.1c25.4,0.3,47.2,12,60,32.2
					c11.7,18.6,15.4,43.6,10.1,68.6c-5.4,25.3-19.1,46.5-37.7,58.2C429.3,277.5,426,278.4,422.7,278.4z"/>
			</g>
			<g>
				<g>
					<path fill="#C0392B" d="M641.1,304.6c-3,0-5.9-0.7-8.6-2.2c-4.2-2.3-7.4-6.2-8.8-10.8l-9.1-30.4c-1.4-4.6-0.9-9.6,1.4-13.8
						c0.2-0.4,0.5-0.8,0.7-1.2c-20.6-14-33-38.7-29.9-65.2c1.8-15,8.2-28.7,18.5-39.4l-30.5-3.6c-9.9-1.2-17.1-10.2-15.9-20.1
						l3.7-31.6c0.6-4.8,3-9.1,6.8-12.1c3.8-3,8.6-4.3,13.4-3.8L669,80.6l1-8.5c0.6-4.8,3-9.1,6.8-12.1c3.8-3,8.6-4.3,13.4-3.8
						l31.6,3.7c9.9,1.2,17.1,10.2,15.9,20.1l-1,8.5l26.3,3.1c9.9,1.2,17.1,10.2,15.9,20.1l-3.7,31.6c-0.6,4.8-3,9.1-6.8,12.1
						c-3.8,3-8.6,4.3-13.4,3.8l-26.3-3.1l-4.7,39.7c0,0.2-0.1,0.5-0.1,0.7c0,0.2,0,0.4-0.1,0.6c-0.1,0.5-0.1,1.1-0.2,1.6l0,0.2
						c-4.1,30.7-14,55.6-29.6,73.9c-12.6,14.8-28.6,25.2-47.6,30.9C644.6,304.4,642.9,304.6,641.1,304.6z M666.4,224.6
						c2.7,1.7,5,4.2,6.5,7.2c0.9,1.8,1.4,3.6,1.7,5.5c3.9-7.1,7.1-15.4,9.5-24.7C679.5,218.4,673.3,222.5,666.4,224.6z M655.2,190
						c0.5,0.1,0.9-0.3,1-0.7l0-0.2c0-0.4-0.3-0.8-0.8-0.9c-0.5,0-0.9,0.3-1,0.8c0,0.1,0,0.3,0.2,0.6C654.9,190,655.1,190,655.2,190
						L655.2,190z M681.3,162.7c3.7,3.6,6.6,8,8.5,12.8l2.1-17.4c-1.2,1-2.4,1.9-3.9,2.7C685.9,161.8,683.6,162.5,681.3,162.7z
						 M691.7,117.6c1.4,1,2.6,2.2,3.7,3.5c1.1,1.4,1.9,2.8,2.6,4.4c1-1.4,2.2-2.6,3.5-3.7c1.4-1.1,2.8-1.9,4.4-2.6
						c-2.8-2-5-4.8-6.3-7.9c-1,1.4-2.2,2.6-3.5,3.7C694.7,116.1,693.2,116.9,691.7,117.6z"/>
				</g>
				<g>
					<path fill="#C0392B" d="M641.1,304.6c-3,0-5.9-0.7-8.6-2.2c-4.2-2.3-7.4-6.2-8.8-10.8l-9.1-30.4c-1.4-4.6-0.9-9.6,1.4-13.8
						c0.2-0.4,0.5-0.8,0.7-1.2c-20.6-14-33-38.7-29.9-65.2c1.8-15,8.2-28.7,18.5-39.4l-30.5-3.6c-9.9-1.2-17.1-10.2-15.9-20.1
						l3.7-31.6c0.6-4.8,3-9.1,6.8-12.1c3.8-3,8.6-4.3,13.4-3.8L669,80.6l1-8.5c0.6-4.8,3-9.1,6.8-12.1c3.8-3,8.6-4.3,13.4-3.8
						l31.6,3.7c9.9,1.2,17.1,10.2,15.9,20.1l-1,8.5l26.3,3.1c9.9,1.2,17.1,10.2,15.9,20.1l-3.7,31.6c-0.6,4.8-3,9.1-6.8,12.1
						c-3.8,3-8.6,4.3-13.4,3.8l-26.3-3.1l-4.7,39.7c0,0.2-0.1,0.5-0.1,0.7c0,0.2,0,0.4-0.1,0.6c-0.1,0.5-0.1,1.1-0.2,1.6l0,0.2
						c-4.1,30.7-14,55.6-29.6,73.9c-12.6,14.8-28.6,25.2-47.6,30.9C644.6,304.4,642.9,304.6,641.1,304.6z M666.4,224.6
						c2.7,1.7,5,4.2,6.5,7.2c0.9,1.8,1.4,3.6,1.7,5.5c3.9-7.1,7.1-15.4,9.5-24.7C679.5,218.4,673.3,222.5,666.4,224.6z M655.2,190
						c0.5,0.1,0.9-0.3,1-0.7l0-0.2c0-0.4-0.3-0.8-0.8-0.9c-0.5,0-0.9,0.3-1,0.8c0,0.1,0,0.3,0.2,0.6C654.9,190,655.1,190,655.2,190
						L655.2,190z M681.3,162.7c3.7,3.6,6.6,8,8.5,12.8l2.1-17.4c-1.2,1-2.4,1.9-3.9,2.7C685.9,161.8,683.6,162.5,681.3,162.7z
						 M691.7,117.6c1.4,1,2.6,2.2,3.7,3.5c1.1,1.4,1.9,2.8,2.6,4.4c1-1.4,2.2-2.6,3.5-3.7c1.4-1.1,2.8-1.9,4.4-2.6
						c-2.8-2-5-4.8-6.3-7.9c-1,1.4-2.2,2.6-3.5,3.7C694.7,116.1,693.2,116.9,691.7,117.6z"/>
				</g>
				<g>
					<path fill="#C0392B" d="M641.1,304.6c-3,0-5.9-0.7-8.6-2.2c-4.2-2.3-7.4-6.2-8.8-10.8l-9.1-30.4c-1.4-4.6-0.9-9.6,1.4-13.8
						c0.2-0.4,0.5-0.8,0.7-1.2c-20.6-14-33-38.7-29.9-65.2c1.8-15,8.2-28.7,18.5-39.4l-30.5-3.6c-9.9-1.2-17.1-10.2-15.9-20.1
						l3.7-31.6c0.6-4.8,3-9.1,6.8-12.1c3.8-3,8.6-4.3,13.4-3.8L669,80.6l1-8.5c0.6-4.8,3-9.1,6.8-12.1c3.8-3,8.6-4.3,13.4-3.8
						l31.6,3.7c9.9,1.2,17.1,10.2,15.9,20.1l-1,8.5l26.3,3.1c9.9,1.2,17.1,10.2,15.9,20.1l-3.7,31.6c-0.6,4.8-3,9.1-6.8,12.1
						c-3.8,3-8.6,4.3-13.4,3.8l-26.3-3.1l-4.7,39.7c0,0.2-0.1,0.5-0.1,0.7c0,0.2,0,0.4-0.1,0.6c-0.1,0.5-0.1,1.1-0.2,1.6l0,0.2
						c-4.1,30.7-14,55.6-29.6,73.9c-12.6,14.8-28.6,25.2-47.6,30.9C644.6,304.4,642.9,304.6,641.1,304.6z M666.4,224.6
						c2.7,1.7,5,4.2,6.5,7.2c0.9,1.8,1.4,3.6,1.7,5.5c3.9-7.1,7.1-15.4,9.5-24.7C679.5,218.4,673.3,222.5,666.4,224.6z M655.2,190
						c0.5,0.1,0.9-0.3,1-0.7l0-0.2c0-0.4-0.3-0.8-0.8-0.9c-0.5,0-0.9,0.3-1,0.8c0,0.1,0,0.3,0.2,0.6C654.9,190,655.1,190,655.2,190
						L655.2,190z M681.3,162.7c3.7,3.6,6.6,8,8.5,12.8l2.1-17.4c-1.2,1-2.4,1.9-3.9,2.7C685.9,161.8,683.6,162.5,681.3,162.7z
						 M691.7,117.6c1.4,1,2.6,2.2,3.7,3.5c1.1,1.4,1.9,2.8,2.6,4.4c1-1.4,2.2-2.6,3.5-3.7c1.4-1.1,2.8-1.9,4.4-2.6
						c-2.8-2-5-4.8-6.3-7.9c-1,1.4-2.2,2.6-3.5,3.7C694.7,116.1,693.2,116.9,691.7,117.6z"/>
				</g>
			</g>
		</g>
		<g>
			<g>
				<rect x="181.1" y="107.1" fill="#F8F6BD" width="153.8" height="35.4"/>
				<path fill="#F8F6BD" d="M276.8,283.1c-7.5,0.5-15.2,0.1-23-1.2c-53-9.1-88.6-59.7-79.5-112.6l34.9,6
					c-5.8,33.7,16.9,65.9,50.6,71.8c33.7,5.8,65.9-16.9,71.8-50.6l34.9,6C358.7,247.6,320.7,280.2,276.8,283.1z"/>
			</g>
			<g>
				<g>
					<path fill="#F8F6BD" d="M531.3,226.6c-15.4,0-29.3-6.2-40.2-17.8c-19.7-21.2-28.6-60.1-25-109.5l26.5,1.9
						c-3,41.3,3.5,74,18,89.5c5.9,6.3,12.6,9.4,20.7,9.4c12.8,0,27.3-5.8,44.4-17.7l15.2,21.8C568.8,219.5,549.9,226.6,531.3,226.6z
						"/>
				</g>
				<g>
					<path fill="#F8F6BD" d="M531.3,226.6c-15.4,0-29.3-6.2-40.2-17.8c-19.7-21.2-28.6-60.1-25-109.5l26.5,1.9
						c-3,41.3,3.5,74,18,89.5c5.9,6.3,12.6,9.4,20.7,9.4c12.8,0,27.3-5.8,44.4-17.7l15.2,21.8C568.8,219.5,549.9,226.6,531.3,226.6z
						"/>
				</g>
				<g>
					<path fill="#F8F6BD" d="M531.3,226.6c-15.4,0-29.3-6.2-40.2-17.8c-19.7-21.2-28.6-60.1-25-109.5l26.5,1.9
						c-3,41.3,3.5,74,18,89.5c5.9,6.3,12.6,9.4,20.7,9.4c12.8,0,27.3-5.8,44.4-17.7l15.2,21.8C568.8,219.5,549.9,226.6,531.3,226.6z
						"/>
				</g>
			</g>
			<g>
				<path fill="#F8F6BD" d="M774.3,271.8l4.3-31.5l33.1,4.5l-4.3,31.5L774.3,271.8z M794.2,107.1l37.6,5.1l-20,114.2l-28.6-3.9
					L794.2,107.1z"/>
			</g>
			<g>
				
					<rect x="394.4" y="74" transform="matrix(0.2671 -0.9637 0.9637 0.2671 193.6016 472.8997)" fill="#F8F6BD" width="26.5" height="70.3"/>
				<path fill="#F8F6BD" d="M422.6,260.2l-14.2-22.4c8.3-5.3,15-16.4,17.9-29.8c2.9-13.5,1.3-26.7-4.2-35.4
					c-4.7-7.4-12.4-11.3-22.8-11.4c-10.5-0.1-22.5,3.6-32.9,10.2L352.2,149c14.6-9.3,31.9-14.5,47.5-14.3
					c19.4,0.2,35.3,8.7,44.9,23.7c9.2,14.6,12,34.7,7.7,55.1C447.9,234.1,437.1,251.1,422.6,260.2z"/>
			</g>
			<g>
				<g>
					<path fill="#F8F6BD" d="M757,141.3l3.7-31.6l-44.3-5.2l3.1-26.5L688,74.3l-3.1,26.5L580.7,88.5l-3.7,31.6l104.2,12.3l-1.4,12.3
						c-5.6-3.1-11.8-5.1-18.4-5.9c-27.8-3.3-53.1,16.7-56.4,44.5s16.7,53.1,44.5,56.4c2.4,0.3,4.8,0.4,7.2,0.3
						c-9.4,11.6-19.7,14.7-24.6,16.2l9.1,30.4c15.6-4.7,28.7-13.2,39-25.3c13.3-15.7,21.9-37.5,25.4-64.7c0.1-0.5,0.1-0.9,0.2-1.4
						c0-0.2,0-0.3,0-0.5c0-0.3,0.1-0.6,0.1-0.9l0,0l6.8-57.7L757,141.3z M653.1,208c-10.4-1.2-17.9-10.7-16.7-21.1
						c1.2-10.4,10.7-17.9,21.1-16.7c10.3,1.2,17.7,10.5,16.7,20.8c0,0.3-0.1,0.6-0.1,0.8C672.6,202,663.3,209.2,653.1,208z"/>
				</g>
				<g>
					<path fill="#F8F6BD" d="M757,141.3l3.7-31.6l-44.3-5.2l3.1-26.5L688,74.3l-3.1,26.5L580.7,88.5l-3.7,31.6l104.2,12.3l-1.4,12.3
						c-5.6-3.1-11.8-5.1-18.4-5.9c-27.8-3.3-53.1,16.7-56.4,44.5s16.7,53.1,44.5,56.4c2.4,0.3,4.8,0.4,7.2,0.3
						c-9.4,11.6-19.7,14.7-24.6,16.2l9.1,30.4c15.6-4.7,28.7-13.2,39-25.3c13.3-15.7,21.9-37.5,25.4-64.7c0.1-0.5,0.1-0.9,0.2-1.4
						c0-0.2,0-0.3,0-0.5c0-0.3,0.1-0.6,0.1-0.9l0,0l6.8-57.7L757,141.3z M653.1,208c-10.4-1.2-17.9-10.7-16.7-21.1
						c1.2-10.4,10.7-17.9,21.1-16.7c10.3,1.2,17.7,10.5,16.7,20.8c0,0.3-0.1,0.6-0.1,0.8C672.6,202,663.3,209.2,653.1,208z"/>
				</g>
				<g>
					<path fill="#F8F6BD" d="M757,141.3l3.7-31.6l-44.3-5.2l3.1-26.5L688,74.3l-3.1,26.5L580.7,88.5l-3.7,31.6l104.2,12.3l-1.4,12.3
						c-5.6-3.1-11.8-5.1-18.4-5.9c-27.8-3.3-53.1,16.7-56.4,44.5s16.7,53.1,44.5,56.4c2.4,0.3,4.8,0.4,7.2,0.3
						c-9.4,11.6-19.7,14.7-24.6,16.2l9.1,30.4c15.6-4.7,28.7-13.2,39-25.3c13.3-15.7,21.9-37.5,25.4-64.7c0.1-0.5,0.1-0.9,0.2-1.4
						c0-0.2,0-0.3,0-0.5c0-0.3,0.1-0.6,0.1-0.9l0,0l6.8-57.7L757,141.3z M653.1,208c-10.4-1.2-17.9-10.7-16.7-21.1
						c1.2-10.4,10.7-17.9,21.1-16.7c10.3,1.2,17.7,10.5,16.7,20.8c0,0.3-0.1,0.6-0.1,0.8C672.6,202,663.3,209.2,653.1,208z"/>
				</g>
			</g>
		</g>
	</g>
</g>
</svg>
