<?xml version="1.0" encoding="utf-8"?>
<!-- Generator: Adobe Illustrator 19.2.1, SVG Export Plug-In . SVG Version: 6.00 Build 0)  -->
<!DOCTYPE svg PUBLIC "-//W3C//DTD SVG 1.1//EN" "http://www.w3.org/Graphics/SVG/1.1/DTD/svg11.dtd">
<svg version="1.1" id="レイヤー_1" xmlns="http://www.w3.org/2000/svg" xmlns:xlink="http://www.w3.org/1999/xlink" x="0px"
	 y="0px" viewBox="0 0 1000 570" enable-background="new 0 0 1000 570" xml:space="preserve">
<g>
	<rect y="100" fill="#C0392B" width="1000" height="170"/>
	<g>
		<g>
			<path fill="#FAED00" d="M217.6,169.7c-1.2,5.6-2.5,12.2-2.5,19.4c0,33.2,26.4,58.3,57.3,58.3c38.3,0,55.2-33.8,62.5-48.4
				l36.3,12.8c-5.4,10.9-12.8,24.5-21.8,34.6c-19.2,20.8-45.8,35.5-77.1,35.5c-49.5,0-95.6-37.3-95.6-91.7c0-12.2,1.9-21.6,3.1-27.8
				L217.6,169.7z M334.9,142.1H181.1v-34.6h153.8L334.9,142.1L334.9,142.1z"/>
		</g>
		<g>
			<path fill="#C0392B" d="M272.2,300c-28.9,0-57.5-11-78.6-30.2c-22.7-20.7-35.2-48.9-35.2-79.7c0-14.2,2.2-25.4,3.4-31.4
				c0.6-2.9,1.8-5.5,3.5-7.6c-1.5-2.7-2.4-5.7-2.4-9v-34.6c0-10,8.1-18.1,18.1-18.1h153.8c10,0,18.1,8.1,18.1,18.1v34.6
				c0,10-8.1,18.1-18.1,18.1H233c2.5,4,3.3,8.8,2.3,13.4c-1,4.5-2,9.9-2,15.4c0,22.2,17.6,40.2,39.2,40.2c24,0,36.4-18.4,46.2-38.3
				c4.1-8.2,13.6-12.1,22.3-9.1l36.3,12.8c4.9,1.7,8.8,5.4,10.8,10.2s1.8,10.2-0.5,14.8c-8.4,17-16.2,29.3-24.6,38.8
				c-0.1,0.1-0.1,0.1-0.2,0.2C338.1,285.3,306,300,272.2,300z M194.9,183.8c-0.1,2-0.2,4.1-0.2,6.4c0,26.6,13.1,47,31.6,59.5
				c-2.4-1.9-4.7-3.9-6.9-6.1C205,229.2,197,209.9,197,189.2c0-1.7,0.1-3.3,0.1-4.9L194.9,183.8z M343.5,221.3
				c-3.8,6.3-8.8,13.4-15.1,20c-0.6,0.7-1.3,1.3-2,2c3.3-2.8,6.5-5.8,9.5-9c3-3.3,6-7.5,9.1-12.4L343.5,221.3z"/>
		</g>
		<g>
			<path fill="#F8F6BD" d="M217.6,169.7c-1.2,5.6-2.5,12.2-2.5,19.4c0,33.2,26.4,58.3,57.3,58.3c38.3,0,55.2-33.8,62.5-48.4
				l36.3,12.8c-5.4,10.9-12.8,24.5-21.8,34.6c-19.2,20.8-45.8,35.5-77.1,35.5c-49.5,0-95.6-37.3-95.6-91.7c0-12.2,1.9-21.6,3.1-27.8
				L217.6,169.7z M334.9,142.1H181.1v-34.6h153.8L334.9,142.1L334.9,142.1z"/>
		</g>
	</g>
	<g>
		<g>
			<path fill="#FAED00" d="M409.8,243.3c3.1-11.3,6.9-25.9,6.9-40.4c0-10.1-2.4-29.9-22.2-29.9c-14.7,0-33.4,8.7-40.3,11.9l-14.1-23
				c23.1-10.3,36.4-15.2,52.5-15.2c36.4,0,53.3,25,53.3,56c0,17.3-3.4,30.2-7.8,47.2L409.8,243.3z M447.1,121.4l-8.3,24.5L366,126.4
				l8.3-24.5L447.1,121.4z"/>
		</g>
		<g>
			<path fill="#C0392B" d="M438.1,268.1c-1.4,0-2.8-0.2-4.2-0.5l-28.3-6.7c-4.8-1.1-8.9-4.2-11.4-8.4c-2.5-4.2-3.2-9.3-1.9-14
				c2.6-9.8,6.3-23.2,6.3-35.7c0-6.9-1.6-10.7-2.3-11.5c-0.1-0.1-0.7-0.2-1.7-0.2c-7.1,0-18,3.4-32.6,10.2
				c-8.4,3.9-18.3,0.9-23.1-6.9l-14.1-23c-2.7-4.5-3.4-9.9-1.9-14.9c1.6-5,5.2-9.1,10-11.2c6.7-3,12.9-5.7,18.8-8
				c-0.6-0.8-1.1-1.6-1.6-2.4c-2.4-4.4-2.8-9.6-1.2-14.4l8.3-24.5c3.1-9.1,12.6-14.2,21.8-11.7l72.9,19.4c4.8,1.3,8.9,4.5,11.3,8.9
				s2.8,9.6,1.2,14.4l-8.3,24.5c-0.9,2.6-2.3,4.9-4.1,6.7c7.9,12.2,12.1,27.4,12.1,44.4c0,19.6-3.9,34.5-8.4,51.6v0.1
				C453.5,262.7,446.2,268.1,438.1,268.1z"/>
		</g>
		<g>
			<path fill="#F8F6BD" d="M409.8,243.3c3.1-11.3,6.9-25.9,6.9-40.4c0-10.1-2.4-29.9-22.2-29.9c-14.7,0-33.4,8.7-40.3,11.9l-14.1-23
				c23.1-10.3,36.4-15.2,52.5-15.2c36.4,0,53.3,25,53.3,56c0,17.3-3.4,30.2-7.8,47.2L409.8,243.3z M447.1,121.4l-8.3,24.5L366,126.4
				l8.3-24.5L447.1,121.4z"/>
		</g>
	</g>
	<g>
		<g>
			<path fill="#FAED00" d="M490,118h-26.2l0.1-23.3l26.2,0.1L490,118z M490.4,124.7c0.7,21,2.4,72.9,39,72.9
				c20.3,0,35-12.8,39.6-16.7l19.7,15.4c-7.2,6.4-27.8,24.6-60.4,24.6c-12.2,0-48.2-4.6-59.7-55.7c-3.2-14.4-3.9-27.8-4.3-40.5
				L490.4,124.7L490.4,124.7z"/>
		</g>
		<g>
			<path fill="#C0392B" d="M528.3,239c-8.1,0-23.9-1.5-39.8-11.5c-18.9-11.9-31.6-31.5-37.6-58.3c-3.6-16.2-4.3-30.6-4.7-43.9
				c0-0.8,0-1.6,0.1-2.4c-0.4-1.6-0.7-3.2-0.6-4.9l0.1-23.3c0.1-10,8.2-18,18.1-18h0.1l26.2,0.1c4.8,0,9.4,2,12.8,5.4
				s5.3,8,5.2,12.9l-0.1,23.2c0,0.7,0,1.4-0.1,2.1c0.3,1.2,0.5,2.5,0.5,3.8v0.1c0.3,9.8,0.9,26.1,5.2,39.2c5.2,16,12.1,16,15.7,16
				c13.3,0,23.7-8.8,27.6-12.2l0.2-0.2c6.6-5.6,16.1-5.8,22.9-0.5l19.7,15.4c4.2,3.3,6.8,8.3,7,13.7s-2.1,10.6-6.1,14.1
				C592.6,217.1,567.8,239,528.3,239z"/>
		</g>
		<g>
			<path fill="#F8F6BD" d="M490,118h-26.2l0.1-23.3l26.2,0.1L490,118z M490.4,124.7c0.7,21,2.4,72.9,39,72.9
				c20.3,0,35-12.8,39.6-16.7l19.7,15.4c-7.2,6.4-27.8,24.6-60.4,24.6c-12.2,0-48.2-4.6-59.7-55.7c-3.2-14.4-3.9-27.8-4.3-40.5
				L490.4,124.7L490.4,124.7z"/>
		</g>
	</g>
	<g>
		<g>
			<path fill="#FAED00" d="M646.3,258.9c5.5-11,13.5-27.4,15.5-44.6c0.2-1.4,0.2-3.5,0.1-4.6c-9.7,8.4-20.4,15.8-38.4,13.6
				c-22.9-2.8-36.5-22.5-34.3-41.1c3.2-26.8,32.4-48,60-44.7c3.1,0.4,5.9,0.9,8.1,1.6c1.4-6.5,1.9-9.1,2.8-14.4l-79.4-9.6l4-33.4
				l80.2,9.7l2.5-20.7l37.7,4.5c-0.6,3.2-2.3,17.6-2.7,20.6l61.4,7.4l-4,33.4l-62-7.5c-2.8,17.7-4,24.2-7,34
				c12.1,20.1,11.1,40.4,10,49.8c-3.4,28.4-16.1,52.9-20,60.5L646.3,258.9z M645.8,170c-11.1-1.3-22,6.9-22.9,14.3
				c-0.3,2.9,1.5,6.4,5.4,6.9c2,0.2,12,0.4,20.5-20.2C647.7,170.4,646.7,170.1,645.8,170z"/>
		</g>
		<g>
			<path fill="#C0392B" d="M680.9,291.8c-2.4,0-4.8-0.5-7.1-1.5l-34.6-14.8c-4.6-2-8.2-5.7-9.9-10.4c-1.7-4.7-1.4-9.9,0.8-14.3
				c1.3-2.6,2.8-5.7,4.4-9.1c-4.1,0.3-8.4,0.2-13.1-0.4c-31.2-3.8-53.7-31.2-50.1-61.2c2-16.9,11.5-33.1,26.2-44.6l-18.9-2.3
				c-4.8-0.6-9.1-3-12.1-6.8s-4.3-8.6-3.7-13.4l4-33.4c1.2-9.9,10.2-17,20.2-15.8l62.2,7.5l0.3-2.7c1.2-9.9,10.2-17,20.2-15.8
				l37.7,4.5c5,0.6,9.5,3.2,12.4,7.3c3,4,4.1,9.1,3.2,14c0,0.1-0.1,0.5-0.2,1.5l43.3,5.2c4.8,0.6,9.1,3,12.1,6.8s4.3,8.6,3.7,13.4
				l-4,33.4c-1.2,9.9-10.2,17-20.2,15.8l-44.8-5.4c-0.8,4.3-1.6,8.1-2.6,11.9c7.9,16.3,10.8,34.8,8.5,54
				c-3.7,30.6-16.5,56-21.3,65.6l-0.4,0.9C693.9,288.1,687.6,291.8,680.9,291.8z M670.7,249.6l1.3,0.5c4.3-10.3,9.1-24.2,10.9-39.1
				c1.2-9.8,0.8-24.4-7.5-38.3c-2.7-4.4-3.3-9.8-1.8-14.7c2.7-8.6,3.7-14.1,6.4-31.4c1.1-7.4,6.6-13.1,13.5-14.8
				c-6.1-3.5-9.8-10.4-8.9-17.9c0.1-0.9,0.2-1.8,0.3-2.7l-1.5-0.2l-0.3,2.7c-0.9,7.7-6.6,13.7-13.7,15.4c2,1.2,3.9,2.8,5.3,4.7
				c3,3.9,4.2,8.9,3.4,13.8c-0.9,5.7-1.5,8.7-3,15.4c-1.1,5-4.2,9.2-8.6,11.8c-1.9,1.1-4,1.9-6.1,2.2c5.9,5,8.2,13.4,5.1,20.8
				c-2.3,5.7-4.9,10.3-7.6,14.2c3.6-0.8,7.4-0.5,10.9,0.9c6.3,2.6,10.6,8.5,11.2,15.3c0.2,2.3,0.1,5.6-0.2,8.2
				C678.4,228.5,674.6,240,670.7,249.6z M643.7,188L643.7,188L643.7,188z"/>
		</g>
		<g>
			<path fill="#F8F6BD" d="M646.3,258.9c5.5-11,13.5-27.4,15.5-44.6c0.2-1.4,0.2-3.5,0.1-4.6c-9.7,8.4-20.4,15.8-38.4,13.6
				c-22.9-2.8-36.5-22.5-34.3-41.1c3.2-26.8,32.4-48,60-44.7c3.1,0.4,5.9,0.9,8.1,1.6c1.4-6.5,1.9-9.1,2.8-14.4l-79.4-9.6l4-33.4
				l80.2,9.7l2.5-20.7l37.7,4.5c-0.6,3.2-2.3,17.6-2.7,20.6l61.4,7.4l-4,33.4l-62-7.5c-2.8,17.7-4,24.2-7,34
				c12.1,20.1,11.1,40.4,10,49.8c-3.4,28.4-16.1,52.9-20,60.5L646.3,258.9z M645.8,170c-11.1-1.3-22,6.9-22.9,14.3
				c-0.3,2.9,1.5,6.4,5.4,6.9c2,0.2,12,0.4,20.5-20.2C647.7,170.4,646.7,170.1,645.8,170z"/>
		</g>
	</g>
	<g>
		<g>
			<path fill="#FAED00" d="M807.2,240.4l-4.1,34.4l-34.6-4.2l4.1-34.4L807.2,240.4z M824,113.7l-18.7,112.1l-28-3.4l9.3-113.3
				L824,113.7z"/>
		</g>
		<g>
			<path fill="#C0392B" d="M803.1,292.9c-0.7,0-1.4,0-2.2-0.1l-34.6-4.2c-9.9-1.2-17-10.2-15.8-20.2l4.1-34.4c0.4-3.7,2-7.2,4.5-9.9
				c-0.1-1-0.1-2.1,0-3.1l9.3-113.3c0.4-4.9,2.8-9.4,6.6-12.6c3.8-3.1,8.7-4.5,13.6-4l37.4,4.5c4.9,0.6,9.4,3.2,12.3,7.1
				c3,4,4.2,9,3.4,13.8L823,228.6c-0.1,0.7-0.3,1.4-0.5,2.1c2.1,3.4,3.1,7.4,2.6,11.7l-4.1,34.4c-0.6,4.8-3,9.1-6.8,12.1
				C811.1,291.6,807.1,292.9,803.1,292.9z"/>
		</g>
		<g>
			<path fill="#F8F6BD" d="M807.2,240.4l-4.1,34.4l-34.6-4.2l4.1-34.4L807.2,240.4z M824,113.7l-18.7,112.1l-28-3.4l9.3-113.3
				L824,113.7z"/>
		</g>
	</g>
	<g>
		<g>
			<path fill="none" stroke="#FFFFFF" stroke-width="15" stroke-linecap="round" stroke-linejoin="round" d="M43.5,353.6
				c-2,2.5-2.2,4.7-2.2,5.9c0,6.4,9.4,6.4,13.8,6.4c9.7,0,15.2-0.6,18.6-0.9l0.1,7.2c-2.5,0.2-8,0.6-16,0.6c-8.6,0-23.8,0-23.8-12.5
				c0-3.7,1.3-6.5,3.7-9.8L43.5,353.6z M70.8,338c-4.9,0.5-12.3,3.1-17.8,6.6l-5.3-3.6c2.7-1.6,3.9-2.1,6.5-3.2
				c-2.8,0.1-15.1,0.3-17.7,0.5v-7c8.8,0.1,31.9,0,34.3-0.1V338z"/>
			<path fill="none" stroke="#FFFFFF" stroke-width="15" stroke-linecap="round" stroke-linejoin="round" d="M136.3,334.2v6.6H110
				c-0.6,3.7-0.9,5-1.8,7.7c3.5-1.8,7.3-3.1,12.1-3.1c11.1,0,14.8,7,14.8,13.2c0,5.6-2.9,10.1-6.9,12.1c-4.2,2.1-9.1,3-19.8,3
				c-3.2,0-4.7-0.1-6.6-0.2l-1.5-6.8c1.2,0.1,4.2,0.4,9.5,0.4c9.2,0,17.9-0.6,17.9-8.4c0-5.7-4.6-6.9-8.3-6.9
				c-3.3,0-8.9,0.8-13.1,5.1c-0.6,1.2-0.7,1.5-0.9,2.1l-7.4-2c2.1-4.3,3.8-10.1,4.8-16.2H92.2v-6.6h11.4c0.2-2,0.2-3.1,0.3-5.6
				l7.7,0.1c-0.2,2.3-0.3,2.7-0.6,5.5L136.3,334.2L136.3,334.2z"/>
			<path fill="none" stroke="#FFFFFF" stroke-width="15" stroke-linecap="round" stroke-linejoin="round" d="M166.2,337.5
				c-1,3.6-1.3,6.1-1.4,12.6c5.1-3.4,10.4-5.3,16.5-5.3c12.2,0,14.7,8.3,14.7,13c0,11.9-10.1,15.8-24.7,15.8c-4.9,0-8-0.3-9.9-0.5
				l-0.8-6.8c2.4,0.3,6.1,0.8,10.6,0.8c13.7,0,17.5-4.1,17.5-9.5c0-3.8-3-6.5-8.1-6.5c-6.1,0-12.4,2.5-15.7,6.5
				c-0.1,0.6-0.1,0.8-0.2,1.3l-6.9-0.3c0.2-12.4,0.3-15.2,1.4-21.9L166.2,337.5z M187.7,338.6c-1.5-0.6-8.4-3.4-22.4-4.1l1.2-6.6
				c10.8,0.4,17.1,1.6,22.9,3.3L187.7,338.6z"/>
			<path fill="none" stroke="#FFFFFF" stroke-width="15" stroke-linecap="round" stroke-linejoin="round" d="M210.8,370.3
				c5.9-3.9,9.4-8.6,11-11l5.6,3.3c-2.7,4.1-7.3,9.5-12,12.8L210.8,370.3z M261.2,336.6h-49.8v-6.3h21.2v-4.1h6.9v4.1h21.8
				L261.2,336.6L261.2,336.6z M256.2,358.4h-16.7v12.8c0,1.3,0,5.4-4.9,5.4h-8.8l-1.3-6.8h6.8c1,0,1.6-0.1,1.6-1.4v-10h-16.6V340
				h39.8v18.4H256.2z M249.4,345.7H223v6.8h26.4V345.7z M249.7,359.2c3.2,4.4,7.1,7.7,11.8,10.4l-4.6,5.6c-6-3.8-8.8-6.8-13-12.7
				L249.7,359.2z"/>
			<path fill="none" stroke="#FFFFFF" stroke-width="15" stroke-linecap="round" stroke-linejoin="round" d="M286.7,326.6
				c-0.2,4-0.4,5.9-0.7,8.4h8.3c-0.3,13-2.4,21.1-4.1,25.6c1.7,1.4,2.8,2.4,4.9,4.5l-4.2,5.7c-1.6-1.8-2.2-2.5-3.7-4.1
				c-3.3,5.4-7.4,8.7-8.9,9.8l-4.2-5.6c1.7-1.2,5.1-3.7,8.4-8.7c-2.1-1.7-3.4-2.8-7.5-5.4c1.4-3.8,2.5-7.3,3.9-15.5h-4.1V335h4.9
				c0.3-3.2,0.5-4.9,0.6-8.9L286.7,326.6z M285,341.3c-1.2,6.1-2,9.2-3.1,13.2c1.6,1,2.2,1.4,3.3,2.3c1.3-3.3,2.7-8.2,3.3-15.4H285
				V341.3z M323.9,327.9v6h-8.7v7.1h7.2v20.2h-7.2v7.9h9.2v6.1h-28.3v-47.3L323.9,327.9L323.9,327.9z M302.4,334v7.1h6.8V334H302.4z
				 M302.4,346.8v8.6H316v-8.6H302.4z M302.4,361.2v7.9h6.8v-7.9H302.4z"/>
			<path fill="none" stroke="#FFFFFF" stroke-width="15" stroke-linecap="round" stroke-linejoin="round" d="M358.7,372.4
				c-3.9,0.7-12.5,2.2-20,3.1l-0.8-6.4c1.8-0.2,3.3-0.2,8.6-0.8v-13.6H338v-5.6h8.5v-4.3h-4.7v-2.7c-1,0.8-1.5,1.3-2.8,2.3l-2.2-6.7
				c1.6-1.1,6.7-4.7,9.5-11.4h6.9c1.7,3.1,3.9,5.7,7.4,8.2l-3.5,5.7l-0.2-0.2v4.7h-4.7v4.3h6.9v5.6h-6.9v12.8c4.8-0.7,5.6-1,7.2-1.3
				v3.4c8.1-5.4,9.9-12.6,10.5-15.5h-9.4v-6.4h10.4v-9h-2.4c-1.8,3.4-3.3,5.6-4.5,7.3l-5.3-3.9c2.7-3.2,5.7-7.6,7.9-16.2l6.4,1
				c-0.4,1.5-0.8,3.2-1.7,5.5h15.5v6.4h-9.5v9h10.5v6.4h-9.4c1.3,5.6,4.6,12.1,10.5,16.5l-4.3,6c-4.6-4.2-7.9-9-10.3-17.1
				c-1.6,5.2-4.7,11.9-12.6,17.2L358.7,372.4z M340,367c-0.1-3.3-0.6-6.4-1.4-9.7l4.5-1.1c0.5,1.8,1.4,5.3,1.9,9.7L340,367z
				 M355.8,339.2c-1.1-1-4.3-4.2-5.9-7.1c-1.4,2.7-3,4.9-5,7.1H355.8z M359.7,357.1c-0.3,1.8-0.9,5.2-2.1,8.5l-4-1.1
				c0.4-1.4,1-3.2,1.5-8.2L359.7,357.1z"/>
			<path fill="none" stroke="#FFFFFF" stroke-width="15" stroke-linecap="round" stroke-linejoin="round" d="M401.3,346.4h11.1v16.3
				c1.6,6.1,10.1,6.1,12.9,6.1h26.4l-1.3,6.2H425c-4.4,0-10.3,0-14.1-5.8c-2.4,3.3-6,6-7.6,7.2l-2.7-7.3c1.4-0.7,4-2.4,5.4-3.8
				v-12.7h-4.8v-6.2L401.3,346.4L401.3,346.4z M414.4,335.9l-5,4.5c-1.8-2.8-4.7-6.5-7.7-9.2l4.6-4.3c1.4,1.2,5.3,4.2,8.2,8.6v-4
				h7.3c-0.7-1.3-1.8-3.2-2.2-3.8l6.1-1.6c0.6,1,1.4,2.1,2.9,5.5h8c0.8-1.4,1.8-3.8,2.3-5.4l6.8,1.2c-0.7,1.4-1.9,3.3-2.4,4.2h7.9
				v5.6H435c-0.3,0.8-0.7,1.6-1.2,2.5h14.4v26.6h-30.8v-26.6h9.9c0.4-0.8,0.6-1.8,0.8-2.5h-13.7L414.4,335.9L414.4,335.9z
				 M423.9,344.2v3h17.8v-3H423.9z M423.9,351v3.1h17.8V351H423.9z M423.9,358v3.3h17.8V358H423.9z"/>
			<path fill="none" stroke="#FFFFFF" stroke-width="15" stroke-linecap="round" stroke-linejoin="round" d="M496.3,331.2h18.4v-5
				h6.7v5h20.8v6.3h-39.4v15.3c0,10.5-2.2,18.1-6,23.6l-5.2-5c2.9-4.5,4.7-10,4.7-17.8L496.3,331.2L496.3,331.2z M535.1,376.8
				c-0.8-2.8-1.1-3.7-1.6-5c-5.3,0.7-12.5,1.9-31,3.1l-1.1-6.7c0.7,0,3.9-0.1,5-0.2c5.6-12.5,7.8-24.6,8.5-28.6l6.9,1.5
				c-2.2,9.2-4.9,18.3-8.9,26.9c8.8-0.5,12.9-0.8,18.4-1.4c-2.6-6.4-5-10.4-6-12.1l5.7-2.8c4.5,6.9,8.2,15.1,10.7,22.7L535.1,376.8z
				"/>
			<path fill="none" stroke="#FFFFFF" stroke-width="15" stroke-linecap="round" stroke-linejoin="round" d="M565.2,326.5h6.4v3.4h8
				v5.8h-8v4h9.6v5.8h-2.9c-0.6,2.8-0.7,3.6-1.3,6h3.9v5.9h-9.3v4.4h8.1v6h-8.1v8.4h-6.4v-8.4h-8.1v-6h8.1v-4.4h-9v-5.9h3.9
				c-0.2-1.6-0.6-4.1-1.3-6h-2.9v-5.8h9.3v-4h-8.1v-5.8h8.1V326.5z M564.7,345.5c0.7,3,1,4.7,1.2,6h5.3c0.5-2,0.7-3.9,1-6H564.7z
				 M588.3,371.3v4.9h-6.2V328h22.1c0,2-0.2,11.7-1.2,14.3c-0.3,0.8-1.1,3-4.3,3h-7l-1.1-5.6h5c1.6,0,2.1,0,2.3-5.7h-9.7v13.4h16.4
				c-0.4,4.8-1.4,12.6-4.2,18c1.8,1.9,3.5,3.2,5.9,5l-3.3,5.9c-1.5-1-3.2-2-6.2-5.4c-1.6,2.2-3.2,3.7-5.1,5.5L588.3,371.3z
				 M593.7,354.1c0.6,1.6,1.4,3.3,2.8,5.9c1.4-3.6,1.6-5.2,1.9-6.9h-10.1v18.1c1.5-1.3,3-2.5,5-5.4c-3.1-5.1-4-8.6-4.5-10.5
				L593.7,354.1z"/>
			<path fill="none" stroke="#FFFFFF" stroke-width="15" stroke-linecap="round" stroke-linejoin="round" d="M629.9,331v-4.5h6.4
				v4.5h9.9v5.8h-2.9c-0.3,2.5-1,5.8-1.9,9.1h5.6v5.8h-28.1v-5.8h5.8c-0.2-2.8-0.6-6.6-1.3-9.1H620V331H629.9z M645.5,375.4h-24.4
				v-20.8h24.4V375.4z M639.4,360.3h-12.1v9.5h12.1V360.3z M635.5,345.9c0.8-2.7,1.4-6.2,1.8-9.1h-8.1c0.6,3.1,1.1,5.5,1.4,9.1
				H635.5z M648.8,376.3v-48.6h19.6v5.7c-1.6,4.6-2.8,7.4-5.4,13c5,5.5,6.3,11.1,6.3,15.4c0,2.1-0.5,5.7-2.8,7.7
				c-1.4,1.2-3.2,1.8-5.7,1.8h-3.7l-1-6.4h3.1c1.5,0,3.3-0.2,3.3-4.3c0-7-4.1-11-6.3-13.1c1.7-3.5,4.2-10.1,5.1-13.9h-6.1v42.7
				L648.8,376.3L648.8,376.3z"/>
			<path fill="none" stroke="#FFFFFF" stroke-width="15" stroke-linecap="round" stroke-linejoin="round" d="M700.9,354.3
				c-5.8-3.5-10.7-5.1-15.3-6.5l2.5-5.9c3.1,0.7,8.8,2.1,15.5,6L700.9,354.3z M688.7,365.6c19.6-1.9,28.8-8.1,35.2-29.3l6,4.5
				c-7.3,21.4-17.6,29.6-39.8,32.5L688.7,365.6z M705.5,341.7c-5.6-3.1-10-4.5-15.8-6.2l2.7-5.7c5.8,1.2,10,2.7,16,5.6L705.5,341.7z
				"/>
			<path fill="none" stroke="#FFFFFF" stroke-width="15" stroke-linecap="round" stroke-linejoin="round" d="M782.3,331.1
				c-2.2,10.8-6.1,17.3-9.5,22.1c8.1,6.4,10.9,8.7,17.2,15l-5.9,5.7c-3.2-3.6-7.7-8.5-15.6-15.4c-5,5.6-12.6,11.8-20.6,15.3l-4-5.9
				c7.7-3.3,13.1-7,18.8-13.2s8.5-11.9,10.4-16.9h-26.3v-6.7H782.3z"/>
			<path fill="none" stroke="#FFFFFF" stroke-width="15" stroke-linecap="round" stroke-linejoin="round" d="M807.1,368
				c14.2-2.3,16.8-7.5,17.3-17.7h-19.5v-6.6h43.5v6.6h-16.7c-0.7,12.5-4.5,20.7-21.8,24L807.1,368z M844.3,330.5v6.6h-35.1v-6.6
				H844.3z"/>
			<path fill="none" stroke="#FFFFFF" stroke-width="15" stroke-linecap="round" stroke-linejoin="round" d="M864,364.7h5.1
				c0.3-0.8,5.6-14.9,10.7-35.8l7.6,1.4c-4.6,18.1-9.7,30.5-11.3,34.3c10.7-0.3,11.8-0.4,21.9-1.2c-3.1-6.2-5.9-10.3-7.7-13l6.1-2.9
				c6,8,9.5,14.3,13.2,23.6l-7,3.1c-0.9-2.4-1.2-3.3-1.8-4.8c-12,1.3-17.3,1.9-35.8,2.7L864,364.7z"/>
			<path fill="none" stroke="#FFFFFF" stroke-width="15" stroke-linecap="round" stroke-linejoin="round" d="M939.4,335.5v5.3H921
				v-5.3H939.4z M940,358.8v-5.7h12.5v-3.2h-11V328h28.3v21.9h-11.4v3.2h12.8v5.7h-10.4c1,1.3,5.1,6.4,11.2,9.4l-3.3,6.1
				c-1.8-1.2-6.4-4.2-10.4-10.4v12.4h-6v-12.6c-4.5,6.3-8.9,9.1-11.4,10.7l-2.8-4.1v5.3h-15.7v-16.4h15.7v9.5
				c5.9-3.3,9.2-7.1,11.4-9.8H940V358.8z M938.3,328v5.2h-15.7V328H938.3z M938.3,343.2v5.2h-15.7v-5.2H938.3z M938.3,351v5.3h-15.7
				V351H938.3z M933.1,364.1h-4.7v6.2h4.7V364.1z M952.7,333.1h-5.5v3.8h5.5V333.1z M952.7,341.1h-5.5v3.8h5.5V341.1z M964.1,333.1
				h-5.7v3.8h5.7V333.1z M964.1,341.1h-5.7v3.8h5.7V341.1z"/>
		</g>
		<g>
			<path fill="#EF8018" d="M43.5,353.6c-2,2.5-2.2,4.7-2.2,5.9c0,6.4,9.4,6.4,13.8,6.4c9.7,0,15.2-0.6,18.6-0.9l0.1,7.2
				c-2.5,0.2-8,0.6-16,0.6c-8.6,0-23.8,0-23.8-12.5c0-3.7,1.3-6.5,3.7-9.8L43.5,353.6z M70.8,338c-4.9,0.5-12.3,3.1-17.8,6.6
				l-5.3-3.6c2.7-1.6,3.9-2.1,6.5-3.2c-2.8,0.1-15.1,0.3-17.7,0.5v-7c8.8,0.1,31.9,0,34.3-0.1V338z"/>
			<path fill="#EF8018" d="M136.3,334.2v6.6H110c-0.6,3.7-0.9,5-1.8,7.7c3.5-1.8,7.3-3.1,12.1-3.1c11.1,0,14.8,7,14.8,13.2
				c0,5.6-2.9,10.1-6.9,12.1c-4.2,2.1-9.1,3-19.8,3c-3.2,0-4.7-0.1-6.6-0.2l-1.5-6.8c1.2,0.1,4.2,0.4,9.5,0.4
				c9.2,0,17.9-0.6,17.9-8.4c0-5.7-4.6-6.9-8.3-6.9c-3.3,0-8.9,0.8-13.1,5.1c-0.6,1.2-0.7,1.5-0.9,2.1l-7.4-2
				c2.1-4.3,3.8-10.1,4.8-16.2H92.2v-6.6h11.4c0.2-2,0.2-3.1,0.3-5.6l7.7,0.1c-0.2,2.3-0.3,2.7-0.6,5.5L136.3,334.2L136.3,334.2z"/>
			<path fill="#EF8018" d="M166.2,337.5c-1,3.6-1.3,6.1-1.4,12.6c5.1-3.4,10.4-5.3,16.5-5.3c12.2,0,14.7,8.3,14.7,13
				c0,11.9-10.1,15.8-24.7,15.8c-4.9,0-8-0.3-9.9-0.5l-0.8-6.8c2.4,0.3,6.1,0.8,10.6,0.8c13.7,0,17.5-4.1,17.5-9.5
				c0-3.8-3-6.5-8.1-6.5c-6.1,0-12.4,2.5-15.7,6.5c-0.1,0.6-0.1,0.8-0.2,1.3l-6.9-0.3c0.2-12.4,0.3-15.2,1.4-21.9L166.2,337.5z
				 M187.7,338.6c-1.5-0.6-8.4-3.4-22.4-4.1l1.2-6.6c10.8,0.4,17.1,1.6,22.9,3.3L187.7,338.6z"/>
			<path fill="#EF8018" d="M210.8,370.3c5.9-3.9,9.4-8.6,11-11l5.6,3.3c-2.7,4.1-7.3,9.5-12,12.8L210.8,370.3z M261.2,336.6h-49.8
				v-6.3h21.2v-4.1h6.9v4.1h21.8L261.2,336.6L261.2,336.6z M256.2,358.4h-16.7v12.8c0,1.3,0,5.4-4.9,5.4h-8.8l-1.3-6.8h6.8
				c1,0,1.6-0.1,1.6-1.4v-10h-16.6V340h39.8v18.4H256.2z M249.4,345.7H223v6.8h26.4V345.7z M249.7,359.2c3.2,4.4,7.1,7.7,11.8,10.4
				l-4.6,5.6c-6-3.8-8.8-6.8-13-12.7L249.7,359.2z"/>
			<path fill="#EF8018" d="M286.7,326.6c-0.2,4-0.4,5.9-0.7,8.4h8.3c-0.3,13-2.4,21.1-4.1,25.6c1.7,1.4,2.8,2.4,4.9,4.5l-4.2,5.7
				c-1.6-1.8-2.2-2.5-3.7-4.1c-3.3,5.4-7.4,8.7-8.9,9.8l-4.2-5.6c1.7-1.2,5.1-3.7,8.4-8.7c-2.1-1.7-3.4-2.8-7.5-5.4
				c1.4-3.8,2.5-7.3,3.9-15.5h-4.1V335h4.9c0.3-3.2,0.5-4.9,0.6-8.9L286.7,326.6z M285,341.3c-1.2,6.1-2,9.2-3.1,13.2
				c1.6,1,2.2,1.4,3.3,2.3c1.3-3.3,2.7-8.2,3.3-15.4H285V341.3z M323.9,327.9v6h-8.7v7.1h7.2v20.2h-7.2v7.9h9.2v6.1h-28.3v-47.3
				L323.9,327.9L323.9,327.9z M302.4,334v7.1h6.8V334H302.4z M302.4,346.8v8.6H316v-8.6H302.4z M302.4,361.2v7.9h6.8v-7.9H302.4z"/>
			<path fill="#EF8018" d="M358.7,372.4c-3.9,0.7-12.5,2.2-20,3.1l-0.8-6.4c1.8-0.2,3.3-0.2,8.6-0.8v-13.6H338v-5.6h8.5v-4.3h-4.7
				v-2.7c-1,0.8-1.5,1.3-2.8,2.3l-2.2-6.7c1.6-1.1,6.7-4.7,9.5-11.4h6.9c1.7,3.1,3.9,5.7,7.4,8.2l-3.5,5.7l-0.2-0.2v4.7h-4.7v4.3
				h6.9v5.6h-6.9v12.8c4.8-0.7,5.6-1,7.2-1.3v3.4c8.1-5.4,9.9-12.6,10.5-15.5h-9.4v-6.4h10.4v-9h-2.4c-1.8,3.4-3.3,5.6-4.5,7.3
				l-5.3-3.9c2.7-3.2,5.7-7.6,7.9-16.2l6.4,1c-0.4,1.5-0.8,3.2-1.7,5.5h15.5v6.4h-9.5v9h10.5v6.4h-9.4c1.3,5.6,4.6,12.1,10.5,16.5
				l-4.3,6c-4.6-4.2-7.9-9-10.3-17.1c-1.6,5.2-4.7,11.9-12.6,17.2L358.7,372.4z M340,367c-0.1-3.3-0.6-6.4-1.4-9.7l4.5-1.1
				c0.5,1.8,1.4,5.3,1.9,9.7L340,367z M355.8,339.2c-1.1-1-4.3-4.2-5.9-7.1c-1.4,2.7-3,4.9-5,7.1H355.8z M359.7,357.1
				c-0.3,1.8-0.9,5.2-2.1,8.5l-4-1.1c0.4-1.4,1-3.2,1.5-8.2L359.7,357.1z"/>
			<path fill="#EF8018" d="M401.3,346.4h11.1v16.3c1.6,6.1,10.1,6.1,12.9,6.1h26.4l-1.3,6.2H425c-4.4,0-10.3,0-14.1-5.8
				c-2.4,3.3-6,6-7.6,7.2l-2.7-7.3c1.4-0.7,4-2.4,5.4-3.8v-12.7h-4.8v-6.2L401.3,346.4L401.3,346.4z M414.4,335.9l-5,4.5
				c-1.8-2.8-4.7-6.5-7.7-9.2l4.6-4.3c1.4,1.2,5.3,4.2,8.2,8.6v-4h7.3c-0.7-1.3-1.8-3.2-2.2-3.8l6.1-1.6c0.6,1,1.4,2.1,2.9,5.5h8
				c0.8-1.4,1.8-3.8,2.3-5.4l6.8,1.2c-0.7,1.4-1.9,3.3-2.4,4.2h7.9v5.6H435c-0.3,0.8-0.7,1.6-1.2,2.5h14.4v26.6h-30.8v-26.6h9.9
				c0.4-0.8,0.6-1.8,0.8-2.5h-13.7L414.4,335.9L414.4,335.9z M423.9,344.2v3h17.8v-3H423.9z M423.9,351v3.1h17.8V351H423.9z
				 M423.9,358v3.3h17.8V358H423.9z"/>
			<path fill="#EF8018" d="M496.3,331.2h18.4v-5h6.7v5h20.8v6.3h-39.4v15.3c0,10.5-2.2,18.1-6,23.6l-5.2-5c2.9-4.5,4.7-10,4.7-17.8
				L496.3,331.2L496.3,331.2z M535.1,376.8c-0.8-2.8-1.1-3.7-1.6-5c-5.3,0.7-12.5,1.9-31,3.1l-1.1-6.7c0.7,0,3.9-0.1,5-0.2
				c5.6-12.5,7.8-24.6,8.5-28.6l6.9,1.5c-2.2,9.2-4.9,18.3-8.9,26.9c8.8-0.5,12.9-0.8,18.4-1.4c-2.6-6.4-5-10.4-6-12.1l5.7-2.8
				c4.5,6.9,8.2,15.1,10.7,22.7L535.1,376.8z"/>
			<path fill="#EF8018" d="M565.2,326.5h6.4v3.4h8v5.8h-8v4h9.6v5.8h-2.9c-0.6,2.8-0.7,3.6-1.3,6h3.9v5.9h-9.3v4.4h8.1v6h-8.1v8.4
				h-6.4v-8.4h-8.1v-6h8.1v-4.4h-9v-5.9h3.9c-0.2-1.6-0.6-4.1-1.3-6h-2.9v-5.8h9.3v-4h-8.1v-5.8h8.1V326.5z M564.7,345.5
				c0.7,3,1,4.7,1.2,6h5.3c0.5-2,0.7-3.9,1-6H564.7z M588.3,371.3v4.9h-6.2V328h22.1c0,2-0.2,11.7-1.2,14.3c-0.3,0.8-1.1,3-4.3,3h-7
				l-1.1-5.6h5c1.6,0,2.1,0,2.3-5.7h-9.7v13.4h16.4c-0.4,4.8-1.4,12.6-4.2,18c1.8,1.9,3.5,3.2,5.9,5l-3.3,5.9c-1.5-1-3.2-2-6.2-5.4
				c-1.6,2.2-3.2,3.7-5.1,5.5L588.3,371.3z M593.7,354.1c0.6,1.6,1.4,3.3,2.8,5.9c1.4-3.6,1.6-5.2,1.9-6.9h-10.1v18.1
				c1.5-1.3,3-2.5,5-5.4c-3.1-5.1-4-8.6-4.5-10.5L593.7,354.1z"/>
			<path fill="#EF8018" d="M629.9,331v-4.5h6.4v4.5h9.9v5.8h-2.9c-0.3,2.5-1,5.8-1.9,9.1h5.6v5.8h-28.1v-5.8h5.8
				c-0.2-2.8-0.6-6.6-1.3-9.1H620V331H629.9z M645.5,375.4h-24.4v-20.8h24.4V375.4z M639.4,360.3h-12.1v9.5h12.1V360.3z
				 M635.5,345.9c0.8-2.7,1.4-6.2,1.8-9.1h-8.1c0.6,3.1,1.1,5.5,1.4,9.1H635.5z M648.8,376.3v-48.6h19.6v5.7
				c-1.6,4.6-2.8,7.4-5.4,13c5,5.5,6.3,11.1,6.3,15.4c0,2.1-0.5,5.7-2.8,7.7c-1.4,1.2-3.2,1.8-5.7,1.8h-3.7l-1-6.4h3.1
				c1.5,0,3.3-0.2,3.3-4.3c0-7-4.1-11-6.3-13.1c1.7-3.5,4.2-10.1,5.1-13.9h-6.1v42.7L648.8,376.3L648.8,376.3z"/>
			<path fill="#EF8018" d="M700.9,354.3c-5.8-3.5-10.7-5.1-15.3-6.5l2.5-5.9c3.1,0.7,8.8,2.1,15.5,6L700.9,354.3z M688.7,365.6
				c19.6-1.9,28.8-8.1,35.2-29.3l6,4.5c-7.3,21.4-17.6,29.6-39.8,32.5L688.7,365.6z M705.5,341.7c-5.6-3.1-10-4.5-15.8-6.2l2.7-5.7
				c5.8,1.2,10,2.7,16,5.6L705.5,341.7z"/>
			<path fill="#EF8018" d="M782.3,331.1c-2.2,10.8-6.1,17.3-9.5,22.1c8.1,6.4,10.9,8.7,17.2,15l-5.9,5.7c-3.2-3.6-7.7-8.5-15.6-15.4
				c-5,5.6-12.6,11.8-20.6,15.3l-4-5.9c7.7-3.3,13.1-7,18.8-13.2s8.5-11.9,10.4-16.9h-26.3v-6.7H782.3z"/>
			<path fill="#EF8018" d="M807.1,368c14.2-2.3,16.8-7.5,17.3-17.7h-19.5v-6.6h43.5v6.6h-16.7c-0.7,12.5-4.5,20.7-21.8,24L807.1,368
				z M844.3,330.5v6.6h-35.1v-6.6H844.3z"/>
			<path fill="#EF8018" d="M864,364.7h5.1c0.3-0.8,5.6-14.9,10.7-35.8l7.6,1.4c-4.6,18.1-9.7,30.5-11.3,34.3
				c10.7-0.3,11.8-0.4,21.9-1.2c-3.1-6.2-5.9-10.3-7.7-13l6.1-2.9c6,8,9.5,14.3,13.2,23.6l-7,3.1c-0.9-2.4-1.2-3.3-1.8-4.8
				c-12,1.3-17.3,1.9-35.8,2.7L864,364.7z"/>
			<path fill="#EF8018" d="M939.4,335.5v5.3H921v-5.3H939.4z M940,358.8v-5.7h12.5v-3.2h-11V328h28.3v21.9h-11.4v3.2h12.8v5.7h-10.4
				c1,1.3,5.1,6.4,11.2,9.4l-3.3,6.1c-1.8-1.2-6.4-4.2-10.4-10.4v12.4h-6v-12.6c-4.5,6.3-8.9,9.1-11.4,10.7l-2.8-4.1v5.3h-15.7
				v-16.4h15.7v9.5c5.9-3.3,9.2-7.1,11.4-9.8H940V358.8z M938.3,328v5.2h-15.7V328H938.3z M938.3,343.2v5.2h-15.7v-5.2H938.3z
				 M938.3,351v5.3h-15.7V351H938.3z M933.1,364.1h-4.7v6.2h4.7V364.1z M952.7,333.1h-5.5v3.8h5.5V333.1z M952.7,341.1h-5.5v3.8h5.5
				V341.1z M964.1,333.1h-5.7v3.8h5.7V333.1z M964.1,341.1h-5.7v3.8h5.7V341.1z"/>
		</g>
	</g>
	<g>
		<path fill="#FFFFFF" d="M120.5,238.6h-85c-4.7,0-8.5-3.8-8.5-8.5v-85c0-4.7,3.8-8.5,8.5-8.5h85c4.7,0,8.5,3.8,8.5,8.5v85
			C129,234.8,125.2,238.6,120.5,238.6z"/>
		<path fill="#C0392B" d="M61.9,213.9l-14.3,17.8h6.9l12-14.9h22.4l12,14.9h6.9L93.5,214c2.8-0.4,8.9-0.9,11.6-1.5
			c3.2-6.1,5.1-13,5.1-20.4v-32.7c0-6.2-4.6-11.4-10.6-12.3c0,0-5.3-1.4-21.9-1.4c-17.6,0-22,1.4-22,1.4c-6,0.9-10.6,6-10.6,12.3
			v32.7c0,7.3,1.9,14.3,5.1,20.4C52.9,212.9,59.1,213.5,61.9,213.9z M90.5,164.1c0-1.5,1.3-2.8,2.8-2.8h9.7c1.5,0,2.8,1.3,2.8,2.8
			v11.6c0,1.5-1.3,2.8-2.8,2.8h-9.7c-1.5,0-2.8-1.3-2.8-2.8V164.1z M82.7,150.2c2.1,0,3.8,1.7,3.8,3.8s-1.7,3.8-3.8,3.8
			c-2.1,0-3.8-1.7-3.8-3.8C78.9,151.9,80.6,150.2,82.7,150.2z M82.7,161.3c1.5,0,2.8,1.3,2.8,2.8v11.6c0,1.5-1.3,2.8-2.8,2.8H73
			c-1.5,0-2.8-1.3-2.8-2.8v-11.6c0-1.5,1.3-2.8,2.8-2.8H82.7z M72.7,150.2c2.1,0,3.8,1.7,3.8,3.8s-1.7,3.8-3.8,3.8
			c-2.1,0-3.8-1.7-3.8-3.8C68.9,151.9,70.6,150.2,72.7,150.2z M49.5,164.1c0-1.5,1.3-2.8,2.8-2.8H62c1.5,0,2.8,1.3,2.8,2.8v11.6
			c0,1.5-1.3,2.8-2.8,2.8h-9.7c-1.5,0-2.8-1.3-2.8-2.8C49.5,175.7,49.5,164.1,49.5,164.1z M50.5,183.6c1-0.3,2.2-0.2,3.2-0.2
			c1.8,0,3.6,0,5.4,0c1,0,2.1,0,3.1,0c11.8,0,23.6,0.1,35.4,0c1.4,0,2.9,0,4.3,0c0.9,0,2-0.1,2.9,0.2c1.7,0.6,2.5,2.2,2.5,3.9
			c0,0.1,0,0.1,0,0.2H48C48.1,185.8,48.6,184.1,50.5,183.6z M48,199.1c0-1.8,0-3.5,0-5.3c0-0.7,0-1.3,0-2h59.3c0,1.7,0,3.4,0,5.1
			c0,1.2,0,2.5,0,3.7c0,2.3-2.2,2-3.9,2.1c-2.8,0.1-5.6,0-8.4,0c-0.2,0-0.4,0-0.6,0c-0.6,0.2-0.4,2-0.4,2.5c0,1.2,0.1,2.9-1.7,2.9
			c-5.7,0-11.3-0.1-17-0.1c-2.9,0-5.7,0-8.6,0c-1.4,0-2.9,0-4.3,0c-2.2,0-1.9-2.4-1.9-3.9s-0.4-1.6-1.8-1.6c-1.2,0-2.4,0-3.6,0
			c-1.2,0-2.5,0-3.7,0c-0.7,0-1.7,0.2-2.4-0.1C47.7,201.8,48,200.2,48,199.1z"/>
	</g>
	<g>
		<path fill="#FFFFFF" d="M961.4,238.7h-85c-4.7,0-8.5-3.8-8.5-8.5v-85c0-4.7,3.8-8.5,8.5-8.5h85c4.7,0,8.5,3.8,8.5,8.5v85
			C970,234.9,966.1,238.7,961.4,238.7z"/>
		<g>
			<path fill="#C0392B" d="M941.7,191.4h-45.5V161h45.5V191.4z M946.9,155.7h-56v41h56V155.7"/>
			<polygon fill="#C0392B" points="946.9,199.3 890.9,199.3 878.1,214.9 878.1,219.8 959.8,219.8 959.8,214.9 			"/>
		</g>
	</g>
</g>
</svg>
