<?xml version="1.0" encoding="utf-8"?>
<!-- Generator: Adobe Illustrator 19.2.1, SVG Export Plug-In . SVG Version: 6.00 Build 0)  -->
<!DOCTYPE svg PUBLIC "-//W3C//DTD SVG 1.1//EN" "http://www.w3.org/Graphics/SVG/1.1/DTD/svg11.dtd">
<svg version="1.1" id="レイヤー_1" xmlns="http://www.w3.org/2000/svg" xmlns:xlink="http://www.w3.org/1999/xlink" x="0px"
	 y="0px" viewBox="0 0 320 160" enable-background="new 0 0 320 160" xml:space="preserve">
<path fill="#93D8AF" d="M192.006,72.113V44.988c0-5.722,0.838-10.851,2.51-15.389c-1.363-3.664-3.363-6.829-6.029-9.532
	c-5.52-5.6-12.977-8.321-22.797-8.321c-8.704,0-15.883,2.938-21.948,8.984c-6.061,6.042-9.009,13.207-9.009,21.905
	c0,8.962,2.909,16.188,8.893,22.093c5.999,5.919,13.326,8.797,22.4,8.797c0.523,0,1.074-0.021,1.648-0.062V56.579
	c-0.695,0.094-1.402,0.141-2.119,0.141c-3.742,0-7.034-1.348-9.519-3.896c-2.494-2.557-3.759-5.803-3.759-9.649
	c0-3.731,1.367-6.989,4.062-9.684c2.655-2.659,6.005-4.065,9.686-4.065c4.096,0,7.572,1.599,10.055,4.628
	c2.316,2.833,3.492,6.535,3.492,11.002v27.058H192.006z"/>
<path fill="#93D8AF" d="M196.006,96.92V44.988c0-9.255,2.402-16.83,7.139-22.514c2.695-3.241,6.191-5.865,10.396-7.801
	c4.223-1.942,8.604-2.928,13.018-2.928c8.988,0,16.34,2.925,22.475,8.941c6.113,5.993,9.086,13.15,9.086,21.882
	c0,8.485-2.965,15.614-9.064,21.795c-6.086,6.165-13.072,9.162-21.354,9.162c-0.711,0-1.621-0.041-2.723-0.121V55.642
	c0.723,0.136,1.451,0.204,2.186,0.204c3.662,0,6.971-1.423,9.566-4.114c2.596-2.691,3.912-5.933,3.912-9.634
	c0-3.7-1.422-7.031-4.111-9.631c-2.693-2.599-5.957-3.915-9.705-3.915c-5.109,0-13.68,2.258-13.68,17.378v50.99H196.006z"/>
<path fill="#91E51A" d="M132.381,20.687c-6.136-6.016-13.488-8.941-22.477-8.941c-4.413,0-8.792,0.985-13.016,2.928
	c-4.204,1.935-7.701,4.559-10.397,7.801c-2.055,2.466-3.643,5.309-4.814,8.469c1.271,3.621,1.908,7.496,1.908,11.625
	c0,6.195-1.416,11.801-4.234,16.821v37.53h17.142V45.93c0-15.12,8.571-17.378,13.681-17.378c3.748,0,7.012,1.316,9.703,3.913
	c2.689,2.599,4.111,5.93,4.111,9.633c0,3.704-1.316,6.946-3.911,9.634c-2.596,2.691-5.904,4.114-9.567,4.114
	c-0.732,0-1.461-0.068-2.185-0.204v17.763c1.103,0.08,2.013,0.121,2.723,0.121c8.283,0,15.268-2.997,21.354-9.163
	c6.101-6.179,9.065-13.308,9.065-21.794C141.467,33.838,138.495,26.681,132.381,20.687z"/>
<path fill="#91E51A" d="M48.36,73.525c-8.71,0-15.947-2.975-22.125-9.094c-6.169-6.107-9.168-13.259-9.168-21.863
	c0-8.768,2.989-15.933,9.139-21.901c6.183-6.003,13.628-8.921,22.76-8.921c8.469,0,15.533,2.968,21.599,9.071
	c6.07,6.111,9.021,13.227,9.021,21.751c0,8.649-2.987,15.811-9.134,21.896C64.296,70.562,57.069,73.525,48.36,73.525z
	 M48.293,28.552c-3.749,0-7.115,1.434-9.734,4.146c-2.617,2.711-3.945,6.055-3.945,9.938c0,3.841,1.34,7.173,3.98,9.905
	c2.638,2.733,5.993,4.179,9.699,4.179c3.75,0,7.127-1.445,9.768-4.18c2.642-2.733,3.98-6.065,3.98-9.904
	c0-3.883-1.328-7.227-3.946-9.938C55.477,29.985,52.087,28.552,48.293,28.552z"/>
<path fill="#FAED00" d="M267.447,69.963h10.057v10.021c0,4.732-1.121,8.496-3.361,11.293c-2.85,3.549-6.775,5.324-11.777,5.324
	c-1.523,0-3.244-0.322-5.162-0.967v-9.492c1.684,0.787,3.109,1.182,4.275,1.182c3.979,0,5.969-2.93,5.969-8.793V69.963z"/>
<path fill="#FF8383" d="M272.56,51.113c2.192,0,4.088,0.771,5.69,2.313c1.6,1.543,2.398,3.366,2.398,5.472
	c0,2.249-0.758,4.094-2.271,5.536c-1.514,1.441-3.451,2.162-5.817,2.162c-2.363,0-4.303-0.721-5.816-2.162
	c-1.514-1.442-2.27-3.287-2.27-5.536c0-2.105,0.799-3.929,2.398-5.472C268.475,51.885,270.371,51.113,272.56,51.113z"/>
<path fill="#FAED00" d="M292.857,94.074h-10.057V71.702c0-4.105,1.076-7.449,3.227-10.03c1.238-1.488,2.811-2.671,4.721-3.55
	c1.908-0.878,3.867-1.317,5.875-1.317c3.998,0,7.367,1.345,10.109,4.033c2.744,2.69,4.115,5.988,4.115,9.896
	c0,3.801-1.363,7.081-4.088,9.843c-2.725,2.76-5.951,4.141-9.68,4.141c-0.609,0-1.506-0.063-2.689-0.188v-11.08
	c0.824,0.664,1.648,0.995,2.475,0.995c1.039,0,1.932-0.386,2.676-1.156c0.742-0.771,1.115-1.685,1.115-2.742
	c0-1.058-0.385-1.959-1.156-2.703c-0.772-0.743-1.693-1.115-2.77-1.115c-2.582,0-3.873,1.783-3.873,5.351V94.074z"/>
<rect x="9.152" y="100" fill="#D4934D" width="301" height="38"/>
<g>
	<path fill="#FFFFFF" d="M22.926,112.978c1.113,0,2.069,0.226,2.868,0.677c0.798,0.452,1.402,1.094,1.813,1.927
		c0.41,0.832,0.615,1.811,0.615,2.934c0,0.83-0.112,1.584-0.337,2.263s-0.562,1.267-1.011,1.765s-1.001,0.879-1.655,1.143
		s-1.404,0.396-2.249,0.396c-0.84,0-1.592-0.136-2.256-0.407c-0.664-0.271-1.218-0.652-1.663-1.146s-0.78-1.087-1.007-1.78
		c-0.228-0.693-0.341-1.442-0.341-2.249c0-0.824,0.118-1.582,0.355-2.27c0.236-0.689,0.58-1.275,1.029-1.758
		c0.449-0.484,0.996-0.854,1.641-1.11C21.374,113.106,22.106,112.978,22.926,112.978z M26.017,118.499
		c0-0.785-0.127-1.467-0.381-2.043s-0.617-1.012-1.087-1.308c-0.472-0.295-1.012-0.442-1.623-0.442
		c-0.435,0-0.836,0.081-1.205,0.245c-0.369,0.163-0.687,0.401-0.952,0.714c-0.267,0.313-0.477,0.712-0.63,1.197
		c-0.154,0.486-0.231,1.032-0.231,1.637c0,0.611,0.077,1.163,0.231,1.656c0.153,0.493,0.371,0.901,0.651,1.227
		c0.281,0.324,0.603,0.567,0.967,0.729s0.763,0.242,1.198,0.242c0.557,0,1.068-0.14,1.535-0.418
		c0.466-0.278,0.837-0.708,1.113-1.289C25.879,120.065,26.017,119.349,26.017,118.499z"/>
	<path fill="#FFFFFF" d="M31.789,117.072v0.242c0.376-0.464,0.767-0.805,1.172-1.022c0.405-0.217,0.864-0.325,1.377-0.325
		c0.615,0,1.182,0.158,1.699,0.476s0.926,0.781,1.227,1.392c0.3,0.61,0.45,1.333,0.45,2.168c0,0.615-0.087,1.181-0.26,1.695
		c-0.174,0.516-0.412,0.947-0.714,1.297c-0.303,0.349-0.661,0.617-1.073,0.806c-0.413,0.188-0.856,0.282-1.33,0.282
		c-0.571,0-1.051-0.115-1.439-0.345c-0.389-0.229-0.758-0.566-1.11-1.011v3.003c0,0.879-0.32,1.318-0.959,1.318
		c-0.376,0-0.625-0.113-0.747-0.341c-0.122-0.227-0.183-0.558-0.183-0.992v-8.628c0-0.381,0.083-0.665,0.249-0.854
		c0.166-0.188,0.393-0.282,0.681-0.282c0.283,0,0.514,0.097,0.692,0.29C31.699,116.433,31.789,116.71,31.789,117.072z
		 M35.707,119.98c0-0.527-0.081-0.98-0.242-1.359c-0.161-0.378-0.384-0.669-0.67-0.871c-0.285-0.203-0.602-0.305-0.948-0.305
		c-0.552,0-1.017,0.218-1.396,0.652s-0.567,1.074-0.567,1.919c0,0.796,0.188,1.415,0.564,1.856c0.376,0.442,0.842,0.663,1.399,0.663
		c0.332,0,0.64-0.097,0.923-0.289c0.283-0.193,0.51-0.482,0.681-0.868S35.707,120.527,35.707,119.98z"/>
	<path fill="#FFFFFF" d="M44.899,120.507h-3.911c0.005,0.453,0.096,0.854,0.275,1.201c0.178,0.347,0.415,0.607,0.71,0.783
		s0.622,0.264,0.978,0.264c0.239,0,0.458-0.028,0.656-0.084c0.197-0.057,0.389-0.145,0.575-0.264
		c0.186-0.12,0.356-0.248,0.513-0.385s0.359-0.322,0.608-0.557c0.103-0.088,0.249-0.132,0.439-0.132
		c0.205,0,0.371,0.057,0.498,0.169s0.19,0.271,0.19,0.476c0,0.181-0.071,0.392-0.212,0.634c-0.142,0.241-0.355,0.474-0.641,0.695
		c-0.285,0.223-0.645,0.406-1.076,0.553c-0.433,0.146-0.929,0.221-1.491,0.221c-1.284,0-2.283-0.367-2.996-1.1
		s-1.069-1.726-1.069-2.98c0-0.591,0.088-1.139,0.264-1.645c0.176-0.505,0.432-0.938,0.769-1.3s0.752-0.639,1.245-0.831
		c0.493-0.193,1.04-0.289,1.641-0.289c0.781,0,1.451,0.164,2.01,0.494c0.559,0.329,0.978,0.756,1.256,1.277
		c0.278,0.523,0.417,1.055,0.417,1.598c0,0.503-0.144,0.828-0.432,0.978C45.827,120.432,45.421,120.507,44.899,120.507z
		 M40.988,119.372h3.625c-0.049-0.684-0.233-1.195-0.553-1.534c-0.32-0.34-0.741-0.51-1.264-0.51c-0.498,0-0.907,0.173-1.227,0.517
		C41.25,118.189,41.056,118.698,40.988,119.372z"/>
	<path fill="#FFFFFF" d="M50.048,117.057v0.241c0.352-0.463,0.736-0.804,1.154-1.021c0.417-0.217,0.897-0.326,1.439-0.326
		c0.527,0,0.999,0.115,1.414,0.345s0.725,0.555,0.93,0.974c0.132,0.245,0.217,0.509,0.256,0.791
		c0.039,0.284,0.059,0.645,0.059,1.084v3.721c0,0.401-0.092,0.703-0.274,0.908c-0.184,0.205-0.421,0.309-0.714,0.309
		c-0.298,0-0.54-0.105-0.725-0.315s-0.278-0.51-0.278-0.901v-3.332c0-0.659-0.092-1.163-0.274-1.513
		c-0.184-0.349-0.548-0.523-1.095-0.523c-0.356,0-0.681,0.106-0.974,0.318c-0.293,0.213-0.508,0.505-0.645,0.876
		c-0.098,0.298-0.146,0.854-0.146,1.67v2.504c0,0.406-0.094,0.71-0.282,0.912c-0.188,0.203-0.431,0.305-0.729,0.305
		c-0.288,0-0.525-0.105-0.71-0.315s-0.278-0.51-0.278-0.901v-5.778c0-0.381,0.083-0.665,0.249-0.854
		c0.166-0.188,0.393-0.282,0.681-0.282c0.176,0,0.334,0.042,0.476,0.125s0.255,0.208,0.34,0.373
		C50.005,116.616,50.048,116.818,50.048,117.057z"/>
	<path fill="#FFFFFF" d="M65.348,119.716h-1.992v3.039c0,0.435-0.103,0.765-0.308,0.988c-0.205,0.225-0.464,0.338-0.776,0.338
		c-0.327,0-0.591-0.111-0.791-0.334c-0.2-0.222-0.3-0.548-0.3-0.978v-8.276c0-0.479,0.11-0.82,0.33-1.025s0.569-0.308,1.047-0.308
		h2.791c0.825,0,1.46,0.063,1.904,0.19c0.439,0.122,0.819,0.325,1.139,0.607c0.319,0.284,0.563,0.631,0.729,1.041
		s0.249,0.871,0.249,1.384c0,1.094-0.337,1.923-1.011,2.486C67.685,119.434,66.681,119.716,65.348,119.716z M64.821,114.794h-1.465
		v3.281h1.465c0.513,0,0.941-0.054,1.286-0.162c0.344-0.106,0.606-0.282,0.787-0.527c0.181-0.243,0.271-0.563,0.271-0.959
		c0-0.474-0.139-0.859-0.417-1.157C66.435,114.953,65.792,114.794,64.821,114.794z"/>
	<path fill="#FFFFFF" d="M73.031,121.195v1.67c0,0.406-0.095,0.71-0.286,0.912c-0.19,0.203-0.432,0.305-0.725,0.305
		c-0.288,0-0.525-0.104-0.71-0.309s-0.278-0.507-0.278-0.908v-5.566c0-0.897,0.325-1.348,0.974-1.348
		c0.332,0,0.571,0.105,0.718,0.315s0.227,0.521,0.242,0.931c0.239-0.41,0.484-0.721,0.736-0.931s0.587-0.315,1.007-0.315
		s0.828,0.105,1.223,0.315s0.593,0.488,0.593,0.835c0,0.244-0.084,0.445-0.252,0.604c-0.169,0.158-0.351,0.237-0.546,0.237
		c-0.073,0-0.25-0.045-0.531-0.135c-0.281-0.091-0.528-0.136-0.743-0.136c-0.293,0-0.532,0.077-0.718,0.23
		c-0.186,0.154-0.33,0.383-0.432,0.685c-0.103,0.304-0.173,0.663-0.212,1.081C73.051,120.085,73.031,120.595,73.031,121.195z"/>
	<path fill="#FFFFFF" d="M85.102,120.016c0,0.596-0.093,1.146-0.278,1.647c-0.186,0.504-0.454,0.936-0.806,1.297
		s-0.771,0.639-1.26,0.831c-0.488,0.193-1.038,0.29-1.648,0.29c-0.605,0-1.15-0.099-1.633-0.293
		c-0.483-0.195-0.902-0.476-1.256-0.839c-0.354-0.364-0.622-0.794-0.806-1.289c-0.183-0.496-0.274-1.044-0.274-1.645
		c0-0.605,0.093-1.159,0.278-1.663c0.186-0.502,0.452-0.932,0.798-1.289c0.347-0.355,0.767-0.631,1.26-0.823
		c0.493-0.193,1.038-0.29,1.633-0.29c0.605,0,1.155,0.099,1.648,0.293c0.493,0.196,0.916,0.475,1.267,0.836s0.619,0.791,0.802,1.289
		C85.01,118.867,85.102,119.415,85.102,120.016z M83.095,120.016c0-0.815-0.179-1.45-0.539-1.904
		c-0.358-0.454-0.841-0.681-1.446-0.681c-0.391,0-0.735,0.101-1.033,0.304c-0.298,0.202-0.527,0.501-0.688,0.897
		c-0.161,0.395-0.242,0.856-0.242,1.384c0,0.522,0.079,0.979,0.238,1.37c0.158,0.391,0.385,0.689,0.681,0.896
		c0.295,0.208,0.644,0.312,1.044,0.312c0.605,0,1.088-0.229,1.446-0.685C82.916,121.453,83.095,120.822,83.095,120.016z"/>
	<path fill="#FFFFFF" d="M93.847,121.605c0,0.25-0.075,0.516-0.224,0.799s-0.376,0.553-0.681,0.81
		c-0.306,0.256-0.69,0.463-1.154,0.618c-0.464,0.156-0.986,0.234-1.567,0.234c-1.235,0-2.2-0.359-2.893-1.08
		c-0.693-0.72-1.04-1.686-1.04-2.896c0-0.82,0.159-1.545,0.476-2.176c0.317-0.629,0.776-1.116,1.377-1.461
		c0.601-0.344,1.318-0.516,2.153-0.516c0.518,0,0.993,0.075,1.424,0.227c0.433,0.151,0.799,0.347,1.099,0.586
		c0.301,0.239,0.53,0.494,0.688,0.766c0.159,0.271,0.238,0.523,0.238,0.758c0,0.239-0.089,0.442-0.268,0.607
		c-0.178,0.167-0.394,0.25-0.648,0.25c-0.166,0-0.304-0.043-0.414-0.129c-0.11-0.085-0.233-0.223-0.37-0.414
		c-0.244-0.37-0.5-0.648-0.766-0.834s-0.604-0.279-1.014-0.279c-0.591,0-1.067,0.231-1.428,0.692
		c-0.361,0.462-0.542,1.093-0.542,1.894c0,0.376,0.046,0.722,0.139,1.036c0.093,0.315,0.227,0.584,0.403,0.806
		c0.176,0.223,0.388,0.391,0.637,0.506c0.249,0.114,0.522,0.172,0.82,0.172c0.4,0,0.744-0.093,1.029-0.278
		c0.286-0.186,0.539-0.469,0.758-0.85c0.122-0.225,0.254-0.4,0.396-0.527s0.315-0.19,0.52-0.19c0.244,0,0.447,0.093,0.608,0.278
		S93.847,121.396,93.847,121.605z"/>
	<path fill="#FFFFFF" d="M101.171,120.507H97.26c0.005,0.453,0.096,0.854,0.275,1.201c0.178,0.347,0.415,0.607,0.71,0.783
		s0.622,0.264,0.978,0.264c0.239,0,0.458-0.028,0.656-0.084c0.197-0.057,0.389-0.145,0.575-0.264
		c0.186-0.12,0.356-0.248,0.513-0.385s0.359-0.322,0.608-0.557c0.103-0.088,0.249-0.132,0.439-0.132
		c0.205,0,0.371,0.057,0.498,0.169s0.19,0.271,0.19,0.476c0,0.181-0.071,0.392-0.212,0.634c-0.142,0.241-0.355,0.474-0.641,0.695
		c-0.285,0.223-0.645,0.406-1.076,0.553c-0.433,0.146-0.929,0.221-1.491,0.221c-1.284,0-2.283-0.367-2.996-1.1
		s-1.069-1.726-1.069-2.98c0-0.591,0.088-1.139,0.264-1.645c0.176-0.505,0.432-0.938,0.769-1.3s0.752-0.639,1.245-0.831
		c0.493-0.193,1.04-0.289,1.641-0.289c0.781,0,1.451,0.164,2.01,0.494c0.559,0.329,0.978,0.756,1.256,1.277
		c0.278,0.523,0.417,1.055,0.417,1.598c0,0.503-0.144,0.828-0.432,0.978C102.099,120.432,101.693,120.507,101.171,120.507z
		 M97.26,119.372h3.625c-0.049-0.684-0.233-1.195-0.553-1.534c-0.32-0.34-0.741-0.51-1.264-0.51c-0.498,0-0.907,0.173-1.227,0.517
		C97.522,118.189,97.328,118.698,97.26,119.372z"/>
	<path fill="#FFFFFF" d="M110.941,121.466c0,0.552-0.134,1.024-0.403,1.417c-0.269,0.394-0.666,0.691-1.19,0.894
		c-0.525,0.203-1.164,0.305-1.916,0.305c-0.718,0-1.333-0.11-1.846-0.33s-0.891-0.494-1.135-0.824
		c-0.244-0.329-0.366-0.66-0.366-0.992c0-0.22,0.078-0.407,0.234-0.564c0.156-0.155,0.354-0.234,0.593-0.234
		c0.21,0,0.371,0.052,0.483,0.154s0.22,0.247,0.322,0.432c0.205,0.357,0.451,0.623,0.736,0.799c0.286,0.176,0.675,0.264,1.168,0.264
		c0.4,0,0.729-0.089,0.985-0.268c0.257-0.178,0.385-0.382,0.385-0.611c0-0.352-0.133-0.607-0.399-0.77
		c-0.266-0.16-0.704-0.314-1.314-0.461c-0.688-0.171-1.249-0.351-1.681-0.538c-0.433-0.188-0.778-0.437-1.037-0.743
		c-0.259-0.309-0.388-0.687-0.388-1.136c0-0.4,0.12-0.778,0.359-1.136c0.239-0.355,0.592-0.641,1.058-0.853
		c0.466-0.213,1.029-0.319,1.688-0.319c0.518,0,0.982,0.055,1.396,0.162c0.412,0.107,0.756,0.251,1.032,0.432
		s0.486,0.381,0.63,0.601s0.216,0.435,0.216,0.645c0,0.229-0.077,0.417-0.231,0.563c-0.153,0.146-0.372,0.221-0.655,0.221
		c-0.205,0-0.38-0.059-0.523-0.176c-0.145-0.117-0.309-0.293-0.495-0.527c-0.151-0.195-0.33-0.352-0.535-0.469
		s-0.483-0.176-0.835-0.176c-0.361,0-0.662,0.076-0.901,0.23c-0.239,0.153-0.359,0.346-0.359,0.574c0,0.211,0.088,0.383,0.264,0.517
		c0.176,0.135,0.413,0.245,0.71,0.333s0.708,0.196,1.23,0.322c0.62,0.152,1.126,0.333,1.52,0.543c0.393,0.21,0.69,0.457,0.894,0.743
		C110.84,120.774,110.941,121.1,110.941,121.466z"/>
	<path fill="#FFFFFF" d="M119.071,121.466c0,0.552-0.134,1.024-0.403,1.417c-0.269,0.394-0.666,0.691-1.19,0.894
		c-0.525,0.203-1.164,0.305-1.916,0.305c-0.718,0-1.333-0.11-1.846-0.33s-0.891-0.494-1.135-0.824
		c-0.244-0.329-0.366-0.66-0.366-0.992c0-0.22,0.078-0.407,0.234-0.564c0.156-0.155,0.354-0.234,0.593-0.234
		c0.21,0,0.371,0.052,0.483,0.154s0.22,0.247,0.322,0.432c0.205,0.357,0.451,0.623,0.736,0.799c0.286,0.176,0.675,0.264,1.168,0.264
		c0.4,0,0.729-0.089,0.985-0.268c0.257-0.178,0.385-0.382,0.385-0.611c0-0.352-0.133-0.607-0.399-0.77
		c-0.266-0.16-0.704-0.314-1.314-0.461c-0.688-0.171-1.249-0.351-1.681-0.538c-0.433-0.188-0.778-0.437-1.037-0.743
		c-0.259-0.309-0.388-0.687-0.388-1.136c0-0.4,0.12-0.778,0.359-1.136c0.239-0.355,0.592-0.641,1.058-0.853
		c0.466-0.213,1.029-0.319,1.688-0.319c0.518,0,0.982,0.055,1.396,0.162c0.412,0.107,0.756,0.251,1.032,0.432
		s0.486,0.381,0.63,0.601s0.216,0.435,0.216,0.645c0,0.229-0.077,0.417-0.231,0.563c-0.153,0.146-0.372,0.221-0.655,0.221
		c-0.205,0-0.38-0.059-0.523-0.176c-0.145-0.117-0.309-0.293-0.495-0.527c-0.151-0.195-0.33-0.352-0.535-0.469
		s-0.483-0.176-0.835-0.176c-0.361,0-0.662,0.076-0.901,0.23c-0.239,0.153-0.359,0.346-0.359,0.574c0,0.211,0.088,0.383,0.264,0.517
		c0.176,0.135,0.413,0.245,0.71,0.333s0.708,0.196,1.23,0.322c0.62,0.152,1.126,0.333,1.52,0.543c0.393,0.21,0.69,0.457,0.894,0.743
		C118.97,120.774,119.071,121.1,119.071,121.466z"/>
	<path fill="#FFFFFF" d="M131.522,122.682l-0.513-1.348h-4.365l-0.513,1.377c-0.2,0.537-0.371,0.899-0.513,1.088
		c-0.142,0.188-0.374,0.282-0.696,0.282c-0.273,0-0.515-0.101-0.725-0.301s-0.315-0.427-0.315-0.682
		c0-0.146,0.024-0.297,0.073-0.453s0.129-0.374,0.242-0.652l2.747-6.973c0.078-0.2,0.172-0.44,0.282-0.722
		c0.11-0.28,0.228-0.514,0.352-0.699c0.125-0.186,0.288-0.336,0.491-0.45c0.202-0.115,0.453-0.172,0.75-0.172
		c0.303,0,0.555,0.057,0.758,0.172c0.202,0.114,0.366,0.263,0.49,0.443c0.125,0.181,0.229,0.374,0.315,0.582
		c0.085,0.207,0.194,0.484,0.326,0.831l2.805,6.929c0.22,0.527,0.33,0.911,0.33,1.15c0,0.248-0.104,0.477-0.311,0.685
		c-0.208,0.207-0.458,0.312-0.751,0.312c-0.171,0-0.317-0.031-0.439-0.092c-0.122-0.062-0.225-0.145-0.308-0.249
		c-0.083-0.105-0.172-0.267-0.268-0.483C131.673,123.04,131.591,122.848,131.522,122.682z M127.216,119.701h3.208l-1.619-4.431
		L127.216,119.701z"/>
	<path fill="#FFFFFF" d="M137.118,117.057v0.241c0.352-0.463,0.736-0.804,1.154-1.021c0.417-0.217,0.897-0.326,1.439-0.326
		c0.527,0,0.999,0.115,1.414,0.345s0.725,0.555,0.93,0.974c0.132,0.245,0.217,0.509,0.256,0.791
		c0.039,0.284,0.059,0.645,0.059,1.084v3.721c0,0.401-0.092,0.703-0.274,0.908c-0.184,0.205-0.421,0.309-0.714,0.309
		c-0.298,0-0.54-0.105-0.725-0.315s-0.278-0.51-0.278-0.901v-3.332c0-0.659-0.092-1.163-0.274-1.513
		c-0.184-0.349-0.548-0.523-1.095-0.523c-0.356,0-0.681,0.106-0.974,0.318c-0.293,0.213-0.508,0.505-0.645,0.876
		c-0.098,0.298-0.146,0.854-0.146,1.67v2.504c0,0.406-0.094,0.71-0.282,0.912c-0.188,0.203-0.431,0.305-0.729,0.305
		c-0.288,0-0.525-0.105-0.71-0.315s-0.278-0.51-0.278-0.901v-5.778c0-0.381,0.083-0.665,0.249-0.854
		c0.166-0.188,0.393-0.282,0.681-0.282c0.176,0,0.334,0.042,0.476,0.125s0.255,0.208,0.34,0.373
		C137.075,116.616,137.118,116.818,137.118,117.057z"/>
	<path fill="#FFFFFF" d="M145.373,115.021c-0.278,0-0.516-0.085-0.714-0.256c-0.197-0.171-0.296-0.413-0.296-0.726
		c0-0.283,0.101-0.517,0.304-0.699c0.202-0.184,0.438-0.274,0.707-0.274c0.259,0,0.488,0.083,0.688,0.248
		c0.2,0.167,0.3,0.408,0.3,0.726c0,0.308-0.098,0.548-0.293,0.722C145.873,114.934,145.641,115.021,145.373,115.021z
		 M146.361,117.086v5.778c0,0.401-0.095,0.703-0.286,0.908s-0.432,0.309-0.725,0.309s-0.531-0.105-0.714-0.315
		c-0.184-0.21-0.275-0.51-0.275-0.901v-5.72c0-0.396,0.091-0.693,0.275-0.894c0.183-0.2,0.421-0.301,0.714-0.301
		s0.535,0.101,0.725,0.301S146.361,116.73,146.361,117.086z"/>
	<path fill="#FFFFFF" d="M155.077,120.163v2.659c0,0.42-0.096,0.734-0.286,0.944s-0.442,0.315-0.755,0.315
		c-0.303,0-0.548-0.105-0.735-0.315c-0.188-0.21-0.282-0.524-0.282-0.944v-3.187c0-0.503-0.018-0.894-0.051-1.172
		c-0.035-0.278-0.128-0.507-0.279-0.685c-0.151-0.179-0.391-0.268-0.717-0.268c-0.655,0-1.086,0.225-1.293,0.674
		c-0.208,0.449-0.312,1.094-0.312,1.934v2.703c0,0.415-0.094,0.729-0.282,0.94c-0.188,0.213-0.436,0.319-0.743,0.319
		c-0.303,0-0.551-0.106-0.743-0.319c-0.193-0.212-0.289-0.525-0.289-0.94v-5.721c0-0.376,0.086-0.661,0.26-0.857
		c0.173-0.194,0.401-0.293,0.685-0.293c0.273,0,0.502,0.092,0.685,0.275c0.184,0.183,0.275,0.436,0.275,0.758v0.19
		c0.346-0.415,0.717-0.72,1.113-0.915c0.395-0.195,0.834-0.293,1.318-0.293c0.502,0,0.935,0.1,1.296,0.3s0.659,0.503,0.894,0.908
		c0.337-0.41,0.698-0.714,1.084-0.912c0.386-0.197,0.813-0.296,1.281-0.296c0.547,0,1.019,0.107,1.414,0.322s0.69,0.522,0.887,0.922
		c0.17,0.362,0.256,0.931,0.256,1.707v3.904c0,0.42-0.096,0.734-0.285,0.944c-0.191,0.21-0.442,0.315-0.755,0.315
		c-0.303,0-0.551-0.106-0.743-0.319c-0.193-0.212-0.289-0.525-0.289-0.94v-3.362c0-0.43-0.019-0.773-0.056-1.032
		c-0.036-0.259-0.136-0.477-0.296-0.652c-0.162-0.176-0.406-0.264-0.732-0.264c-0.264,0-0.515,0.078-0.751,0.234
		c-0.237,0.156-0.421,0.366-0.554,0.63C155.149,118.712,155.077,119.308,155.077,120.163z"/>
	<path fill="#FFFFFF" d="M166.751,122.953c-0.482,0.377-0.95,0.658-1.402,0.847c-0.451,0.188-0.958,0.282-1.52,0.282
		c-0.513,0-0.963-0.102-1.352-0.305c-0.388-0.202-0.688-0.477-0.896-0.824c-0.211-0.346-0.315-0.722-0.315-1.127
		c0-0.547,0.173-1.014,0.521-1.399c0.346-0.386,0.822-0.645,1.428-0.776c0.127-0.029,0.441-0.096,0.945-0.197
		c0.502-0.104,0.934-0.197,1.292-0.282c0.359-0.086,0.748-0.189,1.169-0.312c-0.025-0.527-0.131-0.914-0.319-1.161
		c-0.188-0.246-0.577-0.37-1.168-0.37c-0.508,0-0.89,0.071-1.146,0.213c-0.256,0.142-0.476,0.354-0.659,0.637
		c-0.183,0.284-0.313,0.471-0.388,0.561c-0.076,0.091-0.238,0.136-0.487,0.136c-0.225,0-0.419-0.072-0.582-0.216
		c-0.164-0.145-0.246-0.328-0.246-0.553c0-0.352,0.125-0.693,0.374-1.025s0.638-0.605,1.165-0.82s1.184-0.322,1.97-0.322
		c0.879,0,1.569,0.104,2.073,0.311c0.502,0.208,0.857,0.536,1.065,0.985c0.207,0.449,0.312,1.045,0.312,1.787
		c0,0.469-0.002,0.867-0.004,1.194c-0.003,0.327-0.007,0.69-0.012,1.091c0,0.376,0.063,0.768,0.188,1.176
		c0.124,0.407,0.187,0.67,0.187,0.787c0,0.205-0.097,0.392-0.289,0.561c-0.193,0.168-0.412,0.253-0.655,0.253
		c-0.205,0-0.408-0.097-0.608-0.29C167.188,123.599,166.976,123.32,166.751,122.953z M166.62,120.06
		c-0.293,0.107-0.72,0.221-1.278,0.341c-0.56,0.119-0.946,0.207-1.161,0.264c-0.215,0.056-0.42,0.166-0.615,0.329
		c-0.195,0.164-0.293,0.393-0.293,0.686c0,0.303,0.114,0.56,0.344,0.772c0.229,0.212,0.53,0.318,0.901,0.318
		c0.396,0,0.761-0.087,1.095-0.26c0.335-0.174,0.58-0.396,0.736-0.671c0.181-0.302,0.271-0.8,0.271-1.494V120.06z"/>
	<path fill="#FFFFFF" d="M170.722,116.126h0.22v-1.201c0-0.322,0.009-0.574,0.025-0.758c0.018-0.183,0.064-0.34,0.144-0.473
		c0.077-0.136,0.189-0.247,0.336-0.333c0.146-0.085,0.311-0.128,0.491-0.128c0.254,0,0.483,0.096,0.688,0.285
		c0.137,0.128,0.224,0.282,0.26,0.466c0.037,0.183,0.055,0.442,0.055,0.78v1.361h0.732c0.283,0,0.5,0.067,0.648,0.202
		c0.149,0.134,0.224,0.307,0.224,0.517c0,0.269-0.106,0.456-0.318,0.563c-0.213,0.107-0.517,0.161-0.912,0.161h-0.374v3.677
		c0,0.313,0.012,0.553,0.033,0.722c0.022,0.168,0.081,0.305,0.176,0.41c0.096,0.104,0.25,0.157,0.465,0.157
		c0.117,0,0.276-0.021,0.477-0.063c0.2-0.041,0.356-0.062,0.469-0.062c0.161,0,0.307,0.064,0.436,0.193
		c0.13,0.13,0.194,0.289,0.194,0.48c0,0.322-0.176,0.568-0.527,0.739s-0.856,0.257-1.517,0.257c-0.625,0-1.098-0.105-1.42-0.315
		s-0.534-0.5-0.634-0.872c-0.101-0.37-0.15-0.866-0.15-1.486v-3.838h-0.264c-0.288,0-0.508-0.068-0.659-0.205
		s-0.227-0.31-0.227-0.52s0.079-0.383,0.237-0.517C170.188,116.194,170.419,116.126,170.722,116.126z"/>
	<path fill="#FFFFFF" d="M176.933,115.021c-0.277,0-0.516-0.085-0.714-0.256c-0.197-0.171-0.296-0.413-0.296-0.726
		c0-0.283,0.101-0.517,0.304-0.699c0.202-0.184,0.438-0.274,0.706-0.274c0.259,0,0.488,0.083,0.689,0.248
		c0.199,0.167,0.3,0.408,0.3,0.726c0,0.308-0.098,0.548-0.293,0.722C177.434,114.934,177.201,115.021,176.933,115.021z
		 M177.922,117.086v5.778c0,0.401-0.095,0.703-0.286,0.908c-0.189,0.205-0.432,0.309-0.725,0.309s-0.531-0.105-0.714-0.315
		c-0.184-0.21-0.274-0.51-0.274-0.901v-5.72c0-0.396,0.091-0.693,0.274-0.894c0.183-0.2,0.421-0.301,0.714-0.301
		s0.535,0.101,0.725,0.301C177.827,116.452,177.922,116.73,177.922,117.086z"/>
	<path fill="#FFFFFF" d="M187.472,120.016c0,0.596-0.093,1.146-0.277,1.647c-0.187,0.504-0.455,0.936-0.807,1.297
		s-0.771,0.639-1.26,0.831c-0.488,0.193-1.037,0.29-1.647,0.29c-0.605,0-1.149-0.099-1.634-0.293
		c-0.482-0.195-0.901-0.476-1.256-0.839c-0.354-0.364-0.622-0.794-0.806-1.289c-0.183-0.496-0.274-1.044-0.274-1.645
		c0-0.605,0.093-1.159,0.278-1.663c0.186-0.502,0.451-0.932,0.798-1.289c0.347-0.355,0.767-0.631,1.26-0.823
		c0.493-0.193,1.038-0.29,1.634-0.29c0.605,0,1.154,0.099,1.647,0.293c0.493,0.196,0.916,0.475,1.268,0.836s0.619,0.791,0.802,1.289
		C187.381,118.867,187.472,119.415,187.472,120.016z M185.466,120.016c0-0.815-0.18-1.45-0.539-1.904
		c-0.358-0.454-0.841-0.681-1.446-0.681c-0.391,0-0.735,0.101-1.032,0.304c-0.299,0.202-0.527,0.501-0.689,0.897
		c-0.16,0.395-0.241,0.856-0.241,1.384c0,0.522,0.079,0.979,0.238,1.37c0.158,0.391,0.386,0.689,0.681,0.896
		c0.296,0.208,0.644,0.312,1.044,0.312c0.605,0,1.088-0.229,1.446-0.685C185.286,121.453,185.466,120.822,185.466,120.016z"/>
	<path fill="#FFFFFF" d="M190.864,117.057v0.241c0.352-0.463,0.735-0.804,1.153-1.021c0.417-0.217,0.897-0.326,1.438-0.326
		c0.527,0,0.999,0.115,1.414,0.345s0.725,0.555,0.93,0.974c0.133,0.245,0.218,0.509,0.257,0.791
		c0.039,0.284,0.059,0.645,0.059,1.084v3.721c0,0.401-0.092,0.703-0.274,0.908c-0.184,0.205-0.422,0.309-0.715,0.309
		c-0.298,0-0.539-0.105-0.725-0.315s-0.278-0.51-0.278-0.901v-3.332c0-0.659-0.092-1.163-0.274-1.513
		c-0.184-0.349-0.549-0.523-1.096-0.523c-0.356,0-0.681,0.106-0.974,0.318c-0.293,0.213-0.508,0.505-0.645,0.876
		c-0.098,0.298-0.146,0.854-0.146,1.67v2.504c0,0.406-0.094,0.71-0.282,0.912c-0.188,0.203-0.431,0.305-0.729,0.305
		c-0.288,0-0.525-0.105-0.711-0.315s-0.277-0.51-0.277-0.901v-5.778c0-0.381,0.082-0.665,0.248-0.854
		c0.166-0.188,0.394-0.282,0.682-0.282c0.176,0,0.334,0.042,0.477,0.125c0.141,0.083,0.255,0.208,0.34,0.373
		C190.821,116.616,190.864,116.818,190.864,117.057z"/>
	<path fill="#FFFFFF" d="M206.165,119.716h-1.992v3.039c0,0.435-0.104,0.765-0.309,0.988c-0.205,0.225-0.464,0.338-0.775,0.338
		c-0.328,0-0.592-0.111-0.791-0.334c-0.201-0.222-0.301-0.548-0.301-0.978v-8.276c0-0.479,0.109-0.82,0.33-1.025
		c0.219-0.205,0.568-0.308,1.047-0.308h2.791c0.824,0,1.459,0.063,1.904,0.19c0.439,0.122,0.818,0.325,1.139,0.607
		c0.319,0.284,0.563,0.631,0.729,1.041s0.249,0.871,0.249,1.384c0,1.094-0.337,1.923-1.011,2.486
		C208.501,119.434,207.497,119.716,206.165,119.716z M205.638,114.794h-1.465v3.281h1.465c0.512,0,0.94-0.054,1.285-0.162
		c0.344-0.106,0.606-0.282,0.787-0.527c0.181-0.243,0.271-0.563,0.271-0.959c0-0.474-0.14-0.859-0.418-1.157
		C207.251,114.953,206.608,114.794,205.638,114.794z"/>
	<path fill="#FFFFFF" d="M213.848,121.195v1.67c0,0.406-0.096,0.71-0.285,0.912c-0.191,0.203-0.433,0.305-0.726,0.305
		c-0.288,0-0.525-0.104-0.71-0.309c-0.187-0.205-0.279-0.507-0.279-0.908v-5.566c0-0.897,0.325-1.348,0.975-1.348
		c0.332,0,0.571,0.105,0.718,0.315s0.228,0.521,0.241,0.931c0.239-0.41,0.485-0.721,0.736-0.931c0.252-0.21,0.587-0.315,1.008-0.315
		c0.419,0,0.827,0.105,1.223,0.315s0.594,0.488,0.594,0.835c0,0.244-0.085,0.445-0.253,0.604c-0.169,0.158-0.351,0.237-0.546,0.237
		c-0.073,0-0.25-0.045-0.531-0.135c-0.28-0.091-0.528-0.136-0.743-0.136c-0.293,0-0.532,0.077-0.718,0.23
		c-0.186,0.154-0.33,0.383-0.432,0.685c-0.104,0.304-0.174,0.663-0.213,1.081C213.867,120.085,213.848,120.595,213.848,121.195z"/>
	<path fill="#FFFFFF" d="M225.917,120.016c0,0.596-0.093,1.146-0.277,1.647c-0.187,0.504-0.455,0.936-0.807,1.297
		s-0.771,0.639-1.26,0.831c-0.488,0.193-1.037,0.29-1.647,0.29c-0.605,0-1.149-0.099-1.634-0.293
		c-0.482-0.195-0.901-0.476-1.256-0.839c-0.354-0.364-0.622-0.794-0.806-1.289c-0.183-0.496-0.274-1.044-0.274-1.645
		c0-0.605,0.093-1.159,0.278-1.663c0.186-0.502,0.451-0.932,0.798-1.289c0.347-0.355,0.767-0.631,1.26-0.823
		c0.493-0.193,1.038-0.29,1.634-0.29c0.605,0,1.154,0.099,1.647,0.293c0.493,0.196,0.916,0.475,1.268,0.836s0.619,0.791,0.802,1.289
		C225.826,118.867,225.917,119.415,225.917,120.016z M223.911,120.016c0-0.815-0.18-1.45-0.539-1.904
		c-0.358-0.454-0.841-0.681-1.446-0.681c-0.391,0-0.735,0.101-1.032,0.304c-0.299,0.202-0.527,0.501-0.689,0.897
		c-0.16,0.395-0.241,0.856-0.241,1.384c0,0.522,0.079,0.979,0.238,1.37c0.158,0.391,0.386,0.689,0.681,0.896
		c0.296,0.208,0.644,0.312,1.044,0.312c0.605,0,1.088-0.229,1.446-0.685C223.731,121.453,223.911,120.822,223.911,120.016z"/>
	<path fill="#FFFFFF" d="M229.507,117.145v6.782c0,0.483-0.016,0.878-0.048,1.183c-0.031,0.306-0.077,0.526-0.136,0.663
		c-0.332,0.85-1.037,1.274-2.116,1.274c-0.605,0-1.064-0.083-1.377-0.249s-0.469-0.408-0.469-0.725c0-0.234,0.071-0.427,0.212-0.575
		c0.143-0.149,0.328-0.224,0.557-0.224c0.029,0,0.077,0.004,0.144,0.011c0.065,0.008,0.163,0.016,0.293,0.026
		c0.129,0.009,0.218,0.014,0.267,0.014c0.269,0,0.448-0.104,0.539-0.314c0.09-0.21,0.135-0.586,0.135-1.128v-6.738
		c0-0.396,0.093-0.693,0.279-0.894c0.185-0.2,0.429-0.301,0.732-0.301c0.293,0,0.53,0.1,0.714,0.297
		C229.415,116.446,229.507,116.745,229.507,117.145z M228.519,115.021c-0.279,0-0.517-0.085-0.715-0.256
		c-0.197-0.171-0.297-0.413-0.297-0.726c0-0.283,0.102-0.517,0.305-0.699c0.202-0.184,0.438-0.274,0.707-0.274
		c0.258,0,0.487,0.083,0.688,0.248c0.2,0.167,0.301,0.408,0.301,0.726c0,0.308-0.098,0.548-0.293,0.722
		C229.019,114.934,228.786,115.021,228.519,115.021z"/>
	<path fill="#FFFFFF" d="M237.138,120.507h-3.91c0.004,0.453,0.096,0.854,0.274,1.201c0.178,0.347,0.415,0.607,0.71,0.783
		c0.296,0.176,0.621,0.264,0.979,0.264c0.238,0,0.457-0.028,0.655-0.084c0.197-0.057,0.389-0.145,0.575-0.264
		c0.185-0.12,0.355-0.248,0.512-0.385s0.359-0.322,0.608-0.557c0.103-0.088,0.249-0.132,0.439-0.132
		c0.205,0,0.371,0.057,0.498,0.169s0.19,0.271,0.19,0.476c0,0.181-0.071,0.392-0.213,0.634c-0.142,0.241-0.354,0.474-0.641,0.695
		c-0.285,0.223-0.645,0.406-1.076,0.553c-0.433,0.146-0.93,0.221-1.49,0.221c-1.285,0-2.283-0.367-2.996-1.1
		s-1.069-1.726-1.069-2.98c0-0.591,0.088-1.139,0.264-1.645c0.176-0.505,0.433-0.938,0.769-1.3c0.338-0.361,0.752-0.639,1.246-0.831
		c0.492-0.193,1.039-0.289,1.641-0.289c0.78,0,1.451,0.164,2.01,0.494c0.56,0.329,0.979,0.756,1.256,1.277
		c0.279,0.523,0.418,1.055,0.418,1.598c0,0.503-0.145,0.828-0.432,0.978C238.065,120.432,237.66,120.507,237.138,120.507z
		 M233.228,119.372h3.625c-0.049-0.684-0.233-1.195-0.553-1.534c-0.32-0.34-0.741-0.51-1.264-0.51c-0.498,0-0.907,0.173-1.227,0.517
		C233.489,118.189,233.295,118.698,233.228,119.372z"/>
	<path fill="#FFFFFF" d="M247.642,121.605c0,0.25-0.074,0.516-0.224,0.799c-0.148,0.283-0.376,0.553-0.681,0.81
		c-0.306,0.256-0.69,0.463-1.154,0.618c-0.464,0.156-0.986,0.234-1.566,0.234c-1.236,0-2.2-0.359-2.894-1.08
		c-0.693-0.72-1.04-1.686-1.04-2.896c0-0.82,0.158-1.545,0.477-2.176c0.316-0.629,0.775-1.116,1.377-1.461
		c0.6-0.344,1.318-0.516,2.152-0.516c0.518,0,0.993,0.075,1.425,0.227c0.433,0.151,0.799,0.347,1.099,0.586
		c0.301,0.239,0.53,0.494,0.688,0.766c0.159,0.271,0.238,0.523,0.238,0.758c0,0.239-0.089,0.442-0.268,0.607
		c-0.178,0.167-0.395,0.25-0.647,0.25c-0.167,0-0.305-0.043-0.414-0.129c-0.11-0.085-0.233-0.223-0.37-0.414
		c-0.244-0.37-0.499-0.648-0.766-0.834c-0.266-0.186-0.604-0.279-1.015-0.279c-0.591,0-1.066,0.231-1.428,0.692
		c-0.361,0.462-0.542,1.093-0.542,1.894c0,0.376,0.046,0.722,0.14,1.036c0.092,0.315,0.227,0.584,0.402,0.806
		c0.176,0.223,0.389,0.391,0.637,0.506c0.25,0.114,0.522,0.172,0.82,0.172c0.4,0,0.744-0.093,1.029-0.278
		c0.286-0.186,0.539-0.469,0.758-0.85c0.122-0.225,0.254-0.4,0.396-0.527c0.141-0.127,0.314-0.19,0.52-0.19
		c0.244,0,0.447,0.093,0.607,0.278C247.562,121.198,247.642,121.396,247.642,121.605z"/>
	<path fill="#FFFFFF" d="M249.495,116.126h0.22v-1.201c0-0.322,0.009-0.574,0.025-0.758c0.018-0.183,0.064-0.34,0.144-0.473
		c0.077-0.136,0.189-0.247,0.336-0.333c0.146-0.085,0.311-0.128,0.491-0.128c0.254,0,0.483,0.096,0.688,0.285
		c0.137,0.128,0.224,0.282,0.26,0.466c0.037,0.183,0.055,0.442,0.055,0.78v1.361h0.732c0.283,0,0.5,0.067,0.648,0.202
		c0.149,0.134,0.224,0.307,0.224,0.517c0,0.269-0.106,0.456-0.318,0.563c-0.213,0.107-0.517,0.161-0.912,0.161h-0.374v3.677
		c0,0.313,0.012,0.553,0.033,0.722c0.022,0.168,0.081,0.305,0.176,0.41c0.096,0.104,0.25,0.157,0.465,0.157
		c0.117,0,0.276-0.021,0.477-0.063c0.2-0.041,0.356-0.062,0.469-0.062c0.161,0,0.307,0.064,0.436,0.193
		c0.13,0.13,0.194,0.289,0.194,0.48c0,0.322-0.176,0.568-0.527,0.739s-0.856,0.257-1.517,0.257c-0.625,0-1.098-0.105-1.42-0.315
		s-0.534-0.5-0.634-0.872c-0.101-0.37-0.15-0.866-0.15-1.486v-3.838h-0.264c-0.288,0-0.508-0.068-0.659-0.205
		s-0.227-0.31-0.227-0.52s0.079-0.383,0.237-0.517C248.962,116.194,249.192,116.126,249.495,116.126z"/>
	<path fill="#FFFFFF" d="M264.825,114.296v5.625c0,0.488-0.021,0.903-0.063,1.244c-0.041,0.343-0.135,0.689-0.281,1.041
		c-0.245,0.591-0.647,1.051-1.209,1.38c-0.562,0.33-1.245,0.495-2.051,0.495c-0.728,0-1.334-0.115-1.82-0.345
		c-0.485-0.229-0.878-0.601-1.176-1.113c-0.156-0.273-0.283-0.588-0.381-0.944s-0.146-0.696-0.146-1.019
		c0-0.342,0.096-0.603,0.286-0.784c0.19-0.18,0.435-0.271,0.732-0.271c0.288,0,0.505,0.083,0.651,0.249s0.259,0.425,0.338,0.776
		c0.082,0.376,0.165,0.677,0.248,0.901s0.223,0.417,0.418,0.578s0.474,0.242,0.835,0.242c0.962,0,1.442-0.706,1.442-2.117v-5.939
		c0-0.439,0.097-0.77,0.29-0.989c0.192-0.22,0.455-0.329,0.787-0.329c0.337,0,0.604,0.109,0.802,0.329
		C264.727,113.527,264.825,113.857,264.825,114.296z"/>
	<path fill="#FFFFFF" d="M272.098,122.953c-0.482,0.377-0.95,0.658-1.402,0.847c-0.451,0.188-0.958,0.282-1.52,0.282
		c-0.513,0-0.963-0.102-1.352-0.305c-0.388-0.202-0.688-0.477-0.896-0.824c-0.211-0.346-0.315-0.722-0.315-1.127
		c0-0.547,0.173-1.014,0.521-1.399c0.346-0.386,0.822-0.645,1.428-0.776c0.127-0.029,0.441-0.096,0.945-0.197
		c0.502-0.104,0.934-0.197,1.292-0.282c0.359-0.086,0.748-0.189,1.169-0.312c-0.025-0.527-0.131-0.914-0.319-1.161
		c-0.188-0.246-0.577-0.37-1.168-0.37c-0.508,0-0.89,0.071-1.146,0.213c-0.256,0.142-0.476,0.354-0.659,0.637
		c-0.183,0.284-0.313,0.471-0.388,0.561c-0.076,0.091-0.238,0.136-0.487,0.136c-0.225,0-0.419-0.072-0.582-0.216
		c-0.164-0.145-0.246-0.328-0.246-0.553c0-0.352,0.125-0.693,0.374-1.025s0.638-0.605,1.165-0.82s1.184-0.322,1.97-0.322
		c0.879,0,1.569,0.104,2.073,0.311c0.502,0.208,0.857,0.536,1.065,0.985c0.207,0.449,0.312,1.045,0.312,1.787
		c0,0.469-0.002,0.867-0.004,1.194c-0.003,0.327-0.007,0.69-0.012,1.091c0,0.376,0.063,0.768,0.188,1.176
		c0.124,0.407,0.187,0.67,0.187,0.787c0,0.205-0.097,0.392-0.289,0.561c-0.193,0.168-0.412,0.253-0.655,0.253
		c-0.205,0-0.408-0.097-0.608-0.29C272.535,123.599,272.322,123.32,272.098,122.953z M271.967,120.06
		c-0.293,0.107-0.72,0.221-1.278,0.341c-0.56,0.119-0.946,0.207-1.161,0.264c-0.215,0.056-0.42,0.166-0.615,0.329
		c-0.195,0.164-0.293,0.393-0.293,0.686c0,0.303,0.114,0.56,0.344,0.772c0.229,0.212,0.53,0.318,0.901,0.318
		c0.396,0,0.761-0.087,1.095-0.26c0.335-0.174,0.58-0.396,0.736-0.671c0.181-0.302,0.271-0.8,0.271-1.494V120.06z"/>
	<path fill="#FFFFFF" d="M277.804,117.072v0.242c0.375-0.464,0.766-0.805,1.172-1.022c0.404-0.217,0.863-0.325,1.377-0.325
		c0.615,0,1.181,0.158,1.699,0.476c0.517,0.317,0.926,0.781,1.227,1.392c0.3,0.61,0.45,1.333,0.45,2.168
		c0,0.615-0.087,1.181-0.26,1.695c-0.174,0.516-0.412,0.947-0.714,1.297c-0.304,0.349-0.661,0.617-1.073,0.806
		c-0.413,0.188-0.856,0.282-1.329,0.282c-0.572,0-1.052-0.115-1.439-0.345c-0.389-0.229-0.758-0.566-1.109-1.011v3.003
		c0,0.879-0.32,1.318-0.96,1.318c-0.376,0-0.625-0.113-0.747-0.341c-0.122-0.227-0.184-0.558-0.184-0.992v-8.628
		c0-0.381,0.083-0.665,0.25-0.854c0.165-0.188,0.393-0.282,0.681-0.282c0.283,0,0.514,0.097,0.692,0.29
		C277.714,116.433,277.804,116.71,277.804,117.072z M281.722,119.98c0-0.527-0.08-0.98-0.242-1.359
		c-0.16-0.378-0.384-0.669-0.67-0.871c-0.285-0.203-0.602-0.305-0.948-0.305c-0.552,0-1.017,0.218-1.396,0.652
		c-0.378,0.435-0.567,1.074-0.567,1.919c0,0.796,0.188,1.415,0.563,1.856c0.376,0.442,0.843,0.663,1.399,0.663
		c0.332,0,0.64-0.097,0.923-0.289c0.283-0.193,0.51-0.482,0.682-0.868C281.636,120.993,281.722,120.527,281.722,119.98z"/>
	<path fill="#FFFFFF" d="M290.386,122.953c-0.482,0.377-0.95,0.658-1.402,0.847c-0.451,0.188-0.958,0.282-1.52,0.282
		c-0.513,0-0.963-0.102-1.352-0.305c-0.388-0.202-0.688-0.477-0.896-0.824c-0.211-0.346-0.315-0.722-0.315-1.127
		c0-0.547,0.173-1.014,0.521-1.399c0.346-0.386,0.822-0.645,1.428-0.776c0.127-0.029,0.441-0.096,0.945-0.197
		c0.502-0.104,0.934-0.197,1.292-0.282c0.359-0.086,0.748-0.189,1.169-0.312c-0.025-0.527-0.131-0.914-0.319-1.161
		c-0.188-0.246-0.577-0.37-1.168-0.37c-0.508,0-0.89,0.071-1.146,0.213c-0.256,0.142-0.476,0.354-0.659,0.637
		c-0.183,0.284-0.313,0.471-0.388,0.561c-0.076,0.091-0.238,0.136-0.487,0.136c-0.225,0-0.419-0.072-0.582-0.216
		c-0.164-0.145-0.246-0.328-0.246-0.553c0-0.352,0.125-0.693,0.374-1.025s0.638-0.605,1.165-0.82s1.184-0.322,1.97-0.322
		c0.879,0,1.569,0.104,2.073,0.311c0.502,0.208,0.857,0.536,1.065,0.985c0.207,0.449,0.312,1.045,0.312,1.787
		c0,0.469-0.002,0.867-0.004,1.194c-0.003,0.327-0.007,0.69-0.012,1.091c0,0.376,0.063,0.768,0.188,1.176
		c0.124,0.407,0.187,0.67,0.187,0.787c0,0.205-0.097,0.392-0.289,0.561c-0.193,0.168-0.412,0.253-0.655,0.253
		c-0.205,0-0.408-0.097-0.608-0.29C290.823,123.599,290.61,123.32,290.386,122.953z M290.255,120.06
		c-0.293,0.107-0.72,0.221-1.278,0.341c-0.56,0.119-0.946,0.207-1.161,0.264c-0.215,0.056-0.42,0.166-0.615,0.329
		c-0.195,0.164-0.293,0.393-0.293,0.686c0,0.303,0.114,0.56,0.344,0.772c0.229,0.212,0.53,0.318,0.901,0.318
		c0.396,0,0.761-0.087,1.095-0.26c0.335-0.174,0.58-0.396,0.736-0.671c0.181-0.302,0.271-0.8,0.271-1.494V120.06z"/>
	<path fill="#FFFFFF" d="M296.063,117.057v0.241c0.352-0.463,0.735-0.804,1.153-1.021c0.417-0.217,0.897-0.326,1.438-0.326
		c0.527,0,0.999,0.115,1.414,0.345s0.725,0.555,0.93,0.974c0.133,0.245,0.218,0.509,0.257,0.791
		c0.039,0.284,0.059,0.645,0.059,1.084v3.721c0,0.401-0.092,0.703-0.274,0.908c-0.184,0.205-0.422,0.309-0.715,0.309
		c-0.298,0-0.539-0.105-0.725-0.315s-0.278-0.51-0.278-0.901v-3.332c0-0.659-0.092-1.163-0.274-1.513
		c-0.184-0.349-0.549-0.523-1.096-0.523c-0.356,0-0.681,0.106-0.974,0.318c-0.293,0.213-0.508,0.505-0.645,0.876
		c-0.098,0.298-0.146,0.854-0.146,1.67v2.504c0,0.406-0.094,0.71-0.282,0.912c-0.188,0.203-0.431,0.305-0.729,0.305
		c-0.288,0-0.525-0.105-0.711-0.315s-0.277-0.51-0.277-0.901v-5.778c0-0.381,0.082-0.665,0.248-0.854
		c0.166-0.188,0.394-0.282,0.682-0.282c0.176,0,0.334,0.042,0.477,0.125c0.141,0.083,0.255,0.208,0.34,0.373
		C296.021,116.616,296.063,116.818,296.063,117.057z"/>
</g>
<g>
</g>
<g>
</g>
<g>
</g>
<g>
</g>
<g>
</g>
<g>
</g>
</svg>
