<svg xmlns="http://www.w3.org/2000/svg" viewBox="0 0 320 160">
  <path fill="#FF8383" d="M272.56 56.24c2.2 0 4.1.77 5.7 2.3 1.6 1.56 2.4 3.38 2.4 5.5 0 2.23-.77 4.08-2.28 5.52-1.52 1.44-3.45 2.16-5.82 2.16-2.36 0-4.3-.72-5.82-2.16-1.5-1.44-2.27-3.3-2.27-5.53 0-2.1.8-3.93 2.4-5.48 1.6-1.54 3.5-2.3 5.7-2.3z"/>
  <path fill="#D4934D" d="M9.5 105.13h301v38H9.5z"/>
  <g fill="#FFF">
    <path d="M27.53 127.7c-.9.98-2.1 1.47-3.65 1.47s-2.76-.5-3.65-1.48-1.35-2.38-1.35-4.15c0-1.77.45-3.15 1.35-4.14s2.1-1.47 3.65-1.47 2.75.5 3.65 1.48c.9 1 1.34 2.38 1.34 4.15 0 1.77-.45 3.15-1.34 4.14zm-.8-4.15c0-2.6-.95-3.9-2.85-3.9s-2.85 1.3-2.85 3.9c0 2.6.95 3.9 2.85 3.9s2.85-1.3 2.85-3.9zM31.27 132.32c-.23 0-.43-.08-.6-.25-.17-.17-.25-.37-.25-.6v-9.4c0-.22.08-.42.25-.6.17-.16.37-.25.6-.25h.18c.24 0 .45.1.62.25.17.17.26.37.27.6v.13c.02 0 .03 0 .04-.02.36-.4.72-.68 1.08-.85.36-.17.78-.26 1.26-.26.94 0 1.7.36 2.25 1.06s.84 1.7.84 3c0 1.24-.28 2.23-.86 2.96-.6.7-1.33 1.07-2.22 1.07-.87 0-1.62-.3-2.26-.94l-.03-.02-.02.03v3.24c0 .23-.07.43-.23.6-.17.17-.37.25-.6.25h-.3zm1.13-8.2v2.02c0 .4.17.76.5 1.07.36.32.76.48 1.22.48.53 0 .95-.22 1.26-.65.3-.43.47-1.07.47-1.9 0-1.7-.58-2.56-1.73-2.56-.46 0-.86.16-1.2.47-.35.3-.52.66-.52 1.06zM43 129.18c-1.32 0-2.33-.35-3.03-1.03-.7-.7-1.06-1.7-1.06-3.02s.32-2.33.95-3.02 1.54-1.02 2.73-1.02c2.22 0 3.36 1.26 3.42 3.78 0 .24-.07.44-.25.6-.18.16-.4.24-.63.24h-4.1c-.1 0-.12.04-.1.13.07.67.3 1.16.66 1.46s.93.45 1.65.45c.45 0 .95-.07 1.5-.23.18-.04.34 0 .5.1.15.1.23.26.23.45 0 .23-.07.43-.2.6-.14.18-.3.28-.53.32-.56.12-1.14.18-1.74.18zm-.4-6.7c-.5 0-.9.13-1.16.42-.28.28-.45.74-.52 1.37 0 .08.04.12.12.12h2.94c.08 0 .12-.05.12-.13-.04-1.2-.54-1.8-1.5-1.8zM48.48 129.03c-.23 0-.43-.1-.6-.26-.17-.17-.26-.37-.26-.6v-6.1c0-.22.1-.42.26-.6.17-.16.37-.25.6-.25h.2c.23 0 .44.1.6.25s.25.37.26.6v.1c0 .02 0 .03.02.03 0 0 .02 0 .03-.02.67-.74 1.46-1.1 2.37-1.1.9 0 1.58.25 2 .77.4.5.6 1.37.6 2.57v3.75c0 .23-.07.43-.24.6-.17.17-.37.25-.6.25h-.26c-.23 0-.42-.08-.6-.25s-.24-.37-.24-.6v-3.6c0-.75-.1-1.27-.3-1.54-.18-.27-.53-.4-1.03-.4-.4 0-.8.16-1.14.5s-.53.74-.53 1.14v3.9c0 .23-.08.43-.25.6-.17.17-.37.25-.6.25h-.3zM61.83 129.03c-.23 0-.43-.1-.6-.26s-.24-.37-.24-.6V119c0-.23.07-.45.23-.64.16-.2.36-.3.6-.32.85-.07 1.67-.1 2.46-.1 1.5 0 2.6.28 3.36.88.75.6 1.13 1.46 1.13 2.6 0 1.24-.37 2.18-1.1 2.82-.72.64-1.8.96-3.22.96-.33 0-.76-.02-1.3-.06-.08 0-.12.04-.12.12v2.9c0 .24-.1.44-.26.6s-.37.27-.6.27h-.37zm1.23-9.25v3.62c0 .07.04.1.12.13.38.06.75.08 1.1.08.82 0 1.43-.17 1.86-.52.42-.36.64-.86.64-1.52 0-1.33-.83-2-2.5-2-.35 0-.72.03-1.1.08-.08.02-.12.06-.12.14zM71.1 129.03c-.22 0-.42-.1-.6-.26-.16-.17-.24-.37-.24-.6v-6.1c0-.22.08-.42.25-.6.18-.16.38-.25.6-.25h.3c.24 0 .44.1.6.26.18.17.27.37.27.6v.66c.03 0 .04 0 .04-.02.3-.4.68-.72 1.15-.97.47-.26 1-.42 1.55-.48.2-.02.4.05.54.2s.22.34.22.56c0 .22-.07.4-.22.54-.15.15-.33.24-.54.26-1.77.14-2.66 1.04-2.66 2.7v2.67c0 .23-.08.43-.25.6-.18.17-.38.26-.6.26h-.4zM83.6 128.12c-.67.7-1.6 1.06-2.8 1.06-1.2 0-2.13-.36-2.8-1.06s-1-1.7-1-3 .34-2.28 1-3 1.6-1.05 2.8-1.05c1.2 0 2.13.36 2.8 1.06s1 1.7 1 3-.34 2.28-1 3zm-1.47-4.97c-.3-.4-.74-.62-1.33-.62-.6 0-1.03.2-1.33.62s-.44 1.08-.44 1.98c0 .9.15 1.55.44 1.97s.74.62 1.33.62c.6 0 1.03-.2 1.33-.62s.44-1.07.44-1.97c0-.9-.15-1.56-.44-1.98zM89.5 129.18c-1.25 0-2.2-.35-2.88-1.03-.67-.7-1-1.7-1-3.02 0-1.3.32-2.32.96-3s1.57-1.05 2.76-1.05c.53 0 1.04.03 1.53.1.23.03.42.14.57.3.15.2.22.4.22.64 0 .2-.08.36-.23.48-.16.12-.34.16-.53.12-.4-.08-.83-.12-1.3-.12-.64 0-1.1.2-1.42.6-.3.4-.46 1.04-.46 1.92 0 .9.16 1.55.5 1.94.32.4.83.58 1.52.58.5 0 .92-.04 1.28-.13.2-.04.36 0 .5.1.17.13.25.3.25.48 0 .24-.08.45-.22.63-.15.2-.33.3-.56.34-.52.1-1.02.14-1.5.14zM97.32 129.18c-1.3 0-2.32-.35-3.03-1.03-.7-.7-1.06-1.7-1.06-3.02s.3-2.33.94-3.02 1.54-1.02 2.73-1.02c2.23 0 3.37 1.26 3.43 3.78 0 .24-.07.44-.25.6-.18.16-.4.24-.63.24h-4.1c-.1 0-.12.04-.1.13.07.67.3 1.16.66 1.46s.93.45 1.66.45c.45 0 .95-.07 1.5-.23.18-.04.34 0 .5.1.15.1.23.26.23.45 0 .23-.08.43-.2.6-.15.18-.33.28-.55.32-.55.12-1.13.18-1.73.18zm-.38-6.7c-.5 0-.9.13-1.18.42-.27.28-.44.74-.5 1.37 0 .08.03.12.1.12h2.95c.1 0 .13-.05.13-.13-.04-1.2-.54-1.8-1.5-1.8zM104.64 125.88c-1.05-.23-1.8-.55-2.25-.95-.45-.4-.67-.92-.67-1.56 0-.72.26-1.28.8-1.7.53-.4 1.33-.6 2.38-.6.67 0 1.32.07 1.97.2.22.03.4.13.53.3.14.18.2.4.2.62 0 .17-.07.33-.22.44-.15.12-.32.15-.5.1-.57-.14-1.16-.2-1.78-.2-.9 0-1.35.24-1.35.74 0 .24.1.44.26.6.18.16.47.3.88.38 1.15.22 1.94.53 2.36.93.42.38.64.95.64 1.7 0 .72-.27 1.28-.8 1.68-.55.4-1.34.6-2.37.6-.66 0-1.34-.08-2.04-.24-.22-.05-.4-.17-.54-.36-.14-.18-.2-.4-.2-.63 0-.2.06-.34.22-.44.15-.1.32-.1.5-.06.65.18 1.27.27 1.85.27.9 0 1.35-.26 1.35-.8 0-.26-.1-.47-.26-.62-.2-.15-.5-.28-.96-.4zM112.4 125.88c-1.04-.23-1.8-.55-2.24-.95-.44-.4-.66-.92-.66-1.56 0-.72.26-1.28.8-1.7.53-.4 1.33-.6 2.38-.6.66 0 1.3.07 1.96.2.22.03.4.13.53.3.14.18.2.4.2.62 0 .17-.07.33-.22.44-.15.12-.32.15-.5.1-.57-.14-1.16-.2-1.78-.2-.9 0-1.35.24-1.35.74 0 .24.1.44.26.6.17.16.46.3.87.38 1.15.22 1.94.53 2.36.93.43.38.65.95.65 1.7 0 .72-.27 1.28-.8 1.68-.55.4-1.34.6-2.37.6-.67 0-1.35-.08-2.05-.24-.22-.05-.4-.17-.54-.36-.15-.18-.22-.4-.22-.63 0-.2.07-.34.23-.44.16-.1.33-.1.5-.06.66.18 1.28.27 1.86.27.9 0 1.36-.26 1.36-.8 0-.26-.1-.47-.26-.62-.18-.15-.5-.28-.95-.4zM121.68 129.03c-.2 0-.38-.1-.5-.26-.12-.17-.14-.35-.07-.56l3.1-9.3c.1-.26.25-.45.45-.6.2-.15.44-.23.7-.23h.53c.26 0 .5.08.7.23.2.15.34.35.42.6l3.1 9.3c.08.22.05.4-.07.57s-.28.26-.5.26H129c-.24 0-.47-.08-.67-.24s-.34-.36-.4-.6l-.5-1.7c0-.07-.06-.1-.16-.1h-3.4c-.08 0-.13.03-.15.1l-.48 1.7c-.06.24-.2.44-.4.6-.2.15-.43.22-.68.22h-.48zm3.88-9.1l-1.32 4.7c0 .05 0 .08.02.1s.04.05.07.05h2.5c.02 0 .05 0 .07-.04.02-.03.02-.06 0-.1l-1.3-4.7s0-.02-.02-.02-.02 0-.02.02zM132.4 129.03c-.23 0-.43-.1-.6-.26-.17-.17-.25-.37-.25-.6v-6.1c0-.22.08-.42.25-.6.17-.16.37-.25.6-.25h.2c.24 0 .44.1.6.25s.26.37.27.6v.13c.02 0 .03 0 .04-.02.7-.74 1.5-1.1 2.4-1.1.9 0 1.57.25 1.98.77.42.5.63 1.37.63 2.57v3.75c0 .23-.08.43-.25.6-.17.17-.37.25-.6.25h-.25c-.23 0-.43-.08-.6-.25s-.24-.37-.24-.6v-3.6c0-.75-.1-1.27-.3-1.54-.2-.27-.54-.4-1.04-.4-.4 0-.8.16-1.14.5s-.52.74-.52 1.14v3.9c0 .23-.1.43-.26.6-.17.17-.37.25-.6.25h-.3zM141.8 119.58c-.22 0-.42-.1-.6-.26-.16-.17-.25-.37-.25-.6v-.1c0-.22.1-.42.26-.6.18-.16.38-.25.6-.25h.4c.23 0 .43.1.6.26.17.17.25.37.25.6v.1c0 .22-.08.42-.25.6-.17.16-.37.25-.6.25h-.4zm0 9.45c-.22 0-.42-.1-.6-.26-.16-.17-.25-.37-.25-.6v-6.1c0-.22.1-.42.26-.6.18-.16.38-.25.6-.25h.4c.23 0 .43.1.6.26.17.17.25.37.25.6v6.1c0 .22-.08.42-.25.6-.17.16-.37.25-.6.25h-.4zM146.4 129.03c-.22 0-.42-.1-.58-.26-.17-.17-.25-.37-.25-.6v-6.1c0-.22.08-.42.25-.6.16-.16.36-.25.6-.25h.2c.23 0 .43.08.6.24.16.16.25.36.26.6v.1h.04c.6-.73 1.26-1.1 2-1.1.45 0 .8.1 1.08.27s.52.47.73.9h.06c.62-.77 1.33-1.16 2.12-1.16.83 0 1.43.23 1.8.68.36.45.54 1.22.54 2.32v4.1c0 .23-.08.43-.25.6s-.35.25-.58.25h-.25c-.23 0-.43-.08-.6-.25s-.26-.37-.26-.6v-3.8c0-.73-.06-1.2-.2-1.44-.14-.23-.4-.34-.8-.34-.27 0-.53.1-.8.35-.25.24-.38.48-.38.72v4.5c0 .23-.1.43-.26.6s-.37.25-.6.25h-.25c-.22 0-.42-.08-.58-.25s-.25-.37-.25-.6v-3.8c0-.72-.07-1.2-.22-1.43-.14-.23-.42-.35-.8-.35-.27 0-.54.1-.8.35-.25.24-.38.48-.38.72v4.5c0 .23-.1.43-.26.6s-.36.25-.6.25h-.3zM159.84 129.18c-.68 0-1.25-.23-1.7-.67-.44-.44-.66-1-.66-1.72 0-.87.33-1.55 1-2.03.66-.48 1.68-.72 3.05-.72h.62c.1 0 .13-.04.13-.14v-.13c0-.46-.1-.78-.33-.96-.22-.18-.6-.27-1.17-.27-.58 0-1.3.1-2.13.3-.18.06-.34.03-.5-.08s-.22-.27-.22-.46c0-.24.07-.45.2-.63.15-.2.33-.3.55-.34.76-.17 1.48-.26 2.15-.26 1.28 0 2.17.23 2.68.7.52.45.78 1.26.78 2.4v4c0 .23-.1.43-.25.6-.17.17-.36.25-.6.25h-.16c-.24 0-.44-.08-.6-.24s-.27-.37-.28-.6v-.22l-.03-.02c-.02 0-.03 0-.03.02-.6.8-1.44 1.22-2.5 1.22zm1.7-3.9c-1.44 0-2.15.44-2.15 1.32 0 .32.08.58.26.77.2.2.42.3.7.3.58 0 1.04-.17 1.4-.53.35-.35.52-.84.52-1.46v-.27c0-.08-.05-.13-.14-.13h-.6zM166.62 122.98c-.2 0-.37-.07-.5-.22-.15-.14-.22-.32-.22-.52s.07-.36.2-.5c.15-.15.32-.22.52-.22h.72c.1 0 .13-.04.13-.13v-1.87c0-.23.08-.43.25-.6s.36-.26.6-.26h.3c.22 0 .42.1.6.26s.25.37.25.6v1.86c0 .08.04.12.13.12h1.7c.2 0 .4.07.53.2.15.15.22.32.22.52s-.07.38-.22.52c-.14.15-.32.22-.52.22h-1.7c-.1 0-.13.04-.13.12v3.03c0 .65.07 1.07.2 1.26.15.18.44.28.88.28.24 0 .42 0 .54-.03.2-.03.36.02.5.13.16.1.24.26.24.45 0 .22-.07.42-.22.6-.15.17-.32.26-.53.28-.45.06-.78.08-1 .08-.97 0-1.65-.2-2.04-.63-.4-.4-.6-1.15-.6-2.22v-3.23c0-.08-.03-.12-.12-.12h-.72zM175.42 119.58c-.23 0-.43-.1-.6-.26s-.26-.37-.26-.6v-.1c0-.22.1-.42.26-.6s.37-.25.6-.25h.4c.22 0 .42.1.6.26s.25.37.25.6v.1c0 .22-.1.42-.26.6s-.36.25-.6.25h-.38zm0 9.45c-.23 0-.43-.1-.6-.26s-.26-.37-.26-.6v-6.1c0-.22.1-.42.26-.6s.37-.25.6-.25h.4c.22 0 .42.1.6.26s.25.37.25.6v6.1c0 .22-.1.42-.26.6s-.36.25-.6.25h-.38zM185.25 128.12c-.66.7-1.6 1.06-2.8 1.06-1.2 0-2.13-.36-2.8-1.06s-1-1.7-1-3 .34-2.28 1-3 1.6-1.05 2.8-1.05c1.2 0 2.14.36 2.8 1.06s1 1.7 1 3-.33 2.28-1 3zm-1.47-4.97c-.3-.4-.73-.62-1.32-.62s-1.04.2-1.33.62-.44 1.08-.44 1.98c0 .9.13 1.55.43 1.97s.74.62 1.33.62 1.03-.2 1.32-.62.45-1.07.45-1.97c0-.9-.15-1.56-.45-1.98zM188.65 129.03c-.23 0-.43-.1-.6-.26s-.26-.37-.26-.6v-6.1c0-.22.08-.42.25-.6s.37-.25.6-.25h.2c.24 0 .44.1.6.25s.26.37.27.6v.13l.04-.02c.68-.74 1.48-1.1 2.38-1.1s1.58.25 2 .77c.4.5.6 1.37.6 2.57v3.75c0 .23-.07.43-.24.6s-.37.25-.6.25h-.26c-.23 0-.42-.08-.6-.25-.15-.17-.24-.37-.24-.6v-3.6c0-.75-.1-1.27-.3-1.54-.18-.27-.53-.4-1.03-.4-.4 0-.8.16-1.14.5-.35.36-.53.74-.53 1.14v3.9c0 .23-.08.43-.25.6s-.37.25-.6.25h-.3zM202 129.03c-.23 0-.43-.1-.6-.26s-.24-.37-.24-.6V119c0-.23.08-.45.24-.64.16-.2.36-.3.6-.32.85-.07 1.67-.1 2.46-.1 1.5 0 2.63.28 3.38.88s1.12 1.46 1.12 2.6c0 1.24-.36 2.18-1.1 2.82-.7.64-1.8.96-3.2.96-.34 0-.77-.02-1.3-.06-.1 0-.13.04-.13.12v2.9c0 .24-.1.44-.26.6s-.37.27-.6.27H202zm1.23-9.25v3.62c0 .07.04.1.12.13.38.06.75.08 1.1.08.82 0 1.44-.17 1.86-.52.44-.36.65-.86.65-1.52 0-1.33-.83-2-2.5-2-.35 0-.72.03-1.1.08-.08.02-.12.06-.12.14zM211.28 129.03c-.22 0-.43-.1-.6-.26s-.25-.37-.25-.6v-6.1c0-.22.1-.42.26-.6s.36-.25.6-.25h.3c.2 0 .42.1.6.26s.24.37.24.6v.63c0 .02 0 .03.02.03s.03 0 .03-.02c.28-.4.66-.72 1.13-.97.47-.26.98-.42 1.54-.48.2-.02.4.05.54.2.16.16.24.34.24.56 0 .22-.08.4-.23.54-.14.15-.32.24-.53.26-1.77.14-2.65 1.04-2.65 2.7v2.67c0 .23-.1.43-.26.6s-.37.26-.6.26h-.38zM223.77 128.12c-.66.7-1.6 1.06-2.8 1.06-1.2 0-2.13-.36-2.8-1.06s-1-1.7-1-3 .34-2.28 1-3 1.6-1.05 2.8-1.05c1.2 0 2.14.36 2.8 1.06s1 1.7 1 3-.33 2.28-1 3zm-1.47-4.97c-.3-.4-.74-.62-1.33-.62s-1.03.2-1.32.62-.45 1.08-.45 1.98c0 .9.15 1.55.45 1.97s.73.62 1.32.62 1.04-.2 1.33-.62.44-1.07.44-1.97c0-.9-.14-1.56-.44-1.98zM225.85 132.3c-.23.02-.42-.05-.58-.2-.15-.16-.23-.35-.23-.57 0-.2.08-.4.24-.56.16-.16.35-.25.57-.27.67-.04 1.1-.18 1.3-.42.2-.24.3-.7.3-1.4v-6.8c0-.23.07-.43.24-.6s.36-.26.6-.26h.4c.23 0 .43.1.6.26s.24.37.24.6v6.8c0 1.26-.25 2.14-.74 2.62-.5.48-1.48.75-2.95.8zm2.85-14.53c.23 0 .43.1.6.26s.24.37.24.6v.1c0 .22-.08.42-.25.6s-.37.25-.6.25h-.4c-.24 0-.44-.1-.6-.26s-.26-.37-.26-.6v-.1c0-.22.08-.42.25-.6s.36-.24.6-.24h.4zM235.6 129.18c-1.3 0-2.3-.35-3-1.03-.7-.7-1.07-1.7-1.07-3.02s.32-2.33.95-3.02 1.54-1.02 2.73-1.02c2.23 0 3.37 1.26 3.43 3.78 0 .24-.08.44-.26.6-.18.16-.4.24-.63.24h-4.1c-.08 0-.12.04-.1.13.07.67.3 1.16.67 1.46s.93.45 1.65.45c.45 0 .95-.07 1.5-.23.18-.04.35 0 .5.1.16.1.24.26.24.45 0 .23-.08.43-.2.6s-.33.28-.55.32c-.56.12-1.14.18-1.74.18zm-.36-6.7c-.5 0-.9.13-1.18.42-.27.28-.45.74-.52 1.37 0 .08.04.12.12.12h2.94c.08 0 .12-.05.12-.13-.04-1.2-.53-1.8-1.48-1.8zM243.6 129.18c-1.25 0-2.2-.35-2.87-1.03-.67-.7-1-1.7-1-3.02 0-1.3.3-2.32.96-3 .64-.7 1.55-1.05 2.74-1.05.53 0 1.04.03 1.53.1.23.03.42.14.57.3.15.2.23.4.23.64 0 .2-.08.36-.23.48s-.34.16-.54.12c-.4-.08-.82-.12-1.3-.12-.63 0-1.1.2-1.4.6-.32.4-.48 1.04-.48 1.92 0 .9.17 1.55.5 1.94.33.4.84.58 1.53.58.5 0 .9-.04 1.27-.13.2-.04.36 0 .52.1.15.13.23.3.23.48 0 .24-.07.45-.22.63-.14.2-.33.3-.56.34-.52.1-1.02.14-1.5.14zM248.2 122.98c-.2 0-.36-.07-.5-.22-.14-.14-.2-.32-.2-.52s.06-.36.2-.5c.14-.15.3-.22.5-.22h.73c.1 0 .14-.04.14-.13v-1.87c0-.23.08-.43.25-.6s.36-.26.6-.26h.3c.22 0 .42.1.6.26s.25.37.25.6v1.86c0 .08.04.12.13.12h1.7c.2 0 .38.07.53.2.14.15.2.32.2.52.02.2-.06.38-.2.52-.15.15-.32.22-.52.22h-1.7c-.1 0-.14.04-.14.12v3.03c0 .65.07 1.07.2 1.26.16.18.45.28.88.28.24 0 .43 0 .54-.03.2-.03.38.02.53.13.16.1.23.26.23.45 0 .22-.07.42-.2.6-.16.17-.34.26-.55.28-.44.06-.77.08-1 .08-.96 0-1.64-.2-2.03-.63-.4-.4-.58-1.15-.58-2.22v-3.23c0-.08-.04-.12-.14-.12h-.72zM260.26 128.95c-.24-.06-.44-.2-.6-.4-.14-.2-.2-.44-.2-.7v-.16c0-.2.07-.36.24-.47s.34-.14.53-.08c.66.22 1.3.33 1.95.33.65 0 1.12-.2 1.43-.6.3-.4.47-1.1.47-2.05v-5.9c0-.23.08-.43.25-.6.17-.17.37-.26.6-.26h.48c.23 0 .43.1.6.26.16.17.24.37.24.6v6.3c0 1.4-.3 2.4-.93 3.02s-1.6.93-2.96.93c-.75 0-1.44-.08-2.08-.23zM270.3 129.18c-.7 0-1.25-.23-1.7-.67-.44-.44-.66-1-.66-1.72 0-.87.33-1.55 1-2.03.66-.48 1.68-.72 3.05-.72h.6c.1 0 .14-.04.14-.14v-.13c0-.46-.1-.78-.33-.96-.2-.18-.6-.27-1.16-.27-.58 0-1.3.1-2.13.3-.17.06-.34.03-.5-.08s-.2-.27-.2-.46c0-.24.06-.45.2-.63.14-.2.32-.3.54-.34.76-.17 1.47-.26 2.14-.26 1.28 0 2.18.23 2.7.7.5.45.75 1.26.75 2.4v4c0 .23-.08.43-.25.6-.16.17-.36.25-.6.25h-.15c-.24 0-.45-.08-.62-.24s-.25-.37-.26-.6v-.22-.02c-.03 0-.04 0-.04.02-.6.8-1.45 1.22-2.5 1.22zm1.7-3.9c-1.44 0-2.16.44-2.16 1.32 0 .32.1.58.28.77.18.2.42.3.7.3.58 0 1.04-.17 1.4-.53.34-.35.52-.84.52-1.46v-.27c0-.08-.05-.13-.14-.13h-.6zM277.58 132.32c-.23 0-.43-.08-.6-.25s-.25-.37-.25-.6v-9.4c0-.22.08-.42.25-.6s.37-.25.6-.25h.18c.24 0 .45.1.62.25s.26.37.27.6v.13l.04-.02c.35-.4.7-.68 1.07-.85.36-.17.78-.26 1.26-.26.94 0 1.7.36 2.25 1.06.56.7.84 1.7.84 3 0 1.24-.3 2.23-.87 2.96-.6.7-1.33 1.07-2.22 1.07-.87 0-1.62-.3-2.26-.94l-.03-.02-.02.03v3.24c0 .23-.08.43-.24.6s-.37.25-.6.25h-.3zm1.13-8.2v2.02c0 .4.18.76.53 1.07.34.32.74.48 1.2.48.53 0 .95-.22 1.26-.65.3-.43.46-1.07.46-1.9 0-1.7-.58-2.56-1.73-2.56-.46 0-.86.16-1.2.47-.35.3-.52.66-.52 1.06zM287.72 129.18c-.68 0-1.24-.23-1.7-.67-.43-.44-.65-1-.65-1.72 0-.87.33-1.55 1-2.03.66-.48 1.68-.72 3.05-.72h.6c.1 0 .15-.04.15-.14v-.13c0-.46-.1-.78-.33-.96-.22-.18-.6-.27-1.17-.27-.58 0-1.3.1-2.13.3-.18.06-.35.03-.5-.08s-.22-.27-.22-.46c0-.24.07-.45.2-.63.15-.2.33-.3.55-.34.76-.17 1.47-.26 2.14-.26 1.3 0 2.2.23 2.7.7.5.45.76 1.26.76 2.4v4c0 .23-.08.43-.25.6-.15.17-.35.25-.58.25h-.16c-.24 0-.45-.08-.62-.24s-.26-.37-.27-.6v-.22-.02c-.03 0-.04 0-.04.02-.6.8-1.45 1.22-2.5 1.22zm1.7-3.9c-1.43 0-2.15.44-2.15 1.32 0 .32.1.58.28.77.18.2.42.3.7.3.58 0 1.04-.17 1.4-.53.34-.35.52-.84.52-1.46v-.27c0-.08-.05-.13-.14-.13h-.6zM295 129.03c-.22 0-.42-.1-.6-.26s-.24-.37-.24-.6v-6.1c0-.22.08-.42.25-.6s.38-.25.6-.25h.2c.25 0 .45.1.6.25s.27.37.28.6v.13l.04-.02c.68-.74 1.48-1.1 2.4-1.1s1.56.25 1.97.77c.4.5.62 1.37.62 2.57v3.75c0 .23-.1.43-.26.6s-.37.25-.6.25H300c-.22 0-.42-.08-.6-.25-.15-.17-.23-.37-.23-.6v-3.6c0-.75-.1-1.27-.3-1.54-.2-.27-.54-.4-1.04-.4-.4 0-.8.16-1.14.5-.36.36-.53.74-.53 1.14v3.9c0 .23-.1.43-.26.6s-.36.25-.6.25h-.3z"/>
  </g>
  <path fill="#93D8AF" d="M196 100.32h17V76.44c4.08 2.02 8.66 3.16 13.5 3.16 16.82 0 30.5-13.68 30.5-30.5s-13.68-30.5-30.5-30.5c-16.6 0-30.14 13.27-30.5 29.78v51.94zm30.5-37.72c-7.44 0-13.5-6.05-13.5-13.5s6.06-13.5 13.5-13.5S240 41.66 240 49.1s-6.05 13.5-13.5 13.5z"/>
  <path fill="#FFC115" d="M282.75 99.2h7.84V88.18c1.87.94 4 1.46 6.22 1.46 7.77 0 14.08-6.3 14.08-14.07s-6.3-14.08-14.07-14.08c-7.66 0-13.92 6.1-14.08 13.73V99.2zm14.07-17.4c-3.43 0-6.23-2.8-6.23-6.23 0-3.44 2.8-6.23 6.22-6.23s6.23 2.8 6.23 6.23c0 3.43-2.8 6.23-6.23 6.23z"/>
  <path fill="#93D8AF" d="M192 78.82V48.3c.1-3.6.72-7.1 1.86-10.42-4.48-11.28-15.5-19.28-28.35-19.28-16.8 0-30.5 13.7-30.5 30.5s13.7 30.5 30.5 30.5c4.85 0 9.43-1.14 13.5-3.15v2.37h13zM165.5 62.6c-7.44 0-13.5-6.05-13.5-13.5s6.06-13.5 13.5-13.5S179 41.66 179 49.1s-6.05 13.5-13.5 13.5z"/>
  <path fill="#91E51A" d="M48.66 79.6c-16.8 0-30.5-13.68-30.5-30.5s13.7-30.5 30.5-30.5 30.5 13.7 30.5 30.5-13.68 30.5-30.5 30.5zm0-44c-7.44 0-13.5 6.06-13.5 13.5s6.06 13.5 13.5 13.5 13.5-6.05 13.5-13.5-6.05-13.5-13.5-13.5zM109.66 18.6c-12.76 0-23.7 7.88-28.24 19.03 1.13 3.4 1.74 7.03 1.74 10.8 0 5.82-1.45 11.3-4 16.1v35.8h17v-23.9c4.08 2.03 8.66 3.17 13.5 3.17 16.82 0 30.5-13.68 30.5-30.5s-13.68-30.5-30.5-30.5zm0 44c-7.44 0-13.5-6.05-13.5-13.5s6.06-13.5 13.5-13.5 13.5 6.06 13.5 13.5-6.05 13.5-13.5 13.5z"/>
  <path fill="#FFC115" d="M268.65 75.1V87.6c0 3.43-2.8 6.23-6.23 6.23-1.73 0-3.3-.7-4.42-1.86l-5.55 5.54c2.55 2.56 6.08 4.15 9.98 4.15 7.65 0 13.9-6.13 14.07-13.75V75.1h-7.85z"/>
</svg>
