<?xml version="1.0" encoding="UTF-8" standalone="no"?>
<!-- Generator: Adobe Illustrator 19.2.1, SVG Export Plug-In . SVG Version: 6.00 Build 0)  -->

<svg
   xmlns:dc="http://purl.org/dc/elements/1.1/"
   xmlns:cc="http://creativecommons.org/ns#"
   xmlns:rdf="http://www.w3.org/1999/02/22-rdf-syntax-ns#"
   xmlns:svg="http://www.w3.org/2000/svg"
   xmlns="http://www.w3.org/2000/svg"
   xmlns:sodipodi="http://sodipodi.sourceforge.net/DTD/sodipodi-0.dtd"
   xmlns:inkscape="http://www.inkscape.org/namespaces/inkscape"
   version="1.1"
   id="レイヤー_1"
   x="0px"
   y="0px"
   viewBox="0 0 140 500"
   enable-background="new 0 0 140 500"
   xml:space="preserve"
   inkscape:version="0.91 r13725"
   sodipodi:docname="slogan.svg"><metadata
     id="metadata3717"><rdf:RDF><cc:Work
         rdf:about=""><dc:format>image/svg+xml</dc:format><dc:type
           rdf:resource="http://purl.org/dc/dcmitype/StillImage" /><dc:title /></cc:Work></rdf:RDF></metadata><defs
     id="defs3715"><filter
       style="color-interpolation-filters:sRGB;"
       inkscape:label="Drop Shadow"
       id="filter3410"><feFlood
         flood-opacity="0.752941"
         flood-color="rgb(0,0,0)"
         result="flood"
         id="feFlood3412" /><feComposite
         in="flood"
         in2="SourceGraphic"
         operator="in"
         result="composite1"
         id="feComposite3414" /><feGaussianBlur
         in="composite1"
         stdDeviation="3"
         result="blur"
         id="feGaussianBlur3416" /><feOffset
         dx="3"
         dy="3"
         result="offset"
         id="feOffset3418" /><feComposite
         in="SourceGraphic"
         in2="offset"
         operator="over"
         result="composite2"
         id="feComposite3420" /></filter></defs><sodipodi:namedview
     pagecolor="#ffffff"
     bordercolor="#666666"
     borderopacity="1"
     objecttolerance="10"
     gridtolerance="10"
     guidetolerance="10"
     inkscape:pageopacity="0"
     inkscape:pageshadow="2"
     inkscape:window-width="1920"
     inkscape:window-height="1137"
     id="namedview3713"
     showgrid="false"
     inkscape:zoom="1.888"
     inkscape:cx="-57.615676"
     inkscape:cy="356.42174"
     inkscape:window-x="-8"
     inkscape:window-y="-8"
     inkscape:window-maximized="1"
     inkscape:current-layer="レイヤー_1" /><g
     id="g3579" /><g
     id="g3804"
     style="filter:url(#filter3410)"><g
       id="g3583"
       style=""><g
         id="g3585"
         style=""><path
           id="path3587"
           d="M17.2,47.8     c2.9,0,5.2,2.4,5.2,5.2s-2.4,5.2-5.2,5.2s-5.2-2.4-5.2-5.2S14.3,47.8,17.2,47.8z"
           stroke-linejoin="round"
           stroke-linecap="round"
           stroke-width="6"
           stroke="#FFFFFF"
           fill="none"
           style="" /><path
           id="path3589"
           d="M17.2,85.7     c2.9,0,5.2,2.4,5.2,5.2s-2.4,5.2-5.2,5.2s-5.2-2.4-5.2-5.2S14.3,85.7,17.2,85.7z"
           stroke-linejoin="round"
           stroke-linecap="round"
           stroke-width="6"
           stroke="#FFFFFF"
           fill="none"
           style="" /><path
           id="path3591"
           d="M17.2,123.6     c2.9,0,5.2,2.4,5.2,5.2s-2.4,5.2-5.2,5.2s-5.2-2.4-5.2-5.2S14.3,123.6,17.2,123.6z"
           stroke-linejoin="round"
           stroke-linecap="round"
           stroke-width="6"
           stroke="#FFFFFF"
           fill="none"
           style="" /><path
           id="path3593"
           d="M17.2,161.4     c2.9,0,5.2,2.4,5.2,5.2s-2.4,5.2-5.2,5.2s-5.2-2.4-5.2-5.2S14.3,161.4,17.2,161.4z"
           stroke-linejoin="round"
           stroke-linecap="round"
           stroke-width="6"
           stroke="#FFFFFF"
           fill="none"
           style="" /></g><g
         id="g3595"
         style=""><path
           id="path3597"
           d="M17.2,47.8c2.9,0,5.2,2.4,5.2,5.2s-2.4,5.2-5.2,5.2s-5.2-2.4-5.2-5.2S14.3,47.8,17.2,47.8z"
           fill="#E0228F"
           style="" /><path
           id="path3599"
           d="M17.2,85.7c2.9,0,5.2,2.4,5.2,5.2s-2.4,5.2-5.2,5.2s-5.2-2.4-5.2-5.2S14.3,85.7,17.2,85.7z"
           fill="#E0228F"
           style="" /><path
           id="path3601"
           d="M17.2,123.6c2.9,0,5.2,2.4,5.2,5.2s-2.4,5.2-5.2,5.2s-5.2-2.4-5.2-5.2S14.3,123.6,17.2,123.6z"
           fill="#E0228F"
           style="" /><path
           id="path3603"
           d="M17.2,161.4c2.9,0,5.2,2.4,5.2,5.2s-2.4,5.2-5.2,5.2s-5.2-2.4-5.2-5.2S14.3,161.4,17.2,161.4z"
           fill="#E0228F"
           style="" /></g></g><g
       id="g3605"
       style=""><g
         id="g3609"
         style=""><g
           id="g3611"
           style=""><path
             fill="none"
             stroke="#FFFFFF"
             stroke-width="6"
             stroke-linecap="round"
             stroke-linejoin="round"
             id="path3613"
             d="M106.3,35.5     c-3.4,9.9-8.5,17.1-15.6,21c-0.7-1.2-2.5-3.5-3.5-4.7c6.7-3,11.1-9.4,13.8-17.9L106.3,35.5z M96.2,34.2l-5-0.7l1.6-11.1l15.1,2.1     l0.8-5.7l5.5,0.8l-0.8,5.7l15.6,2.2l-1.6,11.1l-5.2-0.7l0.9-6.2l-26-3.7L96.2,34.2z M118,36.3c0.7,8.2,3.3,16,8.4,20.6     c-1.4,0.8-3.4,2.6-4.5,3.9c-5.6-5.6-8.1-14.2-9-24.1L118,36.3z"
             style="" /><path
             fill="none"
             stroke="#FFFFFF"
             stroke-width="6"
             stroke-linecap="round"
             stroke-linejoin="round"
             id="path3615"
             d="M106.8,74     c-1.9,0.5-4.2,0.9-6.4,1.1c-0.3,1.4-0.6,2.9-1,4.2C98.2,84,96,90.7,94.2,94.6L89.6,93c2-3.3,4.5-10.2,5.7-14.8     c0.2-0.9,0.5-1.8,0.7-2.8c-0.8,0-1.5,0.1-2.2,0.1c-1.6,0-2.8-0.1-4-0.1l-0.1-4.1c1.7,0.2,2.8,0.2,4.1,0.2c1,0,1.9,0,3-0.1     c0.1-0.7,0.2-1.4,0.3-1.9c0.2-1.2,0.2-2.6,0.1-3.3l5.1,0.4c-0.2,0.9-0.6,2.4-0.7,3.1l-0.3,1.2c1.8-0.3,3.7-0.6,5.5-1.1V74z      M106.2,84.8c-0.2,1-0.4,2-0.4,2.8c0,1.4,0.8,2.5,4.4,2.5c2.2,0,4.5-0.3,6.9-0.7l-0.2,4.2c-1.9,0.3-4.1,0.5-6.7,0.5     c-5.6,0-8.4-1.9-8.4-5.3c0-1.5,0.3-3.1,0.5-4.4L106.2,84.8z M104.3,76.5c1.8-0.2,4.2-0.3,6.3-0.3c1.9,0,3.9,0.1,5.8,0.3l-0.1,4     c-1.6-0.2-3.7-0.4-5.7-0.4c-2.3,0-4.3,0.1-6.3,0.3V76.5z M113,73.2c-0.7-1.4-1.7-3.4-2.7-4.6l2.7-1.1c0.8,1.2,2,3.3,2.6,4.6     L113,73.2z M116.9,65.9c0.9,1.2,2.1,3.4,2.7,4.5l-2.7,1.1c-0.6-1.4-1.7-3.3-2.7-4.6L116.9,65.9z"
             style="" /><path
             fill="none"
             stroke="#FFFFFF"
             stroke-width="6"
             stroke-linecap="round"
             stroke-linejoin="round"
             id="path3617"
             d="M97.7,114.5     c3-2.2,6.2-3.1,9.7-3.1c5.8,0,9.2,3.6,9.2,7.6c0,6.1-4.8,10.7-18.5,9.5l-1.3-4.3c9.9,1.4,15.2-1,15.2-5.3c0-2.2-2-3.7-4.9-3.7     c-3.8,0-7.1,1.4-9.2,3.9c-0.6,0.8-0.9,1.3-1.2,1.9l-3.8-1c0.6-3.2,1.4-9.7,1.6-13.8l4.5,0.6C98.4,108.6,97.9,112.6,97.7,114.5z      M98.7,100.1c3.1,1,10.3,2.2,13.2,2.6l-1,4.1c-3.3-0.5-10.8-2-13.3-2.7L98.7,100.1z"
             style="" /><path
             fill="none"
             stroke="#FFFFFF"
             stroke-width="6"
             stroke-linecap="round"
             stroke-linejoin="round"
             id="path3619"
             d="M96.9,135.5     c-0.3,0.8-0.6,2-0.8,2.7c-0.8,3.7-2,10.2-1.1,14.3c0.4-1,1.1-2.6,1.6-3.8l2.1,1.3c-1,2.9-1.8,6.2-2.3,8.1     c-0.1,0.5-0.2,1.3-0.2,1.6c0,0.4,0.1,1,0.1,1.4l-3.7,0.4c-0.7-2-1.9-6.6-1.9-10.7c0-5.4,0.7-10.2,1.1-12.9c0.2-0.9,0.2-2,0.2-2.9     L96.9,135.5z M118.1,145.1c-1.4,0.1-3.1,0.3-4.9,0.4v1.1c0,7.8-0.6,12.6-7.2,16.8l-3.8-3c1.3-0.6,2.9-1.6,3.9-2.6     c2.5-2.7,3-5.6,3-11.2v-0.9c-1.2,0-2.5,0.1-3.7,0.1c-1.4,0-3.4-0.1-5.1-0.2v-4.2c1.6,0.2,3.3,0.4,5.1,0.4c1.2,0,2.4,0,3.7-0.1     c0-1.8-0.1-3.5-0.1-4.4c-0.1-0.7-0.2-1.7-0.4-2.3h4.8c-0.1,0.8-0.1,1.5-0.2,2.3c0,0.7,0,2.4,0,4.2c1.9-0.2,3.6-0.4,5-0.6V145.1z"
             style="" /><path
             fill="none"
             stroke="#FFFFFF"
             stroke-width="6"
             stroke-linecap="round"
             stroke-linejoin="round"
             id="path3621"
             d="M90.9,195.9     c0-2.1,1.5-3.7,3.5-3.7s3.5,1.6,3.5,3.7c0,2.1-1.5,3.7-3.5,3.7S90.9,197.9,90.9,195.9z M91.7,175.3l-0.2-5.3h5.7l-0.2,5.3     l-0.8,14.1h-3.7L91.7,175.3z"
             style="" /><path
             fill="none"
             stroke="#FFFFFF"
             stroke-width="6"
             stroke-linecap="round"
             stroke-linejoin="round"
             id="path3623"
             d="M113.7,177.1     c0-1.9-1.3-3.1-3.2-3.1c-1.7,0-3,0.9-4.2,2.1l-3.1-2.8c2-2.3,4.7-3.8,8-3.8c4.6,0,7.9,2.4,7.9,7.3c0,5.4-6.6,7.3-6.1,12.6h-4.9     C107.2,183.2,113.7,180.8,113.7,177.1z M107.1,195.9c0-2.1,1.5-3.7,3.5-3.7c2,0,3.5,1.6,3.5,3.7c0,2.1-1.5,3.7-3.5,3.7     C108.6,199.6,107.1,197.9,107.1,195.9z"
             style="" /><path
             fill="none"
             stroke="#FFFFFF"
             stroke-width="6"
             stroke-linecap="round"
             stroke-linejoin="round"
             id="path3625"
             d="M62,56.5h9v4h-9V69h-4.5     v-8.6H49c-0.6,3.3-2.9,6.6-9.6,8.6c-0.5-1-1.9-2.8-2.8-3.6c4.8-1.3,6.8-3.1,7.6-5h-8.3v-4h8.9v-2.8h4.5v2.8h8.3v-2.8H62V56.5z      M69,40.4c-0.8,2.8-1.9,5.1-3.5,7c1.7,1.1,3.7,2.1,6,2.7c-0.8,0.8-1.9,2.3-2.5,3.3c-2.4-0.8-4.4-1.9-6.2-3.3     c-1.7,1.3-3.7,2.4-6.1,3.3c-0.3-0.9-1.3-2.6-2-3.4c2.1-0.6,3.9-1.5,5.3-2.6c-0.8-1-1.5-2.1-2.2-3.3c-0.6,0.9-1.2,1.7-1.7,2.4     c-0.3-0.6-1.1-1.9-1.7-2.8v5.5c0,1.6-0.2,2.4-1.2,2.9c-1,0.6-2.3,0.6-4,0.6c0-0.9-0.5-2.3-0.8-3.1c1,0,1.9,0,2.3,0     c0.3,0,0.4-0.1,0.4-0.4v-6.8h-3.7v10h-3v-10h-3.9v6.3c0.7-1.5,1.2-3.3,1.5-5.1l2.3,0.5c-0.4,2.1-1.1,4.4-1.8,5.9     c-0.4-0.2-1.3-0.7-1.9-1v3.8h-3.2V39.5H44v-6.1h3.7v6.1h6.8v2.8c1.8-2.4,3.3-5.7,4.3-8.9l3.6,1.1c-0.3,0.8-0.6,1.6-0.9,2.4h9.4     v3.5H69z M39.6,39.4c-0.3-1.2-1.1-3.1-2-4.5l3-1.1c0.9,1.3,1.9,3.2,2.2,4.4L39.6,39.4z M48.7,48.5c-0.2-1.1-0.7-2.9-1.1-4.2     l1.9-0.5c0.5,1.3,1,3,1.2,4.1L48.7,48.5z M54.5,34.7c-0.8,1.7-1.7,3.3-2.5,4.5L49,38.3c0.7-1.2,1.7-3.2,2.2-4.5L54.5,34.7z      M60,40.5c0.6,1.6,1.6,3.1,2.7,4.4c1-1.3,1.7-2.8,2.3-4.5L60,40.5L60,40.5z"
             style="" /><path
             fill="none"
             stroke="#FFFFFF"
             stroke-width="6"
             stroke-linecap="round"
             stroke-linejoin="round"
             id="path3627"
             d="M49.7,97     c-0.8-1.1-2.1-2.7-3.5-4.1v14.6h-4.5V94.1c-1.5,1.4-3.1,2.6-4.7,3.6c-0.4-1.1-1.5-3.4-2.3-4.1c4.2-2.3,8.3-6.3,10.8-10.7h-9.2     v-4.1h5.4v-7h4.5v7h1.7l0.8-0.2l2.6,1.6c-1.1,2.9-2.7,5.7-4.5,8.2c1.8,1.5,4.9,4.1,5.7,4.9L49.7,97z M71.6,101.8v4.4H50v-4.4h8.8     v-14h-7.2v-4.4h7.2V72h4.7v11.4h7.2v4.4h-7.2v14H71.6z"
             style="" /><path
             fill="none"
             stroke="#FFFFFF"
             stroke-width="6"
             stroke-linecap="round"
             stroke-linejoin="round"
             id="path3629"
             d="M67.5,114.7v30.7h-4.9     v-1.9H44.5v1.9h-4.6v-30.7h9.8c0.4-1.6,0.8-3.5,1-5l5.5,0.6c-0.6,1.5-1.2,3-1.8,4.4H67.5z M44.5,119.1v3.9h18.1v-3.9H44.5z      M44.5,127.2v3.9h18.1v-3.9H44.5z M62.6,139.3v-4H44.5v4H62.6z"
             style="" /><path
             fill="none"
             stroke="#FFFFFF"
             stroke-width="6"
             stroke-linecap="round"
             stroke-linejoin="round"
             id="path3631"
             d="M39.8,155.9     c0,3.7-0.5,8.1-1.9,10.9l-2.8-1.3c1.2-2.3,1.8-6.5,1.8-10L39.8,155.9z M46,163.2c-0.2-1.5-0.8-3.7-1.5-5.8v26.2h-4.3V148h4.3v7.1     l1.8-0.7c0.9,2,1.8,4.5,2.2,6.4h21.7v7.9h-22v-6.4L46,163.2z M69.1,170.8c-1.3,3.1-3.2,5.4-5.5,7.3c2.5,0.8,5.2,1.4,8.1,1.8     c-1,0.9-2.1,2.7-2.8,3.9c-3.5-0.6-6.7-1.7-9.6-3.1c-3.2,1.5-7,2.5-11,3.1c-0.4-1.1-1.2-2.8-1.9-3.7c3.2-0.3,6.2-1,8.8-1.9     c-1.5-1.1-2.9-2.4-4-3.7l2.9-1.2h-5.9v-3.6h17.6l0.8-0.2L69.1,170.8z M68.4,159.7H50.1v-10.4h18.3V159.7z M52.3,165.9h2.3v-2.3     h-2.3V165.9z M64.1,151.9h-9.8v1.4h9.8V151.9z M64.1,155.7h-9.8v1.4h9.8V155.7z M55.1,173.3c1.1,1.1,2.6,2.1,4.2,3     c1.4-0.9,2.6-1.9,3.6-3H55.1z M57.9,165.9h2.3v-2.3h-2.3V165.9z M63.5,165.9h2.4v-2.3h-2.4V165.9z"
             style="" /><path
             fill="none"
             stroke="#FFFFFF"
             stroke-width="6"
             stroke-linecap="round"
             stroke-linejoin="round"
             id="path3633"
             d="M54.3,212.2     c1.3-0.1,2.2-0.3,3.1-0.5c4.2-1,7.5-4,7.5-8.8c0-4.6-2.5-8-6.9-8.7c-0.4,2.8-1,5.9-2,8.9c-2,6.7-4.8,10.8-8.4,10.8     c-3.7,0-6.7-4.1-6.7-9.6c0-7.6,6.6-14.2,15.2-14.2c8.2,0,13.3,5.7,13.3,12.9c0,6.9-4.3,11.9-12.6,13.2L54.3,212.2z M51.7,202.2     c0.8-2.4,1.4-5.3,1.8-8c-5.5,1.1-8.4,5.9-8.4,9.6c0,3.3,1.3,4.9,2.6,4.9C49.1,208.7,50.4,206.6,51.7,202.2z"
             style="" /><path
             fill="none"
             stroke="#FFFFFF"
             stroke-width="6"
             stroke-linecap="round"
             stroke-linejoin="round"
             id="path3635"
             d="M55.7,241.5     c2.5-2.3,4.9-5.7,6-7.6c-1.1,0.2-6.2,1.2-11.5,2.3v9.9c0,2.3,0.6,3.1,4.8,3.1c3.9,0,8.1-0.5,11.8-1.2l-0.2,5.1     c-3.1,0.4-7.6,0.8-11.6,0.8c-8.5,0-9.7-2-9.7-6.5v-10.2c-3.4,0.7-6.3,1.3-7.9,1.6l-0.9-4.9c1.8-0.2,5.1-0.8,8.8-1.5v-5.3     c0-1.3-0.1-3.2-0.3-4.3h5.5c-0.2,1.1-0.3,3.1-0.3,4.3v4.4c5.4-1,10.7-2.1,12.4-2.5c1.1-0.3,1.9-0.5,2.7-0.9l3.6,2.8     c-0.3,0.5-0.9,1.4-1.2,2.1c-1.6,3.1-5.1,8.3-7.8,10.9L55.7,241.5z"
             style="" /><path
             fill="none"
             stroke="#FFFFFF"
             stroke-width="6"
             stroke-linecap="round"
             stroke-linejoin="round"
             id="path3637"
             d="M68.8,279.2     c-1,0.1-2.5,0.3-3.9,0.6c-1.8,0.3-5,0.8-8.4,1.3c0.5,3.1,1,5.8,1.2,7c0.3,1.1,0.6,2.4,0.9,3.7l-5.5,0.8c-0.1-1.4-0.2-2.6-0.4-3.8     c-0.2-1.1-0.6-3.7-1.1-6.9c-3.7,0.6-7.1,1.2-8.8,1.5c-1.6,0.3-2.9,0.5-3.7,0.7l-1.1-5c1,0,2.7-0.2,3.9-0.4     c1.7-0.2,5.2-0.8,8.9-1.4l-0.9-5.6c-3.2,0.5-6.2,1-7.3,1.2c-1.3,0.2-2.3,0.5-3.4,0.8l-1-5.2c1.2-0.1,2.3-0.2,3.5-0.3     c1.3-0.2,4.2-0.6,7.5-1.1c-0.3-1.6-0.5-2.9-0.6-3.5c-0.2-1.1-0.5-2-0.7-2.9l5.3-0.7c0.1,0.7,0.2,2,0.3,2.9     c0.1,0.5,0.3,1.8,0.5,3.4c3-0.5,5.7-0.9,7-1.2c1.2-0.2,2.6-0.5,3.6-0.8l0.9,4.9c-0.8,0-2.3,0.3-3.5,0.5l-7.2,1.1l1,5.6     c3.4-0.6,6.5-1.1,8.2-1.4c1.5-0.3,2.9-0.6,3.9-0.9L68.8,279.2z"
             style="" /><path
             fill="none"
             stroke="#FFFFFF"
             stroke-width="6"
             stroke-linecap="round"
             stroke-linejoin="round"
             id="path3639"
             d="M67.5,315.4     c1,0,2.7-0.1,3.7-0.2v4.9c-0.8,0-2.6-0.1-3.6-0.1H48.4c-1.3,0-2.3,0-3.7,0.1v-4.9c1,0.1,2.4,0.2,3.7,0.2h11.8     c0.5-3.2,1.4-8.3,1.5-10.3h-9.8c-1.2,0-2.7,0-3.8,0.1v-4.9c1,0.2,2.7,0.2,3.7,0.2H61c0.8,0,2.3-0.1,2.8-0.4l3.6,1.8     c-0.2,0.5-0.3,1.1-0.3,1.5c-0.3,2.2-1.3,8.4-1.8,12H67.5z"
             style="" /><path
             fill="none"
             stroke="#FFFFFF"
             stroke-width="6"
             stroke-linecap="round"
             stroke-linejoin="round"
             id="path3641"
             d="M47.5,331.2     c-0.1,0.8-0.1,1.7-0.1,2.8v12.7c0,1,0,2.4,0.1,3.3h-5.5c0-0.7,0.2-2.2,0.2-3.3v-12.7c0-0.6,0-2-0.2-2.8H47.5z M64.8,330.9     c-0.1,1.1-0.2,2.3-0.2,3.8v7.4c0,8.1-1.5,11.5-4.4,14.6c-2.4,2.8-6.3,4.5-9.1,5.4l-3.4-4.3c3.3-0.9,6.4-2.1,8.7-4.5     c2.6-2.8,3.1-5.6,3.1-11.5v-7.1c0-1.5-0.1-2.7-0.2-3.8H64.8z"
             style="" /><path
             fill="none"
             stroke="#FFFFFF"
             stroke-width="6"
             stroke-linecap="round"
             stroke-linejoin="round"
             id="path3643"
             d="M65.6,376.1     c0.8,0,2.4-0.1,3.4-0.2v4.9c-1-0.1-2.4-0.1-3.4-0.1h-8.8c-0.2,4-0.8,7.3-2.2,9.9c-1.3,2.6-4.2,5.5-7.5,7.2l-4.4-3.2     c2.7-1,5.3-3.1,6.8-5.3c1.5-2.4,2-5.4,2.1-8.6H42c-1.1,0-2.6,0-3.6,0.1v-4.9c1.1,0.1,2.4,0.2,3.6,0.2H65.6z M46.5,371.3     c-1.3,0-2.9,0.1-4,0.2v-4.8c1.2,0.2,2.7,0.3,4,0.3h15.1c1.3,0,2.8-0.1,4-0.3v4.8c-1.3-0.1-2.7-0.2-4-0.2H46.5z"
             style="" /><path
             fill="none"
             stroke="#FFFFFF"
             stroke-width="6"
             stroke-linecap="round"
             stroke-linejoin="round"
             id="path3645"
             d="M69.2,401.8     c-1.7,1.9-4.6,4.4-7.9,6.5v11.9c0,1.3,0,3.3,0.3,4H56c0.1-0.7,0.2-2.8,0.2-4V411c-3,1.5-6.6,2.9-9.7,3.7l-2.6-4.3     c4.9-1.1,9.5-3,12.5-4.7c3.9-2.2,7.1-5,9.1-7.5L69.2,401.8z"
             style="" /></g><g
           id="g3647"
           style=""><path
             fill="#E0228F"
             id="path3649"
             d="M106.3,35.5c-3.4,9.9-8.5,17.1-15.6,21c-0.7-1.2-2.5-3.5-3.5-4.7c6.7-3,11.1-9.4,13.8-17.9L106.3,35.5z      M96.2,34.2l-5-0.7l1.6-11.1l15.1,2.1l0.8-5.7l5.5,0.8l-0.8,5.7l15.6,2.2l-1.6,11.1l-5.2-0.7l0.9-6.2l-26-3.7L96.2,34.2z      M118,36.3c0.7,8.2,3.3,16,8.4,20.6c-1.4,0.8-3.4,2.6-4.5,3.9c-5.6-5.6-8.1-14.2-9-24.1L118,36.3z"
             style="" /><path
             fill="#007CE2"
             id="path3651"
             d="M106.8,74c-1.9,0.5-4.2,0.9-6.4,1.1c-0.3,1.4-0.6,2.9-1,4.2C98.2,84,96,90.7,94.2,94.6L89.6,93     c2-3.3,4.5-10.2,5.7-14.8c0.2-0.9,0.5-1.8,0.7-2.8c-0.8,0-1.5,0.1-2.2,0.1c-1.6,0-2.8-0.1-4-0.1l-0.1-4.1     c1.7,0.2,2.8,0.2,4.1,0.2c1,0,1.9,0,3-0.1c0.1-0.7,0.2-1.4,0.3-1.9c0.2-1.2,0.2-2.6,0.1-3.3l5.1,0.4c-0.2,0.9-0.6,2.4-0.7,3.1     l-0.3,1.2c1.8-0.3,3.7-0.6,5.5-1.1V74z M106.2,84.8c-0.2,1-0.4,2-0.4,2.8c0,1.4,0.8,2.5,4.4,2.5c2.2,0,4.5-0.3,6.9-0.7l-0.2,4.2     c-1.9,0.3-4.1,0.5-6.7,0.5c-5.6,0-8.4-1.9-8.4-5.3c0-1.5,0.3-3.1,0.5-4.4L106.2,84.8z M104.3,76.5c1.8-0.2,4.2-0.3,6.3-0.3     c1.9,0,3.9,0.1,5.8,0.3l-0.1,4c-1.6-0.2-3.7-0.4-5.7-0.4c-2.3,0-4.3,0.1-6.3,0.3V76.5z M113,73.2c-0.7-1.4-1.7-3.4-2.7-4.6     l2.7-1.1c0.8,1.2,2,3.3,2.6,4.6L113,73.2z M116.9,65.9c0.9,1.2,2.1,3.4,2.7,4.5l-2.7,1.1c-0.6-1.4-1.7-3.3-2.7-4.6L116.9,65.9z"
             style="" /><path
             fill="#007CE2"
             id="path3653"
             d="M97.7,114.5c3-2.2,6.2-3.1,9.7-3.1c5.8,0,9.2,3.6,9.2,7.6c0,6.1-4.8,10.7-18.5,9.5l-1.3-4.3     c9.9,1.4,15.2-1,15.2-5.3c0-2.2-2-3.7-4.9-3.7c-3.8,0-7.1,1.4-9.2,3.9c-0.6,0.8-0.9,1.3-1.2,1.9l-3.8-1c0.6-3.2,1.4-9.7,1.6-13.8     l4.5,0.6C98.4,108.6,97.9,112.6,97.7,114.5z M98.7,100.1c3.1,1,10.3,2.2,13.2,2.6l-1,4.1c-3.3-0.5-10.8-2-13.3-2.7L98.7,100.1z"
             style="" /><path
             fill="#007CE2"
             id="path3655"
             d="M96.9,135.5c-0.3,0.8-0.6,2-0.8,2.7c-0.8,3.7-2,10.2-1.1,14.3c0.4-1,1.1-2.6,1.6-3.8l2.1,1.3     c-1,2.9-1.8,6.2-2.3,8.1c-0.1,0.5-0.2,1.3-0.2,1.6c0,0.4,0.1,1,0.1,1.4l-3.7,0.4c-0.7-2-1.9-6.6-1.9-10.7     c0-5.4,0.7-10.2,1.1-12.9c0.2-0.9,0.2-2,0.2-2.9L96.9,135.5z M118.1,145.1c-1.4,0.1-3.1,0.3-4.9,0.4v1.1c0,7.8-0.6,12.6-7.2,16.8     l-3.8-3c1.3-0.6,2.9-1.6,3.9-2.6c2.5-2.7,3-5.6,3-11.2v-0.9c-1.2,0-2.5,0.1-3.7,0.1c-1.4,0-3.4-0.1-5.1-0.2v-4.2     c1.6,0.2,3.3,0.4,5.1,0.4c1.2,0,2.4,0,3.7-0.1c0-1.8-0.1-3.5-0.1-4.4c-0.1-0.7-0.2-1.7-0.4-2.3h4.8c-0.1,0.8-0.1,1.5-0.2,2.3     c0,0.7,0,2.4,0,4.2c1.9-0.2,3.6-0.4,5-0.6V145.1z"
             style="" /><path
             fill="#007CE2"
             id="path3657"
             d="M90.9,195.9c0-2.1,1.5-3.7,3.5-3.7s3.5,1.6,3.5,3.7c0,2.1-1.5,3.7-3.5,3.7S90.9,197.9,90.9,195.9z      M91.7,175.3l-0.2-5.3h5.7l-0.2,5.3l-0.8,14.1h-3.7L91.7,175.3z"
             style="" /><path
             fill="#007CE2"
             id="path3659"
             d="M113.7,177.1c0-1.9-1.3-3.1-3.2-3.1c-1.7,0-3,0.9-4.2,2.1l-3.1-2.8c2-2.3,4.7-3.8,8-3.8     c4.6,0,7.9,2.4,7.9,7.3c0,5.4-6.6,7.3-6.1,12.6h-4.9C107.2,183.2,113.7,180.8,113.7,177.1z M107.1,195.9c0-2.1,1.5-3.7,3.5-3.7     c2,0,3.5,1.6,3.5,3.7c0,2.1-1.5,3.7-3.5,3.7C108.6,199.6,107.1,197.9,107.1,195.9z"
             style="" /><path
             fill="#007CE2"
             id="path3661"
             d="M62,56.5h9v4h-9V69h-4.5v-8.6H49c-0.6,3.3-2.9,6.6-9.6,8.6c-0.5-1-1.9-2.8-2.8-3.6c4.8-1.3,6.8-3.1,7.6-5     h-8.3v-4h8.9v-2.8h4.5v2.8h8.3v-2.8H62V56.5z M69,40.4c-0.8,2.8-1.9,5.1-3.5,7c1.7,1.1,3.7,2.1,6,2.7c-0.8,0.8-1.9,2.3-2.5,3.3     c-2.4-0.8-4.4-1.9-6.2-3.3c-1.7,1.3-3.7,2.4-6.1,3.3c-0.3-0.9-1.3-2.6-2-3.4c2.1-0.6,3.9-1.5,5.3-2.6c-0.8-1-1.5-2.1-2.2-3.3     c-0.6,0.9-1.2,1.7-1.7,2.4c-0.3-0.6-1.1-1.9-1.7-2.8v5.5c0,1.6-0.2,2.4-1.2,2.9c-1,0.6-2.3,0.6-4,0.6c0-0.9-0.5-2.3-0.8-3.1     c1,0,1.9,0,2.3,0c0.3,0,0.4-0.1,0.4-0.4v-6.8h-3.7v10h-3v-10h-3.9v6.3c0.7-1.5,1.2-3.3,1.5-5.1l2.3,0.5c-0.4,2.1-1.1,4.4-1.8,5.9     c-0.4-0.2-1.3-0.7-1.9-1v3.8h-3.2V39.5H44v-6.1h3.7v6.1h6.8v2.8c1.8-2.4,3.3-5.7,4.3-8.9l3.6,1.1c-0.3,0.8-0.6,1.6-0.9,2.4h9.4     v3.5H69z M39.6,39.4c-0.3-1.2-1.1-3.1-2-4.5l3-1.1c0.9,1.3,1.9,3.2,2.2,4.4L39.6,39.4z M48.7,48.5c-0.2-1.1-0.7-2.9-1.1-4.2     l1.9-0.5c0.5,1.3,1,3,1.2,4.1L48.7,48.5z M54.5,34.7c-0.8,1.7-1.7,3.3-2.5,4.5L49,38.3c0.7-1.2,1.7-3.2,2.2-4.5L54.5,34.7z      M60,40.5c0.6,1.6,1.6,3.1,2.7,4.4c1-1.3,1.7-2.8,2.3-4.5L60,40.5L60,40.5z"
             style="" /><path
             fill="#007CE2"
             id="path3663"
             d="M49.7,97c-0.8-1.1-2.1-2.7-3.5-4.1v14.6h-4.5V94.1c-1.5,1.4-3.1,2.6-4.7,3.6c-0.4-1.1-1.5-3.4-2.3-4.1     c4.2-2.3,8.3-6.3,10.8-10.7h-9.2v-4.1h5.4v-7h4.5v7h1.7l0.8-0.2l2.6,1.6c-1.1,2.9-2.7,5.7-4.5,8.2c1.8,1.5,4.9,4.1,5.7,4.9     L49.7,97z M71.6,101.8v4.4H50v-4.4h8.8v-14h-7.2v-4.4h7.2V72h4.7v11.4h7.2v4.4h-7.2v14H71.6z"
             style="" /><path
             fill="#007CE2"
             id="path3665"
             d="M67.5,114.7v30.7h-4.9v-1.9H44.5v1.9h-4.6v-30.7h9.8c0.4-1.6,0.8-3.5,1-5l5.5,0.6c-0.6,1.5-1.2,3-1.8,4.4     H67.5z M44.5,119.1v3.9h18.1v-3.9H44.5z M44.5,127.2v3.9h18.1v-3.9H44.5z M62.6,139.3v-4H44.5v4H62.6z"
             style="" /><path
             fill="#007CE2"
             id="path3667"
             d="M39.8,155.9c0,3.7-0.5,8.1-1.9,10.9l-2.8-1.3c1.2-2.3,1.8-6.5,1.8-10L39.8,155.9z M46,163.2     c-0.2-1.5-0.8-3.7-1.5-5.8v26.2h-4.3V148h4.3v7.1l1.8-0.7c0.9,2,1.8,4.5,2.2,6.4h21.7v7.9h-22v-6.4L46,163.2z M69.1,170.8     c-1.3,3.1-3.2,5.4-5.5,7.3c2.5,0.8,5.2,1.4,8.1,1.8c-1,0.9-2.1,2.7-2.8,3.9c-3.5-0.6-6.7-1.7-9.6-3.1c-3.2,1.5-7,2.5-11,3.1     c-0.4-1.1-1.2-2.8-1.9-3.7c3.2-0.3,6.2-1,8.8-1.9c-1.5-1.1-2.9-2.4-4-3.7l2.9-1.2h-5.9v-3.6h17.6l0.8-0.2L69.1,170.8z      M68.4,159.7H50.1v-10.4h18.3V159.7z M52.3,165.9h2.3v-2.3h-2.3V165.9z M64.1,151.9h-9.8v1.4h9.8V151.9z M64.1,155.7h-9.8v1.4     h9.8V155.7z M55.1,173.3c1.1,1.1,2.6,2.1,4.2,3c1.4-0.9,2.6-1.9,3.6-3H55.1z M57.9,165.9h2.3v-2.3h-2.3V165.9z M63.5,165.9h2.4     v-2.3h-2.4V165.9z"
             style="" /><path
             fill="#007CE2"
             id="path3669"
             d="M54.3,212.2c1.3-0.1,2.2-0.3,3.1-0.5c4.2-1,7.5-4,7.5-8.8c0-4.6-2.5-8-6.9-8.7c-0.4,2.8-1,5.9-2,8.9     c-2,6.7-4.8,10.8-8.4,10.8c-3.7,0-6.7-4.1-6.7-9.6c0-7.6,6.6-14.2,15.2-14.2c8.2,0,13.3,5.7,13.3,12.9c0,6.9-4.3,11.9-12.6,13.2     L54.3,212.2z M51.7,202.2c0.8-2.4,1.4-5.3,1.8-8c-5.5,1.1-8.4,5.9-8.4,9.6c0,3.3,1.3,4.9,2.6,4.9     C49.1,208.7,50.4,206.6,51.7,202.2z"
             style="" /><path
             fill="#E0228F"
             id="path3671"
             d="M55.7,241.5c2.5-2.3,4.9-5.7,6-7.6c-1.1,0.2-6.2,1.2-11.5,2.3v9.9c0,2.3,0.6,3.1,4.8,3.1     c3.9,0,8.1-0.5,11.8-1.2l-0.2,5.1c-3.1,0.4-7.6,0.8-11.6,0.8c-8.5,0-9.7-2-9.7-6.5v-10.2c-3.4,0.7-6.3,1.3-7.9,1.6l-0.9-4.9     c1.8-0.2,5.1-0.8,8.8-1.5v-5.3c0-1.3-0.1-3.2-0.3-4.3h5.5c-0.2,1.1-0.3,3.1-0.3,4.3v4.4c5.4-1,10.7-2.1,12.4-2.5     c1.1-0.3,1.9-0.5,2.7-0.9l3.6,2.8c-0.3,0.5-0.9,1.4-1.2,2.1c-1.6,3.1-5.1,8.3-7.8,10.9L55.7,241.5z"
             style="" /><path
             fill="#E0228F"
             id="path3673"
             d="M68.8,279.2c-1,0.1-2.5,0.3-3.9,0.6c-1.8,0.3-5,0.8-8.4,1.3c0.5,3.1,1,5.8,1.2,7c0.3,1.1,0.6,2.4,0.9,3.7     l-5.5,0.8c-0.1-1.4-0.2-2.6-0.4-3.8c-0.2-1.1-0.6-3.7-1.1-6.9c-3.7,0.6-7.1,1.2-8.8,1.5c-1.6,0.3-2.9,0.5-3.7,0.7l-1.1-5     c1,0,2.7-0.2,3.9-0.4c1.7-0.2,5.2-0.8,8.9-1.4l-0.9-5.6c-3.2,0.5-6.2,1-7.3,1.2c-1.3,0.2-2.3,0.5-3.4,0.8l-1-5.2     c1.2-0.1,2.3-0.2,3.5-0.3c1.3-0.2,4.2-0.6,7.5-1.1c-0.3-1.6-0.5-2.9-0.6-3.5c-0.2-1.1-0.5-2-0.7-2.9l5.3-0.7     c0.1,0.7,0.2,2,0.3,2.9c0.1,0.5,0.3,1.8,0.5,3.4c3-0.5,5.7-0.9,7-1.2c1.2-0.2,2.6-0.5,3.6-0.8l0.9,4.9c-0.8,0-2.3,0.3-3.5,0.5     l-7.2,1.1l1,5.6c3.4-0.6,6.5-1.1,8.2-1.4c1.5-0.3,2.9-0.6,3.9-0.9L68.8,279.2z"
             style="" /><path
             fill="#E0228F"
             id="path3675"
             d="M67.5,315.4c1,0,2.7-0.1,3.7-0.2v4.9c-0.8,0-2.6-0.1-3.6-0.1H48.4c-1.3,0-2.3,0-3.7,0.1v-4.9     c1,0.1,2.4,0.2,3.7,0.2h11.8c0.5-3.2,1.4-8.3,1.5-10.3h-9.8c-1.2,0-2.7,0-3.8,0.1v-4.9c1,0.2,2.7,0.2,3.7,0.2H61     c0.8,0,2.3-0.1,2.8-0.4l3.6,1.8c-0.2,0.5-0.3,1.1-0.3,1.5c-0.3,2.2-1.3,8.4-1.8,12H67.5z"
             style="" /><path
             fill="#E0228F"
             id="path3677"
             d="M47.5,331.2c-0.1,0.8-0.1,1.7-0.1,2.8v12.7c0,1,0,2.4,0.1,3.3h-5.5c0-0.7,0.2-2.2,0.2-3.3v-12.7     c0-0.6,0-2-0.2-2.8H47.5z M64.8,330.9c-0.1,1.1-0.2,2.3-0.2,3.8v7.4c0,8.1-1.5,11.5-4.4,14.6c-2.4,2.8-6.3,4.5-9.1,5.4l-3.4-4.3     c3.3-0.9,6.4-2.1,8.7-4.5c2.6-2.8,3.1-5.6,3.1-11.5v-7.1c0-1.5-0.1-2.7-0.2-3.8H64.8z"
             style="" /><path
             fill="#E0228F"
             id="path3679"
             d="M65.6,376.1c0.8,0,2.4-0.1,3.4-0.2v4.9c-1-0.1-2.4-0.1-3.4-0.1h-8.8c-0.2,4-0.8,7.3-2.2,9.9     c-1.3,2.6-4.2,5.5-7.5,7.2l-4.4-3.2c2.7-1,5.3-3.1,6.8-5.3c1.5-2.4,2-5.4,2.1-8.6H42c-1.1,0-2.6,0-3.6,0.1v-4.9     c1.1,0.1,2.4,0.2,3.6,0.2H65.6z M46.5,371.3c-1.3,0-2.9,0.1-4,0.2v-4.8c1.2,0.2,2.7,0.3,4,0.3h15.1c1.3,0,2.8-0.1,4-0.3v4.8     c-1.3-0.1-2.7-0.2-4-0.2H46.5z"
             style="" /><path
             fill="#E0228F"
             id="path3681"
             d="M69.2,401.8c-1.7,1.9-4.6,4.4-7.9,6.5v11.9c0,1.3,0,3.3,0.3,4H56c0.1-0.7,0.2-2.8,0.2-4V411     c-3,1.5-6.6,2.9-9.7,3.7l-2.6-4.3c4.9-1.1,9.5-3,12.5-4.7c3.9-2.2,7.1-5,9.1-7.5L69.2,401.8z"
             style="" /></g></g></g></g><g
     id="g3683" /><g
     id="g3685" /><g
     id="g3687" /><g
     id="g3689" /><g
     id="g3691" /><g
     id="g3693" /><g
     id="g3695" /><g
     id="g3697" /><g
     id="g3699" /><g
     id="g3701" /><g
     id="g3703" /><g
     id="g3705" /><g
     id="g3707" /><g
     id="g3709" /><g
     id="g3711" /></svg>