<svg xmlns="http://www.w3.org/2000/svg" viewBox="0 0 141.75 57.81"><defs><style>.a,.b{fill:#231815;}.b{stroke:#231815;stroke-miterlimit:10;stroke-width:0.7px;}</style></defs><title>ticket_face</title><path class="a" d="M50,16.53a5.18,5.18,0,0,1-2.13-4.3A5.18,5.18,0,0,1,50,7.93l0.09,0.12a5.87,5.87,0,0,0-1.61,4.17,5.87,5.87,0,0,0,1.61,4.17Z" transform="translate(-6.56 -5.52)"/><path class="a" d="M55.19,14.25a7.11,7.11,0,0,1-2.91,1.87l0-.06a8.08,8.08,0,0,0,2.47-2.67L55.48,14a0.21,0.21,0,0,1,.09.14C55.57,14.24,55.46,14.25,55.19,14.25Zm5.08-4.56H53.52a5.42,5.42,0,0,0-1,.05l-0.15-.32c0.54,0,1.17.05,1.27,0.05H56a3.74,3.74,0,0,0-.19-1.33l1.07,0.25a0.2,0.2,0,0,1,.16.13,0.42,0.42,0,0,1-.27.27c0,0.11,0,.59,0,0.68h2.09L59.31,9a0.21,0.21,0,0,1,.14-0.11,0.37,0.37,0,0,1,.19.11l0.67,0.45a0.15,0.15,0,0,1,.09.13A0.11,0.11,0,0,1,60.27,9.68Zm-1.54,1.48c0,0.4,0,.73,0,1.14,0,0.09,0,.51,0,0.6a0.51,0.51,0,0,1-.49.49c-0.29,0-.29-0.2-0.28-0.52H56.83c0,1.33,0,1.49,0,1.83,0,0.12,0,.59,0,0.69,0,0.28,0,.77-1,1,0-.21,0-0.69-1-1.15l0-.06a9.15,9.15,0,0,0,1.08.14c0.12,0,.19,0,0.2-0.2s0-.75,0-2.3H54.7a0.66,0.66,0,0,1,0,.36,0.51,0.51,0,0,1-.46.28,0.28,0.28,0,0,1-.3-0.3,2.1,2.1,0,0,1,0-.22c0-.14,0-0.62,0-0.79a9.5,9.5,0,0,0-.1-2l0.91,0.49h3.16l0.32-.34a0.19,0.19,0,0,1,.12-0.09,0.23,0.23,0,0,1,.12.08l0.45,0.4a0.25,0.25,0,0,1,.12.16A0.87,0.87,0,0,1,58.73,11.16ZM58,10.85H54.7v1.8H58v-1.8Zm1.44,5c-0.25,0-.33-0.12-0.62-0.57a6,6,0,0,0-1.39-1.54l0-.05c0.91,0.13,2.42.85,2.42,1.71A0.43,0.43,0,0,1,59.46,15.85Z" transform="translate(-6.56 -5.52)"/><path class="a" d="M65.22,10a0.3,0.3,0,0,1,.12-0.1,0.64,0.64,0,0,1,.16.1l0.37,0.28a0.24,0.24,0,0,1,.12.2,0.38,0.38,0,0,1-.26.29A10.26,10.26,0,0,1,65,14.06a1.24,1.24,0,0,1,.77,1,0.37,0.37,0,0,1-.39.39A0.51,0.51,0,0,1,64.88,15l-0.22-.4a4.63,4.63,0,0,1-2.1,1.65l0-.06a6.45,6.45,0,0,0,1.69-2.11,2,2,0,0,0-.44-0.31c-0.12.52-.15,0.66-0.56,0.66a0.26,0.26,0,0,1-.3-0.21,2,2,0,0,1,0-.26c0.28-1.15.56-2.36,0.79-3.49a4,4,0,0,0-.93.06l-0.15-.33c0.32,0,.46,0,1.13.05A13.83,13.83,0,0,0,64,8.66,2.45,2.45,0,0,0,64,8.19l1,0.34a0.18,0.18,0,0,1,.15.17c0,0.12-.1.16-0.32,0.26,0,0.09-.23,1.09-0.28,1.29h0.41Zm-0.74.5c-0.2.89-.5,2.3-0.69,3.19a1.76,1.76,0,0,1,.56.12,9.11,9.11,0,0,0,.65-3.3H64.48ZM69.11,9l0.37-.45a0.21,0.21,0,0,1,.14-0.12,0.33,0.33,0,0,1,.16.1L70.35,9a0.22,0.22,0,0,1,.09.13,0.12,0.12,0,0,1-.14.1h-1.9v1.8H69l0.24-.28a0.21,0.21,0,0,1,.18-0.12,0.23,0.23,0,0,1,.15.08l0.4,0.32a0.2,0.2,0,0,1,.1.17,0.43,0.43,0,0,1-.23.32c0,0.3,0,1.62,0,1.89a0.48,0.48,0,0,1-.52.39c-0.27,0-.27-0.21-0.27-0.41V13.19H68.43v2.1h0.9l0.42-.52a0.21,0.21,0,0,1,.15-0.12,0.33,0.33,0,0,1,.17.1l0.6,0.53a0.18,0.18,0,0,1,.09.14c0,0.08-.07.09-0.13,0.09H66.86V16a0.45,0.45,0,0,1-.46.35,0.29,0.29,0,0,1-.29-0.37c0-.1,0-1.67,0-2,0-3.13,0-4.26-.07-4.81C66,8.92,66,8.79,66,8.66L66.91,9h2.2Zm-2.31.21v1.8h0.89V9.25H66.8Zm0,2c0,0.25,0,1.44,0,1.71h2.26V11.27H66.8Zm0,1.92c0,0.59,0,.74,0,2.1h0.86v-2.1H66.81Z" transform="translate(-6.56 -5.52)"/><path class="a" d="M76,10.23c-0.25,0-.32-0.15-0.52-0.58A1.78,1.78,0,0,0,75,9a6,6,0,0,1-1.16,1.86l0.51,0h0.55l0.2-.31a0.18,0.18,0,0,1,.12-0.12,0.31,0.31,0,0,1,.17.1l0.36,0.31a0.17,0.17,0,0,1,.09.13,0.11,0.11,0,0,1-.13.1H75v1.19h0.1L75.29,12a0.19,0.19,0,0,1,.13-0.12,0.36,0.36,0,0,1,.16.09L76,12.3a0.17,0.17,0,0,1,.1.13,0.12,0.12,0,0,1-.14.1H75v2.3c0.58-.14,1-0.28,1.29-0.38l0,0.07a17.2,17.2,0,0,1-2.79,1.39c-0.08.15-.11,0.2-0.19,0.2A0.14,0.14,0,0,1,73.23,16l-0.52-.91,0.34,0A7.15,7.15,0,0,0,74.36,15V12.53H73.9a5.42,5.42,0,0,0-1,.05l-0.15-.32c0.54,0,1.17.05,1.27,0.05h0.3V11.13h-0.2l-0.4,0L73.7,11a8.26,8.26,0,0,1-.9.79l0,0a8.31,8.31,0,0,0,1.61-3.51,1.07,1.07,0,0,0,0-.21l0.87,0.5a0.15,0.15,0,0,1,.08.12,0.29,0.29,0,0,1-.26.2v0a1.26,1.26,0,0,1,1.34.91A0.41,0.41,0,0,1,76,10.23Zm-2.25,4.48a0.47,0.47,0,0,1-.41-0.55,5.42,5.42,0,0,0-.12-1.1l0,0a1.66,1.66,0,0,1,.9,1.23A0.41,0.41,0,0,1,73.72,14.72Zm2.68-1.19-0.19.09a9.67,9.67,0,0,1-1,1l0,0a4.37,4.37,0,0,0,.4-1.76l0.83,0.5a0.18,0.18,0,0,1,.07.13A0.09,0.09,0,0,1,76.4,13.53Zm4.77,2.05a1.46,1.46,0,0,0-.92.6c-1-.5-1.73-2.2-1.81-3.53a3.77,3.77,0,0,1-3.13,3.48l0-.05a4.05,4.05,0,0,0,2.4-3.55H77.5a5.15,5.15,0,0,0-1,.06l-0.14-.33c0.51,0,1.07.05,1.33,0.05,0-.44.05-0.77,0.09-1.62H77a6.15,6.15,0,0,1-.83,1.43l-0.05,0a12.05,12.05,0,0,0,.49-2.93s0-.25,0-0.29l0.87,0.33a0.2,0.2,0,0,1,.12.14,0.28,0.28,0,0,1-.2.23,9,9,0,0,1-.29.91h0.72a4.7,4.7,0,0,0-.26-2.34l1.08,0.33c0.08,0,.14,0,0.14.12a0.37,0.37,0,0,1-.2.26c0,0.28,0,1.35-.05,1.63h0.79l0.29-.36A0.22,0.22,0,0,1,79.76,10a0.31,0.31,0,0,1,.17.09l0.51,0.36a0.18,0.18,0,0,1,.1.13c0,0.08-.08.09-0.14,0.09H78.54c0,0.9,0,1-.06,1.63h1.09L80,11.88a0.21,0.21,0,0,1,.13-0.11,0.33,0.33,0,0,1,.17.1l0.51,0.42a0.19,0.19,0,0,1,.09.13,0.11,0.11,0,0,1-.13.1H78.56a4,4,0,0,0,2.63,3Z" transform="translate(-6.56 -5.52)"/><path class="a" d="M84.23,12.27a5.42,5.42,0,0,0-1,.05L83.13,12c0.43,0,.66,0,1.17,0l0.37-.36a0.34,0.34,0,0,1,.15-0.11,0.38,0.38,0,0,1,.17.1L85.4,12a0.16,0.16,0,0,1,.07.13,0.5,0.5,0,0,1-.32.32c0,0.29,0,1.61,0,1.87,0,0.89,1.08,1,2.41,1A12.16,12.16,0,0,0,91,14.89v0.05a2,2,0,0,0-.48,1c-0.25,0-.77,0-1.66,0-2.66,0-3.41-.16-3.93-1.35-0.07.08-.12,0.14-0.52,0.69L84,15.92c0,0.09,0,.25-0.15.25a0.19,0.19,0,0,1-.14-0.12l-0.63-.8a2.74,2.74,0,0,0,1.39-.48V12.27H84.23ZM83.62,8.48c0.5,0.07,1.54.56,1.54,1.24a0.45,0.45,0,0,1-.42.48c-0.36,0-.44-0.27-0.6-0.74a3,3,0,0,0-.56-1Zm4.64,1.3c-0.52.68-.67,0.85-0.76,1H89l0.3-.33a0.21,0.21,0,0,1,.13-0.09,0.21,0.21,0,0,1,.12.06L90,10.72a0.2,0.2,0,0,1,.1.14,0.47,0.47,0,0,1-.28.3V12.3c0,0.3,0,1.79,0,2.12a0.42,0.42,0,0,1-.45.44c-0.28,0-.28-0.16-0.27-0.39H86.79v0.12a0.43,0.43,0,0,1-.45.42A0.28,0.28,0,0,1,86,14.72s0-.08,0-0.2c0-.67.05-1.55,0.05-2.36A10.77,10.77,0,0,0,86,10.36l0.84,0.37h0.42a9,9,0,0,0,.11-1H86.42a5,5,0,0,0-1,.06l-0.15-.33c0.41,0,.86.05,1.27,0.05H88a4.1,4.1,0,0,0,.51-1.51l0.94,0.43a0.19,0.19,0,0,1,.13.12c0,0.13-.16.12-0.36,0.12a11.42,11.42,0,0,1-1,.84h1.28l0.42-.48a0.16,0.16,0,0,1,.3,0l0.59,0.48a0.2,0.2,0,0,1,.09.13c0,0.1-.08.1-0.13,0.1H88.26Zm-2-1.55c0.48,0,1.33.36,1.33,0.89a0.38,0.38,0,0,1-.34.41c-0.25,0-.3-0.13-0.46-0.53a2,2,0,0,0-.53-0.74v0Zm2.92,3.64V11H86.79v0.91h2.39Zm0,1.19v-1H86.79v1h2.39Zm0,1.2v-1H86.79v1h2.39Z" transform="translate(-6.56 -5.52)"/><path class="a" d="M93.41,16.53l-0.09-.12a5.88,5.88,0,0,0,1.61-4.17,5.88,5.88,0,0,0-1.61-4.17l0.09-.12a5.18,5.18,0,0,1,2.13,4.3A5.18,5.18,0,0,1,93.41,16.53Z" transform="translate(-6.56 -5.52)"/><path class="a" d="M36.72,48.64L37,48.49a0.26,0.26,0,0,1,.11,0,0.09,0.09,0,0,1,.07,0l0.29,0.35a0.24,0.24,0,0,1,.06.12,0.28,0.28,0,0,1-.27.16,7.83,7.83,0,0,1-1.11,1.36,3.52,3.52,0,0,1-1.6.93v0a7.41,7.41,0,0,0,1.43-1.31,0.28,0.28,0,0,1-.26-0.17,2.72,2.72,0,0,0-.51-0.63v0a1,1,0,0,1,1,.5,4.75,4.75,0,0,0,.53-0.93H36.11a3.47,3.47,0,0,0-.67,0l-0.1-.23c0.29,0,.59,0,0.88,0h0.5ZM37,51.94a2,2,0,0,1-2,2l0-.06a2,2,0,0,0,1.53-1.89h-0.6a3.83,3.83,0,0,0-.67,0l-0.1-.22c0.37,0,.81,0,0.88,0H36.5s0-.47,0-0.87a2.73,2.73,0,0,0-.48,0L36,50.73c0.37,0,.81,0,0.88,0h1l0.29-.33a0.14,0.14,0,0,1,.09-0.08,0.21,0.21,0,0,1,.12.06l0.41,0.34a0.12,0.12,0,0,1,.06.09c0,0.06,0,.06-0.09.06H38.12c0,0.14,0,.75,0,0.87h0.51l0.27-.37A0.16,0.16,0,0,1,39,51.34a0.21,0.21,0,0,1,.12.07l0.46,0.37a0.13,0.13,0,0,1,.06.09,0.08,0.08,0,0,1-.1.07H38.14c0,0.19,0,1,0,1.17s0,0.15.68,0.15c0.46,0,.52-0.11.57-0.21a7.51,7.51,0,0,0,.31-0.85h0.06a1.74,1.74,0,0,0,.11.85,1.24,1.24,0,0,1,.15.17,0.68,0.68,0,0,1-.23.35,1.24,1.24,0,0,1-.94.19c-1.06,0-1.19-.14-1.21-0.61,0-.15,0-1,0-1.22H37Zm0.62-.15V50.91H37a8.26,8.26,0,0,1,0,.87h0.6Zm1.92-2.45a0.18,0.18,0,0,1,.09.11c0,0.09-.07.09-0.27,0.09l-0.76.3a3.29,3.29,0,0,0,1.88.8v0a1.19,1.19,0,0,0-.64.56,3.39,3.39,0,0,1-1.45-1.08,4.12,4.12,0,0,1-1-1.75l0.07,0a2.86,2.86,0,0,0,.49.79,2.21,2.21,0,0,0,.5-0.91L39,48.65a0.13,0.13,0,0,1,.09.11,0.12,0.12,0,0,1-.13.09H38.85a6.4,6.4,0,0,1-.77.45,5.32,5.32,0,0,0,.42.43A1.83,1.83,0,0,0,39,48.93Z" transform="translate(-6.56 -5.52)"/><path class="a" d="M42.88,51.18c0.11,0,.15.06,0.15,0.11a0.24,0.24,0,0,1-.2.18,2.27,2.27,0,0,1-2.48,2.43v0c1.12-.44,1.91-1,1.91-2.29A2.53,2.53,0,0,0,42.2,51Zm2.06-.5,0.25-.25a0.16,0.16,0,0,1,.09-0.06,0.27,0.27,0,0,1,.11.06l0.49,0.39a0.18,0.18,0,0,1,.07.12c0,0.16-.38.15-0.53,0.15s-0.48.33-.66,0.42l0,0c0-.07.19-0.5,0.25-0.66H41.45a0.75,0.75,0,0,1-.57.9,0.32,0.32,0,0,1-.32-0.33A0.52,0.52,0,0,1,40.85,51a1.21,1.21,0,0,0,.43-0.71h0c0.06,0.2.08,0.31,0.11,0.43h3.52ZM44.87,49l0.25-.32a0.12,0.12,0,0,1,.09-0.07,0.16,0.16,0,0,1,.12.06L45.75,49a0.12,0.12,0,0,1,.06.09,0.08,0.08,0,0,1-.09.07H43.44v0.67h1.07l0.23-.3a0.11,0.11,0,0,1,.09-0.07,0.15,0.15,0,0,1,.12.06l0.39,0.3a0.13,0.13,0,0,1,.06.09,0.08,0.08,0,0,1-.09.07H41.81a3.74,3.74,0,0,0-.67,0L41,49.83c0.38,0,.81,0,0.88,0h1V49.2H41.44a3.78,3.78,0,0,0-.67,0L40.67,49c0.38,0,.82,0,0.89,0h1.38a2.42,2.42,0,0,0-.11-0.86l0.76,0.22a0.1,0.1,0,0,1,.09.09,0.31,0.31,0,0,1-.22.21c0,0.08,0,.14,0,0.35h1.43Zm-0.7,2.09a0.15,0.15,0,0,1,.14.12,0.3,0.3,0,0,1-.2.19c0,0.29,0,.67,0,1.29a1.09,1.09,0,0,0,0,.51,0.29,0.29,0,0,0,.26.07c0.79,0,.87,0,1-0.39,0.06-.18.07-0.25,0.17-0.69h0a1.37,1.37,0,0,0,.22.95C46,53.3,46,53.32,46,53.4a0.49,0.49,0,0,1-.42.39c-0.17,0-1.12,0-1.37,0a0.61,0.61,0,0,1-.67-0.73c0-.26,0-1.42,0-1.68A1,1,0,0,0,43.45,51Z" transform="translate(-6.56 -5.52)"/><path class="a" d="M50,48.91l0.22-.21a0.19,0.19,0,0,1,.11-0.07,0.17,0.17,0,0,1,.12.06L50.73,49a0.22,0.22,0,0,1,.07.12c0,0.06,0,.11-0.23.18,0,0.19,0,.61,0,1.13s0.06,2.42.07,2.65c0,0,0,.26,0,0.29a0.42,0.42,0,0,1-.43.3A0.16,0.16,0,0,1,50,53.45s0-.16,0-0.25H47.88a0.71,0.71,0,0,1,0,.29,0.46,0.46,0,0,1-.39.19,0.16,0.16,0,0,1-.18-0.2s0-.19,0-0.24c0-.91.06-2.43,0.06-3a7.06,7.06,0,0,0-.09-1.64L48,48.91h2Zm-2.08.15v1.88H50V49.06H47.88Zm0,2v2H50v-2H47.88Z" transform="translate(-6.56 -5.52)"/><path class="a" d="M53.52,48.67l0.2-.14a0.45,0.45,0,0,1,.11-0.06,0.22,0.22,0,0,1,.09.06l0.33,0.27a0.18,0.18,0,0,1,.07.11,0.12,0.12,0,0,1-.08.1l-0.14.09c-0.15.27-.58,1-0.83,1.32a1.65,1.65,0,0,1,.94,1.29,0.91,0.91,0,0,1-.94.88,0.87,0.87,0,0,0-.34-0.71v0l0.47,0.06a0.23,0.23,0,0,0,.26-0.27,1.54,1.54,0,0,0-.53-1.18,9.59,9.59,0,0,0,.42-1.66H52.8c0,0.72,0,3.91,0,4.56a0.46,0.46,0,0,1-.06.31,0.44,0.44,0,0,1-.27.12c-0.18,0-.22-0.07-0.22-0.27s0-.19,0-0.29c0-.92,0-2.12,0-3.88a6.39,6.39,0,0,0-.06-1l0.58,0.3h0.66Zm4.13,4.58a1,1,0,0,0-.55.55A2.93,2.93,0,0,1,56,52.65a9.27,9.27,0,0,1-1.92,1L54,53.75a0.11,0.11,0,0,1-.07,0,0.11,0.11,0,0,1-.09-0.08l-0.36-.62,0.31,0A3.42,3.42,0,0,0,54.54,53c0-.51,0-3.86-0.06-4a4.65,4.65,0,0,0-.06-0.54l0.64,0.34h1.3l0.2-.15a0.21,0.21,0,0,1,.1-0.06,0.22,0.22,0,0,1,.11.06l0.27,0.22a0.23,0.23,0,0,1,.08.11,0.38,0.38,0,0,1-.22.19c0,0.2,0,1.18,0,1.4,0,0,0,.42,0,0.48a0.18,0.18,0,0,1-.11.19l0.39,0.32a0.14,0.14,0,0,1,.06.1c0,0.07,0,.08-0.19.09A8.9,8.9,0,0,1,56,52a2.51,2.51,0,0,0,1.65,1.17v0ZM55,48.91v0.86h1.43V48.91H55Zm0,1v0.91h1.43V49.92H55Zm0,2.93,0.91-.27a3.77,3.77,0,0,1-.48-1.6H55v1.87ZM55.53,51a4,4,0,0,0,.41,1,5.66,5.66,0,0,0,.84-0.74,0.45,0.45,0,0,1-.18,0A0.2,0.2,0,0,1,56.42,51H55.53Z" transform="translate(-6.56 -5.52)"/><path class="a" d="M60.87,53.34a2.69,2.69,0,0,1-1,.64l0,0a3.69,3.69,0,0,0,1.41-3.13c0-.42,0-1.45-0.5-1.45a0.88,0.88,0,0,0-.62.65,3.6,3.6,0,0,0-.41,1.47c0,0.1.07,0.53,0.07,0.63a0.2,0.2,0,0,1-.2.24c-0.25,0-.51-0.44-0.51-1.19a9.16,9.16,0,0,1,.11-1.28c0-.13.12-0.73,0.12-0.84a0.63,0.63,0,0,0-.34-0.55,1.18,1.18,0,0,1,.35-0.09,0.62,0.62,0,0,1,.55.48,0.56,0.56,0,0,1-.08.27,3.31,3.31,0,0,0-.37,1.59,1.07,1.07,0,0,0,0,.4,0.08,0.08,0,0,0,.06-0.06c0.32-1,.76-2,1.39-2,0.82,0,.89,1.29.89,1.88A2.92,2.92,0,0,1,60.87,53.34Z" transform="translate(-6.56 -5.52)"/><path class="a" d="M67.23,50.52l0.21-.29a0.14,0.14,0,0,1,.08-0.06,0.24,0.24,0,0,1,.11.07L68,50.55a0.11,0.11,0,0,1,0,.08,0.49,0.49,0,0,1-.23.22,4.21,4.21,0,0,0,0,.43c0,0.3,0,1.64,0,1.92a0.67,0.67,0,0,1-.75.77,0.79,0.79,0,0,0-.56-0.71v0l0.63,0c0.1,0,.16,0,0.16-0.12V52.47H65.54c0,0.15,0,.8,0,0.94s0,0.5-.35.5A0.2,0.2,0,0,1,65,53.68s0-.76,0-0.9c0-.32,0-0.86,0-1.75a5.38,5.38,0,0,1-1.72,1.48l0,0a9.4,9.4,0,0,0,2.12-2.89H64.26a3.09,3.09,0,0,0-.67,0l-0.1-.23c0.38,0,.81,0,0.88,0h1.12a2.21,2.21,0,0,0,.32-1.23l0.81,0.36a0.09,0.09,0,0,1,0,.09c0,0.09-.11.12-0.27,0.17l-0.32.62h1.82l0.3-.37a0.12,0.12,0,0,1,.1-0.07,0.17,0.17,0,0,1,.11.06l0.48,0.37a0.12,0.12,0,0,1,.06.09c0,0.06,0,.07-0.09.07H66a6.09,6.09,0,0,1-.52.87l0.11,0.07h1.65Zm-1.69.15V51.4h1.77V50.67H65.54Zm0,0.88v0.77h1.77V51.55H65.54Z" transform="translate(-6.56 -5.52)"/><path class="a" d="M70.43,50.15A3.84,3.84,0,0,1,69,51.5l0,0a4,4,0,0,0,1-1.88l0.55,0.32a0.12,0.12,0,0,1,.06.09S70.6,50.05,70.43,50.15Zm1.88-.69H69.86a3.1,3.1,0,0,0-.67,0l-0.11-.23c0.38,0,.82,0,0.89,0h0.57a2.8,2.8,0,0,0-.11-1.08l0.74,0.19a0.1,0.1,0,0,1,.08.09,0.11,0.11,0,0,1,0,.07l-0.15.14c0,0.26,0,.37,0,0.59h0.52l0.24-.3a0.14,0.14,0,0,1,.1-0.07A0.25,0.25,0,0,1,72,49l0.32,0.3a0.15,0.15,0,0,1,.06.09A0.08,0.08,0,0,1,72.31,49.46ZM71.58,53a0.4,0.4,0,0,1-.33-0.3A4.45,4.45,0,0,0,70.87,52a3.81,3.81,0,0,1-1.67,1.73l0,0a5.89,5.89,0,0,0,1.37-2.07,3.76,3.76,0,0,0-.78-0.56V51.06a3.24,3.24,0,0,1,.89.32,3.26,3.26,0,0,0,.19-1l0.66,0.26a0.11,0.11,0,0,1,0,.09,0.32,0.32,0,0,1-.19.19c0,0.12-.25.62-0.3,0.72a1.76,1.76,0,0,1,.8,1.07A0.29,0.29,0,0,1,71.58,53ZM72,51a0.32,0.32,0,0,1-.27-0.24,2.88,2.88,0,0,0-.77-1v0c1.18,0.37,1.33.84,1.33,1A0.31,0.31,0,0,1,72,51Zm2.6-.93-0.18.17c0,3-.07,3.55-1.27,3.72a1.26,1.26,0,0,0-.5-0.83l0,0a2.51,2.51,0,0,0,.7.15c0.22,0,.37-0.11.45-0.69A15,15,0,0,0,74,50H73.3c-0.06,1.56-.19,2.95-2.19,4l0,0A4.53,4.53,0,0,0,72.81,50a3.36,3.36,0,0,0-.66,0l-0.1-.23c0.27,0,.4,0,0.77,0a4.2,4.2,0,0,0-.16-1.67l0.78,0.21a0.11,0.11,0,0,1,.1.1,0.11,0.11,0,0,1,0,.07l-0.15.12c0,0.3,0,.85,0,1.17h0.58l0.24-.25a0.12,0.12,0,0,1,.08,0,0.21,0.21,0,0,1,.1.06l0.32,0.25a0.15,0.15,0,0,1,0,.08A0.09,0.09,0,0,1,74.63,50Z" transform="translate(-6.56 -5.52)"/><path class="a" d="M79.53,58.69l0.19-.19a0.2,0.2,0,0,1,.09-0.07l0.11,0.06,0.28,0.2a0.15,0.15,0,0,1,.07.11,0.12,0.12,0,0,1-.06.1L80,59a8.06,8.06,0,0,1-.7.94h0a0.94,0.94,0,0,1,.91.67,0.29,0.29,0,0,1-.29.27,0.34,0.34,0,0,1-.29-0.27A2.38,2.38,0,0,0,79.31,60v0.71c0,0.82,0,1.56,0,2.09a0.31,0.31,0,0,1-.37.34c-0.2,0-.2-0.11-0.2-0.19s0-1.34,0-1.47,0-1,0-1.13a4.64,4.64,0,0,1-1.2.73l0,0a9.16,9.16,0,0,0,1.86-2.25H78.68a3.45,3.45,0,0,0-.67,0l-0.1-.23c0.4,0,.86,0,0.89,0a3.14,3.14,0,0,0-.16-1.23l0.71,0.18a0.13,0.13,0,0,1,.12.1,0.12,0.12,0,0,1,0,.09l-0.14.11c0,0.11,0,.63,0,0.74h0.24Zm3-.74,0.24-.22,0.11-.08a0.19,0.19,0,0,1,.12.07l0.29,0.22a0.14,0.14,0,0,1,.07.1c0,0.06,0,.06-0.09.06H80.89a3.64,3.64,0,0,0-.67,0l-0.1-.23c0.37,0,.81,0,0.88,0h1.53Zm0,2.66,0.2-.23a0.17,0.17,0,0,1,.11-0.07,0.23,0.23,0,0,1,.11,0l0.29,0.21a0.11,0.11,0,0,1,.07.09,1.11,1.11,0,0,1-.19.27c0,0.29,0,1.27,0,1.49,0,0,0,.29,0,0.36a0.3,0.3,0,0,1-.35.25c-0.16,0-.19-0.06-0.18-0.29H80.83c0,0.12,0,.36-0.37.36a0.14,0.14,0,0,1-.15-0.16s0-.11,0-0.13,0-.83,0-1a12.14,12.14,0,0,0-.07-1.6l0.64,0.38h1.64Zm-0.32-1.9,0.18-.17a0.24,0.24,0,0,1,.08-0.06,0.09,0.09,0,0,1,.07,0l0.3,0.23a0.13,0.13,0,0,1,.07.11,0.15,0.15,0,0,1-.07.11L82.75,59c0,0.09,0,.76,0,0.82a0.25,0.25,0,0,1-.09.23,0.5,0.5,0,0,1-.26.09A0.14,0.14,0,0,1,82.27,60s0-.11,0-0.13H81a0.27,0.27,0,0,1-.31.32c-0.13,0-.2,0-0.2-0.24,0-.84,0-1,0-1.58l0.58,0.3h1.15Zm-1.39,2v0.81h0.66V60.76H80.82Zm0,1v0.87h0.66V61.72H80.82ZM81,58.87v0.89h1.22V58.87H81Zm1.6,2.7V60.76H82v0.81h0.69Zm0,1V61.72H82v0.87h0.69Z" transform="translate(-6.56 -5.52)"/><path class="a" d="M86,58.08a7.82,7.82,0,0,1-.38.81l0.09,0.06a0.1,0.1,0,0,1,.06.08,0.13,0.13,0,0,1,0,.07l-0.14.13c0,0.23,0,2.5,0,2.53,0,0.22.06,0.87,0.06,1.05a0.32,0.32,0,0,1-.37.37c-0.21,0-.26-0.07-0.26-0.24s0-.53,0-0.63c0-.42,0-0.44,0-2,0-.35,0-0.38,0-0.69a4.51,4.51,0,0,1-1,.94l0,0a12,12,0,0,0,1.34-2.71,2.33,2.33,0,0,0,.07-0.44l0.63,0.37a0.13,0.13,0,0,1,.08.12A0.29,0.29,0,0,1,86,58.08Zm3.74,4.68H86.55a2.87,2.87,0,0,0-.67,0l-0.11-.23c0.3,0,.59,0,0.89,0h0.75V60.77H87a3,3,0,0,0-.67,0l-0.1-.23c0.29,0,.58,0,0.88,0h0.35V59.08H86.69a3.77,3.77,0,0,0-.67,0l-0.1-.22c0.29,0,.59,0,0.88,0h1.88l0.21-.37a0.17,0.17,0,0,1,.11-0.1,0.28,0.28,0,0,1,.11.07l0.49,0.38a0.13,0.13,0,0,1,.06.09,0.08,0.08,0,0,1-.09.07H87.94v1.54h0.61l0.21-.32a0.14,0.14,0,0,1,.1-0.08,0.2,0.2,0,0,1,.11.06l0.43,0.32a0.14,0.14,0,0,1,.06.09,0.08,0.08,0,0,1-.09.07H87.94v1.85h0.95l0.29-.35a0.16,0.16,0,0,1,.09-0.08,0.21,0.21,0,0,1,.12.07l0.42,0.35a0.13,0.13,0,0,1,.06.09A0.08,0.08,0,0,1,89.78,62.76Zm-2-4c-0.23,0-.27-0.16-0.38-0.53a3,3,0,0,0-.32-0.71l0,0a1.29,1.29,0,0,1,1,.93A0.31,0.31,0,0,1,87.74,58.79Z" transform="translate(-6.56 -5.52)"/><path class="a" d="M90.91,61.37a1.2,1.2,0,0,1,.29.79,0.43,0.43,0,0,1-.36.49,0.23,0.23,0,0,1-.24-0.25,5.67,5.67,0,0,1,.25-0.7,0.91,0.91,0,0,0,0-.3Zm1.67-.81,0.19-.21a0.19,0.19,0,0,1,.11-0.07,0.26,0.26,0,0,1,.12.09l0.29,0.27a0.09,0.09,0,0,1,0,.07,0.32,0.32,0,0,1-.21.19,4.34,4.34,0,0,1-.45,1.8,0.93,0.93,0,0,1-.65.38,0.85,0.85,0,0,0-.5-0.69A0.3,0.3,0,0,1,91.31,62s0-.26,0-0.3a2.38,2.38,0,0,0-.06-0.45l0,0a1.16,1.16,0,0,1,.5.84,0.31,0.31,0,0,1-.14.27,2.71,2.71,0,0,0,.51.06,0.22,0.22,0,0,0,.22-0.19,4.85,4.85,0,0,0,.24-1.52H91.35c0,0.16,0,.33-0.32.33a0.15,0.15,0,0,1-.17-0.18c0-.12,0-0.66,0-0.77s0-.84,0-1.25a10.19,10.19,0,0,0-.06-1.15l0.5,0.26H92.4l0.17-.22a0.14,0.14,0,0,1,.09-0.08,0.27,0.27,0,0,1,.12.07l0.29,0.21a0.12,0.12,0,0,1,.06.09,0.08,0.08,0,0,1-.09.07h-0.8v0.72H92.4l0.13-.19a0.13,0.13,0,0,1,.1-0.08,0.42,0.42,0,0,1,.12.07L93,58.8a0.14,0.14,0,0,1,.07.1C93.07,59,93,59,93,59H92.25V59.7H92.4l0.17-.21a0.15,0.15,0,0,1,.1-0.08,0.18,0.18,0,0,1,.11.07L93,59.69a0.14,0.14,0,0,1,.06.09,0.08,0.08,0,0,1-.09.07H92.25v0.71h0.33Zm-1.24-2.47v0.72h0.46V58.09H91.35Zm0,0.87V59.7h0.46V59H91.35Zm0.46,1.6V59.85H91.35v0.71h0.46Zm-0.1.45a1,1,0,0,1,.54.74A0.23,0.23,0,0,1,92,62c-0.2,0-.21-0.14-0.25-0.48A2.07,2.07,0,0,0,91.69,61ZM92,60.84a0.69,0.69,0,0,1,.51.5,0.2,0.2,0,0,1-.16.22c-0.13,0-.15-0.12-0.23-0.38A0.81,0.81,0,0,0,92,60.87ZM94.8,60a3.54,3.54,0,0,0,1.7,2.58v0a1.15,1.15,0,0,0-.64.43,3.79,3.79,0,0,1-1.18-3H94.06c-0.11,1.75-.56,2.55-1.36,3l0,0c0.79-.92.9-2.15,0.9-3.88a6.86,6.86,0,0,0-.11-1.39L94.15,58h1.17l0.22-.19a0.1,0.1,0,0,1,.08,0,0.16,0.16,0,0,1,.1,0L96,58.11a0.11,0.11,0,0,1,0,.08,0.32,0.32,0,0,1-.19.19c0,0.11,0,.24,0,0.44s0,1.07,0,1.12a0.22,0.22,0,0,1-.07.19,0.47,0.47,0,0,1-.3.11c-0.19,0-.19-0.09-0.18-0.23H94.8Zm0.58-.15V58.18H94.12c0,0.24,0,1.41-.06,1.67h1.31Z" transform="translate(-6.56 -5.52)"/><path class="a" d="M99,57.87l0.23-.15a0.26,0.26,0,0,1,.11,0,0.09,0.09,0,0,1,.07,0l0.29,0.35a0.25,0.25,0,0,1,.06.12,0.28,0.28,0,0,1-.27.16,7.8,7.8,0,0,1-1.11,1.36,3.52,3.52,0,0,1-1.6.93v0a7.43,7.43,0,0,0,1.43-1.31,0.28,0.28,0,0,1-.26-0.17,2.71,2.71,0,0,0-.51-0.63v0a1,1,0,0,1,1,.5A4.69,4.69,0,0,0,99,58H98.37a3.46,3.46,0,0,0-.67,0l-0.1-.23c0.29,0,.59,0,0.88,0H99Zm0.29,3.3a2.05,2.05,0,0,1-2,2l0-.06a2,2,0,0,0,1.53-1.89h-0.6a3.83,3.83,0,0,0-.67,0L97.37,61c0.37,0,.81,0,0.88,0h0.51s0-.47,0-0.87a2.73,2.73,0,0,0-.48,0L98.21,60c0.37,0,.81,0,0.88,0h1l0.29-.33a0.14,0.14,0,0,1,.09-0.08,0.21,0.21,0,0,1,.12.06L101,60a0.12,0.12,0,0,1,.06.09c0,0.06,0,.06-0.09.06h-0.54c0,0.14,0,.75,0,0.87h0.51l0.27-.37a0.17,0.17,0,0,1,.09-0.08,0.21,0.21,0,0,1,.12.07L101.84,61a0.14,0.14,0,0,1,.06.09,0.08,0.08,0,0,1-.1.07h-1.41c0,0.19,0,1,0,1.17s0,0.15.67,0.15c0.46,0,.52-0.11.57-0.21a7.7,7.7,0,0,0,.31-0.85H102a1.74,1.74,0,0,0,.11.85,1.24,1.24,0,0,1,.15.17,0.68,0.68,0,0,1-.23.35,1.23,1.23,0,0,1-.94.19c-1.06,0-1.19-.14-1.21-0.61,0-.15,0-1,0-1.22H99.27ZM99.89,61V60.15H99.3a8.4,8.4,0,0,1,0,.87h0.6Zm1.92-2.45a0.18,0.18,0,0,1,.09.11c0,0.09-.07.09-0.27,0.09l-0.76.3a3.29,3.29,0,0,0,1.88.8v0a1.19,1.19,0,0,0-.64.56,3.39,3.39,0,0,1-1.45-1.08,4.11,4.11,0,0,1-1-1.75l0.07,0a2.85,2.85,0,0,0,.49.79,2.21,2.21,0,0,0,.5-0.91l0.5,0.38a0.13,0.13,0,0,1,.09.11,0.12,0.12,0,0,1-.13.09h-0.09a6.4,6.4,0,0,1-.77.45,5.32,5.32,0,0,0,.42.43,1.83,1.83,0,0,0,.54-0.81Z" transform="translate(-6.56 -5.52)"/><path class="a" d="M105.62,59a0.11,0.11,0,0,1,0,.09,0.08,0.08,0,0,1-.06.08l-0.23,0-0.37.46a0.27,0.27,0,0,1,.14.16,0.1,0.1,0,0,1,0,.06L105,60a13.3,13.3,0,0,0,0,1.42c0,0.19,0,1.13,0,1.35a0.34,0.34,0,0,1-.34.4,0.23,0.23,0,0,1-.22-0.28c0-.11.06-1.1,0.07-1.24,0-.56,0-1.08,0-1.4a3.71,3.71,0,0,1-1.3.87v0A9.35,9.35,0,0,0,104.89,59a3,3,0,0,0,.16-0.39Zm-0.21-1.15a0.16,0.16,0,0,1,.06.1,0.08,0.08,0,0,1-.09.07h-0.19a4.56,4.56,0,0,1-1.85,1.21l0,0a6,6,0,0,0,1.41-1.48,1.74,1.74,0,0,0,.14-0.37Zm2.24,1.83v0c0,0.33,0,2.26,0,2.68a0.65,0.65,0,0,1-.76.7,1.05,1.05,0,0,0-.61-0.71v0c0.11,0,.41,0,0.63,0s0.23-.06.23-0.25c0-.62,0-1.87,0-2.46h-1a3.71,3.71,0,0,0-.67,0l-0.1-.22c0.28,0,.59,0,0.88,0h1.6l0.33-.38c0.06-.07.07-0.07,0.09-0.07a0.24,0.24,0,0,1,.12.06l0.41,0.38a0.13,0.13,0,0,1,.06.09,0.08,0.08,0,0,1-.09.07h-1.15Zm0-1.68,0.27-.32a0.13,0.13,0,0,1,.1-0.08,0.26,0.26,0,0,1,.11.07L108.46,58a0.12,0.12,0,0,1,.06.09,0.07,0.07,0,0,1-.09.06h-1.94a3.54,3.54,0,0,0-.67,0l-0.1-.23a8.29,8.29,0,0,0,.88,0h1Z" transform="translate(-6.56 -5.52)"/><path class="a" d="M39.55,58.33H37.28v1a1.4,1.4,0,0,1,1.38,1.05,0.29,0.29,0,0,1-.28.33A0.47,0.47,0,0,1,38,60.37a2.4,2.4,0,0,0-.73-0.95c0,1.2,0,1.39,0,1.81,0,0.21,0,1.24,0,1.47a0.29,0.29,0,0,1-.11.25A0.44,0.44,0,0,1,37,63a0.18,0.18,0,0,1-.21-0.22c0-.12,0-1.14.05-1.35,0-.41,0-1.63,0-3.13H35.43a2.86,2.86,0,0,0-.6,0l-0.09-.23a6.74,6.74,0,0,0,.79,0h3l0.38-.37a0.21,0.21,0,0,1,.1-0.07,0.21,0.21,0,0,1,.1.07l0.44,0.37a0.13,0.13,0,0,1,.06.09C39.63,58.33,39.58,58.33,39.55,58.33Z" transform="translate(-6.56 -5.52)"/><path class="a" d="M44.71,61.94H42.45l0,1a0.31,0.31,0,0,1-.32.35A0.2,0.2,0,0,1,41.94,63c0-.08,0-0.44,0-0.51V61.94H40.43a2.58,2.58,0,0,0-.6,0l-0.09-.23c0.34,0,.74,0,0.8,0H42V61.11H41a0.29,0.29,0,0,1-.34.35,0.13,0.13,0,0,1-.17-0.14s0-.14,0-0.17,0-.74,0-0.94c0-.39,0-0.9,0-1.1a1.86,1.86,0,0,0-.06-0.33L41,59.1H42V58.43H40.61a2.51,2.51,0,0,0-.6,0l-0.09-.23c0.34,0,.73,0,0.79,0H42a2,2,0,0,0-.12-0.78l0.63,0.15a0.15,0.15,0,0,1,.14.12,0.1,0.1,0,0,1-.06.09,0.25,0.25,0,0,0-.09.11v0.3H43.8L44,57.91a0.15,0.15,0,0,1,.08-0.08,0.2,0.2,0,0,1,.11.07l0.37,0.38a0.12,0.12,0,0,1,.06.09,0.07,0.07,0,0,1-.08.07H42.44c0,0.33,0,.53,0,0.66h0.9l0.22-.21a0.16,0.16,0,0,1,.1-0.07,0.09,0.09,0,0,1,.07,0l0.33,0.3a0.09,0.09,0,0,1,0,.07,0.52,0.52,0,0,1-.2.19c0,0.14,0,.28,0,0.5s0,0.94,0,1.09a0.31,0.31,0,0,1-.31.32c-0.18,0-.18-0.07-0.18-0.16v0h-1c0,0.11,0,.58,0,0.68H43.9l0.27-.37c0.06-.07.06-0.08,0.09-0.08a0.22,0.22,0,0,1,.1.07l0.39,0.37a0.15,0.15,0,0,1,.06.09A0.07,0.07,0,0,1,44.71,61.94ZM42,59.24H41V60h1V59.24Zm0,0.91H41V61h1V60.15Zm1.47-.91h-1V60h1V59.24Zm0,0.91h-1V61h1V60.15Z" transform="translate(-6.56 -5.52)"/><path class="a" d="M49.58,58.79H45.37a2.87,2.87,0,0,0-.6,0l-0.09-.23c0.33,0,.73,0,0.79,0h2a3.4,3.4,0,0,0,.39-1.26l0.6,0.4a0.14,0.14,0,0,1,.07.1c0,0.07-.11.08-0.22,0.09-0.3.32-.33,0.35-0.66,0.68h1.07L49,58.31a0.16,0.16,0,0,1,.09-0.07,0.26,0.26,0,0,1,.11.07l0.41,0.32a0.15,0.15,0,0,1,.06.1A0.07,0.07,0,0,1,49.58,58.79Zm-2.47,1c0,0.27,0,.35,0,1.08,0,0.25,0,1.36,0,1.58s0,0.51-.65.64a1,1,0,0,0-.41-0.67v0a2.57,2.57,0,0,0,.5.06c0.08,0,.09,0,0.09-0.4,0-.2,0-0.24,0-0.59h-1c0,0.32,0,1.07,0,1.32a0.33,0.33,0,0,1-.35.36A0.16,0.16,0,0,1,45.19,63c0-.25,0-0.63,0-0.88,0-.51,0-1.36,0-1.94s0-.88,0-1l0.55,0.3h0.85l0.16-.15a0.17,0.17,0,0,1,.1-0.08,0.17,0.17,0,0,1,.11.07l0.25,0.2a0.14,0.14,0,0,1,.06.1A0.47,0.47,0,0,1,47.11,59.82Zm-0.45-.25h-1v0.8h1v-0.8Zm0,0.95h-1v0.82h1V60.51Zm-0.06-1.9c-0.09,0-.19,0-0.31-0.33a1.47,1.47,0,0,0-.39-0.72v0a1,1,0,0,1,1,.75A0.31,0.31,0,0,1,46.6,58.61Zm1.51,1.28c0,0.16,0,.65,0,0.84s0,1.11,0,1.2a0.3,0.3,0,0,1-.3.27A0.17,0.17,0,0,1,47.62,62c0-.24,0-1.25,0-1.46a6.18,6.18,0,0,0-.07-1.19l0.58,0.2a0.13,0.13,0,0,1,.09.12A0.34,0.34,0,0,1,48.11,59.89ZM49,59.56c0,0.13,0,.24,0,0.42,0,0.72,0,2.05,0,2.24s0,0.22,0,.26a0.66,0.66,0,0,1-.7.67,1.08,1.08,0,0,0-.49-0.69v0a2.85,2.85,0,0,0,.46.06,0.21,0.21,0,0,0,.22-0.08c0-.1,0-2,0-2.15A3.21,3.21,0,0,0,48.52,59l0.56,0.19a0.16,0.16,0,0,1,.12.13A0.35,0.35,0,0,1,49,59.56Z" transform="translate(-6.56 -5.52)"/><path class="a" d="M54.5,63H53.56c-1.74,0-2-.2-2.49-0.92,0,0-.58.66-0.7,0.85a0.19,0.19,0,0,1-.1.18,0.09,0.09,0,0,1-.08-0.06l-0.37-.66a1.8,1.8,0,0,0,.9-0.2,1.92,1.92,0,0,0,0-.27c0-.53,0-1.08,0-1.61H50.53a2.48,2.48,0,0,0-.6,0l-0.1-.23c0.32,0,.68,0,0.85,0l0.18-.22A0.15,0.15,0,0,1,51,59.87a0.14,0.14,0,0,1,.07,0l0.3,0.28a0.14,0.14,0,0,1,.05.09,0.1,0.1,0,0,1,0,.07l-0.16.14c0,0.19,0,.84,0,1a0.82,0.82,0,0,0,.15.6,2,2,0,0,0,1.58.35,5.16,5.16,0,0,0,2-.3l0,0A1.72,1.72,0,0,0,54.5,63Zm-3.36-4.15c-0.2,0-.24-0.13-0.38-0.55a1.22,1.22,0,0,0-.31-0.57v0a1,1,0,0,1,.95.82A0.3,0.3,0,0,1,51.13,58.84ZM54.88,59a0.86,0.86,0,0,0-.5.59A4.33,4.33,0,0,1,52.89,58a4.67,4.67,0,0,1-1.71,1.75v0a6,6,0,0,0,1-1.48,2,2,0,0,0,.32-0.85l0.56,0.34a0.1,0.1,0,0,1,.06.09c0,0.06-.06.08-0.16,0.12a2.79,2.79,0,0,0,1.91,1v0Zm-2.6,2.11a4.68,4.68,0,0,1-.92,1l0,0a4.57,4.57,0,0,0,.6-1.47L52.41,61a0.1,0.1,0,0,1,0,.08C52.44,61.12,52.4,61.13,52.27,61.15Zm2.16-.65H53.1c0,0.25,0,1,0,1a0.76,0.76,0,0,1-.25.66,0.68,0.68,0,0,1-.42.16,0.87,0.87,0,0,0-.37-0.65v0a3.28,3.28,0,0,0,.49,0c0.11,0,.11,0,0.11-0.19v-1H52.14a2.5,2.5,0,0,0-.6,0l-0.1-.23c0.34,0,.74,0,0.8,0h0.41V59.63a3.05,3.05,0,0,0-.66,0l-0.09-.23c0.33,0,.73,0,0.79,0H53.2l0.12-.25a0.13,0.13,0,0,1,.09-0.09,0.17,0.17,0,0,1,.1.06l0.3,0.27a0.14,0.14,0,0,1,.06.09,0.07,0.07,0,0,1-.09.07H53.09c0,0.11,0,.61,0,0.71h0.66l0.18-.27A0.13,0.13,0,0,1,54,60a0.23,0.23,0,0,1,.11.07l0.32,0.27a0.12,0.12,0,0,1,.06.09A0.07,0.07,0,0,1,54.43,60.5Zm-0.25,1.41c-0.16,0-.18,0-0.32-0.31a1.87,1.87,0,0,0-.52-0.7v0a1.62,1.62,0,0,1,.51.15,0.69,0.69,0,0,1,.58.61A0.24,0.24,0,0,1,54.18,61.91Z" transform="translate(-6.56 -5.52)"/><path class="a" d="M54.95,61.41c0.37,0,.76,0,0.81,0V60.07H55.44a3,3,0,0,0-.6,0l-0.09-.22c0.27,0,.53,0,0.8,0h0.22v-1a2.71,2.71,0,0,1-.73.71l0,0a7.14,7.14,0,0,0,.8-1.71,1.21,1.21,0,0,0,0-.44l0.61,0.36a0.08,0.08,0,0,1,0,.08,0.25,0.25,0,0,1-.22.12l-0.24.45h2.36l0.26-.31a0.14,0.14,0,0,1,.09-0.07,0.19,0.19,0,0,1,.11.07l0.33,0.3a0.15,0.15,0,0,1,.06.09,0.07,0.07,0,0,1-.08.07H58.64v1.31h0.27l0.25-.29a0.15,0.15,0,0,1,.09-0.07,0.18,0.18,0,0,1,.1.07l0.32,0.28a0.13,0.13,0,0,1,.06.09,0.07,0.07,0,0,1-.09.07h-1v1.37h0.17l0.23-.3a0.13,0.13,0,0,1,.09-0.07,0.21,0.21,0,0,1,.11.06l0.35,0.3a0.14,0.14,0,0,1,.06.09,0.07,0.07,0,0,1-.08.07H55.64a3,3,0,0,0-.6,0Zm0.75,0.46a1.8,1.8,0,0,1,0,.4,0.72,0.72,0,0,1-.49.84A0.25,0.25,0,0,1,55,62.83a0.37,0.37,0,0,1,.24-0.33,1.08,1.08,0,0,0,.41-0.63H55.7Zm0.49-3.25v1.31h0.41V58.62H56.18Zm0,1.46v1.37h0.41V60.07H56.18Zm0.15,1.82a1.17,1.17,0,0,1,.6.82,0.29,0.29,0,0,1-.26.32c-0.26,0-.26-0.32-0.26-0.43a1.74,1.74,0,0,0-.11-0.66ZM57,58.62v1.31h0.41V58.62H57Zm0,1.46v1.37h0.41V60.07H57Zm0.4,1.82a1,1,0,0,1,.66.78,0.26,0.26,0,1,1-.51,0,1.56,1.56,0,0,0-.18-0.71Zm0.4-3.28v1.31h0.41V58.62H57.82Zm0,1.46v1.37h0.41V60.07H57.82Zm0.66,1.8a1.1,1.1,0,0,1,.88.85,0.29,0.29,0,0,1-.27.32c-0.22,0-.27-0.22-0.32-0.44a1.57,1.57,0,0,0-.31-0.71Z" transform="translate(-6.56 -5.52)"/><path class="a" d="M61,59.38a3.66,3.66,0,0,1-1.27,1.35l0,0a4.12,4.12,0,0,0,.92-1.88l0.5,0.32a0.12,0.12,0,0,1,.06.09S61.12,59.29,61,59.38Zm1.69-.69H60.46a2.53,2.53,0,0,0-.6,0l-0.09-.23c0.34,0,.74,0,0.8,0h0.51a3.09,3.09,0,0,0-.1-1.08l0.66,0.19a0.1,0.1,0,0,1,.07.09,0.12,0.12,0,0,1,0,.07l-0.14.14c0,0.26,0,.37,0,0.59H62l0.21-.3a0.13,0.13,0,0,1,.09-0.07,0.22,0.22,0,0,1,.1.06l0.29,0.3a0.16,0.16,0,0,1,.06.09A0.07,0.07,0,0,1,62.67,58.69ZM62,62.22c-0.08,0-.16,0-0.3-0.3a4.66,4.66,0,0,0-.34-0.64A3.65,3.65,0,0,1,59.86,63l0,0a6,6,0,0,0,1.23-2.07,3.41,3.41,0,0,0-.7-0.56V60.29a2.73,2.73,0,0,1,.8.32,3.58,3.58,0,0,0,.17-1l0.6,0.26a0.11,0.11,0,0,1,0,.09,0.31,0.31,0,0,1-.17.19c0,0.12-.23.62-0.27,0.72a1.74,1.74,0,0,1,.72,1.07A0.27,0.27,0,0,1,62,62.22Zm0.41-2A0.3,0.3,0,0,1,62.18,60a2.87,2.87,0,0,0-.7-1v0c1.06,0.37,1.2.84,1.2,1A0.3,0.3,0,0,1,62.42,60.2Zm2.34-.93-0.16.17c0,3-.06,3.55-1.15,3.72A1.28,1.28,0,0,0,63,62.34l0,0a2.07,2.07,0,0,0,.63.15c0.2,0,.33-0.11.41-0.69a16.75,16.75,0,0,0,.09-2.48h-0.6c-0.06,1.56-.17,2.95-2,4l0,0a4.76,4.76,0,0,0,1.57-3.93,2.74,2.74,0,0,0-.6,0l-0.09-.23a6.55,6.55,0,0,0,.69,0A4.63,4.63,0,0,0,63,57.45l0.7,0.21a0.11,0.11,0,0,1,.1.1,0.11,0.11,0,0,1,0,.07l-0.14.12c0,0.3,0,.85,0,1.17h0.52l0.21-.25a0.11,0.11,0,0,1,.07,0,0.18,0.18,0,0,1,.09.06l0.29,0.25a0.15,0.15,0,0,1,0,.08A0.09,0.09,0,0,1,64.76,59.27Z" transform="translate(-6.56 -5.52)"/><path class="a" d="M87.44,27.25a1.25,1.25,0,0,1-.83.51c-0.29,0-.3-0.21-0.3-0.52a1.26,1.26,0,0,0-.18-0.56c-0.18-.37-0.27-0.54-0.4-0.77v0a5.65,5.65,0,0,0,1,.63,0.32,0.32,0,0,0,.29-0.19,7.48,7.48,0,0,0,.7-2.91c0-1-.34-1.06-0.64-1.06a1.91,1.91,0,0,0-.39,0c-0.54,1.36-1.29,3.17-1.85,4.3a1,1,0,0,1-.65.77A0.43,0.43,0,0,1,83.9,27a1.27,1.27,0,0,1,.4-0.86,16,16,0,0,0,1.75-3.51,9.22,9.22,0,0,0-1.18.65,0.85,0.85,0,0,1-.46.21,1.06,1.06,0,0,1-.75-0.93A0.85,0.85,0,0,1,83.83,22a0.57,0.57,0,0,0,.56.47A2.39,2.39,0,0,0,85,22.43l1.29-.34a5.5,5.5,0,0,0,.34-1.4A0.86,0.86,0,0,0,86,19.9a1.28,1.28,0,0,1,.57-0.19,1.45,1.45,0,0,1,1,.78,1.57,1.57,0,0,1-.32.78c-0.08.16-.21,0.47-0.29,0.69l0.34,0c0.7,0,1.12.4,1.12,1.7A7.36,7.36,0,0,1,87.44,27.25Zm3.67-2.36a0.74,0.74,0,0,1-.45-0.28,3,3,0,0,0-1.27-.43V24.11c0.16,0,.94-0.24,1-0.27a0.2,0.2,0,0,0,.07-0.18,3.84,3.84,0,0,0-1.59-1.86,4.46,4.46,0,0,1,1.25.45,2.56,2.56,0,0,1,1.3,2.14A0.41,0.41,0,0,1,91.11,24.89Z" transform="translate(-6.56 -5.52)"/><path class="a" d="M94.2,27.69c-0.3,0-.49,0-0.65,0V27.59a6.13,6.13,0,0,0,2.51-1,1.77,1.77,0,0,0,.82-1.5,1.14,1.14,0,0,0-1-1.27,3.63,3.63,0,0,0-2.68,1.73l-0.21.36a0.29,0.29,0,0,1-.26.19,0.78,0.78,0,0,1-.52-0.83,2.46,2.46,0,0,1,.06-0.55,14,14,0,0,0,.21-2.22,1.35,1.35,0,0,1,1.24-1.69A3.23,3.23,0,0,0,94,20.7a0.08,0.08,0,0,0,0,0,0.59,0.59,0,0,0-.3-0.3,1.3,1.3,0,0,1-.42-1,2.92,2.92,0,0,0,1.26.73,1.08,1.08,0,0,1,.82,1c0,0.15,0,.38-0.22.38a0.81,0.81,0,0,1-.41-0.15,2.13,2.13,0,0,0-1.06-.25c-0.22,0-.89.07-0.89,0.46a1.13,1.13,0,0,0,.21.56,0.93,0.93,0,0,1,.13.45,2.3,2.3,0,0,1-.15.67,7.13,7.13,0,0,0-.21,1.24c0,0.06,0,.22.11,0.22a6,6,0,0,0,.73-0.48,4.46,4.46,0,0,1,2.3-.77,1.69,1.69,0,0,1,1.79,1.74C97.66,26.58,96.35,27.69,94.2,27.69Z" transform="translate(-6.56 -5.52)"/><path class="a" d="M34.56,42.62a8.33,8.33,0,0,0,5.25-6.11h-5V35.18h5.12v-3h1.4v3h5.24v1.34h-5a7.29,7.29,0,0,0,5.3,6.11L46,44c-3.82-1.7-4.83-4.14-5.26-5.64a9.46,9.46,0,0,1-5.27,5.57Z" transform="translate(-6.56 -5.52)"/><path class="a" d="M56,32.17h1.27V44H56V40.33a14.25,14.25,0,0,1-1.79,1.27L53.89,40A14.82,14.82,0,0,0,56,38.63V32.17ZM55,33.71a13.73,13.73,0,0,1,.67,3L54.49,37a10.51,10.51,0,0,0-.61-2.94Zm10.51-.58a38.22,38.22,0,0,1-7.41.88l-0.34-1.27A27.25,27.25,0,0,0,64.86,32ZM66,38v1.28H64.44v3.63A1.06,1.06,0,0,1,63.19,44h-2L61,42.66h1.8c0.3,0,.35-0.09.35-0.35V39.25H57.87V38h5.24V37.21h1.33V38H66Zm-6.84-3.52A9.16,9.16,0,0,1,60,37l-1.2.3A10.67,10.67,0,0,0,58,34.82Zm0.52,5.1a9.21,9.21,0,0,1,1.62,2.26l-1.17.73a12.26,12.26,0,0,0-1.51-2.27Zm2.11-5.5a8.93,8.93,0,0,1,.68,2.52l-1.31.3a8.74,8.74,0,0,0-.62-2.5Zm4.06,0a29.36,29.36,0,0,1-1.62,3.05l-1.11-.53a24.56,24.56,0,0,0,1.38-3Z" transform="translate(-6.56 -5.52)"/><path class="a" d="M83.74,35.56H80v0.68h4v4.43H80v0.76h5.3v1.16H80V44H78.72V42.58H73.51V41.42h5.21V40.67h-4V36.24h4V35.56H75V35.1H73.81V32.58H85V35.1H83.74v0.45Zm-5-1.8H75.07v0.73h3.65V33.75Zm0,3.51H76V38h2.7V37.26Zm0,1.63H76v0.76h2.7V38.89Zm5-4.4V33.75H80v0.73h3.68Zm-0.92,2.78H80V38h2.76V37.26Zm0,1.63H80v0.76h2.76V38.89Z" transform="translate(-6.56 -5.52)"/><path class="a" d="M101,40.69a4.12,4.12,0,0,1-2.89,2.43L98,43a5.5,5.5,0,0,0,2.16-2.54c-0.72-.28-1.92-1.28-1.82-4A7.45,7.45,0,0,0,97,40.07c0,0.12.06,0.62,0.06,0.71a0.46,0.46,0,0,1-.43.55c-0.34,0-1.22-.53-1.22-3.24,0-.49.15-2.63,0.15-3.06a3.44,3.44,0,0,0-.14-1,1.71,1.71,0,0,1,1.2,1.46,1.74,1.74,0,0,1-.2.72,6.37,6.37,0,0,0-.44,2.1,1.22,1.22,0,0,0,.37,1.06,0.2,0.2,0,0,0,.17-0.18,6.68,6.68,0,0,1,1.85-3.36c0.19-1.45.67-3.19,1.62-3.19a1.74,1.74,0,0,1,1.42,1.65,2.71,2.71,0,0,1,2.82,3A3,3,0,0,1,101,40.69Zm-0.29-5.8A3.87,3.87,0,0,0,98.74,36c-0.13,2.26.88,3.39,1.71,3.63a12.39,12.39,0,0,0,.3-3.1C100.75,35.58,100.66,35,100.66,34.9Zm-0.72-1.63c-0.58,0-1,1.14-1.16,2.25a5.46,5.46,0,0,1,1.82-1C100.59,34.08,100.41,33.27,99.94,33.27Zm2.47,1.82a2.38,2.38,0,0,0-.92-0.27,12.37,12.37,0,0,1,.12,1.86,12.17,12.17,0,0,1-.34,3.11c1.46,0,2-1.51,2-2.59A2.58,2.58,0,0,0,102.42,35.09Z" transform="translate(-6.56 -5.52)"/><path class="a" d="M110.58,40.69a1.05,1.05,0,0,1-.66-0.49,7,7,0,0,0-3.23-.88,1.33,1.33,0,0,0-1.56,1.23C105.14,42,107,42,107.38,42c0.28,0,.67,0,0.89,0l0.65-.06a0.8,0.8,0,0,1,.87.59,0.65,0.65,0,0,1-.75.59c-1.65,0-4.47,0-4.47-2.31,0-1.78,1.7-1.87,2.55-1.87a8.38,8.38,0,0,1,2.47.3h0.12a0.08,0.08,0,0,0,.09-0.08,0.76,0.76,0,0,0-.13-0.32l-1.09-1.68a10,10,0,0,1-2.55.55,1.64,1.64,0,0,1-1.53-1.14,3.26,3.26,0,0,0,1.52.4,5.56,5.56,0,0,0,2.15-.49c-0.13-.23-0.3-0.57-0.64-1.32a6.24,6.24,0,0,1-1.5.35,1.4,1.4,0,0,1-1.37-1,2,2,0,0,0,1.09.3,3.84,3.84,0,0,0,1.51-.31L107,33.84a1.23,1.23,0,0,0-1.2-1l-0.26,0a1,1,0,0,1,1.06-.77,1.47,1.47,0,0,1,1,.31,0.75,0.75,0,0,1,.13.55,4,4,0,0,0,.17,1.24,3.64,3.64,0,0,0,.68-0.46,0.93,0.93,0,0,1,.64-0.37,0.53,0.53,0,0,1,.57.41c0,0.43-1.17,1-1.65,1.15a7.32,7.32,0,0,0,.6,1.25,7.34,7.34,0,0,0,1-.59,0.88,0.88,0,0,1,.63-0.3,0.53,0.53,0,0,1,.59.43,0.58,0.58,0,0,1-.33.44,11.47,11.47,0,0,1-1.42.75c0.2,0.28.79,1.06,1.42,1.83a1.39,1.39,0,0,1,.46,1C111.11,39.9,111,40.69,110.58,40.69Z" transform="translate(-6.56 -5.52)"/><path class="a" d="M46.4,21.09l0.3-.3a0.32,0.32,0,0,1,.14-0.11,0.46,0.46,0,0,1,.17.09l0.46,0.32a0.24,0.24,0,0,1,.12.18,0.2,0.2,0,0,1-.09.16s-0.27.12-.32,0.15A13.08,13.08,0,0,1,46,23.09h0c0.62,0.1,1.46.43,1.46,1.08a0.46,0.46,0,0,1-.47.44,0.55,0.55,0,0,1-.47-0.44A3.82,3.82,0,0,0,46,23.26v1.14c0,1.33,0,2.51,0,3.36a0.49,0.49,0,0,1-.59.55c-0.33,0-.33-0.17-0.33-0.3s0.06-2.15.06-2.36,0-1.6,0-1.81A7.45,7.45,0,0,1,43.36,25l0,0a14.72,14.72,0,0,0,3-3.62H45A5.53,5.53,0,0,0,44,21.4L43.81,21c0.65,0.06,1.38.06,1.42,0.06a5.06,5.06,0,0,0-.26-2l1.15,0.29a0.21,0.21,0,0,1,.19.17,0.19,0.19,0,0,1-.07.14L46,19.9c0,0.17,0,1,0,1.2H46.4Zm4.83-1.2,0.38-.35a1.25,1.25,0,0,1,.17-0.13,0.31,0.31,0,0,1,.2.11l0.46,0.35a0.23,0.23,0,0,1,.11.16c0,0.09-.08.1-0.15,0.1H48.59a5.82,5.82,0,0,0-1.08.07l-0.16-.37c0.6,0.06,1.31.06,1.42,0.06h2.46Zm0,4.28,0.32-.37a0.27,0.27,0,0,1,.18-0.11,0.37,0.37,0,0,1,.18.08l0.47,0.34a0.18,0.18,0,0,1,.11.15,1.79,1.79,0,0,1-.31.43c0,0.46,0,2,0,2.39,0,0.08,0,.47,0,0.58a0.48,0.48,0,0,1-.57.4c-0.26,0-.3-0.1-0.29-0.47H48.49c0,0.19,0,.58-0.6.58a0.22,0.22,0,0,1-.25-0.26c0-.06,0-0.18,0-0.21,0-.23,0-1.33,0-1.55a19.62,19.62,0,0,0-.12-2.58l1,0.61h2.63Zm-0.51-3L51,20.86a0.38,0.38,0,0,1,.13-0.09,0.14,0.14,0,0,1,.11,0l0.49,0.37a0.21,0.21,0,0,1,.11.17,0.24,0.24,0,0,1-.12.18l-0.14.13c0,0.15,0,1.22,0,1.31a0.4,0.4,0,0,1-.14.37,0.8,0.8,0,0,1-.42.14,0.23,0.23,0,0,1-.28-0.23s0-.18,0-0.21h-2a0.43,0.43,0,0,1-.5.52c-0.21,0-.33-0.06-0.33-0.38,0-1.36,0-1.65-.07-2.54l0.94,0.49h1.84Zm-2.24,3.29v1.3h1.06v-1.3H48.48Zm0,1.53v1.4h1.06V26H48.48Zm0.36-4.58v1.43h2V21.37h-2Zm2.58,4.34v-1.3H50.3v1.3h1.12Zm0,1.64V26H50.3v1.4h1.12Z" transform="translate(-6.56 -5.52)"/><path class="a" d="M68.09,20.11a12.26,12.26,0,0,1-.62,1.31l0.14,0.09a0.16,0.16,0,0,1,.1.13,0.21,0.21,0,0,1,0,.12s-0.2.17-.23,0.21c0,0.37,0,4,0,4.08,0,0.35.09,1.4,0.09,1.69a0.52,0.52,0,0,1-.59.6c-0.33,0-.42-0.12-0.42-0.38s0-.86.06-1c0-.68,0-0.71,0-3.18,0-.56,0-0.62,0-1.12a7.32,7.32,0,0,1-1.53,1.5l-0.06,0a19.37,19.37,0,0,0,2.16-4.36A3.68,3.68,0,0,0,67.37,19l1,0.59a0.21,0.21,0,0,1,.13.19A0.47,0.47,0,0,1,68.09,20.11Zm6,7.53H68.92a4.68,4.68,0,0,0-1.08.07l-0.17-.37c0.48,0,.95.06,1.42,0.06H70.3v-3H69.56a4.78,4.78,0,0,0-1.08.07l-0.16-.37c0.47,0,.94.06,1.41,0.06H70.3V21.71H69.12a6.06,6.06,0,0,0-1.08.06l-0.16-.36c0.47,0,.95.06,1.41,0.06h3l0.34-.59a0.27,0.27,0,0,1,.17-0.16,0.46,0.46,0,0,1,.18.11l0.79,0.62a0.2,0.2,0,0,1,.1.15,0.12,0.12,0,0,1-.15.11H71.15v2.48h1l0.34-.51a0.23,0.23,0,0,1,.16-0.13,0.33,0.33,0,0,1,.18.1l0.7,0.52a0.23,0.23,0,0,1,.1.15,0.12,0.12,0,0,1-.15.11H71.15v3h1.52l0.46-.57a0.27,0.27,0,0,1,.15-0.13,0.34,0.34,0,0,1,.19.11l0.68,0.57a0.2,0.2,0,0,1,.1.15A0.12,0.12,0,0,1,74.1,27.64Zm-3.27-6.4c-0.37,0-.44-0.25-0.61-0.86a4.92,4.92,0,0,0-.51-1.14l0.06-.06c0.54,0.24,1.53.68,1.53,1.49A0.49,0.49,0,0,1,70.83,21.24Z" transform="translate(-6.56 -5.52)"/><line class="b" x1="113.8" y1="4.37" x2="124.9" y2="57.16"/><path class="a" d="M123.39,55.74a8,8,0,0,1-2.6,3.31l0,0a12.79,12.79,0,0,0,1.46-2.92,3.24,3.24,0,0,0,.19-1.15l1.1,0.44a0.2,0.2,0,0,1,.18.18C123.68,55.66,123.63,55.67,123.39,55.74Zm1.81-1.94c0,0.41,0,.63,0,1.72,0,1.32,0,2.53,0,3.81a1.21,1.21,0,0,1-.27,1,1.59,1.59,0,0,1-1,.37,1.51,1.51,0,0,0-1-1.19V59.45s0.69,0.05.94,0.05a0.72,0.72,0,0,0,.4-0.07,13.92,13.92,0,0,0,.05-1.51c0-2.93,0-3.43-.08-4.21a1.72,1.72,0,0,0-.14-0.64l1.28,0.3a0.2,0.2,0,0,1,.19.14A0.67,0.67,0,0,1,125.2,53.8Zm2.72,4.85c-0.36,0-.43-0.2-0.74-1a7.23,7.23,0,0,0-1.45-2.34l0-.05c1.12,0.41,2.73,1.71,2.73,2.79A0.57,0.57,0,0,1,127.92,58.65Z" transform="translate(-6.56 -5.52)"/><path class="a" d="M143.35,9.89l0.23-.23a0.25,0.25,0,0,1,.11-0.08,0.35,0.35,0,0,1,.13.07l0.35,0.25a0.18,0.18,0,0,1,.09.14,0.16,0.16,0,0,1-.07.12l-0.25.12a10,10,0,0,1-.87,1.16h0a1.17,1.17,0,0,1,1.13.83,0.36,0.36,0,0,1-.36.34,0.42,0.42,0,0,1-.36-0.34,3,3,0,0,0-.41-0.71v0.88c0,1,0,1.94,0,2.6a0.38,0.38,0,0,1-.45.42c-0.25,0-.25-0.13-0.25-0.23s0-1.66,0-1.83,0-1.24,0-1.4a5.76,5.76,0,0,1-1.5.91l0,0a11.39,11.39,0,0,0,2.31-2.8h-1a4.29,4.29,0,0,0-.83.05l-0.12-.29c0.5,0,1.07,0,1.1,0a3.92,3.92,0,0,0-.2-1.53l0.89,0.22a0.16,0.16,0,0,1,.15.13,0.15,0.15,0,0,1-.05.11L143.05,9c0,0.13,0,.78,0,0.92h0.3ZM147.08,9l0.29-.27a1,1,0,0,1,.13-0.1,0.24,0.24,0,0,1,.15.08L148,8.95a0.18,0.18,0,0,1,.08.12c0,0.07-.06.08-0.12,0.08H145a4.49,4.49,0,0,0-.83.05l-0.12-.29c0.46,0,1,0,1.09,0h1.9Zm0,3.31,0.25-.29a0.21,0.21,0,0,1,.14-0.08,0.28,0.28,0,0,1,.14.06L148,12.23a0.14,0.14,0,0,1,.08.12,1.4,1.4,0,0,1-.24.33c0,0.35,0,1.58,0,1.85,0,0.06,0,.36,0,0.45a0.37,0.37,0,0,1-.44.31c-0.2,0-.23-0.08-0.22-0.36H145c0,0.15,0,.45-0.46.45a0.17,0.17,0,0,1-.19-0.2s0-.14,0-0.16c0-.18,0-1,0-1.2a15.12,15.12,0,0,0-.09-2l0.8,0.47h2Zm-0.39-2.36,0.22-.22a0.3,0.3,0,0,1,.1-0.07,0.11,0.11,0,0,1,.08,0L147.48,10a0.16,0.16,0,0,1,.08.13,0.18,0.18,0,0,1-.09.14l-0.11.1c0,0.12,0,.94,0,1a0.31,0.31,0,0,1-.11.28,0.62,0.62,0,0,1-.32.11,0.18,0.18,0,0,1-.22-0.18s0-.14,0-0.16h-1.53a0.33,0.33,0,0,1-.38.4c-0.16,0-.25,0-0.25-0.29,0-1,0-1.28-.05-2l0.72,0.38h1.43ZM145,12.46v1h0.82v-1H145Zm0,1.19v1.09h0.82V13.65H145Zm0.28-3.54v1.11h1.52V10.1h-1.52Zm2,3.36v-1h-0.86v1h0.86Zm0,1.27V13.65h-0.86v1.09h0.86Z" transform="translate(-6.56 -5.52)"/><path class="a" d="M143.55,24.53a9.45,9.45,0,0,1-.48,1l0.11,0.07a0.12,0.12,0,0,1,.08.1,0.17,0.17,0,0,1,0,.09L143,26c0,0.29,0,3.11,0,3.15,0,0.27.07,1.08,0.07,1.31a0.4,0.4,0,0,1-.46.46,0.26,0.26,0,0,1-.32-0.29c0-.12,0-0.66,0-0.78,0-.52,0-0.55,0-2.46,0-.43,0-0.48,0-0.86a5.67,5.67,0,0,1-1.19,1.16l0,0a14.94,14.94,0,0,0,1.67-3.37,2.76,2.76,0,0,0,.09-0.55l0.79,0.45a0.16,0.16,0,0,1,.1.15A0.37,0.37,0,0,1,143.55,24.53Zm4.65,5.83h-4a3.6,3.6,0,0,0-.83.05l-0.13-.29c0.37,0,.73,0,1.1,0h0.93v-2.3h-0.57a3.69,3.69,0,0,0-.83.05l-0.12-.29c0.36,0,.72,0,1.09,0h0.43V25.77h-0.91a4.66,4.66,0,0,0-.83,0l-0.12-.28c0.36,0,.73,0,1.09,0h2.34l0.26-.46a0.21,0.21,0,0,1,.13-0.12,0.35,0.35,0,0,1,.14.08L148,25.57a0.16,0.16,0,0,1,.08.12,0.1,0.1,0,0,1-.12.08h-2v1.92h0.76l0.26-.39a0.18,0.18,0,0,1,.12-0.1,0.25,0.25,0,0,1,.14.08l0.54,0.4a0.18,0.18,0,0,1,.08.12,0.1,0.1,0,0,1-.12.08h-1.79v2.3h1.18l0.35-.44a0.2,0.2,0,0,1,.12-0.1,0.27,0.27,0,0,1,.15.08l0.52,0.44a0.16,0.16,0,0,1,.08.12A0.1,0.1,0,0,1,148.19,30.35Zm-2.53-4.95c-0.29,0-.34-0.19-0.47-0.66a3.8,3.8,0,0,0-.39-0.88l0,0A1.61,1.61,0,0,1,146,25,0.38,0.38,0,0,1,145.67,25.4Z" transform="translate(-6.56 -5.52)"/><path class="a" d="M143.51,36.39h1.06V31.65H145v4.74h1.06l-1.29,2.19Z" transform="translate(-6.56 -5.52)"/><path class="a" d="M140.13,46.55a5,5,0,0,1-2.74-4c-0.35,2.94-2.13,3.64-3.75,4l0-.07c2.25-1,2.88-2.51,3.13-4.54h-1.9a4.31,4.31,0,0,0-.85.06l-0.13-.29c0.38,0,.75,0,1.13,0h1.77c0-.19,0-0.47,0-0.86a5.1,5.1,0,0,0-.15-1.26l1,0.28a0.14,0.14,0,0,1,.13.11,0.5,0.5,0,0,1-.25.25c0,0.47,0,1-.05,1.49h1.88l0.44-.46a0.25,0.25,0,0,1,.13-0.1,0.34,0.34,0,0,1,.15.09l0.56,0.46a0.17,0.17,0,0,1,.08.12,0.1,0.1,0,0,1-.13.09h-3.11a4.24,4.24,0,0,0,3.62,3.71v0.06A1.44,1.44,0,0,0,140.13,46.55Z" transform="translate(-6.56 -5.52)"/><path class="a" d="M133.75,52.45a2.56,2.56,0,0,0,.43-0.23,9.25,9.25,0,0,0,1.15-1.15l0.08,0a7.08,7.08,0,0,1-.81,1.72c0,0.17,0,.27-0.12.27a0.22,0.22,0,0,1-.14-0.07ZM134,48.72a3,3,0,0,1,.85.42,0.77,0.77,0,0,1,.4.66,0.42,0.42,0,0,1-.43.43c-0.28,0-.34-0.22-0.44-0.6a3,3,0,0,0-.4-0.88Zm2.15-.85a0.2,0.2,0,0,1,.18.17,0.27,0.27,0,0,1-.23.2v2.89c0,0.49.06,3.08,0.06,3.11a0.43,0.43,0,0,1-.51.44,0.23,0.23,0,0,1-.27-0.26c0-.09,0-0.29,0-0.42,0.08-2.48.09-3.68,0.09-4.41a4.68,4.68,0,0,0-.2-2Zm0,0.86c1-.21,3-0.67,3.42-1.13l0.58,0.54a0.19,0.19,0,0,1,.06.12,0.11,0.11,0,0,1-.13.1l-0.22,0a13,13,0,0,1-3.72.47V48.74Zm3.72,2.66,0.31-.44a0.21,0.21,0,0,1,.13-0.1,0.36,0.36,0,0,1,.14.09l0.45,0.44a0.19,0.19,0,0,1,.08.12,0.1,0.1,0,0,1-.12.09h-1.34c0,0.32,0,1.72,0,2a1,1,0,0,1-1.05,1.11,1.26,1.26,0,0,0-.78-0.95V53.69c0.25,0,.89.08,1,0.08s0.21-.06.22-0.26c0-.59,0-1.33,0-1.92H137.3a4.89,4.89,0,0,0-.85,0l-0.13-.28c0.37,0,.74,0,1.12,0h1.48a5.52,5.52,0,0,0-.09-1.28l0.28,0.07a4.5,4.5,0,0,0,.64-1.54L140.41,49a0.23,0.23,0,0,1,.12.17c0,0.11-.1.14-0.22,0.14a14.15,14.15,0,0,1-1.15.88l0.45,0.12c0.13,0,.17.06,0.17,0.13a0.37,0.37,0,0,1-.22.24v0.7h0.36Zm-3.49-2.11a1.28,1.28,0,0,1,1.19,1,0.37,0.37,0,0,1-.38.4c-0.25,0-.31-0.17-0.4-0.46a2.37,2.37,0,0,0-.45-0.87ZM137,51.74a1.39,1.39,0,0,1,1.2,1,0.37,0.37,0,0,1-.39.4c-0.22,0-.34-0.12-0.43-0.51A1.81,1.81,0,0,0,137,51.8Zm0.56-2.9c0.41,0.09,1.25.4,1.25,1a0.4,0.4,0,0,1-.39.4c-0.24,0-.3-0.2-0.39-0.47a2.2,2.2,0,0,0-.5-0.85Z" transform="translate(-6.56 -5.52)"/><path class="a" d="M140.78,61.14H137.6c0,0.17,0,.93,0,1.09s0,0.38-.46.38a0.23,0.23,0,0,1-.25-0.28c0-.07,0-1,0-1.19h-2.13a4.82,4.82,0,0,0-.85,0l-0.13-.28c0.48,0,1,0,1.13,0h2V60.24h-1.19c0,0.24,0,.27-0.15.32a0.77,0.77,0,0,1-.32.09,0.22,0.22,0,0,1-.24-0.18s0-.36,0-0.41c0-.44,0-1,0-1.46,0-.14-0.05-0.78-0.06-0.92L136,58.14h1c0-.37,0-0.61,0-0.77h-1a4,4,0,0,0-.85.05L135,57.14c0.48,0,1,0,1.12,0H137a2.06,2.06,0,0,0-.14-0.91l0.88,0.22a0.14,0.14,0,0,1,.12.11s0,0.07-.21.21v0.37h0.92l0.27-.35a0.14,0.14,0,0,1,.11-0.09,0.41,0.41,0,0,1,.15.08l0.5,0.34a0.15,0.15,0,0,1,.09.12c0,0.08-.07.09-0.13,0.09h-1.91v0.77h1.13l0.28-.27a0.12,0.12,0,0,1,.09,0,0.32,0.32,0,0,1,.13.06l0.45,0.31a0.1,0.1,0,0,1,0,.09,0.5,0.5,0,0,1-.21.26c0,0.18,0,.91,0,1.07s0,0.59,0,.64c0,0.26-.43.32-0.5,0.32s-0.2-.13-0.2-0.32H137.6V61h2l0.35-.44a0.17,0.17,0,0,1,.12-0.09,0.26,0.26,0,0,1,.15.08l0.55,0.44a0.17,0.17,0,0,1,.08.12A0.1,0.1,0,0,1,140.78,61.14Zm-0.43-4.44a2.34,2.34,0,0,0-1,.23l0,0a3.06,3.06,0,0,0,.18-0.71h-4.3a1,1,0,0,1-.78,1.21A0.39,0.39,0,0,1,134,57a0.45,0.45,0,0,1,.29-0.43,1.94,1.94,0,0,0,.78-1h0c0,0.07.06,0.38,0.06,0.44h4.32l0.24-.19a0.19,0.19,0,0,1,.13-0.06,0.21,0.21,0,0,1,.11.07l0.52,0.57a0.19,0.19,0,0,1,.07.14A0.19,0.19,0,0,1,140.35,56.7ZM137,58.33h-1.2V59H137V58.33Zm-1.2.91v0.81H137V59.24h-1.2Zm3.05-.91H137.6V59h1.23V58.33Zm0,0.91H137.6v0.81h1.23V59.24Z" transform="translate(-6.56 -5.52)"/><path class="a" d="M84,53.21a2.77,2.77,0,0,0,3-2.47,1.93,1.93,0,0,1-1.54.64,2.13,2.13,0,0,1-2.35-2.21,2.35,2.35,0,0,1,2.58-2.44,2.59,2.59,0,0,1,2.7,2.9,4.08,4.08,0,0,1-1.17,3,4.63,4.63,0,0,1-3,1.18Zm3.1-3.7c0-1.46-.52-2.36-1.37-2.36s-1.35.78-1.35,2a1.41,1.41,0,0,0,2.43,1.24,1.66,1.66,0,0,0,.27-0.4V49.51Z" transform="translate(-6.56 -5.52)"/><path class="a" d="M94,51a2.94,2.94,0,0,0,1.22-2.33A1.26,1.26,0,0,0,94,47.16a1.84,1.84,0,0,0-1.56,1.31l-0.74-.87a3.6,3.6,0,0,1,2.49-.87c1.49,0,2.38.69,2.38,1.82a2.36,2.36,0,0,1-.87,1.82c-0.14.12-.5,0.4-1.1,0.84L92.9,52.47h3.82l-0.25,1.16H91.83V52.71Z" transform="translate(-6.56 -5.52)"/><path class="a" d="M105.42,50.2c0,2.21-1,3.52-2.71,3.52S100,52.4,100,50.19s1-3.46,2.71-3.46S105.42,48.07,105.42,50.2Zm-4.06,0c0,2,.48,3.09,1.34,3.09S104,52.17,104,50.18s-0.5-3-1.34-3S101.36,48.27,101.36,50.2Z" transform="translate(-6.56 -5.52)"/><path class="a" d="M112,47.72l0.29-.31a0.15,0.15,0,0,1,.09-0.06,0.17,0.17,0,0,1,.09.05l0.4,0.37a0.16,0.16,0,0,1,.06.11,0.4,0.4,0,0,1-.25.24c0,0.58,0,1.57,0,2.89,0,0.36,0,.94,0,1.3s0,0.8-.92.9a1.1,1.1,0,0,0-.61-0.79v0a4.18,4.18,0,0,0,.66.05c0.18,0,.25-0.05.25-0.32,0-.42,0-0.84,0-1.63h-3.83c0,0.16,0,1,0,1s0,1.33,0,1.37a0.36,0.36,0,0,1-.42.38c-0.25,0-.25-0.14-0.25-0.24s0-.47,0-0.55c0-.5,0-3.18,0-3.79a8.17,8.17,0,0,0-.07-1.39l0.77,0.46H112Zm-3.7.16v2.44h1.63V47.88h-1.63Zm3.84,2.44V47.88H110.5v2.44h1.65Z" transform="translate(-6.56 -5.52)"/><path class="a" d="M16.45,58.53l0.82,0,0.29,4.85c-0.63-.51-1.68-1.37-2.9-2.2-1.39-1-2-1.26-2.82-1.21a1.27,1.27,0,0,0-1.3,1.35A2,2,0,0,0,12,62.92L11,63.3a2.44,2.44,0,0,1-1.29-2,2,2,0,0,1,2.07-2.21,3.76,3.76,0,0,1,2.37.75,28.1,28.1,0,0,1,2.47,1.73Z" transform="translate(-6.56 -5.52)"/><path class="a" d="M9.25,50.75l0.87-.05L17,53.8,17,54.72l-6.93-3.16,0.24,3.94-0.82,0Z" transform="translate(-6.56 -5.52)"/><path class="a" d="M15.35,47.15l1.24-.07,0.06,1.09-1.24.07Z" transform="translate(-6.56 -5.52)"/><path class="a" d="M11.9,38l0.73,0L13,43.75l-0.73,0Z" transform="translate(-6.56 -5.52)"/><path class="a" d="M8.79,31.61c0,2.09,1.93,2.68,3.23,2.73a2.29,2.29,0,0,1-1.09-1.77,2.27,2.27,0,0,1,2.28-2.36,2.39,2.39,0,0,1,2.67,2.15c0.06,1-.52,2.54-3.24,2.7C10.6,35.19,8,34.33,8,31.66Zm2.94,1a1.59,1.59,0,0,0,1.67,1.54A1.67,1.67,0,0,0,15,32.44,1.54,1.54,0,0,0,13.31,31,1.47,1.47,0,0,0,11.73,32.6Z" transform="translate(-6.56 -5.52)"/><path class="a" d="M14.14,26.91l1.24-.07,0.07,1.09L14.21,28Z" transform="translate(-6.56 -5.52)"/><path class="a" d="M7.21,16.65l0-.72,7.54-.45,0,0.83-6.53.39,1.07,1.24-0.84.16Z" transform="translate(-6.56 -5.52)"/><path class="a" d="M13.29,5.57l0.82,0,0.29,4.85c-0.63-.51-1.68-1.37-2.9-2.2-1.39-1-2-1.26-2.82-1.21a1.27,1.27,0,0,0-1.3,1.36A2,2,0,0,0,8.79,10l-0.94.38a2.44,2.44,0,0,1-1.29-2A2,2,0,0,1,8.63,6.15,3.76,3.76,0,0,1,11,6.9a28.56,28.56,0,0,1,2.47,1.74Z" transform="translate(-6.56 -5.52)"/></svg>